<?xml version="1.0" encoding="utf-8"?>
<!-- Generator: Adobe Illustrator 26.0.0, SVG Export Plug-In . SVG Version: 6.00 Build 0)  -->
<svg version="1.1" xmlns="http://www.w3.org/2000/svg" xmlns:xlink="http://www.w3.org/1999/xlink" x="0px" y="0px"
	 viewBox="0 0 850 850" style="enable-background:new 0 0 850 850;" xml:space="preserve">
<style type="text/css">
	.st0{display:none;}
	.st1{display:inline;fill:url(#SVGID_1_);}
	.st2{fill:url(#SVGID_00000163774481742170180650000000864848413568487082_);}
	.st3{fill:url(#SVGID_00000123410835962932924240000007128537998363325629_);}
	.st4{display:inline;fill:url(#SVGID_00000008114862542632702980000005633670513874812801_);}
	
		.st5{display:inline;fill:none;stroke:url(#SVGID_00000082370354960473135460000014443186025730398385_);stroke-width:10;stroke-linecap:round;stroke-linejoin:round;stroke-miterlimit:10;}
	
		.st6{fill:none;stroke:url(#SVGID_00000142876805230955883120000002563514285695162275_);stroke-width:10;stroke-linecap:round;stroke-linejoin:round;stroke-miterlimit:10;}
	
		.st7{display:inline;fill-rule:evenodd;clip-rule:evenodd;fill:none;stroke:url(#SVGID_00000124149253218463932400000013040474240216608394_);stroke-width:10;stroke-linecap:round;stroke-linejoin:round;stroke-miterlimit:10;}
	
		.st8{display:inline;fill-rule:evenodd;clip-rule:evenodd;fill:none;stroke:url(#SVGID_00000000904414670954737630000000974931950154923692_);stroke-width:10;stroke-linecap:round;stroke-linejoin:round;stroke-miterlimit:10;}
	
		.st9{display:inline;fill-rule:evenodd;clip-rule:evenodd;fill:none;stroke:url(#SVGID_00000003085203238066831980000000107311082095517353_);stroke-width:10;stroke-linecap:round;stroke-linejoin:round;stroke-miterlimit:10;}
	
		.st10{display:inline;fill-rule:evenodd;clip-rule:evenodd;fill:none;stroke:url(#SVGID_00000090267501108683571550000013730213254180651427_);stroke-width:10;stroke-linecap:round;stroke-linejoin:round;stroke-miterlimit:10;}
	
		.st11{display:inline;fill-rule:evenodd;clip-rule:evenodd;fill:none;stroke:url(#SVGID_00000169544439958286276370000007405802704758375827_);stroke-width:10;stroke-linecap:round;stroke-linejoin:round;stroke-miterlimit:10;}
	
		.st12{display:inline;fill-rule:evenodd;clip-rule:evenodd;fill:none;stroke:url(#SVGID_00000018944594407224107150000005818679558981045406_);stroke-width:10;stroke-linecap:round;stroke-linejoin:round;stroke-miterlimit:10;}
	
		.st13{display:inline;fill-rule:evenodd;clip-rule:evenodd;fill:none;stroke:url(#SVGID_00000172400437170304216760000017565350883722538642_);stroke-width:10;stroke-linecap:round;stroke-linejoin:round;stroke-miterlimit:10;}
	
		.st14{display:inline;fill-rule:evenodd;clip-rule:evenodd;fill:none;stroke:url(#SVGID_00000124142660521372728030000000664860738922570148_);stroke-width:10;stroke-linecap:round;stroke-linejoin:round;stroke-miterlimit:10;}
	
		.st15{display:inline;fill-rule:evenodd;clip-rule:evenodd;fill:none;stroke:url(#SVGID_00000169544422005120723050000003480139848979197874_);stroke-width:10;stroke-linecap:round;stroke-linejoin:round;stroke-miterlimit:10;}
	
		.st16{display:inline;fill-rule:evenodd;clip-rule:evenodd;fill:none;stroke:url(#SVGID_00000105421346550008136100000013076462532478582194_);stroke-width:10;stroke-linecap:round;stroke-linejoin:round;stroke-miterlimit:10;}
	
		.st17{display:inline;fill-rule:evenodd;clip-rule:evenodd;fill:none;stroke:url(#SVGID_00000125586492262619763180000011688142976381309098_);stroke-width:10;stroke-linecap:round;stroke-linejoin:round;stroke-miterlimit:10;}
	
		.st18{display:inline;fill-rule:evenodd;clip-rule:evenodd;fill:none;stroke:url(#SVGID_00000003104495875852473360000013676315905165724814_);stroke-width:10;stroke-linecap:round;stroke-linejoin:round;stroke-miterlimit:10;}
	
		.st19{display:inline;fill-rule:evenodd;clip-rule:evenodd;fill:none;stroke:url(#SVGID_00000164490145443433497870000004815351363916746124_);stroke-width:10;stroke-linecap:round;stroke-linejoin:round;stroke-miterlimit:10;}
	
		.st20{display:inline;fill-rule:evenodd;clip-rule:evenodd;fill:none;stroke:url(#SVGID_00000053527264194254698010000014625801144354728862_);stroke-width:10;stroke-linecap:round;stroke-linejoin:round;stroke-miterlimit:10;}
	
		.st21{display:inline;fill-rule:evenodd;clip-rule:evenodd;fill:none;stroke:url(#SVGID_00000054948598146675978370000008906847060081467049_);stroke-width:10;stroke-linecap:round;stroke-linejoin:round;stroke-miterlimit:10;}
	
		.st22{display:inline;fill-rule:evenodd;clip-rule:evenodd;fill:none;stroke:url(#SVGID_00000014624721125159575880000001125271734874889868_);stroke-width:10;stroke-linecap:round;stroke-linejoin:round;stroke-miterlimit:10;}
	.st23{display:inline;}
	
		.st24{fill:none;stroke:url(#SVGID_00000050645026710304387250000015023493569385983874_);stroke-width:10;stroke-linecap:round;stroke-linejoin:round;}
	
		.st25{fill:none;stroke:url(#SVGID_00000010308518453979784500000005267443709909568156_);stroke-width:10;stroke-linecap:round;stroke-linejoin:round;stroke-dasharray:31.4589,31.4589;}
	
		.st26{fill:none;stroke:url(#SVGID_00000077311997948238875020000013288742408375231395_);stroke-width:10;stroke-linecap:round;stroke-linejoin:round;}
	
		.st27{fill:none;stroke:url(#SVGID_00000047050457483600229620000006912394260314478781_);stroke-width:10;stroke-linecap:round;stroke-linejoin:round;}
	
		.st28{fill:none;stroke:url(#SVGID_00000018925333976792016930000016744115824613640868_);stroke-width:10;stroke-linecap:round;stroke-linejoin:round;stroke-dasharray:31.0087,31.0087;}
	
		.st29{fill:none;stroke:url(#SVGID_00000091017400106250562350000018429235762080068516_);stroke-width:10;stroke-linecap:round;stroke-linejoin:round;}
	
		.st30{fill:none;stroke:url(#SVGID_00000065041495109211298140000001249213695715642020_);stroke-width:10;stroke-linecap:round;stroke-linejoin:round;}
	
		.st31{fill:none;stroke:url(#SVGID_00000047751568944804610450000014960678955895901861_);stroke-width:10;stroke-linecap:round;stroke-linejoin:round;stroke-dasharray:33.7822,33.7822;}
	
		.st32{fill:none;stroke:url(#SVGID_00000119105967608498637300000009684227975410067373_);stroke-width:10;stroke-linecap:round;stroke-linejoin:round;}
	
		.st33{fill:none;stroke:url(#SVGID_00000181063984166051050280000008550443684253056902_);stroke-width:10;stroke-linecap:round;stroke-linejoin:round;}
	
		.st34{fill:none;stroke:url(#SVGID_00000130627696989331520610000003448460971807872931_);stroke-width:10;stroke-linecap:round;stroke-linejoin:round;stroke-dasharray:30.5509,30.5509;}
	
		.st35{fill:none;stroke:url(#SVGID_00000134221977397746910520000006237911922655833786_);stroke-width:10;stroke-linecap:round;stroke-linejoin:round;}
	
		.st36{display:inline;fill-rule:evenodd;clip-rule:evenodd;fill:none;stroke:url(#SVGID_00000059274236364273270390000009512259302182375296_);stroke-width:10;stroke-linecap:round;stroke-linejoin:round;stroke-miterlimit:10;}
	
		.st37{display:inline;fill:none;stroke:url(#SVGID_00000170957069352401004390000015816835800027145911_);stroke-width:10;stroke-linecap:round;stroke-linejoin:round;stroke-miterlimit:10;}
</style>
<g id="Слой_2" class="st0">
	<radialGradient id="SVGID_1_" cx="425" cy="425" r="540" gradientUnits="userSpaceOnUse">
		<stop  offset="0" style="stop-color:#0C4D49"/>
		<stop  offset="1" style="stop-color:#04272E"/>
	</radialGradient>
	<rect x="-115" y="-115" class="st1" width="1080" height="1080"/>
</g>
<g id="Слой_5">
	
		<radialGradient id="SVGID_00000109018030089343564940000013376353944853644988_" cx="562.4985" cy="295.2378" r="517.4299" gradientUnits="userSpaceOnUse">
		<stop  offset="0" style="stop-color:#0F7969"/>
		<stop  offset="0.9932" style="stop-color:#0C4D49"/>
	</radialGradient>
	<circle style="fill:url(#SVGID_00000109018030089343564940000013376353944853644988_);" cx="425" cy="425" r="418"/>
	
		<radialGradient id="SVGID_00000042697966289857800700000005060276201690392756_" cx="600.2574" cy="169.6832" r="602.2391" gradientUnits="userSpaceOnUse">
		<stop  offset="0" style="stop-color:#FAE298"/>
		<stop  offset="0.4912" style="stop-color:#D3AE6F"/>
		<stop  offset="1" style="stop-color:#B78B32"/>
	</radialGradient>
	<path style="fill:url(#SVGID_00000042697966289857800700000005060276201690392756_);" d="M168.9,220.1
		c-12.8-12.3-30.2-19.8-49.3-19.8v-3.9c39.4,0,71.3-31.9,71.3-71.3h3.8c0,19.8,8,37.7,21.1,50.5c0.4,0.4,0.8,0.8,1.2,1.2
		c0.5,0.5,1,0.9,1.5,1.4c12.6,11.3,29.2,18.2,47.5,18.2v3.9c-39.4,0-71.3,31.9-71.3,71.3h-3.8c0-18.9-7.4-36.1-19.4-48.9
		c-0.5-0.5-0.9-1-1.4-1.5C169.7,220.9,169.3,220.5,168.9,220.1z M223,168.8l0.1,0.2c0.2,0.2,0.4,0.4,0.6,0.6l0,0
		c55.4-43.7,125.3-69.8,201.2-69.8c179.4,0,325.3,145.9,325.3,325.3c0,71.2-23,137.2-62,190.8c1.4,1.1,2.7,2.2,4,3.4
		c40.9-56.1,63-123.4,63-194.2c0-88.2-34.4-171.2-96.7-233.5C596.2,129.1,513.2,94.7,425,94.7c-75.3,0-146.7,25-204.8,71.1
		c0.9,1,1.7,1.9,2.6,2.8L223,168.8z M600.2,699c-50.6,32.5-110.7,51.3-175.2,51.3C245.6,750.3,99.7,604.4,99.7,425
		c0-73,24.2-140.5,65-194.9c-0.1-0.2-0.3-0.3-0.4-0.5l-0.1-0.1c-0.4-0.4-0.7-0.8-1.1-1.2c-0.2-0.2-0.4-0.4-0.6-0.6l-0.2-0.2
		l-0.2-0.2c-0.3-0.3-0.7-0.6-1-0.9C118,283.4,94.7,352.4,94.7,425c0,88.2,34.4,171.2,96.7,233.5c62.4,62.4,145.3,96.7,233.5,96.7
		c64.2,0,125.6-18.2,178.3-52.2c-0.6-0.8-1.2-1.5-1.8-2.3C601,700.2,600.6,699.6,600.2,699z M687.4,628.3c-0.5-0.5-1.1-1.1-1.6-1.6
		c-9.1-8.5-21.4-13.7-34.9-13.7c-28.4,0-51.4,23-51.4,51.3c0,9.9,2.8,19.1,7.6,26.9c0.4,0.7,0.8,1.3,1.2,1.9c0.3,0.5,0.7,1,1.1,1.5
		c9.3,12.8,24.4,21.1,41.4,21.1c28.4,0,51.3-23,51.3-51.4c0-13.4-5.2-25.6-13.6-34.7C688.3,629.2,687.8,628.8,687.4,628.3z"/>
</g>
<g id="Стройматериалы" class="st0">
	
		<radialGradient id="SVGID_00000117672831519252262020000018428218949820824709_" cx="425.0002" cy="425" r="204.6293" gradientUnits="userSpaceOnUse">
		<stop  offset="0" style="stop-color:#FAE298"/>
		<stop  offset="1" style="stop-color:#D3AE6F"/>
	</radialGradient>
	<path style="display:inline;fill:url(#SVGID_00000117672831519252262020000018428218949820824709_);" d="M496.7,605.9H353.3v-64.3
		h143.4V605.9z M362.9,596.3h124.2v-45.1H362.9V596.3z M573.8,531.5H430.4v-64.3h143.4V531.5z M440,521.9h124.2v-45.1H440V521.9z
		 M419.6,531.5H276.2v-64.3h143.4V531.5z M285.8,521.9H410v-45.1H285.8V521.9z M650.9,457.1H507.5v-64.3h143.4V457.1z M517.1,447.5
		h124.2v-45.1H517.1V447.5z M496.7,457.1H353.3v-64.3h143.4V457.1z M362.9,447.5h124.2v-45.1H362.9V447.5z M342.5,457.1H199.1v-64.3
		h143.4V457.1z M208.7,447.5h124.2v-45.1H208.7V447.5z M573.8,382.7H430.4v-64.3h143.4V382.7z M440,373.1h124.2v-45.1H440V373.1z
		 M419.6,382.7H276.2v-64.3h143.4V382.7z M285.8,373.1H410v-45.1H285.8V373.1z M496.7,308.4H353.3v-64.3h143.4V308.4z M362.9,298.8
		h124.2v-45.1H362.9V298.8z"/>
</g>
<g id="Слой_3" class="st0">
	
		<radialGradient id="SVGID_00000097464961311745712320000011087975644750132116_" cx="425" cy="425" r="214.2164" gradientUnits="userSpaceOnUse">
		<stop  offset="0" style="stop-color:#FAE298"/>
		<stop  offset="1" style="stop-color:#D3AE6F"/>
	</radialGradient>
	
		<path style="display:inline;fill:none;stroke:url(#SVGID_00000097464961311745712320000011087975644750132116_);stroke-width:10;stroke-linecap:round;stroke-linejoin:round;stroke-miterlimit:10;" d="
		M547,425c0,67.4-54.6,122-122,122s-122-54.6-122-122s54.6-122,122-122S547,357.6,547,425z M437.2,336.9l-78.1,100.5h58l-8.6,76
		l81.9-102.6h-57.6L437.2,336.9z M425.8,267.5v-51.7 M504.4,289l25.9-44.8 M606.6,321.1l-44.8,25.9 M582.5,425.8h51.7 M561,504.4
		l44.8,25.9 M503.1,561.8l25.9,44.8 M424.2,582.5v51.7 M345.6,561l-25.9,44.8 M288.2,503.1l-44.8,25.9 M267.5,424.2h-51.7
		 M244.2,319.7l44.8,25.9 M346.9,288.2l-25.9-44.8"/>
</g>
<g id="Слой_6">
	
		<radialGradient id="SVGID_00000034090210480763584330000007425277075517416628_" cx="425" cy="425" r="220.8911" gradientUnits="userSpaceOnUse">
		<stop  offset="0" style="stop-color:#FAE298"/>
		<stop  offset="1" style="stop-color:#D3AE6F"/>
	</radialGradient>
	
		<path style="fill:none;stroke:url(#SVGID_00000034090210480763584330000007425277075517416628_);stroke-width:10;stroke-linecap:round;stroke-linejoin:round;stroke-miterlimit:10;" d="
		M551.3,425c0,69.8-56.6,126.3-126.3,126.3S298.7,494.8,298.7,425S355.2,298.7,425,298.7S551.3,355.2,551.3,425z M414.5,640.9v-65.6
		c-19.8-1.4-38.5-6.6-55.5-14.8l-32.8,56.8C352.8,631,382.8,639.4,414.5,640.9z M289.5,491c-8.3-17-13.5-35.7-14.8-55.5h-65.6
		c1.5,31.7,9.9,61.6,23.6,88.3L289.5,491z M209.1,414.5h65.6c1.4-19.8,6.6-38.5,14.8-55.5l-56.8-32.8
		C219,352.8,210.6,382.8,209.1,414.5z M491,560.5c-17,8.3-35.7,13.5-55.5,14.8v65.6c31.7-1.5,61.6-9.9,88.3-23.6L491,560.5z
		 M435.5,209.1v65.6c19.8,1.4,38.5,6.6,55.5,14.8l32.8-56.8C497.2,219,467.2,210.6,435.5,209.1z M359,289.5
		c17-8.3,35.7-13.5,55.5-14.8v-65.6c-31.7,1.5-61.6,9.9-88.3,23.6L359,289.5z M509.3,300.1c16,10.8,29.8,24.6,40.6,40.6l56.8-32.8
		c-16.7-25.9-38.8-47.9-64.6-64.6L509.3,300.1z M549.9,509.3c-10.8,16-24.6,29.8-40.6,40.6l32.8,56.8c25.9-16.7,47.9-38.8,64.6-64.6
		L549.9,509.3z M340.7,549.9c-16-10.8-29.8-24.6-40.6-40.6l-56.8,32.8c16.7,25.9,38.8,47.9,64.6,64.6L340.7,549.9z M300.1,340.7
		c10.8-16,24.6-29.8,40.6-40.6l-32.8-56.8c-25.9,16.7-47.9,38.8-64.6,64.6L300.1,340.7z M640.9,435.5h-65.6
		c-1.4,19.8-6.6,38.5-14.8,55.5l56.8,32.8C631,497.2,639.4,467.2,640.9,435.5z M560.5,359c8.3,17,13.5,35.7,14.8,55.5h65.6
		c-1.5-31.7-9.9-61.6-23.6-88.3L560.5,359z M432.8,410.8h57.6l-81.9,102.6l8.6-76h-58l78.1-100.5L432.8,410.8z"/>
</g>
<g id="Слой_8" class="st0">
	
		<radialGradient id="SVGID_00000016768463802703857640000000091017051952152492_" cx="425" cy="425" r="173.4177" gradientUnits="userSpaceOnUse">
		<stop  offset="0" style="stop-color:#FAE298"/>
		<stop  offset="1" style="stop-color:#D3AE6F"/>
	</radialGradient>
	
		<path style="display:inline;fill-rule:evenodd;clip-rule:evenodd;fill:none;stroke:url(#SVGID_00000016768463802703857640000000091017051952152492_);stroke-width:10;stroke-linecap:round;stroke-linejoin:round;stroke-miterlimit:10;" d="
		M269.6,266.2c9.8-4.6,21.6-4.5,31.7,1.3c10.1,5.8,16.1,15.9,17.1,26.7c-9.8,4.6-21.6,4.5-31.7-1.3S270.6,276.9,269.6,266.2z
		 M367,266.2c-9.8-4.6-21.6-4.5-31.7,1.3s-16.1,15.9-17.1,26.7c9.8,4.6,21.6,4.5,31.7-1.3C360.1,287.1,366.1,276.9,367,266.2z
		 M318.3,333.9v-41.2 M356.9,333.9h-77.1v220.6h77.1V333.9z M397,340.1c10.1,5.8,21.9,5.9,31.7,1.3c-1-10.8-7-20.9-17.1-26.7
		c-10.1-5.8-21.9-5.9-31.7-1.3C380.9,324.2,386.9,334.3,397,340.1z M477.3,313.4c-9.8-4.6-21.6-4.5-31.7,1.3
		c-10.1,5.8-16.1,15.9-17.1,26.7c9.8,4.6,21.6,4.5,31.7-1.3S476.4,324.2,477.3,313.4z M428.6,381.2V340 M467.2,383.4h-77.1v171.1
		h77.1V383.4z M507.3,292.9c10.1,5.8,21.9,5.9,31.7,1.3c-1-10.8-7-20.9-17.1-26.7c-10.1-5.8-21.9-5.9-31.7-1.3
		C491.2,276.9,497.2,287.1,507.3,292.9z M587.7,266.2c-9.8-4.6-21.6-4.5-31.7,1.3s-16.1,15.9-17.1,26.7c9.8,4.6,21.6,4.5,31.7-1.3
		C580.7,287.1,586.7,276.9,587.7,266.2z M538.9,333.9v-41.2 M577.5,333.9h-77.1v220.6h77.1V333.9z M599.5,554.6h-349v32.5h349V554.6
		z M305.5,360.6v22.8 M305.5,407.3v22.8 M305.5,454v22.8 M305.5,500.7v22.8 M331.2,360.6v22.8 M331.2,407.3v22.8 M331.2,454v22.8
		 M331.2,500.7v22.8 M415.8,407.3v22.8 M415.8,454v22.8 M415.8,500.7v22.8 M441.5,407.3v22.8 M441.5,454v22.8 M441.5,500.7v22.8
		 M526.1,360.6v22.8 M526.1,407.3v22.8 M526.1,454v22.8 M526.1,500.7v22.8 M551.8,360.6v22.8 M551.8,407.3v22.8 M551.8,454v22.8
		 M551.8,500.7v22.8"/>
</g>
<g id="Слой_9" class="st0">
	
		<radialGradient id="SVGID_00000142881741820574487940000001946314760213139862_" cx="425" cy="425" r="153.2837" gradientUnits="userSpaceOnUse">
		<stop  offset="0" style="stop-color:#FAE298"/>
		<stop  offset="1" style="stop-color:#D3AE6F"/>
	</radialGradient>
	
		<path style="display:inline;fill-rule:evenodd;clip-rule:evenodd;fill:none;stroke:url(#SVGID_00000142881741820574487940000001946314760213139862_);stroke-width:10;stroke-linecap:round;stroke-linejoin:round;stroke-miterlimit:10;" d="
		M603.6,314.7H246.4v220.6h357.1V314.7z M272.1,341.4v22.8 M272.1,388.1v22.8 M272.1,434.7v22.8 M272.1,481.4v22.8 M297.8,341.4
		v22.8 M297.8,388.1v22.8 M297.8,434.7v22.8 M297.8,481.4v22.8 M327.7,341.4v22.8 M327.7,388.1v22.8 M327.7,434.7v22.8 M327.7,481.4
		v22.8 M353.4,341.4v22.8 M353.4,388.1v22.8 M353.4,434.7v22.8 M353.4,481.4v22.8 M383.3,341.4v22.8 M383.3,388.1v22.8 M383.3,434.7
		v22.8 M383.3,481.4v22.8 M409,341.4v22.8 M409,388.1v22.8 M409,434.7v22.8 M438.9,341.4v22.8 M438.9,388.1v22.8 M438.9,434.7v22.8
		 M464.5,341.4v22.8 M464.5,388.1v22.8 M464.5,434.7v22.8 M464.5,481.4v22.8 M494.4,341.4v22.8 M494.4,388.1v22.8 M494.4,434.7v22.8
		 M494.4,481.4v22.8 M520.1,341.4v22.8 M520.1,388.1v22.8 M520.1,434.7v22.8 M520.1,481.4v22.8 M550,341.4v22.8 M550,388.1v22.8
		 M550,434.7v22.8 M550,481.4v22.8 M575.7,341.4v22.8 M575.7,388.1v22.8 M575.7,434.7v22.8 M575.7,481.4v22.8 M441.7,535.3h-35.6
		v-53.9h35.6V535.3z"/>
</g>
<g id="Слой_10" class="st0">
	
		<radialGradient id="SVGID_00000099663098402885148270000010227663100659941007_" cx="394.5125" cy="425.5" r="171.107" gradientUnits="userSpaceOnUse">
		<stop  offset="0" style="stop-color:#FAE298"/>
		<stop  offset="1" style="stop-color:#D3AE6F"/>
	</radialGradient>
	
		<path style="display:inline;fill-rule:evenodd;clip-rule:evenodd;fill:none;stroke:url(#SVGID_00000099663098402885148270000010227663100659941007_);stroke-width:10;stroke-linecap:round;stroke-linejoin:round;stroke-miterlimit:10;" d="
		M546.6,306.1h-59.7v-59.7h59.7V306.1z M546.6,306.1h-59.7v59.7h59.7V306.1z M546.6,365.8h-59.7v59.7h59.7V365.8z M546.6,425.5
		h-59.7v59.7h59.7V425.5z M546.6,485.2h-59.7v59.7h59.7V485.2z M546.6,544.9h-59.7v59.7h59.7V544.9z M412.1,487
		c15.9-17.2,25.7-40.3,25.7-65.6s-9.7-48.4-25.7-65.6 M460.3,295.1c-8.9,0.4-17.8,3.9-24.6,10.8s-10.4,15.7-10.8,24.6 M461.1,258.2
		c-18.3,0.7-36.3,8.1-50.3,22s-21.3,32-22,50.3 M425,512.4c0.4,8.9,3.9,17.8,10.8,24.6s15.7,10.4,24.6,10.8 M388.8,512.4
		c0.7,18.3,8.1,36.3,22,50.3s32,21.3,50.3,22 M391.4,466.3c10.9-11.8,17.6-27.6,17.6-44.9c0-17.3-6.7-33.1-17.6-44.9 M369.7,446
		c6-6.4,9.6-15.1,9.6-24.5s-3.6-18.1-9.6-24.5 M332.4,396.2v45.6c12.6,0,22.8-10.2,22.8-22.8S345,396.2,332.4,396.2z M279.9,402.1
		h-37.5v34.4h37.8l52.1,71.2v-71.2v-34.9v-71.2L279.9,402.1z"/>
</g>
<g id="Слой_11" class="st0">
	
		<radialGradient id="SVGID_00000114048059567338351030000009654739897257656245_" cx="425" cy="425" r="153.1683" gradientUnits="userSpaceOnUse">
		<stop  offset="0" style="stop-color:#FAE298"/>
		<stop  offset="1" style="stop-color:#D3AE6F"/>
	</radialGradient>
	
		<path style="display:inline;fill-rule:evenodd;clip-rule:evenodd;fill:none;stroke:url(#SVGID_00000114048059567338351030000009654739897257656245_);stroke-width:10;stroke-linecap:round;stroke-linejoin:round;stroke-miterlimit:10;" d="
		M508.9,573.2H341V317.7h168V573.2z M424.9,317.7v255.5 M306.6,414.7c-6,0-10.8,4.8-10.8,10.8s4.8,10.8,10.8,10.8
		s10.8-4.8,10.8-10.8S312.5,414.7,306.6,414.7z M306.6,455.4c-6,0-10.8,4.8-10.8,10.8s4.8,10.8,10.8,10.8s10.8-4.8,10.8-10.8
		S312.5,455.4,306.6,455.4z M573.2,276.8H276.8v296.3h296.3V276.8z"/>
</g>
<g id="Слой_12" class="st0">
	
		<radialGradient id="SVGID_00000044150303730081585190000004777645560042996874_" cx="425" cy="425" r="158.4557" gradientUnits="userSpaceOnUse">
		<stop  offset="0" style="stop-color:#FAE298"/>
		<stop  offset="1" style="stop-color:#D3AE6F"/>
	</radialGradient>
	
		<path style="display:inline;fill-rule:evenodd;clip-rule:evenodd;fill:none;stroke:url(#SVGID_00000044150303730081585190000004777645560042996874_);stroke-width:10;stroke-linecap:round;stroke-linejoin:round;stroke-miterlimit:10;" d="
		M354.9,296c35.6,0,35.9,51.4,0,51.4c-15.6,0-19.9,0-19.9,0v38.9h-21V296C314,296,331.7,296,354.9,296z M362.4,321.7L362.4,321.7
		c0-4.5-3.6-8.1-8.1-8.1h-19.5v16.2h19.5C358.8,329.9,362.4,326.2,362.4,321.7z M414.4,393.4V288.8c0-11.5-9.4-20.9-20.9-20.9h-97.3
		c-11.5,0-20.9,9.4-20.9,20.9v104.6c0,11.5,9.4,20.9,20.9,20.9h97.3C405,414.3,414.4,405,414.4,393.4z M574.7,393.4V288.8
		c0-11.5-9.4-20.9-20.9-20.9h-97.3c-11.5,0-20.9,9.4-20.9,20.9v104.6c0,11.5,9.4,20.9,20.9,20.9h97.3
		C565.4,414.3,574.7,405,574.7,393.4z M414.4,561.2V456.6c0-11.5-9.4-20.9-20.9-20.9h-97.3c-11.5,0-20.9,9.4-20.9,20.9v104.6
		c0,11.5,9.4,20.9,20.9,20.9h97.3C405,582.1,414.4,572.7,414.4,561.2z M574.7,561.2V456.6c0-11.5-9.4-20.9-20.9-20.9h-97.3
		c-11.5,0-20.9,9.4-20.9,20.9v104.6c0,11.5,9.4,20.9,20.9,20.9h97.3C565.4,582.1,574.7,572.7,574.7,561.2z M307.8,545.9l74.6-74.6
		 M307.8,515.4l30.7,30.7 M353.8,469.5l30.7,30.7 M302.6,530.8l20.6,20.6 M370.9,466.1l16.9,16.9 M553.6,296H535l-0.4,28.9h-63.2
		c0,0-0.7,31.9,30.9,31.9s32.3-31.9,32.3-31.9 M487.6,367.3c-4.8,0-8.6,3.9-8.6,8.6s3.9,8.6,8.6,8.6s8.6-3.9,8.6-8.6
		S492.3,367.3,487.6,367.3z M518.8,367.3c-4.8,0-8.6,3.9-8.6,8.6s3.9,8.6,8.6,8.6s8.6-3.9,8.6-8.6S523.5,367.3,518.8,367.3z
		 M505.2,565.1v-13.8 M505.2,533.7V520 M505.2,502.4v-13.8 M505.2,471v-13.8 M524.5,457.2l26.1,111.2 M485.5,457.2l-26.1,111.2"/>
</g>
<g id="Слой_13" class="st0">
	
		<radialGradient id="SVGID_00000117641095529992248510000016302540665628468614_" cx="430.5204" cy="311.8474" r="37.8999" gradientUnits="userSpaceOnUse">
		<stop  offset="0" style="stop-color:#FAE298"/>
		<stop  offset="1" style="stop-color:#D3AE6F"/>
	</radialGradient>
	
		<circle style="display:inline;fill-rule:evenodd;clip-rule:evenodd;fill:none;stroke:url(#SVGID_00000117641095529992248510000016302540665628468614_);stroke-width:10;stroke-linecap:round;stroke-linejoin:round;stroke-miterlimit:10;" cx="430.5" cy="311.8" r="32.9"/>
	
		<radialGradient id="SVGID_00000098916595710996765870000005159634226440204439_" cx="430.5204" cy="499.1985" r="247.5089" gradientTransform="matrix(1 0 0 0.36 0 291.7331)" gradientUnits="userSpaceOnUse">
		<stop  offset="0" style="stop-color:#FAE298"/>
		<stop  offset="1" style="stop-color:#D3AE6F"/>
	</radialGradient>
	
		<path style="display:inline;fill-rule:evenodd;clip-rule:evenodd;fill:none;stroke:url(#SVGID_00000098916595710996765870000005159634226440204439_);stroke-width:10;stroke-linecap:round;stroke-linejoin:round;stroke-miterlimit:10;" d="
		M472.2,384.5c114.6,7.1,201.7,43.1,201.7,86.3c0,48.4-109,87.6-243.4,87.6s-243.4-39.2-243.4-87.6c0-43.2,86.7-79,200.8-86.3"/>
	
		<radialGradient id="SVGID_00000152972373940439849960000008717900789222614933_" cx="430.5204" cy="350.004" r="93.7238" gradientUnits="userSpaceOnUse">
		<stop  offset="0" style="stop-color:#FAE298"/>
		<stop  offset="1" style="stop-color:#D3AE6F"/>
	</radialGradient>
	
		<path style="display:inline;fill-rule:evenodd;clip-rule:evenodd;fill:none;stroke:url(#SVGID_00000152972373940439849960000008717900789222614933_);stroke-width:10;stroke-linecap:round;stroke-linejoin:round;stroke-miterlimit:10;" d="
		M498.2,311.8c0,55.7-49.9,94.8-67.7,144c-17.4-47.8-67.7-85-67.7-144c0-37.4,30.3-67.7,67.7-67.7S498.2,274.5,498.2,311.8z"/>
	
		<radialGradient id="SVGID_00000070815588385798327180000005269411198394664072_" cx="272.1187" cy="349.9516" r="12.3466" gradientUnits="userSpaceOnUse">
		<stop  offset="0" style="stop-color:#FAE298"/>
		<stop  offset="1" style="stop-color:#D3AE6F"/>
	</radialGradient>
	
		<circle style="display:inline;fill-rule:evenodd;clip-rule:evenodd;fill:none;stroke:url(#SVGID_00000070815588385798327180000005269411198394664072_);stroke-width:10;stroke-linecap:round;stroke-linejoin:round;stroke-miterlimit:10;" cx="272.1" cy="350" r="7.3"/>
	
		<radialGradient id="SVGID_00000082328335551173199410000007405775700328821918_" cx="272.1187" cy="363.7075" r="36.9249" gradientUnits="userSpaceOnUse">
		<stop  offset="0" style="stop-color:#FAE298"/>
		<stop  offset="1" style="stop-color:#D3AE6F"/>
	</radialGradient>
	
		<path style="display:inline;fill-rule:evenodd;clip-rule:evenodd;fill:none;stroke:url(#SVGID_00000082328335551173199410000007405775700328821918_);stroke-width:10;stroke-linecap:round;stroke-linejoin:round;stroke-miterlimit:10;" d="
		M296.5,350c0,20.1-18,34.2-24.4,51.9c-6.3-17.2-24.4-30.6-24.4-51.9c0-13.5,10.9-24.4,24.4-24.4C285.6,325.6,296.5,336.5,296.5,350
		z"/>
	
		<radialGradient id="SVGID_00000016058575421085461440000002975165886050447749_" cx="247.7181" cy="471.9406" r="12.3466" gradientUnits="userSpaceOnUse">
		<stop  offset="0" style="stop-color:#FAE298"/>
		<stop  offset="1" style="stop-color:#D3AE6F"/>
	</radialGradient>
	
		<circle style="display:inline;fill-rule:evenodd;clip-rule:evenodd;fill:none;stroke:url(#SVGID_00000016058575421085461440000002975165886050447749_);stroke-width:10;stroke-linecap:round;stroke-linejoin:round;stroke-miterlimit:10;" cx="247.7" cy="471.9" r="7.3"/>
	
		<radialGradient id="SVGID_00000083063713772039245600000013618013573536111748_" cx="247.7181" cy="485.6966" r="36.9249" gradientUnits="userSpaceOnUse">
		<stop  offset="0" style="stop-color:#FAE298"/>
		<stop  offset="1" style="stop-color:#D3AE6F"/>
	</radialGradient>
	
		<path style="display:inline;fill-rule:evenodd;clip-rule:evenodd;fill:none;stroke:url(#SVGID_00000083063713772039245600000013618013573536111748_);stroke-width:10;stroke-linecap:round;stroke-linejoin:round;stroke-miterlimit:10;" d="
		M272.1,471.9c0,20.1-18,34.2-24.4,51.9c-6.3-17.2-24.4-30.6-24.4-51.9c0-13.5,10.9-24.4,24.4-24.4
		C261.2,447.5,272.1,458.5,272.1,471.9z"/>
	
		<radialGradient id="SVGID_00000131360798096700987080000007795640675538914176_" cx="570.0989" cy="346.4753" r="12.3466" gradientUnits="userSpaceOnUse">
		<stop  offset="0" style="stop-color:#FAE298"/>
		<stop  offset="1" style="stop-color:#D3AE6F"/>
	</radialGradient>
	
		<circle style="display:inline;fill-rule:evenodd;clip-rule:evenodd;fill:none;stroke:url(#SVGID_00000131360798096700987080000007795640675538914176_);stroke-width:10;stroke-linecap:round;stroke-linejoin:round;stroke-miterlimit:10;" cx="570.1" cy="346.5" r="7.3"/>
	
		<radialGradient id="SVGID_00000017493316449273502910000005708206193696871588_" cx="570.0989" cy="360.2312" r="36.9249" gradientUnits="userSpaceOnUse">
		<stop  offset="0" style="stop-color:#FAE298"/>
		<stop  offset="1" style="stop-color:#D3AE6F"/>
	</radialGradient>
	
		<path style="display:inline;fill-rule:evenodd;clip-rule:evenodd;fill:none;stroke:url(#SVGID_00000017493316449273502910000005708206193696871588_);stroke-width:10;stroke-linecap:round;stroke-linejoin:round;stroke-miterlimit:10;" d="
		M594.5,346.5c0,20.1-18,34.2-24.4,51.9c-6.3-17.2-24.4-30.6-24.4-51.9c0-13.5,10.9-24.4,24.4-24.4S594.5,333,594.5,346.5z"/>
	
		<radialGradient id="SVGID_00000147941319824605150060000012855031993778092962_" cx="615.7227" cy="471.9406" r="12.3466" gradientUnits="userSpaceOnUse">
		<stop  offset="0" style="stop-color:#FAE298"/>
		<stop  offset="1" style="stop-color:#D3AE6F"/>
	</radialGradient>
	
		<circle style="display:inline;fill-rule:evenodd;clip-rule:evenodd;fill:none;stroke:url(#SVGID_00000147941319824605150060000012855031993778092962_);stroke-width:10;stroke-linecap:round;stroke-linejoin:round;stroke-miterlimit:10;" cx="615.7" cy="471.9" r="7.3"/>
	
		<radialGradient id="SVGID_00000145742725239056806820000006558613646944432533_" cx="615.7227" cy="485.6966" r="36.9249" gradientUnits="userSpaceOnUse">
		<stop  offset="0" style="stop-color:#FAE298"/>
		<stop  offset="1" style="stop-color:#D3AE6F"/>
	</radialGradient>
	
		<path style="display:inline;fill-rule:evenodd;clip-rule:evenodd;fill:none;stroke:url(#SVGID_00000145742725239056806820000006558613646944432533_);stroke-width:10;stroke-linecap:round;stroke-linejoin:round;stroke-miterlimit:10;" d="
		M640.1,471.9c0,20.1-18,34.2-24.4,51.9c-6.3-17.2-24.4-30.6-24.4-51.9c0-13.5,10.9-24.4,24.4-24.4S640.1,458.5,640.1,471.9z"/>
	<g class="st23">
		<g>
			
				<radialGradient id="SVGID_00000048471234448397273960000007359044527923164566_" cx="523.1216" cy="489.8485" r="74.3214" gradientUnits="userSpaceOnUse">
				<stop  offset="0" style="stop-color:#FAE298"/>
				<stop  offset="1" style="stop-color:#D3AE6F"/>
			</radialGradient>
			
				<line style="fill:none;stroke:url(#SVGID_00000048471234448397273960000007359044527923164566_);stroke-width:10;stroke-linecap:round;stroke-linejoin:round;" x1="430.5" y1="455.8" x2="449.3" y2="462.7"/>
			
				<radialGradient id="SVGID_00000014607294982507332680000011567912949893264537_" cx="523.1216" cy="489.8485" r="74.3214" gradientUnits="userSpaceOnUse">
				<stop  offset="0" style="stop-color:#FAE298"/>
				<stop  offset="1" style="stop-color:#D3AE6F"/>
			</radialGradient>
			
				<line style="fill:none;stroke:url(#SVGID_00000014607294982507332680000011567912949893264537_);stroke-width:10;stroke-linecap:round;stroke-linejoin:round;stroke-dasharray:31.4589,31.4589;" x1="478.8" y1="473.6" x2="582.2" y2="511.5"/>
			
				<radialGradient id="SVGID_00000013152071724576221020000013601518565935556026_" cx="523.1216" cy="489.8485" r="74.3214" gradientUnits="userSpaceOnUse">
				<stop  offset="0" style="stop-color:#FAE298"/>
				<stop  offset="1" style="stop-color:#D3AE6F"/>
			</radialGradient>
			
				<line style="fill:none;stroke:url(#SVGID_00000013152071724576221020000013601518565935556026_);stroke-width:10;stroke-linecap:round;stroke-linejoin:round;" x1="596.9" y1="517" x2="615.7" y2="523.9"/>
		</g>
	</g>
	<g class="st23">
		<g>
			
				<radialGradient id="SVGID_00000134233512436823699290000007511477389542936759_" cx="339.1192" cy="489.8485" r="73.5342" gradientUnits="userSpaceOnUse">
				<stop  offset="0" style="stop-color:#FAE298"/>
				<stop  offset="1" style="stop-color:#D3AE6F"/>
			</radialGradient>
			
				<line style="fill:none;stroke:url(#SVGID_00000134233512436823699290000007511477389542936759_);stroke-width:10;stroke-linecap:round;stroke-linejoin:round;" x1="430.5" y1="455.8" x2="411.8" y2="462.8"/>
			
				<radialGradient id="SVGID_00000016786705451483789850000006053201642909027758_" cx="339.1192" cy="489.8485" r="73.5342" gradientUnits="userSpaceOnUse">
				<stop  offset="0" style="stop-color:#FAE298"/>
				<stop  offset="1" style="stop-color:#D3AE6F"/>
			</radialGradient>
			
				<line style="fill:none;stroke:url(#SVGID_00000016786705451483789850000006053201642909027758_);stroke-width:10;stroke-linecap:round;stroke-linejoin:round;stroke-dasharray:31.0087,31.0087;" x1="382.7" y1="473.6" x2="281" y2="511.5"/>
			
				<radialGradient id="SVGID_00000026139033595577842230000008647132128445272738_" cx="339.1192" cy="489.8485" r="73.5342" gradientUnits="userSpaceOnUse">
				<stop  offset="0" style="stop-color:#FAE298"/>
				<stop  offset="1" style="stop-color:#D3AE6F"/>
			</radialGradient>
			
				<line style="fill:none;stroke:url(#SVGID_00000026139033595577842230000008647132128445272738_);stroke-width:10;stroke-linecap:round;stroke-linejoin:round;" x1="266.5" y1="516.9" x2="247.7" y2="523.9"/>
		</g>
	</g>
	<g class="st23">
		<g>
			
				<radialGradient id="SVGID_00000008868919152469258970000015159570321032214662_" cx="351.3196" cy="428.854" r="63.6911" gradientUnits="userSpaceOnUse">
				<stop  offset="0" style="stop-color:#FAE298"/>
				<stop  offset="1" style="stop-color:#D3AE6F"/>
			</radialGradient>
			
				<line style="fill:none;stroke:url(#SVGID_00000008868919152469258970000015159570321032214662_);stroke-width:10;stroke-linecap:round;stroke-linejoin:round;" x1="430.5" y1="455.8" x2="399.3" y2="445.2"/>
			
				<radialGradient id="SVGID_00000181771358792097534050000004743071295336947629_" cx="351.3196" cy="428.854" r="63.6912" gradientUnits="userSpaceOnUse">
				<stop  offset="0" style="stop-color:#FAE298"/>
				<stop  offset="1" style="stop-color:#D3AE6F"/>
			</radialGradient>
			
				<line style="fill:none;stroke:url(#SVGID_00000181771358792097534050000004743071295336947629_);stroke-width:10;stroke-linecap:round;stroke-linejoin:round;stroke-dasharray:33.7822,33.7822;" x1="367.3" y1="434.3" x2="319.3" y2="418"/>
			
				<radialGradient id="SVGID_00000156550310624642316100000014120393664705101218_" cx="351.3196" cy="428.854" r="63.6912" gradientUnits="userSpaceOnUse">
				<stop  offset="0" style="stop-color:#FAE298"/>
				<stop  offset="1" style="stop-color:#D3AE6F"/>
			</radialGradient>
			
				<line style="fill:none;stroke:url(#SVGID_00000156550310624642316100000014120393664705101218_);stroke-width:10;stroke-linecap:round;stroke-linejoin:round;" x1="303.4" y1="412.5" x2="272.1" y2="401.9"/>
		</g>
	</g>
	<g class="st23">
		<g>
			
				<radialGradient id="SVGID_00000053509958755303154550000011764277480060256160_" cx="500.3097" cy="428.854" r="57.5186" gradientUnits="userSpaceOnUse">
				<stop  offset="0" style="stop-color:#FAE298"/>
				<stop  offset="1" style="stop-color:#D3AE6F"/>
			</radialGradient>
			
				<line style="fill:none;stroke:url(#SVGID_00000053509958755303154550000011764277480060256160_);stroke-width:10;stroke-linecap:round;stroke-linejoin:round;" x1="430.5" y1="455.8" x2="457.6" y2="445.4"/>
			
				<radialGradient id="SVGID_00000043436685499827267570000008382939321474793150_" cx="500.3097" cy="428.854" r="57.5186" gradientUnits="userSpaceOnUse">
				<stop  offset="0" style="stop-color:#FAE298"/>
				<stop  offset="1" style="stop-color:#D3AE6F"/>
			</radialGradient>
			
				<line style="fill:none;stroke:url(#SVGID_00000043436685499827267570000008382939321474793150_);stroke-width:10;stroke-linecap:round;stroke-linejoin:round;stroke-dasharray:30.5509,30.5509;" x1="486.1" y1="434.4" x2="528.8" y2="417.8"/>
			
				<radialGradient id="SVGID_00000059994838277345198130000012187801031933771933_" cx="500.3097" cy="428.854" r="57.5186" gradientUnits="userSpaceOnUse">
				<stop  offset="0" style="stop-color:#FAE298"/>
				<stop  offset="1" style="stop-color:#D3AE6F"/>
			</radialGradient>
			
				<line style="fill:none;stroke:url(#SVGID_00000059994838277345198130000012187801031933771933_);stroke-width:10;stroke-linecap:round;stroke-linejoin:round;" x1="543.1" y1="412.3" x2="570.1" y2="401.9"/>
		</g>
	</g>
</g>
<g id="Слой_4" class="st0">
	
		<radialGradient id="SVGID_00000127035883733167908190000004124119539255481533_" cx="425.4947" cy="411.8987" r="163.8144" gradientUnits="userSpaceOnUse">
		<stop  offset="0" style="stop-color:#FAE298"/>
		<stop  offset="1" style="stop-color:#D3AE6F"/>
	</radialGradient>
	
		<path style="display:inline;fill-rule:evenodd;clip-rule:evenodd;fill:none;stroke:url(#SVGID_00000127035883733167908190000004124119539255481533_);stroke-width:10;stroke-linecap:round;stroke-linejoin:round;stroke-miterlimit:10;" d="
		M454.8,318.9c0,0,11.5-16-0.6-33.9c-18-26.6-66-11.9-57.7,22.7c6.1,25.3,37.6,18.6,65,48.1c28,30.2-13.3,77.1-59.8,54.1
		c-26-12.8-30.2-45.2-8.3-60.9 M418.3,257.4v53.3 M435.8,257.4v61.2 M418.3,350.5v80 M435.8,360.3v70.2 M285.5,451.6
		c-12.7,0-23,10.3-23,23s10.3,23,23,23s23-10.3,23-23S298.2,451.6,285.5,451.6z M354.4,520.5c-12.7,0-23,10.3-23,23s10.3,23,23,23
		s23-10.3,23-23S367.1,520.5,354.4,520.5z M367.9,461L272,557 M541.7,509L495,566.4h93.5L541.7,509z M588.5,451.6H495l46.7,57.4
		L588.5,451.6z"/>
</g>
<g id="Слой_14" class="st0">
	
		<radialGradient id="SVGID_00000169519828236077446280000003991981683528416958_" cx="425" cy="433.5179" r="132.6269" gradientUnits="userSpaceOnUse">
		<stop  offset="0" style="stop-color:#FAE298"/>
		<stop  offset="1" style="stop-color:#D3AE6F"/>
	</radialGradient>
	
		<path style="display:inline;fill:none;stroke:url(#SVGID_00000169519828236077446280000003991981683528416958_);stroke-width:10;stroke-linecap:round;stroke-linejoin:round;stroke-miterlimit:10;" d="
		M543.7,315.1c-0.1-0.1-0.2-0.2-0.3-0.3c-7.3-7.3-17.5-10.1-27-8.2H367.8c-16.5,0-29.9,13.4-29.9,29.9c0,16.5,13.4,29.9,29.9,29.9
		h81.8L306,510c-11.7,11.7-11.7,30.6,0,42.3c5.8,5.8,13.5,8.8,21.1,8.8c7.6,0,15.3-2.9,21.1-8.8L493,407.5v81.8
		c0,16.5,13.4,29.9,29.9,29.9c16.5,0,29.9-13.4,29.9-29.9V336.5C552.8,328.1,549.3,320.5,543.7,315.1z"/>
</g>
<g id="Слой_15" class="st0">
</g>
</svg>
