<?xml version="1.0" encoding="utf-8"?>
<!-- Generator: Adobe Illustrator 26.0.0, SVG Export Plug-In . SVG Version: 6.00 Build 0)  -->
<svg version="1.1" xmlns="http://www.w3.org/2000/svg" xmlns:xlink="http://www.w3.org/1999/xlink" x="0px" y="0px"
	 viewBox="0 0 1023.1 534.9" style="enable-background:new 0 0 1023.1 534.9;" xml:space="preserve">
<style type="text/css">
	.st0{display:none;}
	.st1{display:inline;fill:url(#SVGID_1_);}
	.st2{display:inline;fill:url(#SVGID_00000173128985384204571310000003847580929624848547_);}
	.st3{fill:url(#SVGID_00000070831868803206141780000006295053227179197370_);}
	.st4{fill:url(#SVGID_00000031180624709364744820000017697866264806241934_);}
	.st5{fill:url(#SVGID_00000076563081815842445860000015174233396767930249_);}
	.st6{fill:url(#SVGID_00000023960113992873091340000016296076634577949102_);}
	.st7{fill:url(#SVGID_00000006692681683599575160000010740189049232358334_);}
	.st8{fill:url(#SVGID_00000090257599172362280030000002491888719704731548_);}
	.st9{fill:url(#SVGID_00000132769392884599096760000012695988602796800156_);}
	.st10{fill:url(#SVGID_00000081610633592352705590000009692757424055803288_);}
	.st11{fill:url(#SVGID_00000053512575251846307990000011032972504229648541_);}
	.st12{fill:url(#SVGID_00000114050781281404809070000012434395680727142331_);}
	.st13{fill:url(#SVGID_00000003825506450543730320000018317752345604640929_);}
	.st14{fill:url(#SVGID_00000023973311315536053710000007520034095757613487_);}
	.st15{fill:url(#SVGID_00000121240131269676749320000017786756573907503802_);}
	.st16{fill:url(#SVGID_00000014610784045606265630000006280612686222909593_);}
	.st17{fill:url(#SVGID_00000018226443439324878810000016106182776102711726_);}
	.st18{fill:url(#SVGID_00000118370245531958458490000006216578145817749931_);}
	.st19{fill:url(#SVGID_00000066478313668037882680000003877838323222904493_);}
	.st20{fill:url(#SVGID_00000160909107751729083300000007103378317998387356_);}
	.st21{fill:url(#SVGID_00000045619459423402629950000008364461337282134966_);}
	.st22{fill:url(#SVGID_00000108306437105754596890000012717351934483019402_);}
	.st23{fill:url(#SVGID_00000183932688434862405590000008520982966936758685_);}
	.st24{fill:url(#SVGID_00000119089113900186541250000016824675544355634564_);}
	.st25{fill:url(#SVGID_00000054968666448676834030000002294902299602779056_);}
	.st26{fill:url(#SVGID_00000129203660611110049600000003259415607165820843_);}
	.st27{fill:url(#SVGID_00000085227081376887586770000011921801230696287384_);}
	.st28{fill:url(#SVGID_00000056413078824991308060000013568477186930515861_);}
	.st29{fill:url(#SVGID_00000049202268015273490800000006587776190299796405_);}
	.st30{fill:url(#SVGID_00000168804796856181438450000001083790360549544348_);}
	.st31{fill:url(#SVGID_00000114048930493270688300000016937055866975866025_);}
	.st32{fill:url(#SVGID_00000107570879905977435680000015941967212704467892_);}
	.st33{fill:url(#SVGID_00000092447794619370295440000003024832603778282905_);}
	.st34{fill:url(#SVGID_00000032634634846811102760000001889404820051566989_);}
	.st35{fill:url(#SVGID_00000106852708236221859350000011677816658749906319_);}
	.st36{fill:url(#SVGID_00000149379564407290660180000009148769020127585716_);}
	.st37{fill:url(#SVGID_00000115512234977308860060000018077430242072722096_);}
	.st38{fill:url(#SVGID_00000112622620454384051870000002575332113904356759_);}
	.st39{fill:url(#SVGID_00000150821350576064392210000009077614393927632515_);}
	.st40{fill:url(#SVGID_00000137852690732042996830000017076049574389131698_);}
	.st41{fill:url(#SVGID_00000106136384540010005050000017151756891808231054_);}
	.st42{fill:url(#SVGID_00000133505557213790699840000011702765737090186627_);}
	.st43{fill:url(#SVGID_00000161615317893081284440000001122875309997859511_);}
	.st44{fill:url(#SVGID_00000031914732165000713540000017499115728107774099_);}
	.st45{fill:url(#SVGID_00000147919991169525576670000006914969019674451859_);}
	.st46{fill:url(#SVGID_00000131342581793852647900000011209968227708219009_);}
	.st47{fill:url(#SVGID_00000095298148677480374630000017344634241602966956_);}
	.st48{fill:url(#SVGID_00000101089562998321941470000000198277533029627040_);}
	.st49{fill:url(#SVGID_00000046300900792206164380000010725635685620622005_);}
	.st50{fill:url(#SVGID_00000155117040586703892000000002769964635586716586_);}
	.st51{fill:url(#SVGID_00000152949829351617934760000001404210268824870039_);}
	.st52{fill:url(#SVGID_00000009580420087514731340000001213535431055299999_);}
	.st53{fill:url(#SVGID_00000115476148145635233590000005368876523775089327_);}
	.st54{fill:url(#SVGID_00000129899203555417597750000001244814464695733917_);}
	.st55{fill:url(#SVGID_00000092455465934704398280000000039892782263319200_);}
	.st56{fill:url(#SVGID_00000023985909838542210290000007701830355973271739_);}
	.st57{fill:url(#SVGID_00000137822563584373196300000005321588231239728805_);}
	.st58{fill:url(#SVGID_00000072249639772625447520000004286131667438499514_);}
	.st59{fill:url(#SVGID_00000050652236407596207710000013669329928953331612_);}
	.st60{fill:url(#SVGID_00000115510201674007579340000005526006731427021198_);}
	.st61{fill:url(#SVGID_00000091736322529620771010000005229260436941888898_);}
	.st62{fill:url(#SVGID_00000181800182285242906140000001913562566450090170_);}
	.st63{fill:url(#SVGID_00000088839971864181361700000007457322786315673009_);}
	.st64{fill:url(#SVGID_00000135670109448223624520000009844791309480935580_);}
	.st65{fill:url(#SVGID_00000160882198160669543630000016601996296923710115_);}
	.st66{fill:url(#SVGID_00000002371365733033078580000007881193227446821781_);}
	.st67{fill:url(#SVGID_00000163780711536661073800000015977901969365698734_);}
	.st68{fill:url(#SVGID_00000031920529503547723490000005350688545300317872_);}
	.st69{fill:url(#SVGID_00000102519628630124530930000008571669475285244547_);}
	.st70{fill:url(#SVGID_00000130641867690533270260000016556254519502045884_);}
	.st71{fill:url(#SVGID_00000114752833783420228450000011710737650693385118_);}
	.st72{fill:url(#SVGID_00000093161586365566744180000007847225558494977203_);}
	.st73{fill:url(#SVGID_00000036942631811297465990000010751574639369805985_);}
	.st74{fill:url(#SVGID_00000176029391555640110170000002413940769166763931_);}
	.st75{fill:url(#SVGID_00000012457495928217089590000011971988812187637661_);}
	.st76{fill:url(#SVGID_00000089551365822975688950000016520714774235085479_);}
	.st77{fill:url(#SVGID_00000153662941959396219690000014419046220007975557_);}
	.st78{fill:url(#SVGID_00000058553495696240124130000012115531590467501966_);}
</style>
<g id="Слой_2" class="st0">
	
		<radialGradient id="SVGID_1_" cx="948.9293" cy="5.2295" r="2330.3665" gradientTransform="matrix(1 0 0 2.425 0 170.6736)" gradientUnits="userSpaceOnUse">
		<stop  offset="0" style="stop-color:#0F7969"/>
		<stop  offset="0.3672" style="stop-color:#0C4D49"/>
		<stop  offset="1" style="stop-color:#04272E"/>
	</radialGradient>
	<polygon class="st1" points="-28.5,4536.2 -28.5,-119.8 1051.5,-119.8 1051.5,4536.2 	"/>
</g>
<g id="Слой_1">
	
		<linearGradient id="SVGID_00000168798736652057450180000016512504754183362689_" gradientUnits="userSpaceOnUse" x1="1.4991" y1="539.7423" x2="832.2333" y2="72.8333">
		<stop  offset="0" style="stop-color:#B78B32"/>
		<stop  offset="0.3144" style="stop-color:#D3AE6F"/>
		<stop  offset="1" style="stop-color:#FAE298"/>
	</linearGradient>
	<path style="fill:url(#SVGID_00000168798736652057450180000016512504754183362689_);" d="M191.4,25l-0.5-0.2c-1-3.7-3.3-6.7-7-9.1
		c-3.6-2.3-7.7-3.5-12.5-3.5c-6.6,0-11.7,2.2-15.4,6.7c-3.8,4.5-5.7,10.5-5.7,18.3c0,7.6,1.9,13.5,5.7,17.9
		c4.2,4.8,9.8,7.2,16.8,7.2c2.9,0,5.6-0.5,8-1.4c2.5-1,4.2-2.2,5-3.7c0.7-1.1,1-3,1-5.8v-4.7c0-4-1.2-6.5-3.6-7.5
		c-0.8-0.4-2.6-0.9-5.5-1.6v-0.5c2.7,0.2,5.9,0.2,9.6,0.2c1.4,0,3.2,0,5.2-0.1h2.9l3-0.1v0.5c-2.2,0.7-3.5,1.5-3.9,2.4
		c-0.4,0.9-0.6,3.3-0.6,7.2v9.7c-6.2,4.7-13.4,7-21.8,7c-8.6,0-15.8-2.5-21.7-7.5c-5.8-5.1-8.7-11.4-8.7-18.9
		c0-7.9,2.8-14.3,8.4-19.3c5.6-5.1,12.8-7.6,21.5-7.6c9,0,16.4,2.2,22.1,6.5L191.4,25z M239.3,62.5c-0.7-1.6-1.2-4.2-1.8-7.8
		c-3.2,5.8-8.3,8.7-15.1,8.7c-5.2,0-9.5-1.2-12.9-3.5c-3.4-2.3-5.1-5.3-5.1-8.8c0-5,3.1-8.6,9.4-10.9c5-1.8,11.3-2.7,18.9-2.7h4.1
		v-2.3c0-8.8-4.3-13.2-13-13.2c-3.8,0-7,0.9-9.7,2.7c-2.5,1.7-4.2,4.2-5.1,7.3l-0.5,0.2l-2.4-7.6c6.5-2.8,12.7-4.2,18.3-4.2
		c6.3,0,11,1.4,14.1,4.2c2.7,2.4,4,6.9,4,13.5v11.2c0,4.2,0.3,7.3,0.9,9.2c0.7,1.9,1.8,3.1,3.3,3.6v0.4H239.3z M232.7,39.3
		c-13.8,0-20.8,4-20.8,12c0,3.1,1.1,5.7,3.2,7.7c2.1,1.9,4.8,2.9,8.2,2.9c2.8,0,5.3-0.7,7.5-2c2.3-1.3,3.8-3.1,4.6-5.2
		c1-2.3,1.4-6.7,1.4-13.3v-2.1H232.7z M290.7,62.5h-37.7l25-32c3-3.8,4.6-5.8,4.6-6.2c0-0.8-1.3-1.1-3.9-1.1h-4.6
		c-4.5,0-8.1,0.5-10.8,1.6c-2.7,1.1-5.4,3.1-7.8,5.9l-0.5-0.2l3.1-9.1h34.4l-17.3,21.8l-1.3,1.7l-1.3,1.7c-1.2,1.6-2,2.7-2.4,3.1
		c-0.5,0.6-1,1.3-1.5,2.1l-1.5,1.9c-2.3,2.9-3.4,4.8-3.4,5.6c0,0.7,0.3,1.1,1,1.3c0.6,0.2,2.1,0.3,4.6,0.3h3.1
		c6.1,0,10.8-0.9,14.1-2.7c2-1,4.2-2.8,6.7-5.4l0.5,0.2L290.7,62.5z M302.4,70.9c2.5-3,3.8-5.6,3.8-7.9v-0.5
		c-0.7,0.2-1.1,0.2-1.4,0.2c-1,0-1.9-0.4-2.6-1.1c-0.7-0.7-1-1.5-1-2.7c0-1,0.4-1.9,1.1-2.7c0.8-0.7,1.7-1.1,2.7-1.1
		c2.7,0,4.1,1.7,4.1,5.2c0,4.5-2,8.2-6.1,11L302.4,70.9z M387.6,24l-0.5-0.2c-0.1-3.3-2-6-5.9-8.2c-3.9-2.2-8.6-3.3-14.1-3.3
		c-3.8,0-6.9,0.9-9.4,2.7c-2.7,2.1-4,4.7-4,7.7c0,2.5,1,4.6,3,6.1c2,1.5,5.3,2.8,10.1,3.8l5.9,1.2c7,1.5,11.8,3.3,14.5,5.4
		c2.6,2,3.9,4.8,3.9,8.4c0,4.6-2.1,8.4-6.4,11.6c-4.3,3.1-9.5,4.7-15.7,4.7c-9.5,0-18.6-2.2-27.4-6.7l3.5-8.8l0.5,0.2
		c0.3,2.9,1.5,5.4,3.6,7.3c4.8,4.2,11.2,6.3,19.2,6.3c4.6,0,8.4-1.1,11.3-3.3c2.9-2.1,4.4-4.9,4.4-8.3c0-3.2-1.3-5.6-4-7.1
		c-1.7-0.9-4.7-1.9-9-3l-6.9-1.7c-6.3-1.5-10.8-3.3-13.4-5.3c-2.5-1.9-3.7-4.5-3.7-8c0-4.4,1.9-8,5.7-10.8c3.8-2.8,8.5-4.3,14.4-4.3
		c7.6,0,15.4,1.9,23.5,5.6L387.6,24z M436,62.5c-0.8-1.7-1.6-4.4-2.5-8.1c-3.5,6-8.8,9.1-16,9.1c-11,0-16.4-5.4-16.4-16.3v-2.1
		c0-1.1,0-2,0.1-2.5c0-0.6,0.1-1.4,0.1-2.5v-3.8c0-5.5-0.2-8.7-0.5-9.6c-0.4-1-1.5-1.5-3.5-1.8v-0.5c3.6-0.7,6.9-1.7,10-3
		c-0.2,2.5-0.3,5.8-0.3,9.9v11c0,6.1,0.7,10.5,2.1,13.2c1.9,3.7,5.3,5.5,10.3,5.5c2.6,0,5-0.6,7.2-1.8c2.1-1.1,3.7-2.7,4.7-4.7
		c1.4-3,2.1-8.2,2.1-15.7v-2.4c0-5.5-0.2-8.7-0.5-9.6c-0.4-0.9-1.5-1.5-3.4-1.8v-0.5c1.7-0.3,3.4-0.7,5.2-1.3c1.7-0.5,3.3-1,4.9-1.7
		c-0.2,2.5-0.3,5.8-0.3,9.9v10c0,7.9,0.2,13.1,0.7,15.7c0.4,2.5,1.3,4.2,2.8,5v0.5H436z M457.7,40.6l-0.5-0.9l-0.5-1
		c-0.5-0.9-0.8-1.7-1.1-2.3c-1.1-2-2.1-3.9-3-5.7c-1.7-3.2-3-5.4-4-6.5c-1-1.2-2.2-2-3.5-2.4v-0.5c2.6,0.2,4.9,0.3,6.9,0.3
		c0.7,0,1.7,0,2.9-0.1c1.5,0,3.2-0.1,5.1-0.2v0.5c-1.9,0.6-2.8,1.6-2.8,2.9c0,1.3,1.1,4.1,3.3,8.4L471.7,55l8.4-16.5
		c3-6,4.6-10,4.6-11.9c0-2.3-1.5-3.9-4.5-4.8v-0.5c2.2,0.2,4.3,0.3,6.2,0.3c0.6,0,1.5,0,2.6-0.1c1.3,0,2.8-0.1,4.6-0.2v0.5
		c-1.9,1-3.5,2.4-4.8,4.3c-1.3,1.9-3.5,6-6.6,12.3l-12.6,25L457.7,40.6z M555.8,43.7c3.4-6.6,6.5-13,9.3-19.3c1.5-3.4,2.3-6,2.3-7.6
		c0-1.3-0.3-2.2-0.9-2.9c-0.6-0.6-1.7-1.2-3.4-1.7v-0.5c1.7,0.2,3.8,0.3,6.3,0.3c2.8,0,5.5-0.1,7.8-0.3v0.5
		c-1.9,1.1-3.6,2.8-5.1,5.2c-1.8,2.9-4.7,8.2-8.6,15.9l-15.8,30.8l-13.5-26.9c-2.4-4.9-5.6-11-9.4-18.2c-1.9-3.4-4.1-5.7-6.5-6.8
		v-0.5c2,0.2,4.3,0.3,6.9,0.3c3.2,0,6.1-0.1,8.7-0.3v0.5c-1.9,0.7-2.8,1.8-2.8,3.4c0,2.2,6.5,15,19.6,38.2L555.8,43.7z M617.1,62.5
		c-0.7-1.6-1.2-4.2-1.8-7.8c-3.2,5.8-8.3,8.7-15.1,8.7c-5.2,0-9.5-1.2-12.9-3.5c-3.4-2.3-5.1-5.3-5.1-8.8c0-5,3.1-8.6,9.4-10.9
		c5-1.8,11.3-2.7,18.9-2.7h4.1v-2.3c0-8.8-4.3-13.2-13-13.2c-3.8,0-7,0.9-9.7,2.7c-2.5,1.7-4.2,4.2-5.1,7.3l-0.5,0.2l-2.4-7.6
		c6.5-2.8,12.7-4.2,18.3-4.2c6.3,0,11,1.4,14.1,4.2c2.7,2.4,4,6.9,4,13.5v11.2c0,4.2,0.3,7.3,0.9,9.2c0.7,1.9,1.8,3.1,3.3,3.6v0.4
		H617.1z M610.5,39.3c-13.8,0-20.8,4-20.8,12c0,3.1,1.1,5.7,3.2,7.7c2.1,1.9,4.8,2.9,8.2,2.9c2.8,0,5.3-0.7,7.5-2
		c2.3-1.3,3.8-3.1,4.6-5.2c1-2.3,1.4-6.7,1.4-13.3v-2.1H610.5z M702.2,21.8l-0.5,0.2c-2.6-3.2-5.7-5.5-9.1-6.7
		c-3.3-1.3-8-1.9-14.2-1.9h-12.6v21.6h10.7c6.2,0,10.6-0.4,13-1.3c2.4-0.9,4.1-2.5,5-4.9h0.5v14h-0.5c-0.7-2.4-2.2-4-4.7-4.9
		c-2.4-0.8-6.9-1.2-13.5-1.2h-10.4v5.3c0,9.8,0.5,15.5,1.6,17c0.5,0.7,1.4,1.2,2.7,1.4c1.4,0.3,3.8,0.4,7.2,0.4
		c8,0,14.2-0.7,18.5-2.1c4.4-1.4,7.8-3.9,10.3-7.3l0.5,0.2l-3.4,10.9h-40.5c-2.1,0-5,0-8.7,0.2v-0.5c2.6-0.7,4.2-2.5,4.8-5.6
		c0.5-2.8,0.8-10.9,0.8-24v-8.8c0-4.3-0.3-7.2-0.8-8.5c-0.6-1.5-1.6-2.4-3.3-2.9v-0.5h44L702.2,21.8z M728.3,62.7
		c-2.5-0.2-5.5-0.3-9.1-0.3c-2.8,0-5.1,0.1-6.9,0.3v-0.5c2.4-0.7,3.9-2.7,4.4-6c0.6-3.3,0.9-11.2,0.9-23.6V25
		c-0.1-0.8-0.1-1.9-0.1-3.4l-0.1-3.5l-0.2-3.1l-0.1-3.1c-0.1-2.3-1.3-3.5-3.7-3.8V7.6c3.1-0.5,6.4-1.3,9.7-2.5
		c-0.2,4.5-0.3,10.3-0.3,17.5v10c0,12.4,0.3,20.4,1,24c0.4,3,1.9,4.9,4.3,5.6V62.7z M741.9,36.7c-0.3,1.4-0.4,2.9-0.4,4.6
		c0,5.1,1,9.4,3,12.9c2.6,4.9,7.1,7.4,13.3,7.4c4.5,0,8.3-1.3,11.5-4c3.2-2.7,5.5-6.5,6.9-11.3l1.4,1.3c-1.2,5-3.7,8.9-7.5,11.8
		c-3.8,2.9-8.3,4.3-13.5,4.3c-6.4,0-11.8-2.1-16.1-6.2c-4.3-4.1-6.4-9.3-6.4-15.5c0-6,2.2-11.1,6.5-15.2c4.3-4.2,9.6-6.2,15.7-6.2
		c5.3,0,9.9,1.5,13.8,4.6c4,3.1,6.3,6.9,6.9,11.6H741.9z M769.2,35.1c0-4-1.2-7.1-3.5-9.4c-2.4-2.4-5.5-3.6-9.3-3.6
		c-7.7,0-12.4,4.3-14.1,13H769.2z M816.5,62.5c-1.2-1.5-3.1-4.4-5.6-8.7c-2.8-5-5.3-8.6-7.4-10.8c-1.9-2-3.9-3-5.9-3
		c-2.7,0-4.1,2.2-4.1,6.5v2.5c0,5.1,0.4,8.6,1.1,10.3c0.6,1.5,1.9,2.4,4,2.9v0.5c-2.5-0.2-5.5-0.3-9.1-0.3c-2.8,0-5.1,0.1-6.9,0.3
		v-0.5c2.5-0.8,4-3,4.4-6.5c0.3-2.7,0.6-6.9,0.8-12.6c0.3-7.2,0.4-12.4,0.4-15.6V25c0-6.3-0.1-10.3-0.3-12c-0.2-1.9-0.7-3.1-1.4-3.7
		c-0.6-0.5-1.5-0.7-2.7-0.8V8.1c3.3-0.6,6.7-1.6,10-3c-0.2,4.5-0.3,10.3-0.3,17.5v17l6.9-5.2c6.9-5.1,10.3-8.4,10.3-9.9
		c0-1.2-0.8-2-2.3-2.3v-0.4c3.8,0.2,6.3,0.2,7.6,0.2c0.6,0,3.5-0.1,8.7-0.2v0.4c-3.9,1.1-6.7,2.2-8.5,3.3c-1.7,0.9-6,4-13.1,9.3
		l-4.6,3.3h1.4c3.7,0,6.7,1,9.1,2.9c1.6,1.3,4.2,4.7,7.8,10.2c2.2,3.4,4.2,6,5.8,7.6c1.5,1.5,3.2,2.6,5.2,3.3v0.4H816.5z
		 M843.9,23.2h8.1l-0.7,2.1h-7.5l-0.2,9.9v3.9c0,10,0.6,16.4,1.9,19.3c0.8,1.9,2.2,3.1,4.2,3.6v0.5h-8.7c-1.4-0.5-2.3-1.4-2.8-3
		c-0.5-1.5-0.8-4.1-0.8-7.7c0-1.7,0.1-8.2,0.4-19.6l0.2-6.9h-6.4l0.5-1.4c3-1.2,5.2-2.7,6.8-4.5c1.6-1.7,3-4.4,4.4-8.1h0.8
		L843.9,23.2z M857.6,24c3.6-0.6,6.9-1.4,10-2.5l-0.1,2v1l-0.1,1.1v0.8l-0.1,0.8v0.7l-0.1,0.7c-0.1,0.8-0.1,1.4-0.1,2v1.7
		c1.6-3.4,3.8-6.2,6.4-8.4c2.7-2.1,5.5-3.1,8.3-3.1h0.9l0.4,0.1l-2.8,8c-1.3-1.4-2.6-2.1-4-2.1c-2.6,0-4.8,1.5-6.4,4.5
		c-1.6,3-2.4,6.8-2.4,11.6v6.3c0,5,0.4,8.5,1.1,10.6c0.6,1.5,1.8,2.4,3.6,2.7v0.5c-2-0.2-4.7-0.3-8.1-0.3c-3.1,0-5.6,0.1-7.5,0.3
		v-0.5c2-0.3,3.4-1.3,4-3.2c0.7-2,1.1-5.3,1.1-10v-2.4c0-2.1-0.1-6-0.2-11.6c-0.1-1.8-0.1-3.4-0.2-4.9c-0.1-1.1-0.1-2-0.2-2.5
		c-0.3-1.9-1.5-2.9-3.5-3.1V24z M282.9,103.1c10.8,0,18,0.8,21.6,2.4c5,2.1,7.5,5.4,7.5,9.7c0,4-2.1,7.1-6.4,9.3
		c-2,1-5.3,1.8-9.8,2.5c5.7,0.7,9.7,1.5,12.2,2.5c5.8,2.6,8.7,6.3,8.7,11c0,2.4-0.9,4.6-2.6,6.6c-1.7,2-4.1,3.6-7.2,4.8
		c-3.7,1.4-8.9,2.1-15.8,2.1c-1.6,0-5.3-0.1-11.1-0.2h-3.1l-2.9-0.1H269c-1,0-2,0-2.8,0.1c-1.9,0.1-3.3,0.1-4.2,0.2v-0.5
		c2.9-0.7,4.7-2.5,5.2-5.6c0.6-3.3,0.8-11.3,0.8-24V115c0-4.2-0.3-7.1-0.8-8.6c-0.7-1.5-1.9-2.5-3.7-2.8v-0.5H282.9z M284.6,126.2
		c7.5,0,12.7-1.1,15.6-3.3c2.3-1.7,3.5-4.3,3.5-7.7c0-4.2-1.6-7.1-4.8-8.6c-2.7-1.3-7.7-1.9-15.1-1.9h-9.3v21.5H284.6z M274.4,134.7
		c0.2,8.2,0.3,12.4,0.3,12.6c0.2,2.7,1.7,4.3,4.4,4.6c1.6,0.3,5,0.4,10.2,0.4c6.2,0,10.7-0.8,13.3-2.3c3.8-2.1,5.6-5.2,5.6-9.5
		c0-2.1-0.5-4-1.6-5.7c-1.1-1.8-2.5-3.2-4.3-4.2c-3.1-1.8-9.4-2.7-18.9-2.7h-9.1V134.7z M324.7,115.3c1.5-0.3,3.4-0.7,5.7-1.3
		c2.2-0.6,3.5-1,4.1-1.2v27.5c0,5.2,0.3,8.7,1,10.5c0.6,1.6,1.7,2.5,3.3,2.7v0.5c-2.4-0.2-5.1-0.3-8.2-0.3c-2.6,0-4.8,0.1-6.5,0.3
		v-0.5c1.5-0.3,2.6-1.3,3.3-2.9c0.8-1.9,1.2-5.4,1.2-10.3v-2.4c0-10.7-0.2-17-0.5-18.9c-0.3-1.8-1.4-2.9-3.4-3.1V115.3z
		 M334.8,102.9c0,1.1-0.4,2-1.1,2.7s-1.7,1.1-2.7,1.1c-1.1,0-2-0.4-2.7-1.1s-1.1-1.7-1.1-2.7s0.4-2,1.1-2.7s1.7-1.1,2.8-1.1
		c1,0,1.9,0.4,2.7,1.1S334.8,101.9,334.8,102.9z M358.7,154c-2.5-0.2-5.5-0.3-9.1-0.3c-2.8,0-5.1,0.1-6.9,0.3v-0.5
		c2.4-0.7,3.9-2.7,4.4-6c0.6-3.3,0.9-11.2,0.9-23.6v-7.5c-0.1-0.8-0.1-1.9-0.1-3.4l-0.1-3.5l-0.2-3.1l-0.1-3.1
		c-0.1-2.3-1.3-3.5-3.7-3.8v-0.5c3.1-0.5,6.4-1.3,9.7-2.5c-0.2,4.5-0.3,10.3-0.3,17.5v10c0,12.4,0.3,20.4,1,24
		c0.4,3,1.9,4.9,4.3,5.6V154z M399.1,153.8c-0.7-1.6-1.2-4.2-1.8-7.8c-3.2,5.8-8.3,8.7-15.1,8.7c-5.2,0-9.5-1.2-12.9-3.5
		c-3.4-2.3-5.1-5.3-5.1-8.8c0-5,3.1-8.6,9.4-10.9c5-1.8,11.3-2.7,18.9-2.7h4.1v-2.3c0-8.8-4.3-13.2-13-13.2c-3.8,0-7,0.9-9.7,2.7
		c-2.5,1.7-4.2,4.2-5.1,7.3l-0.5,0.2l-2.4-7.6c6.5-2.8,12.7-4.2,18.3-4.2c6.3,0,11,1.4,14.1,4.2c2.7,2.4,4,6.9,4,13.5v11.2
		c0,4.2,0.3,7.3,0.9,9.2c0.7,1.9,1.8,3.1,3.3,3.6v0.4H399.1z M392.5,130.5c-13.8,0-20.8,4-20.8,12c0,3.1,1.1,5.7,3.2,7.7
		c2.1,1.9,4.8,2.9,8.2,2.9c2.8,0,5.3-0.7,7.5-2c2.3-1.3,3.8-3.1,4.6-5.2c1-2.3,1.4-6.7,1.4-13.3v-2.1H392.5z M412.9,115.7
		c2.6-0.6,5.7-1.5,9.2-3c-0.3,3.4-0.4,6.7-0.4,9.9v1.3c1.2-2.8,2.5-5.1,3.7-6.8c2.7-3.6,7-5.4,12.7-5.4c6.4,0,11,2.1,13.6,6.2
		c2,2.9,3,8.6,3,17v5.4c0,5.1,0.3,8.6,1,10.6c0.6,1.6,1.7,2.5,3.4,2.7v0.5c-2.3-0.2-5-0.3-8.2-0.3c-2.4,0-4.5,0.1-6.1,0.3v-0.5
		c1.6-0.3,2.7-1.4,3.2-3.3c0.6-1.9,0.8-5.2,0.8-10v-7c0-6.8-0.9-11.5-2.7-14.2c-2.1-3.2-5.5-4.8-10-4.8c-4.4,0-7.8,1.8-10.1,5.3
		c-2.3,3.4-3.5,8.5-3.5,15.2v5.4c0,5.1,0.3,8.6,0.9,10.6c0.5,1.5,1.5,2.4,3,2.7v0.5c-2-0.2-4.6-0.3-7.7-0.3c-2.5,0-4.6,0.1-6.2,0.3
		v-0.5c1.6-0.2,2.7-1.3,3.3-3.2c0.6-1.9,0.8-5.3,0.8-10v-2.4c0-2.2-0.1-6-0.2-11.4c-0.1-1.7-0.1-3.3-0.2-4.6
		c-0.1-1.1-0.1-1.9-0.2-2.4c-0.3-1.8-1.4-2.8-3.3-3V115.7z M491,114.6c0-2.5-0.2-4.5-0.7-5.9c-0.5-1.4-1.5-2.3-2.9-2.7v-1.2
		c0.9,0,1.8,0,2.7,0c0.9,0,1.8,0.1,2.7,0.1c0.9,0.1,1.7,0.1,2.6,0.1c0.9,0,1.8,0,2.6,0h16.4c1.2,0,2.5,0,4.1,0.1
		c1.5,0.1,3.1,0.2,4.7,0.4c1.6,0.2,3.2,0.6,4.7,1c1.5,0.5,2.9,1.1,4.1,1.9c1.2,0.8,2.2,1.8,2.9,2.9c0.7,1.2,1.1,2.6,1.1,4.3
		c0,2.3-0.5,4.1-1.5,5.6c-1,1.4-2.3,2.5-3.9,3.4c-1.6,0.8-3.3,1.4-5.2,1.8c-1.9,0.4-3.8,0.7-5.6,0.9v0.2c2,0.1,4.2,0.4,6.6,0.8
		c2.4,0.4,4.6,1.1,6.6,2.1c2,1,3.7,2.3,5.1,4c1.3,1.7,2,3.8,2,6.4c0,2-0.4,3.8-1.3,5.2c-0.9,1.4-2,2.7-3.5,3.7
		c-1.4,1-3.1,1.8-4.9,2.3c-1.8,0.6-3.7,1-5.6,1.3c-1.9,0.3-3.8,0.5-5.6,0.5c-1.8,0.1-3.4,0.1-4.8,0.1h-14.7c-1.1,0-2.3,0-3.4,0
		c-1.2,0-2.4,0.1-3.6,0.1c-1.2,0-2.4,0.1-3.6,0.1c-1.2,0-2.4,0-3.7,0v-1.5c1.3,0,2.4-0.5,3.1-1.2s1.3-1.7,1.7-3
		c0.4-1.2,0.6-2.6,0.7-4.1c0.1-1.5,0.1-3.2,0.1-4.9V114.6z M504.3,126.4h2.5c1.8,0,3.6-0.1,5.4-0.3c1.8-0.2,3.4-0.6,4.8-1.3
		c1.4-0.7,2.5-1.7,3.4-2.9c0.9-1.3,1.3-2.9,1.3-5c0-1.9-0.2-3.4-0.8-4.6c-0.6-1.2-1.5-2.1-2.7-2.8c-1.2-0.7-2.8-1.2-4.7-1.4
		c-1.9-0.3-4.1-0.4-6.7-0.5h-2.5V126.4z M504.3,139.4c0,2.7,0.1,4.8,0.3,6.4c0.2,1.6,0.7,2.8,1.3,3.7s1.6,1.4,2.8,1.6
		c1.2,0.2,2.8,0.3,4.8,0.3c3.8,0,6.8-1,9-2.9c2.2-1.9,3.3-4.8,3.3-8.7c0-2.5-0.6-4.5-1.7-5.9c-1.1-1.4-2.6-2.5-4.4-3.3
		c-1.8-0.8-3.8-1.2-5.9-1.4c-2.1-0.2-4.2-0.3-6.2-0.3h-3.3V139.4z M567.6,113.1c3,0,5.9,0.5,8.7,1.4c2.8,1,5.2,2.4,7.3,4.2
		c2.1,1.8,3.8,4,5.1,6.6c1.2,2.6,1.9,5.5,1.9,8.7c0,3.2-0.6,6.1-1.9,8.7c-1.2,2.6-2.9,4.8-5.1,6.6c-2.1,1.8-4.6,3.2-7.3,4.2
		c-2.8,1-5.7,1.4-8.7,1.4c-3,0-5.9-0.5-8.7-1.4c-2.8-1-5.2-2.4-7.3-4.2c-2.1-1.8-3.8-4-5.1-6.6c-1.2-2.6-1.9-5.5-1.9-8.7
		c0-3.2,0.6-6.1,1.9-8.7c1.2-2.6,2.9-4.8,5.1-6.6c2.1-1.8,4.6-3.2,7.3-4.2C561.7,113.6,564.6,113.1,567.6,113.1z M567.6,115.6
		c-2.2,0-4,0.7-5.3,2c-1.4,1.3-2.4,2.9-3.2,4.8c-0.8,1.9-1.3,3.9-1.6,6c-0.3,2.1-0.4,4-0.4,5.6c0,1.6,0.1,3.5,0.4,5.6
		c0.3,2.1,0.8,4.1,1.6,6s1.8,3.5,3.2,4.8c1.4,1.3,3.1,2,5.3,2c2.2,0,4-0.7,5.3-2c1.4-1.3,2.4-2.9,3.2-4.8s1.3-3.9,1.6-6
		c0.3-2.1,0.4-4,0.4-5.6c0-1.6-0.1-3.5-0.4-5.6c-0.3-2.1-0.8-4.1-1.6-6c-0.8-1.9-1.8-3.5-3.2-4.8
		C571.6,116.2,569.8,115.6,567.6,115.6z M635.7,118.7c-0.6-0.7-1.1-1.3-1.5-1.9c-0.4-0.6-0.9-1.1-1.4-1.4c-0.5-0.4-1.1-0.7-1.7-0.9
		c-0.6-0.2-1.4-0.3-2.4-0.3c-0.5,0-0.9,0.1-1.4,0.2c-0.5,0.1-0.8,0.4-1.1,0.8c1.3,0.6,2.5,1.3,3.6,2.1c1.1,0.8,2.2,1.7,3,2.7
		c0.9,1,1.6,2.1,2.1,3.4c0.5,1.2,0.8,2.6,0.8,4.1c0,2.6-0.6,4.7-1.7,6.5c-1.2,1.7-2.7,3.1-4.5,4.2c-1.8,1.1-3.8,1.9-6,2.4
		c-2.2,0.5-4.4,0.8-6.5,1c-1.5,0.1-2.6,0.3-3.3,0.5c-0.8,0.3-1.1,0.7-1.1,1.2c0,0.7,0.6,1.2,1.8,1.5c1.2,0.3,3,0.6,5.4,0.9
		c3.1,0.4,5.9,0.8,8.4,1.3c2.4,0.4,4.5,1,6.1,1.7c1.6,0.7,2.9,1.7,3.8,2.9c0.9,1.2,1.3,2.7,1.3,4.6c0,1.7-0.4,3.2-1.1,4.5
		s-1.8,2.4-3,3.3c-1.3,0.9-2.7,1.7-4.3,2.2c-1.6,0.6-3.2,1-4.9,1.4c-1.6,0.3-3.3,0.6-4.8,0.7c-1.6,0.1-2.9,0.2-4.1,0.2
		c-1.2,0-2.5,0-4.1-0.1c-1.6-0.1-3.2-0.2-4.9-0.5c-1.7-0.3-3.3-0.6-4.9-1c-1.6-0.4-3.1-1-4.4-1.7c-1.3-0.7-2.3-1.6-3.1-2.7
		c-0.8-1.1-1.2-2.3-1.2-3.8c0-1.6,0.5-2.9,1.6-4c1-1,2.3-1.8,3.8-2.4c1.5-0.6,3.1-1,4.7-1.3c1.6-0.3,3.1-0.5,4.2-0.6V150
		c-2.9-0.5-4.9-1-6.1-1.7c-1.2-0.7-1.8-1.7-1.8-3.1c0-1.4,0.8-2.4,2.4-3.2s4.1-1.2,7.5-1.4v-0.2c-1.7-0.3-3.4-0.8-5.1-1.4
		c-1.6-0.7-3.1-1.5-4.4-2.6c-1.3-1.1-2.3-2.3-3.1-3.8c-0.8-1.5-1.2-3.2-1.2-5.2c0-2.6,0.6-4.8,1.9-6.6c1.2-1.8,2.8-3.3,4.7-4.4
		c1.9-1.1,4-2,6.4-2.5c2.3-0.5,4.6-0.8,6.8-0.8c1.3,0,2.5,0.1,3.6,0.3c1.1,0.2,2.1,0.4,3,0.7c1.5-1.1,2.9-2.1,4-2.8
		c1.2-0.8,2.3-1.4,3.5-1.9c1.2-0.5,2.4-0.8,3.8-1.1c1.3-0.2,3-0.3,4.9-0.3L635.7,118.7z M605.6,158.7c0,1.2,0.2,2.2,0.6,3.1
		c0.4,0.9,1,1.6,1.9,2.2c0.9,0.6,2,1.1,3.5,1.4c1.5,0.3,3.3,0.5,5.4,0.5c2.1,0,3.9-0.2,5.4-0.5c1.5-0.3,2.6-0.8,3.5-1.4
		c0.9-0.6,1.5-1.4,1.9-2.2c0.4-0.9,0.6-1.9,0.6-3.1c0-1.1-0.2-2.1-0.6-3c-0.4-0.9-1-1.6-1.9-2.2c-0.9-0.6-2-1.1-3.5-1.4
		c-1.5-0.3-3.3-0.5-5.4-0.5c-2.1,0-3.9,0.2-5.4,0.5c-1.5,0.3-2.6,0.8-3.5,1.4c-0.9,0.6-1.5,1.4-1.9,2.2
		C605.8,156.6,605.6,157.6,605.6,158.7z M624,127.3c0-1.6-0.1-3.1-0.4-4.6c-0.3-1.4-0.7-2.7-1.3-3.7c-0.6-1.1-1.4-1.9-2.4-2.5
		c-1-0.6-2.1-0.9-3.5-0.9s-2.5,0.3-3.5,0.9c-1,0.6-1.8,1.4-2.4,2.5c-0.6,1.1-1.1,2.3-1.3,3.7c-0.3,1.4-0.4,2.9-0.4,4.6
		c0,1.6,0.1,3.1,0.4,4.6c0.3,1.4,0.7,2.7,1.3,3.7c0.6,1.1,1.4,1.9,2.4,2.5c1,0.6,2.1,0.9,3.5,0.9s2.5-0.3,3.5-0.9
		c1-0.6,1.7-1.4,2.4-2.5c0.6-1.1,1.1-2.3,1.3-3.7C623.9,130.4,624,128.9,624,127.3z M647.4,125c1.1-1.1,2.1-2.3,2.9-3.7
		c0.8-1.4,1.2-2.8,1.2-4.4c-1.8,0-3.3-0.6-4.5-1.7c-1.2-1.2-1.8-2.9-1.7-5.2c0-1.7,0.6-3.2,1.8-4.5c1.2-1.3,2.6-1.9,4.4-1.9
		s3.2,0.6,4.4,1.9c1.2,1.3,1.8,2.8,1.8,4.5c0,1.6-0.3,3.2-0.8,4.9c-0.5,1.6-1.2,3.2-2.1,4.6c-0.8,1.5-1.8,2.8-2.8,4
		c-1,1.2-2.1,2.2-3.1,3L647.4,125z M669.6,108.1c0-1.7-0.3-3-1-3.8c-0.7-0.8-1.8-1.4-3.4-1.8v-1.1c2.6-0.3,5.2-0.6,7.8-1.1
		s5.2-1,8-1.6c0,1.2,0,2.5-0.1,3.9c-0.1,1.4-0.1,2.8-0.1,4.3v34.3c0,3.1,0.3,5.8,1,7.9c0.7,2.1,2.1,3.4,4.1,4v1.1
		c-1.8,0-3.6-0.1-5.4-0.2c-1.8-0.1-3.6-0.2-5.4-0.2s-3.6,0-5.4,0.2c-1.8,0.1-3.6,0.2-5.4,0.2V153c2-0.6,3.4-1.9,4.1-4
		c0.7-2.1,1.1-4.7,1.1-7.9V108.1z M706,144.7c0,2.3,0.3,4.2,1,5.6c0.7,1.5,2.1,2.4,4.1,2.7v1.1c-1.8,0-3.6-0.1-5.4-0.2
		c-1.8-0.1-3.6-0.2-5.4-0.2s-3.6,0-5.4,0.2c-1.8,0.1-3.6,0.2-5.4,0.2V153c2.1-0.3,3.5-1.2,4.1-2.7c0.7-1.5,1-3.3,1-5.6V122
		c0-1.2-0.4-2.1-1.2-2.9c-0.8-0.8-1.8-1.3-2.9-1.5v-1.1c5-0.4,10.1-1.1,15.2-2.1V144.7z M700.2,98.7c1.7,0,3.1,0.6,4.1,1.9
		c1.1,1.2,1.6,2.7,1.6,4.3c0,1.6-0.5,3.1-1.6,4.3c-1.1,1.2-2.5,1.9-4.1,1.9c-1.7,0-3.1-0.6-4.1-1.9c-1.1-1.2-1.6-2.7-1.6-4.3
		c0-1.6,0.5-3.1,1.6-4.3C697.2,99.3,698.6,98.7,700.2,98.7z M749.1,114.3h13.2v1.1c-1.1,0.1-1.9,0.7-2.5,1.7c-0.6,1-1,2.5-1,4.3
		v38.9c0,0.9,0.1,1.7,0.2,2.5c0.2,0.8,0.4,1.5,0.8,2.2c0.4,0.7,0.9,1.2,1.6,1.6c0.7,0.4,1.5,0.7,2.5,0.9v1.1c-1.9,0-3.8-0.1-5.6-0.2
		c-1.9-0.1-3.7-0.2-5.3-0.2c-1.7,0-3.6,0-5.6,0.2c-2,0.1-3.9,0.2-5.8,0.2v-1.3c2.4-0.4,4.1-1.2,4.9-2.4c0.8-1.3,1.3-3,1.3-5.2v-12.8
		h-0.2c-0.3,0.9-0.8,1.9-1.4,2.8c-0.7,1-1.5,1.8-2.5,2.6c-1,0.8-2.3,1.4-3.8,1.9c-1.5,0.5-3.3,0.7-5.3,0.7c-2.8,0-5.4-0.6-7.7-1.8
		c-2.4-1.2-4.4-2.8-6.1-4.7c-1.7-1.9-3-4.1-4-6.7c-1-2.5-1.4-5.1-1.4-7.8c0-2.6,0.5-5.2,1.4-7.8c1-2.5,2.3-4.8,4-6.7
		c1.7-1.9,3.7-3.5,6.1-4.7c2.4-1.2,4.9-1.8,7.7-1.8c3.3,0,6,0.5,8.1,1.6c2.1,1,3.9,2.4,5.5,4.1L749.1,114.3z M727.6,134
		c0,5.9,0.8,10.4,2.4,13.4c1.6,3.1,4.2,4.6,7.7,4.6c3.6,0,6.1-1.5,7.6-4.6c1.5-3.1,2.2-7.5,2.2-13.4c0-5.9-0.7-10.4-2.2-13.4
		c-1.5-3.1-4-4.6-7.6-4.6c-3.6,0-6.2,1.5-7.8,4.6C728.4,123.7,727.6,128.2,727.6,134z M230.2,204.1L230.2,204.1l-0.1,24.4
		c0,1.4,0.1,2.9,0.3,4.5c0.2,1.6,0.5,3.1,1.1,4.6c0.6,1.5,1.3,2.8,2.3,3.9c1,1.1,2.3,1.9,3.9,2.3v1.3h-18.6v-1.2
		c1.5-0.4,2.8-1.2,3.9-2.3c1.1-1.1,1.9-2.5,2.5-4c0.6-1.5,1.1-3,1.4-4.6c0.3-1.6,0.4-3.1,0.4-4.5v-20.4c0-2.2-0.1-3.9-0.3-5.2
		c-0.2-1.3-0.6-2.4-1-3.1c-0.5-0.8-1-1.3-1.7-1.7c-0.7-0.4-1.4-0.7-2.3-1v-1c1.5,0,3,0.1,4.6,0.2c1.5,0.1,3,0.2,4.3,0.2
		c1.4,0,2.9-0.1,4.6-0.2c1.6-0.1,3.2-0.2,4.7-0.2l14.3,30.4l13-30.4c1.5,0,3,0.1,4.6,0.2c1.5,0.1,3,0.2,4.3,0.2s2.9-0.1,4.5-0.2
		c1.6-0.1,3.2-0.2,4.7-0.2v1c-1.1,0.3-2,0.7-2.6,1.2c-0.6,0.5-1.1,1.1-1.4,1.7c-0.3,0.7-0.5,1.5-0.5,2.3c-0.1,0.9-0.1,1.8-0.1,2.9
		v25.1c0,1.7,0,3.4,0.2,4.9c0.1,1.5,0.3,2.9,0.7,4.1c0.4,1.2,1,2.2,1.8,3c0.8,0.8,1.9,1.2,3.2,1.2v1.5h-25.1v-1.5
		c1.4,0,2.4-0.5,3.2-1.2c0.8-0.8,1.4-1.8,1.7-3c0.4-1.2,0.6-2.6,0.7-4.1c0.1-1.5,0.2-3.2,0.2-4.9V203h-0.2l-18.8,43.7h-1
		L230.2,204.1z M321.1,237.7c-1.5,2.9-3.3,5-5.4,6.5c-2.1,1.4-4.8,2.1-8,2.1c-2.4,0-4.5-0.4-6.2-1.2s-3.3-1.9-4.5-3.2
		c-1.2-1.4-2.1-3-2.7-4.9s-0.9-4-0.9-6.3c0-3,0-6,0-8.9c0-2.9-0.1-5.9-0.1-9c0-1.3-0.4-2.2-1.1-2.7c-0.7-0.5-1.6-0.8-2.8-1.1v-1.2
		c2.6-0.3,5.2-0.5,7.8-0.9c2.6-0.3,5.3-0.8,7.9-1.3c-0.1,1.8-0.2,4.1-0.4,7.1s-0.2,6.3-0.2,9.9v7.5c0,1.2,0.1,2.5,0.3,3.8
		c0.2,1.3,0.6,2.6,1.1,3.7c0.5,1.1,1.3,2,2.2,2.8c1,0.7,2.2,1.1,3.7,1.1c1.7,0,3.1-0.4,4.2-1.3c1.1-0.9,2-2.1,2.7-3.5
		c0.7-1.5,1.2-3.1,1.5-4.9c0.3-1.8,0.5-3.7,0.5-5.6v-12.4c0-1.5-0.4-2.6-1.1-3.3c-0.7-0.8-1.8-1.3-3.2-1.5v-1.1
		c2.6-0.3,5.2-0.5,7.8-0.8c2.6-0.3,5.2-0.7,7.8-1.3c-0.2,9.3-0.2,18.6-0.2,28.1c0,1.7,0.1,3.2,0.2,4.4c0.2,1.2,0.4,2.2,0.7,3
		c0.3,0.8,0.8,1.4,1.4,1.9s1.3,0.8,2.2,1.1v1.1H323L321.1,237.7z M368.3,238.8c-1.5,2.3-3.1,4.1-5,5.4c-1.9,1.3-4.2,2-7.1,2
		c-1.9,0-3.9-0.2-5.8-0.6c-1.9-0.4-3.7-1.1-5.2-2c-1.5-0.9-2.8-2.1-3.7-3.6c-0.9-1.5-1.4-3.4-1.4-5.6c0-2.7,0.8-4.9,2.5-6.7
		c1.6-1.8,3.7-3.2,6.3-4.3c2.5-1.1,5.3-1.8,8.3-2.2c3-0.4,5.9-0.6,8.6-0.6h1.7v-3.3c0-3.1-0.8-5.6-2.4-7.5c-1.6-1.9-3.8-2.9-6.5-2.9
		c-3.2,0.1-5.8,1.3-7.9,3.6s-3.6,5.5-4.6,9.4l-1.1,0.3l-3.2-12c3.3-1,6.6-1.9,9.9-2.7c3.2-0.8,6.5-1.1,9.9-1c2.6,0,4.9,0.3,7,0.9
		c2.1,0.6,3.9,1.5,5.4,2.9c1.5,1.3,2.6,3.1,3.5,5.3c0.8,2.2,1.2,4.9,1.2,8.2v15.2c0,1.7,0.3,3.2,0.8,4.6c0.6,1.3,1.6,2.2,3.3,2.6
		v1.1H370L368.3,238.8z M367.6,223.1h-1.4c-1.8,0-3.6,0.2-5.2,0.7c-1.6,0.5-3.1,1.2-4.3,2.1c-1.2,1-2.2,2.2-3,3.7
		c-0.7,1.5-1.1,3.3-1.1,5.4c0,1,0.1,2,0.4,3c0.3,1,0.7,1.8,1.3,2.6s1.3,1.4,2.1,1.9c0.8,0.5,1.8,0.7,2.9,0.7c1.7,0,3-0.5,4.1-1.4
		c1.1-0.9,1.9-2.1,2.5-3.4c0.6-1.4,1-2.8,1.3-4.4c0.3-1.5,0.4-3,0.4-4.2V223.1z M401.3,213.1h0.2c1.4-2.9,3.1-5.1,5.3-6.5
		c2.2-1.4,4.9-2.2,8.1-2.2c3.3,0,6.1,0.8,8.4,2.4c2.2,1.6,3.7,3.6,4.4,6c1.5-2.8,3.3-4.9,5.4-6.3c2.2-1.4,4.9-2.1,8.3-2.1
		c2,0,3.9,0.3,5.6,1c1.7,0.7,3.1,1.6,4.3,2.7c1.2,1.2,2.2,2.6,2.9,4.2c0.7,1.6,1,3.5,1,5.5V238c0,1.8,0.4,3.2,1.2,4.2
		c0.8,1,2.1,1.7,3.8,2.1v1.1c-1.8,0-3.6-0.1-5.4-0.2c-1.8-0.1-3.5-0.2-5.2-0.2c-1.6,0-3.2,0-4.9,0.2c-1.7,0.1-3.5,0.2-5.2,0.2v-1.1
		c1.3-0.2,2.4-0.7,3.3-1.8c0.9-1,1.3-2.5,1.3-4.5V222c0-1.7-0.1-3.4-0.3-5c-0.2-1.6-0.6-3-1.1-4.3c-0.5-1.2-1.3-2.2-2.2-3
		c-1-0.7-2.2-1.1-3.7-1.1c-1.4,0-2.6,0.4-3.7,1.3s-1.8,1.9-2.5,3.2c-0.6,1.3-1.1,2.7-1.4,4.3c-0.3,1.6-0.5,3.1-0.5,4.6V238
		c0,1.8,0.4,3.2,1.2,4.2c0.8,1,2.1,1.7,3.8,2.1v1.1c-1.8,0-3.6-0.1-5.4-0.2c-1.8-0.1-3.6-0.2-5.2-0.2c-1.6,0-3.2,0-4.9,0.2
		c-1.7,0.1-3.5,0.2-5.2,0.2v-1.1c1.3-0.2,2.4-0.7,3.3-1.8c0.9-1,1.3-2.5,1.3-4.5V222c0-1.7-0.1-3.4-0.3-5c-0.2-1.6-0.6-3-1.1-4.3
		c-0.5-1.2-1.3-2.2-2.2-3c-1-0.7-2.2-1.1-3.7-1.1c-1.4,0-2.6,0.4-3.7,1.3c-1,0.8-1.8,1.9-2.5,3.2c-0.6,1.3-1.1,2.7-1.4,4.3
		c-0.3,1.6-0.5,3.1-0.5,4.6v10.4c0,3.1,0.3,5.8,1,7.9c0.7,2.1,2.1,3.4,4.1,4v1.1c-1.8,0-3.6-0.1-5.4-0.2c-1.8-0.1-3.6-0.2-5.4-0.2
		c-1.8,0-3.6,0-5.4,0.2c-1.8,0.1-3.6,0.2-5.4,0.2v-1.1c2-0.6,3.4-1.9,4.1-4c0.7-2.1,1.1-4.7,1.1-7.9v-16.2c0-1.3-0.1-2.4-0.4-3.3
		c-0.3-0.9-0.6-1.6-1.1-2.2c-0.5-0.6-1-1-1.5-1.3c-0.6-0.3-1.1-0.5-1.7-0.6v-1.1c2.5-0.2,5-0.5,7.5-0.8c2.5-0.3,5-0.8,7.5-1.3V213.1
		z M477.4,213.1h0.2c1.4-2.9,3.1-5.1,5.3-6.5c2.2-1.4,4.9-2.2,8.1-2.2c3.3,0,6.1,0.8,8.4,2.4c2.2,1.6,3.7,3.6,4.4,6
		c1.5-2.8,3.3-4.9,5.4-6.3c2.2-1.4,4.9-2.1,8.3-2.1c2,0,3.9,0.3,5.6,1c1.7,0.7,3.1,1.6,4.3,2.7c1.2,1.2,2.2,2.6,2.9,4.2
		c0.7,1.6,1,3.5,1,5.5V238c0,1.8,0.4,3.2,1.2,4.2c0.8,1,2.1,1.7,3.8,2.1v1.1c-1.8,0-3.6-0.1-5.4-0.2c-1.8-0.1-3.5-0.2-5.2-0.2
		c-1.6,0-3.2,0-4.9,0.2c-1.7,0.1-3.5,0.2-5.2,0.2v-1.1c1.3-0.2,2.4-0.7,3.3-1.8c0.9-1,1.3-2.5,1.3-4.5V222c0-1.7-0.1-3.4-0.3-5
		c-0.2-1.6-0.6-3-1.1-4.3c-0.5-1.2-1.3-2.2-2.2-3c-1-0.7-2.2-1.1-3.7-1.1c-1.4,0-2.6,0.4-3.7,1.3s-1.8,1.9-2.5,3.2
		c-0.6,1.3-1.1,2.7-1.4,4.3c-0.3,1.6-0.5,3.1-0.5,4.6V238c0,1.8,0.4,3.2,1.2,4.2c0.8,1,2.1,1.7,3.8,2.1v1.1c-1.8,0-3.6-0.1-5.4-0.2
		c-1.8-0.1-3.6-0.2-5.2-0.2c-1.6,0-3.2,0-4.9,0.2c-1.7,0.1-3.5,0.2-5.2,0.2v-1.1c1.3-0.2,2.4-0.7,3.3-1.8c0.9-1,1.3-2.5,1.3-4.5V222
		c0-1.7-0.1-3.4-0.3-5c-0.2-1.6-0.6-3-1.1-4.3c-0.5-1.2-1.3-2.2-2.2-3c-1-0.7-2.2-1.1-3.7-1.1c-1.4,0-2.6,0.4-3.7,1.3
		c-1,0.8-1.8,1.9-2.5,3.2c-0.6,1.3-1.1,2.7-1.4,4.3c-0.3,1.6-0.5,3.1-0.5,4.6v10.4c0,3.1,0.3,5.8,1,7.9c0.7,2.1,2.1,3.4,4.1,4v1.1
		c-1.8,0-3.6-0.1-5.4-0.2c-1.8-0.1-3.6-0.2-5.4-0.2c-1.8,0-3.6,0-5.4,0.2c-1.8,0.1-3.6,0.2-5.4,0.2v-1.1c2-0.6,3.4-1.9,4.1-4
		c0.7-2.1,1.1-4.7,1.1-7.9v-16.2c0-1.3-0.1-2.4-0.4-3.3c-0.3-0.9-0.6-1.6-1.1-2.2c-0.5-0.6-1-1-1.5-1.3c-0.6-0.3-1.1-0.5-1.7-0.6
		v-1.1c2.5-0.2,5-0.5,7.5-0.8c2.5-0.3,5-0.8,7.5-1.3V213.1z M562.3,204.4c3,0,5.9,0.5,8.7,1.4c2.8,1,5.2,2.4,7.3,4.2
		c2.1,1.8,3.8,4,5.1,6.6c1.2,2.6,1.9,5.5,1.9,8.7c0,3.2-0.6,6.1-1.9,8.7c-1.2,2.6-2.9,4.8-5.1,6.6c-2.1,1.8-4.6,3.2-7.3,4.2
		c-2.8,1-5.7,1.4-8.7,1.4c-3,0-5.9-0.5-8.7-1.4c-2.8-1-5.2-2.4-7.3-4.2c-2.1-1.8-3.8-4-5.1-6.6c-1.2-2.6-1.9-5.5-1.9-8.7
		c0-3.2,0.6-6.1,1.9-8.7c1.2-2.6,2.9-4.8,5.1-6.6c2.1-1.8,4.6-3.2,7.3-4.2C556.4,204.9,559.3,204.4,562.3,204.4z M562.3,206.9
		c-2.2,0-4,0.7-5.3,2c-1.4,1.3-2.4,2.9-3.2,4.8c-0.8,1.9-1.3,3.9-1.6,6c-0.3,2.1-0.4,4-0.4,5.6c0,1.6,0.1,3.5,0.4,5.6
		c0.3,2.1,0.8,4.1,1.6,6s1.8,3.5,3.2,4.8c1.4,1.3,3.1,2,5.3,2c2.2,0,4-0.7,5.3-2c1.4-1.3,2.4-2.9,3.2-4.8s1.3-3.9,1.6-6
		c0.3-2.1,0.4-4,0.4-5.6c0-1.6-0.1-3.5-0.4-5.6c-0.3-2.1-0.8-4.1-1.6-6c-0.8-1.9-1.8-3.5-3.2-4.8
		C566.3,207.5,564.5,206.9,562.3,206.9z M595.2,199.4c0-1.7-0.3-3-1-3.8c-0.7-0.8-1.8-1.4-3.4-1.8v-1.1c2.6-0.3,5.2-0.6,7.8-1.1
		s5.2-1,8-1.6c0,1.2,0,2.5-0.1,3.9c-0.1,1.4-0.1,2.8-0.1,4.3v34.3c0,3.1,0.3,5.8,1,7.9c0.7,2.1,2.1,3.4,4.1,4v1.1
		c-1.8,0-3.6-0.1-5.4-0.2c-1.8-0.1-3.6-0.2-5.4-0.2s-3.6,0-5.4,0.2c-1.8,0.1-3.6,0.2-5.4,0.2v-1.1c2-0.6,3.4-1.9,4.1-4
		c0.7-2.1,1.1-4.7,1.1-7.9V199.4z M643,238.8c-1.5,2.3-3.1,4.1-5,5.4c-1.9,1.3-4.2,2-7.1,2c-1.9,0-3.9-0.2-5.8-0.6
		c-1.9-0.4-3.7-1.1-5.2-2c-1.5-0.9-2.8-2.1-3.7-3.6c-0.9-1.5-1.4-3.4-1.4-5.6c0-2.7,0.8-4.9,2.5-6.7c1.6-1.8,3.7-3.2,6.3-4.3
		c2.5-1.1,5.3-1.8,8.3-2.2c3-0.4,5.9-0.6,8.6-0.6h1.7v-3.3c0-3.1-0.8-5.6-2.4-7.5c-1.6-1.9-3.8-2.9-6.5-2.9
		c-3.2,0.1-5.8,1.3-7.9,3.6s-3.6,5.5-4.6,9.4l-1.1,0.3l-3.2-12c3.3-1,6.6-1.9,9.9-2.7c3.2-0.8,6.5-1.1,9.9-1c2.6,0,4.9,0.3,7,0.9
		c2.1,0.6,3.9,1.5,5.4,2.9c1.5,1.3,2.6,3.1,3.5,5.3c0.8,2.2,1.2,4.9,1.2,8.2v15.2c0,1.7,0.3,3.2,0.8,4.6c0.6,1.3,1.6,2.2,3.3,2.6
		v1.1h-12.9L643,238.8z M642.3,223.1H641c-1.8,0-3.6,0.2-5.2,0.7c-1.6,0.5-3.1,1.2-4.3,2.1c-1.2,1-2.2,2.2-3,3.7
		c-0.7,1.5-1.1,3.3-1.1,5.4c0,1,0.1,2,0.4,3c0.3,1,0.7,1.8,1.3,2.6s1.3,1.4,2.1,1.9c0.8,0.5,1.8,0.7,2.9,0.7c1.7,0,3-0.5,4.1-1.4
		c1.1-0.9,1.9-2.1,2.5-3.4c0.6-1.4,1-2.8,1.3-4.4c0.3-1.5,0.4-3,0.4-4.2V223.1z M687.3,217.7c-0.6-0.7-1.2-1.3-1.9-1.9
		c-0.7-0.5-1.5-0.8-2.5-0.8c-1.1,0-2.1,0.3-2.8,1c-0.8,0.7-1.4,1.6-1.8,2.7c-0.5,1.1-0.8,2.3-1,3.7c-0.2,1.4-0.3,2.8-0.3,4.2v5.9
		c0,3.1,0.3,5.8,1,7.9c0.7,2.1,2.1,3.4,4.1,4v1.1c-1.8,0-3.6-0.1-5.4-0.2c-1.8-0.1-3.6-0.2-5.4-0.2c-1.8,0-3.6,0-5.4,0.2
		c-1.8,0.1-3.6,0.2-5.4,0.2v-1.1c2-0.6,3.4-1.9,4.1-4c0.7-2.1,1.1-4.7,1.1-7.9v-16.2c0-1.3-0.1-2.4-0.4-3.3
		c-0.3-0.9-0.6-1.6-1.1-2.2c-0.5-0.6-1-1-1.5-1.3c-0.6-0.3-1.1-0.5-1.7-0.6v-1.1c4.9-0.4,10.1-1.1,15.4-2.1c0,1,0,2.1-0.1,3.1
		c-0.1,1.1-0.1,2.2-0.1,3.3v4.6h0.2c0.4-1.4,1-2.8,1.7-4.2c0.7-1.4,1.6-2.7,2.5-3.9c1-1.2,2.1-2.2,3.4-2.9s2.7-1.1,4.3-1.1h3.4
		L687.3,217.7z M727,218.4c-0.1-1.7-0.5-3.2-1.1-4.6c-0.6-1.4-1.5-2.6-2.5-3.7c-1.1-1-2.3-1.8-3.8-2.4c-1.4-0.6-3-0.8-4.7-0.8
		c-2.1,0-3.9,0.6-5.3,1.8c-1.4,1.2-2.1,2.9-2.1,5.2c0,1.1,0.3,2,0.8,2.7c0.5,0.7,1.3,1.4,2.4,1.9c1.1,0.5,2.4,1,4,1.3
		c1.6,0.4,3.6,0.7,5.9,1.1c1.6,0.3,3.2,0.6,4.8,1c1.6,0.4,3,1.1,4.2,1.9c1.2,0.8,2.2,2,2.9,3.3c0.7,1.4,1.1,3.2,1.1,5.4
		c0,2.7-0.7,5-2.1,6.8c-1.4,1.8-3.1,3.2-5.1,4.2c-2.1,1-4.3,1.7-6.8,2.1c-2.5,0.4-4.8,0.6-7,0.6c-3.2,0-6.4-0.3-9.5-1
		c-3.2-0.7-6.2-1.7-9.1-3l3.8-12.6h0.2c0.6,1.9,1.4,3.7,2.2,5.4c0.9,1.7,2,3.2,3.3,4.5c1.3,1.3,2.8,2.4,4.5,3.1
		c1.7,0.8,3.6,1.1,5.9,1.1c1,0,2-0.2,3-0.5c1-0.4,1.9-0.9,2.8-1.5c0.8-0.7,1.5-1.4,2-2.4c0.5-0.9,0.8-1.9,0.8-3
		c0-1.4-0.4-2.5-1.1-3.3c-0.7-0.8-1.7-1.4-2.9-1.9c-1.2-0.5-2.6-0.8-4.2-1.1c-1.6-0.3-3.2-0.6-4.8-0.9c-1.7-0.3-3.4-0.7-4.9-1.2
		c-1.6-0.5-3-1.2-4.1-2c-1.2-0.9-2.1-2-2.9-3.3c-0.7-1.4-1.1-3.1-1.1-5.3c0-2.5,0.6-4.6,1.8-6.3c1.2-1.6,2.7-3,4.6-4
		c1.9-1,3.9-1.7,6.1-2.1c2.2-0.4,4.3-0.6,6.4-0.6c2.7,0,5.5,0.3,8.3,1c2.8,0.7,5.5,1.4,8.1,2.2l-3.6,11.3L727,218.4z M754.2,236
		c0,2.3,0.3,4.2,1,5.6c0.7,1.5,2.1,2.4,4.1,2.7v1.1c-1.8,0-3.6-0.1-5.4-0.2c-1.8-0.1-3.6-0.2-5.4-0.2s-3.6,0-5.4,0.2
		c-1.8,0.1-3.6,0.2-5.4,0.2v-1.1c2.1-0.3,3.5-1.2,4.1-2.7c0.7-1.5,1-3.3,1-5.6v-22.7c0-1.2-0.4-2.1-1.2-2.9
		c-0.8-0.8-1.8-1.3-2.9-1.5v-1.1c5-0.4,10.1-1.1,15.2-2.1V236z M748.4,190c1.7,0,3.1,0.6,4.1,1.9c1.1,1.2,1.6,2.7,1.6,4.3
		c0,1.6-0.5,3.1-1.6,4.3c-1.1,1.2-2.5,1.9-4.1,1.9c-1.7,0-3.1-0.6-4.1-1.9c-1.1-1.2-1.6-2.7-1.6-4.3c0-1.6,0.5-3.1,1.6-4.3
		C745.3,190.6,746.7,190,748.4,190z M802.9,231.7l-4.4,13.4h-36l21.5-29.9c1.2-1.8,1.8-3.2,1.8-4c0-0.5-0.1-0.8-0.4-1.1
		c-0.3-0.3-0.6-0.5-0.9-0.6c-0.4-0.2-0.7-0.2-1.1-0.3c-0.4,0-0.8,0-1.1,0c-1.8,0-3.6,0.3-5.2,0.8c-1.6,0.6-3.1,1.3-4.6,2.2
		c-1.4,0.9-2.7,2-4,3.3c-1.2,1.2-2.4,2.6-3.4,4h-1.1l3.9-12.8H801l-19.9,30.4c-1.1,1.7-1.7,3-1.7,4.1c0,0.6,0.2,0.9,0.6,1.1
		c0.4,0.2,0.9,0.3,1.4,0.3c2,0,3.9-0.3,5.8-0.8c1.9-0.5,3.7-1.3,5.4-2.3c1.7-1,3.3-2.1,4.8-3.5c1.5-1.3,2.8-2.8,3.9-4.4H802.9z
		 M270.1,279.7c-2.7,3-4,5.8-3.8,8.4c0.7-0.2,1.2-0.2,1.4-0.2c1,0,1.9,0.4,2.6,1.1c0.7,0.7,1,1.5,1,2.7c0,1-0.4,1.9-1.1,2.7
		c-0.8,0.7-1.7,1.1-2.7,1.1c-2.7,0-4.1-1.7-4.1-5.2c0-4.5,2-8.1,6.1-11L270.1,279.7z M281.7,279.7c-2.6,2.8-3.9,5.6-3.8,8.4
		c0.7-0.2,1.2-0.2,1.4-0.2c1,0,1.9,0.4,2.6,1.1c0.7,0.7,1,1.5,1,2.6s-0.4,2-1.1,2.7c-0.8,0.8-1.6,1.1-2.7,1.1
		c-2.7,0-4.1-1.7-4.1-5.2c0-4.5,2-8.1,6.1-11L281.7,279.7z M323,325.4c-5-7.3-8.5-11.6-10.6-13c-1.7-1.2-3.6-1.8-5.5-1.8
		c-3.5,0-5.2,2.2-5.2,6.6v1.4c0,8.1,0.5,13.1,1.4,15.1c0.6,1.3,1.8,2.1,3.5,2.4v0.5c-2.5-0.2-5.6-0.3-9.4-0.3
		c-2.7,0-4.9,0.1-6.6,0.3V336c1.2-0.4,2.1-0.9,2.7-1.5c0.7-0.8,1.1-2.1,1.4-4c0.5-3,0.7-11.1,0.7-24.2v-9.3c0-4.2-0.3-6.9-0.8-8.3
		c-0.5-1.4-1.5-2.3-3-2.7v-0.5c1.7,0.2,3.8,0.3,6.2,0.3c2.6,0,4.9-0.1,6.9-0.3v0.5c-1.3,0.5-2.1,1.4-2.4,2.8
		c-0.4,1.5-0.6,4.3-0.6,8.2v13.1l10.6-8.5c6.2-4.9,10-8,11.3-9.4c1.5-1.5,2.3-2.7,2.3-3.7c0-1.2-0.7-2-2-2.6v-0.5
		c1.8,0.2,4.1,0.3,6.7,0.3c3.1,0,6-0.1,8.4-0.3v0.5c-4.6,1.7-12.6,7.1-24.2,16.2l-8.1,6.3c6.1,0.3,10.4,1.1,12.9,2.5
		c2.6,1.5,5.5,4.6,8.7,9.5c4.1,5.9,7.2,9.8,9.1,11.7c1.8,1.8,4.1,3,6.9,3.7v0.5c-2.1-0.2-4.7-0.3-7.8-0.3c-2.5,0-4.5,0.1-6.1,0.3
		L323,325.4z M396.1,315.9c0,6.1-2.2,11.2-6.6,15.3c-4.5,4.2-9.9,6.2-16.4,6.2c-6.5,0-12-2.1-16.4-6.2c-4.5-4.2-6.7-9.3-6.7-15.3
		c0-6.2,2.2-11.3,6.7-15.4c4.5-4.1,10.1-6.2,16.7-6.2c6.4,0,11.8,2.1,16.1,6.2C393.9,304.7,396.1,309.8,396.1,315.9z M357.3,315.9
		c0,5,0.9,9.3,2.7,12.9c2.5,4.7,6.8,7,12.9,7c6.1,0,10.5-2.3,13-7c1.8-3.6,2.7-7.9,2.7-12.8c0-5.1-0.9-9.4-2.7-12.9
		c-2.5-4.7-6.9-7-13.2-7c-4.9,0-8.7,1.7-11.4,5.2C358.7,304.7,357.3,309.6,357.3,315.9z M439.9,305.2l-0.5-0.2
		c-0.6-2.7-2.2-4.8-4.9-6.4c-2.6-1.7-5.8-2.5-9.4-2.5c-3.5,0-6.2,0.8-8.4,2.5c-2.1,1.7-3.2,3.9-3.2,6.5c0,2.1,0.8,3.8,2.4,4.9
		c1.5,1.1,4.1,1.9,7.8,2.4l5.6,0.8c6.1,0.9,10.1,2.1,11.9,3.8c1.9,1.8,2.9,4,2.9,6.5c0,2-0.6,4-1.8,6c-1.3,2-2.9,3.6-4.9,4.7
		c-3.6,2.1-8.2,3.1-13.8,3.1c-6.8,0-13.3-1.4-19.6-4.2l2.7-7.5l0.5,0.2c0.4,2.8,2.2,5.2,5.3,7.1c3.3,1.8,7.2,2.7,11.8,2.7
		c4.1,0,7.4-0.9,9.9-2.6c2.5-1.7,3.8-3.9,3.8-6.6c0-2.2-0.8-3.9-2.4-5c-1.5-1.1-4.3-1.9-8.4-2.4l-6.4-0.8
		c-8.9-1.1-13.3-4.9-13.3-11.3c0-3.8,1.7-6.8,5-9.1c3.4-2.4,7.8-3.6,13.1-3.6c5.7,0,11.3,1.3,16.7,3.8L439.9,305.2z M460.3,307
		c2.8-8.5,8.3-12.7,16.4-12.7c5.1,0,8.9,1.4,11.6,4.2c1.5,1.7,2.7,4.1,3.5,7.3c2.8-7.6,8.2-11.4,16.2-11.4c5.4,0,9.5,1.6,12.2,4.9
		c2.6,2.8,4,7.6,4,14.3v9.3c0,5.1,0.3,8.6,0.9,10.6c0.5,1.5,1.5,2.4,3.1,2.7v0.5c-2.2-0.2-4.9-0.3-8.1-0.3c-2.6,0-4.8,0.1-6.4,0.3
		V336c1.6-0.3,2.7-1.4,3.2-3.3c0.6-1.9,0.8-5.2,0.8-10v-10.6c0-5-1-8.8-3-11.4c-2-2.6-4.9-4-8.7-4c-4.6,0-8.1,1.9-10.4,5.8
		c-1.9,3.1-2.9,7.5-2.9,12.9v7.2c0,5.3,0.3,8.8,1,10.6c0.6,1.5,1.6,2.4,3.3,2.7v0.5c-2.2-0.2-4.9-0.3-8.1-0.3
		c-2.5,0-4.5,0.1-6.1,0.3V336c1.6-0.3,2.7-1.4,3.2-3.3c0.6-1.9,0.8-5.2,0.8-10v-6.2c0-6.4-0.7-11.1-2-14c-1.6-3.7-4.8-5.6-9.7-5.6
		c-5.4,0-9.2,2.2-11.3,6.7c-1.7,3.2-2.5,8.4-2.5,15.4v3.7c0,4.9,0.3,8.4,0.8,10.6c0.5,1.6,1.4,2.5,3,2.7v0.5c-2-0.2-4.6-0.3-7.8-0.3
		c-2.5,0-4.4,0.1-5.9,0.3V336c1.6-0.4,2.7-1.5,3.2-3.3c0.6-1.9,0.8-5.2,0.8-9.9v-2.4c0-2.2-0.1-6-0.2-11.3c-0.1-1.7-0.1-3.3-0.2-4.7
		c-0.1-1.1-0.1-1.9-0.2-2.4c-0.2-1.9-1.3-2.9-3.3-3v-0.5c2.3-0.4,5.4-1.3,9.2-3c-0.3,3.3-0.4,6.6-0.4,9.9V307z M580.8,315.9
		c0,6.1-2.2,11.2-6.6,15.3c-4.5,4.2-9.9,6.2-16.4,6.2c-6.5,0-12-2.1-16.4-6.2c-4.5-4.2-6.7-9.3-6.7-15.3c0-6.2,2.2-11.3,6.7-15.4
		c4.5-4.1,10.1-6.2,16.7-6.2c6.4,0,11.8,2.1,16.1,6.2C578.6,304.7,580.8,309.8,580.8,315.9z M542,315.9c0,5,0.9,9.3,2.7,12.9
		c2.5,4.7,6.8,7,12.9,7c6.1,0,10.5-2.3,13-7c1.8-3.6,2.7-7.9,2.7-12.8c0-5.1-0.9-9.4-2.7-12.9c-2.5-4.7-6.9-7-13.2-7
		c-4.9,0-8.7,1.7-11.4,5.2C543.4,304.7,542,309.6,542,315.9z M624.7,305.2l-0.5-0.2c-0.6-2.7-2.2-4.8-4.9-6.4
		c-2.6-1.7-5.8-2.5-9.4-2.5c-3.5,0-6.2,0.8-8.4,2.5c-2.1,1.7-3.2,3.9-3.2,6.5c0,2.1,0.8,3.8,2.4,4.9c1.5,1.1,4.1,1.9,7.8,2.4
		l5.6,0.8c6.1,0.9,10.1,2.1,11.9,3.8c1.9,1.8,2.9,4,2.9,6.5c0,2-0.6,4-1.8,6c-1.3,2-2.9,3.6-4.9,4.7c-3.6,2.1-8.2,3.1-13.8,3.1
		c-6.8,0-13.3-1.4-19.6-4.2l2.7-7.5l0.5,0.2c0.4,2.8,2.2,5.2,5.3,7.1c3.3,1.8,7.2,2.7,11.8,2.7c4.1,0,7.4-0.9,9.9-2.6
		c2.5-1.7,3.8-3.9,3.8-6.6c0-2.2-0.8-3.9-2.4-5c-1.5-1.1-4.3-1.9-8.4-2.4l-6.4-0.8c-8.9-1.1-13.3-4.9-13.3-11.3c0-3.8,1.7-6.8,5-9.1
		c3.4-2.4,7.8-3.6,13.1-3.6c5.7,0,11.3,1.3,16.7,3.8L624.7,305.2z M637.7,295.3c2.6-2.9,3.9-5.7,3.8-8.4c-0.7,0.2-1.1,0.2-1.4,0.2
		c-1,0-1.9-0.4-2.6-1.1c-0.7-0.7-1-1.5-1-2.7c0-1,0.4-1.9,1.1-2.7c0.8-0.7,1.7-1.1,2.7-1.1c2.7,0,4.1,1.7,4.1,5.2
		c0,4.5-2,8.2-6.1,11L637.7,295.3z M649.4,295.3c2.7-3,4-5.8,3.8-8.4c-0.6,0.2-1.1,0.2-1.4,0.2c-1,0-1.9-0.4-2.6-1.1
		c-0.7-0.7-1-1.5-1-2.7c0-1,0.4-1.9,1.1-2.7c0.8-0.7,1.7-1.1,2.7-1.1c2.7,0,4.1,1.7,4.1,5.2c0,4.5-2,8.2-6.1,11L649.4,295.3z
		 M704,336c2.9-0.7,4.7-2.5,5.2-5.6c0.6-3.4,0.8-11.6,0.8-24.3v-9.2c0-4.3-0.2-6.9-0.5-7.7c-0.5-1.3-2-2-4.6-2
		c-4.1,0-7.5,0.6-10.3,1.8c-2.7,1.2-5.4,3.3-8.1,6.2h-0.5l3.3-9.7h47.7l3.3,9.7h-0.5c-2.5-2.9-5.2-5-8-6.2
		c-2.8-1.2-6.2-1.8-10.3-1.8c-2.8,0-4.4,0.9-4.8,2.6c-0.2,0.9-0.3,3.2-0.3,7.1v9.2c0,12.8,0.3,20.9,0.8,24.3c0.6,3,2.3,4.9,5.2,5.6
		v0.5c-2-0.2-5.1-0.3-9.2-0.3c-4.2,0-7.3,0.1-9.3,0.3V336z M740.9,345.2l0.5,0.1c1.2,2.3,2.9,3.4,5.1,3.4c2.4,0,4-1.8,4.8-5.5
		c0.8-3.6,1.1-11.1,1.1-22.4v-0.5c0-2.8-0.1-6.7-0.2-11.6c-0.1-3.9-0.2-6.3-0.4-7.3c-0.3-1.8-1.5-2.9-3.6-3.1v-0.5
		c3.5-0.5,6.8-1.3,9.9-2.5c-0.2,3.2-0.3,6.5-0.3,9.9v9.7c0,2.5,0.1,6.3,0.3,11.2v2.4c0,9.6-2.3,16.2-6.9,19.9
		c-3,2.2-6.4,3.3-10.2,3.3c-0.9,0-1.6-0.1-2.3-0.3L740.9,345.2z M759,285.5c0,1.1-0.4,2-1.1,2.7s-1.7,1.1-2.7,1.1s-2-0.4-2.7-1.1
		s-1.1-1.7-1.1-2.7s0.4-2,1.1-2.7s1.7-1.1,2.8-1.1c1,0,1.9,0.4,2.7,1.1S759,284.5,759,285.5z M320.5,376.8c1.3,0.2,2.8,0.3,4.6,0.3
		c1.7,0,3.5-0.1,5.2-0.3v0.5c-1.6,0.6-2.7,1.5-3.1,2.8c-0.5,1.4-0.8,4.1-0.8,8.2v16.4c0,10.4,0.5,16.9,1.4,19.5
		c0.6,1.5,1.8,2.5,3.7,3.1v0.5c-2.6-0.2-5.7-0.3-9.4-0.3c-3,0-5.4,0.1-7.2,0.3v-0.5c1.8-0.6,3-1.6,3.7-3.1c1-2.4,1.4-8.9,1.4-19.5
		v-22.1l-22.6,46.6l-22.1-47.1v21c0,11.5,0.5,18.2,1.4,20.2c0.8,1.8,2.2,3.1,4.3,4v0.5c-2.1-0.2-4.6-0.3-7.7-0.3
		c-2.5,0-4.5,0.1-5.9,0.3v-0.5c1.9-0.9,3.3-2.1,4.1-3.7c0.8-1.6,1.3-5.1,1.5-10.5c0-0.2,0-3,0.2-8.4c0-1,0-2.1,0.1-3.1v-2.5
		c0-1.6,0.1-2.6,0.1-3v-7.7c0-4.5-0.5-7.5-1.4-8.8c-0.5-0.8-1.6-1.5-3.2-2.2v-0.5c1.5,0.2,3.3,0.3,5.5,0.3c2.2,0,4.2-0.1,5.9-0.3
		l20.2,41.3L320.5,376.8z M374.1,427.7c-0.7-1.6-1.2-4.2-1.8-7.8c-3.2,5.8-8.3,8.7-15.1,8.7c-5.2,0-9.5-1.2-12.9-3.5
		c-3.4-2.3-5.1-5.3-5.1-8.8c0-5,3.1-8.6,9.4-10.9c5-1.8,11.3-2.7,18.9-2.7h4.1v-2.3c0-8.8-4.3-13.2-13-13.2c-3.8,0-7,0.9-9.7,2.7
		c-2.5,1.7-4.2,4.2-5.1,7.3l-0.5,0.2l-2.4-7.6c6.5-2.8,12.7-4.2,18.3-4.2c6.3,0,11,1.4,14.1,4.2c2.7,2.4,4,6.9,4,13.5v11.2
		c0,4.2,0.3,7.3,0.9,9.2c0.7,1.9,1.8,3.1,3.3,3.6v0.4H374.1z M367.5,404.4c-13.8,0-20.8,4-20.8,12c0,3.1,1.1,5.7,3.2,7.7
		c2.1,1.9,4.8,2.9,8.2,2.9c2.8,0,5.3-0.7,7.5-2c2.3-1.3,3.8-3.1,4.6-5.2c1-2.3,1.4-6.7,1.4-13.3v-2.1H367.5z M382.5,436.5l0.5,0.1
		c1.2,2.3,2.9,3.4,5.1,3.4c2.4,0,4-1.8,4.8-5.5c0.8-3.6,1.1-11.1,1.1-22.4v-0.5c0-2.8-0.1-6.7-0.2-11.6c-0.1-3.9-0.2-6.3-0.4-7.3
		c-0.3-1.8-1.5-2.9-3.6-3.1v-0.5c3.5-0.5,6.8-1.3,9.9-2.5c-0.2,3.2-0.3,6.5-0.3,9.9v9.7c0,2.5,0.1,6.3,0.3,11.2v2.4
		c0,9.6-2.3,16.2-6.9,19.9c-3,2.2-6.4,3.3-10.2,3.3c-0.9,0-1.6-0.1-2.3-0.3L382.5,436.5z M400.7,376.8c0,1.1-0.4,2-1.1,2.7
		s-1.7,1.1-2.7,1.1s-2-0.4-2.7-1.1s-1.1-1.7-1.1-2.7s0.4-2,1.1-2.7s1.7-1.1,2.8-1.1c1,0,1.9,0.4,2.7,1.1S400.7,375.7,400.7,376.8z
		 M418.6,398.3c2.8-8.5,8.3-12.7,16.4-12.7c5.1,0,8.9,1.4,11.6,4.2c1.5,1.7,2.7,4.1,3.5,7.3c2.8-7.6,8.2-11.4,16.2-11.4
		c5.4,0,9.5,1.6,12.2,4.9c2.6,2.8,4,7.6,4,14.3v9.3c0,5.1,0.3,8.6,0.9,10.6c0.5,1.5,1.5,2.4,3.1,2.7v0.5c-2.2-0.2-4.9-0.3-8.1-0.3
		c-2.6,0-4.8,0.1-6.4,0.3v-0.5c1.6-0.3,2.7-1.4,3.2-3.3c0.6-1.9,0.8-5.3,0.8-10v-10.6c0-5-1-8.8-3-11.4c-2-2.6-4.9-4-8.7-4
		c-4.6,0-8.1,1.9-10.4,5.8c-1.9,3.1-2.9,7.5-2.9,12.9v7.2c0,5.3,0.3,8.8,1,10.6c0.6,1.5,1.6,2.4,3.3,2.7v0.5
		c-2.2-0.2-4.9-0.3-8.1-0.3c-2.5,0-4.5,0.1-6.1,0.3v-0.5c1.6-0.3,2.7-1.4,3.2-3.3c0.6-1.9,0.8-5.3,0.8-10v-6.2c0-6.4-0.7-11.1-2-14
		c-1.6-3.7-4.8-5.6-9.7-5.6c-5.4,0-9.2,2.2-11.3,6.7c-1.7,3.2-2.5,8.4-2.5,15.4v3.7c0,4.9,0.3,8.4,0.8,10.6c0.5,1.6,1.4,2.5,3,2.7
		v0.5c-2-0.2-4.6-0.3-7.8-0.3c-2.5,0-4.4,0.1-5.9,0.3v-0.5c1.6-0.4,2.7-1.5,3.2-3.3c0.6-1.9,0.8-5.2,0.8-9.9v-2.4
		c0-2.2-0.1-6-0.2-11.3c-0.1-1.7-0.1-3.3-0.2-4.7c-0.1-1.1-0.1-1.9-0.2-2.4c-0.2-1.9-1.3-2.9-3.3-3v-0.5c2.3-0.4,5.4-1.3,9.2-3
		c-0.3,3.3-0.4,6.6-0.4,9.9V398.3z M529.5,427.7c-0.8-1.7-1.6-4.4-2.5-8.1c-3.5,6-8.8,9.1-16,9.1c-11,0-16.4-5.4-16.4-16.3v-2.1
		c0-1.1,0-2,0.1-2.5c0-0.6,0.1-1.4,0.1-2.5v-3.8c0-5.5-0.2-8.7-0.5-9.6c-0.4-1-1.5-1.5-3.5-1.8v-0.5c3.6-0.7,6.9-1.7,10-3
		c-0.2,2.5-0.3,5.8-0.3,9.9v11c0,6.1,0.7,10.5,2.1,13.2c1.9,3.7,5.3,5.5,10.3,5.5c2.6,0,5-0.6,7.2-1.8c2.1-1.1,3.7-2.7,4.7-4.7
		c1.4-3,2.1-8.2,2.1-15.7v-2.4c0-5.5-0.2-8.7-0.5-9.6c-0.4-0.9-1.5-1.5-3.4-1.8v-0.5c1.7-0.3,3.4-0.7,5.2-1.3c1.7-0.5,3.3-1,4.9-1.7
		c-0.2,2.5-0.3,5.8-0.3,9.9v10c0,7.9,0.2,13.1,0.7,15.7c0.4,2.5,1.3,4.2,2.8,5v0.5H529.5z M576.8,427.7c-0.7-1.6-1.2-4.2-1.8-7.8
		c-3.2,5.8-8.3,8.7-15.1,8.7c-5.2,0-9.5-1.2-12.9-3.5c-3.4-2.3-5.1-5.3-5.1-8.8c0-5,3.1-8.6,9.4-10.9c5-1.8,11.3-2.7,18.9-2.7h4.1
		v-2.3c0-8.8-4.3-13.2-13-13.2c-3.8,0-7,0.9-9.7,2.7c-2.5,1.7-4.2,4.2-5.1,7.3l-0.5,0.2l-2.4-7.6c6.5-2.8,12.7-4.2,18.3-4.2
		c6.3,0,11,1.4,14.1,4.2c2.7,2.4,4,6.9,4,13.5v11.2c0,4.2,0.3,7.3,0.9,9.2c0.7,1.9,1.8,3.1,3.3,3.6v0.4H576.8z M570.2,404.4
		c-13.8,0-20.8,4-20.8,12c0,3.1,1.1,5.7,3.2,7.7c2.1,1.9,4.8,2.9,8.2,2.9c2.8,0,5.3-0.7,7.5-2c2.3-1.3,3.8-3.1,4.6-5.2
		c1-2.3,1.4-6.7,1.4-13.3v-2.1H570.2z M626.9,396.5l-0.5-0.2c-0.6-2.7-2.2-4.8-4.9-6.4c-2.6-1.7-5.8-2.5-9.4-2.5
		c-3.5,0-6.2,0.8-8.4,2.5c-2.1,1.7-3.2,3.9-3.2,6.5c0,2.1,0.8,3.8,2.4,4.9c1.5,1.1,4.1,1.9,7.8,2.4l5.6,0.8
		c6.1,0.9,10.1,2.1,11.9,3.8c1.9,1.8,2.9,4,2.9,6.5c0,2-0.6,4-1.8,6c-1.3,2-2.9,3.6-4.9,4.7c-3.6,2.1-8.2,3.1-13.8,3.1
		c-6.8,0-13.3-1.4-19.6-4.2l2.7-7.5l0.5,0.2c0.4,2.8,2.2,5.2,5.3,7.1c3.3,1.8,7.2,2.7,11.8,2.7c4.1,0,7.4-0.9,9.9-2.6
		c2.5-1.7,3.8-3.9,3.8-6.6c0-2.2-0.8-3.9-2.4-5c-1.5-1.1-4.3-1.9-8.4-2.4l-6.4-0.8c-8.9-1.1-13.3-4.9-13.3-11.3c0-3.8,1.7-6.8,5-9.1
		c3.4-2.4,7.8-3.6,13.1-3.6c5.7,0,11.3,1.3,16.7,3.8L626.9,396.5z M638.4,389.1c1.5-0.3,3.4-0.7,5.7-1.3c2.2-0.6,3.5-1,4.1-1.2v27.5
		c0,5.2,0.3,8.7,1,10.5c0.6,1.6,1.7,2.5,3.3,2.7v0.5c-2.4-0.2-5.1-0.3-8.2-0.3c-2.6,0-4.8,0.1-6.5,0.3v-0.5c1.5-0.3,2.6-1.3,3.3-2.9
		c0.8-1.9,1.2-5.4,1.2-10.3v-2.4c0-10.7-0.2-17-0.5-18.9c-0.3-1.8-1.4-2.9-3.4-3.1V389.1z M648.5,376.8c0,1.1-0.4,2-1.1,2.7
		s-1.7,1.1-2.7,1.1c-1.1,0-2-0.4-2.7-1.1s-1.1-1.7-1.1-2.7s0.4-2,1.1-2.7s1.7-1.1,2.8-1.1c1,0,1.9,0.4,2.7,1.1
		S648.5,375.7,648.5,376.8z M699.2,427.7c-0.7-1.6-1.4-4.6-2.1-8.8c-2.2,3.6-4.6,6.1-7.2,7.5c-2.5,1.5-5.6,2.3-9.4,2.3
		c-6.3,0-11.6-2-15.8-6.1c-4.2-4-6.2-9.1-6.2-15.2c0-6.3,2.1-11.5,6.4-15.6c4.3-4.1,9.7-6.2,16.2-6.2c6.6,0,11.9,2.4,16.1,7.3v-3
		c0-1.7-0.1-4.6-0.2-8.5c-0.2-3-0.3-4.8-0.5-5.4c-0.3-1.4-1.5-2.2-3.7-2.4v-0.5c1.3-0.2,3-0.6,5.2-1.3c2.3-0.7,4-1.3,4.9-1.7
		c-0.1,2.2-0.1,5-0.2,8.4c-0.1,1.9-0.1,4.9-0.1,8.9v10c0,10.7,0.3,18.7,1,24.2c0.5,3,1.7,4.8,3.8,5.6v0.4H699.2z M665.9,407.4
		c0,6,1.4,10.8,4.2,14.4c2.8,3.5,6.6,5.2,11.4,5.2c5.3,0,9.3-2,12-5.9c2.3-3.4,3.5-8.1,3.5-14.1c0-13.1-5.2-19.7-15.7-19.7
		c-4.9,0-8.6,1.8-11.3,5.2C667.2,396.1,665.9,401.1,665.9,407.4z M748.5,427.7c-0.7-1.6-1.2-4.2-1.8-7.8c-3.2,5.8-8.3,8.7-15.1,8.7
		c-5.2,0-9.5-1.2-12.9-3.5c-3.4-2.3-5.1-5.3-5.1-8.8c0-5,3.1-8.6,9.4-10.9c5-1.8,11.3-2.7,18.9-2.7h4.1v-2.3c0-8.8-4.3-13.2-13-13.2
		c-3.8,0-7,0.9-9.7,2.7c-2.5,1.7-4.2,4.2-5.1,7.3l-0.5,0.2l-2.4-7.6c6.5-2.8,12.7-4.2,18.3-4.2c6.3,0,11,1.4,14.1,4.2
		c2.7,2.4,4,6.9,4,13.5v11.2c0,4.2,0.3,7.3,0.9,9.2c0.7,1.9,1.8,3.1,3.3,3.6v0.4H748.5z M741.9,404.4c-13.8,0-20.8,4-20.8,12
		c0,3.1,1.1,5.7,3.2,7.7c2.1,1.9,4.8,2.9,8.2,2.9c2.8,0,5.3-0.7,7.5-2c2.3-1.3,3.8-3.1,4.6-5.2c1-2.3,1.4-6.7,1.4-13.3v-2.1H741.9z
		 M206.6,479.7c0-2.5-0.3-4.5-0.8-5.9c-0.6-1.4-1.6-2.3-3-2.7V470c0.9,0,1.8,0,2.7,0c0.9,0,1.8,0.1,2.7,0.1c0.9,0.1,1.7,0.1,2.6,0.1
		c0.9,0,1.8,0,2.6,0h14.5c7.4,0,13.1,1,17.3,3.1c4.2,2.1,6.4,5.1,6.6,9.1c0,2-0.4,3.8-1.3,5.3c-0.9,1.5-2.1,2.8-3.5,3.8
		s-3.1,1.9-4.9,2.6c-1.9,0.7-3.7,1.2-5.7,1.6c-1.9,0.4-3.8,0.6-5.7,0.8c-1.9,0.2-3.6,0.2-5,0.2c-1,0-1.9,0-2.8-0.1
		c-0.9-0.1-1.8-0.2-2.7-0.3v8.1c0,1.7,0,3.4,0.2,4.9c0.1,1.5,0.3,2.9,0.7,4.1c0.4,1.2,1,2.2,1.7,3s1.9,1.2,3.2,1.2v1.5
		c-2.1,0-4.2-0.1-6.4-0.2c-2.1-0.1-4.2-0.2-6.2-0.2c-2,0-4.1,0-6.2,0.2c-2.1,0.1-4.2,0.2-6.4,0.2v-1.5c1.4-0.1,2.4-0.5,3.2-1.2
		c0.8-0.8,1.4-1.8,1.8-3c0.4-1.2,0.6-2.6,0.7-4.1c0.1-1.5,0.2-3.2,0.2-4.9V479.7z M220,493.7h3c4.4,0,7.9-1,10.4-2.9
		c2.5-1.9,3.8-4.8,3.8-8.6c0-3-1.1-5.4-3.3-7c-2.2-1.6-5.8-2.5-10.8-2.5h-3V493.7z M280.9,491.5c-0.6-0.7-1.2-1.3-1.9-1.9
		c-0.7-0.5-1.5-0.8-2.5-0.8c-1.1,0-2.1,0.3-2.8,1s-1.4,1.6-1.8,2.7c-0.5,1.1-0.8,2.3-1,3.7c-0.2,1.4-0.3,2.8-0.3,4.2v5.9
		c0,3.1,0.3,5.8,1,7.9c0.7,2.1,2.1,3.4,4.1,4v1.1c-1.8,0-3.6-0.1-5.4-0.2c-1.8-0.1-3.6-0.2-5.4-0.2c-1.8,0-3.6,0-5.4,0.2
		c-1.8,0.1-3.6,0.2-5.4,0.2v-1.1c2-0.6,3.4-1.9,4.1-4c0.7-2.1,1.1-4.7,1.1-7.9v-16.2c0-1.3-0.1-2.4-0.4-3.3
		c-0.3-0.9-0.6-1.6-1.1-2.2c-0.5-0.6-1-1-1.5-1.3c-0.6-0.3-1.1-0.5-1.7-0.6v-1.1c4.9-0.4,10.1-1.1,15.4-2.1c0,1,0,2.1-0.1,3.1
		c-0.1,1.1-0.1,2.2-0.1,3.3v4.6h0.2c0.4-1.4,1-2.8,1.7-4.2c0.7-1.4,1.6-2.7,2.5-3.9c1-1.2,2.1-2.2,3.4-2.9s2.7-1.1,4.3-1.1h3.4
		L280.9,491.5z M300.8,494.9v4.3c0,2.1,0.2,4.2,0.5,6.3c0.4,2.1,1,4,2,5.7c1,1.7,2.3,3.1,4,4.1c1.7,1.1,3.9,1.6,6.5,1.6
		c2,0,3.9-0.4,5.5-1.3c1.6-0.9,3-2,4.3-3.3c1.2-1.4,2.2-2.9,3.1-4.7c0.8-1.8,1.5-3.5,1.9-5.3l2,1.4c-2.7,10.9-9.8,16.4-21.5,16.4
		c-3.2,0-6.1-0.6-8.7-1.7c-2.6-1.1-4.8-2.7-6.5-4.6s-3.1-4.1-4.1-6.7c-1-2.5-1.4-5.2-1.4-8c0-2.9,0.5-5.6,1.4-8.1
		c1-2.5,2.3-4.8,4.1-6.7c1.8-1.9,4-3.4,6.5-4.5c2.6-1.1,5.5-1.6,8.7-1.6c2.6,0,5.1,0.4,7.4,1.1s4.5,1.8,6.3,3.2
		c1.8,1.4,3.3,3.1,4.4,5.2c1.1,2.1,1.7,4.4,1.9,7.1H300.8z M316.6,492.4c-0.1-1.2-0.2-2.5-0.3-3.9c-0.2-1.4-0.5-2.6-1.1-3.8
		c-0.5-1.2-1.3-2.1-2.4-2.9c-1-0.8-2.4-1.1-4.1-1.1c-1.8,0-3.2,0.4-4.2,1.1c-1,0.8-1.8,1.7-2.3,2.9c-0.5,1.2-0.9,2.4-1.1,3.8
		c-0.2,1.4-0.3,2.7-0.3,3.9H316.6z M349.9,487h0.2c1.4-2.9,3.1-5.1,5.3-6.5c2.2-1.4,4.9-2.2,8.1-2.2c3.3,0,6.1,0.8,8.4,2.4
		c2.2,1.6,3.7,3.6,4.4,6c1.5-2.8,3.3-4.9,5.4-6.3c2.2-1.4,4.9-2.1,8.3-2.1c2,0,3.9,0.3,5.6,1c1.7,0.7,3.1,1.6,4.3,2.7
		c1.2,1.2,2.2,2.6,2.9,4.2c0.7,1.6,1,3.5,1,5.5v20.2c0,1.8,0.4,3.2,1.2,4.2s2.1,1.7,3.8,2.1v1.1c-1.8,0-3.6-0.1-5.4-0.2
		c-1.8-0.1-3.5-0.2-5.2-0.2c-1.6,0-3.2,0-4.9,0.2c-1.7,0.1-3.5,0.2-5.2,0.2v-1.1c1.3-0.2,2.4-0.7,3.3-1.8c0.9-1,1.3-2.5,1.3-4.5
		v-16.1c0-1.7-0.1-3.4-0.3-5c-0.2-1.6-0.6-3-1.1-4.3c-0.5-1.2-1.3-2.2-2.2-3c-1-0.7-2.2-1.1-3.7-1.1c-1.4,0-2.6,0.4-3.7,1.3
		s-1.8,1.9-2.5,3.2c-0.6,1.3-1.1,2.7-1.4,4.3c-0.3,1.6-0.5,3.1-0.5,4.6v16.1c0,1.8,0.4,3.2,1.2,4.2s2.1,1.7,3.8,2.1v1.1
		c-1.8,0-3.6-0.1-5.4-0.2c-1.8-0.1-3.6-0.2-5.2-0.2c-1.6,0-3.2,0-4.9,0.2c-1.7,0.1-3.5,0.2-5.2,0.2v-1.1c1.3-0.2,2.4-0.7,3.3-1.8
		c0.9-1,1.3-2.5,1.3-4.5v-16.1c0-1.7-0.1-3.4-0.3-5c-0.2-1.6-0.6-3-1.1-4.3c-0.5-1.2-1.3-2.2-2.2-3c-1-0.7-2.2-1.1-3.7-1.1
		c-1.4,0-2.6,0.4-3.7,1.3c-1,0.8-1.8,1.9-2.5,3.2c-0.6,1.3-1.1,2.7-1.4,4.3c-0.3,1.6-0.5,3.1-0.5,4.6v10.4c0,3.1,0.3,5.8,1,7.9
		c0.7,2.1,2.1,3.4,4.1,4v1.1c-1.8,0-3.6-0.1-5.4-0.2c-1.8-0.1-3.6-0.2-5.4-0.2c-1.8,0-3.6,0-5.4,0.2c-1.8,0.1-3.6,0.2-5.4,0.2v-1.1
		c2-0.6,3.4-1.9,4.1-4c0.7-2.1,1.1-4.7,1.1-7.9v-16.2c0-1.3-0.1-2.4-0.4-3.3c-0.3-0.9-0.6-1.6-1.1-2.2c-0.5-0.6-1-1-1.5-1.3
		c-0.6-0.3-1.1-0.5-1.7-0.6v-1.1c2.5-0.2,5-0.5,7.5-0.8c2.5-0.3,5-0.8,7.5-1.3V487z M428.1,509.9c0,2.3,0.3,4.2,1,5.6
		c0.7,1.5,2.1,2.4,4.1,2.7v1.1c-1.8,0-3.6-0.1-5.4-0.2c-1.8-0.1-3.6-0.2-5.4-0.2s-3.6,0-5.4,0.2c-1.8,0.1-3.6,0.2-5.4,0.2v-1.1
		c2.1-0.3,3.5-1.2,4.1-2.7c0.7-1.5,1-3.3,1-5.6v-22.7c0-1.2-0.4-2.1-1.2-2.9c-0.8-0.8-1.8-1.3-2.9-1.5v-1.1c5-0.4,10.1-1.1,15.2-2.1
		V509.9z M422.3,463.8c1.7,0,3.1,0.6,4.1,1.9c1.1,1.2,1.6,2.7,1.6,4.3s-0.5,3.1-1.6,4.3c-1.1,1.2-2.5,1.9-4.1,1.9
		c-1.7,0-3.1-0.6-4.1-1.9c-1.1-1.2-1.6-2.7-1.6-4.3s0.5-3.1,1.6-4.3C419.2,464.5,420.6,463.8,422.3,463.8z M468.3,511.5
		c-1.5,2.9-3.3,5-5.4,6.5c-2.1,1.4-4.8,2.1-8,2.1c-2.4,0-4.5-0.4-6.2-1.2s-3.3-1.9-4.5-3.2c-1.2-1.4-2.1-3-2.7-4.9
		c-0.6-1.9-0.9-4-0.9-6.3c0-3,0-6,0-8.9c0-2.9-0.1-5.9-0.1-9c0-1.3-0.4-2.2-1.1-2.7c-0.7-0.5-1.6-0.8-2.8-1.1v-1.2
		c2.6-0.3,5.2-0.5,7.8-0.9c2.6-0.3,5.3-0.8,7.9-1.3c-0.1,1.8-0.2,4.1-0.4,7.1c-0.2,3-0.2,6.3-0.2,9.9v7.5c0,1.2,0.1,2.5,0.3,3.8
		c0.2,1.3,0.6,2.6,1.1,3.7c0.5,1.1,1.3,2,2.2,2.8c1,0.7,2.2,1.1,3.7,1.1c1.7,0,3.1-0.4,4.2-1.3c1.1-0.9,2-2.1,2.7-3.5
		c0.7-1.5,1.2-3.1,1.5-4.9s0.5-3.7,0.5-5.6v-12.4c0-1.5-0.4-2.6-1.1-3.3c-0.7-0.8-1.8-1.3-3.2-1.5v-1.1c2.6-0.3,5.2-0.5,7.8-0.8
		c2.6-0.3,5.2-0.7,7.8-1.3c-0.2,9.3-0.2,18.6-0.2,28.1c0,1.7,0.1,3.2,0.2,4.4c0.2,1.2,0.4,2.2,0.7,3c0.3,0.8,0.8,1.4,1.4,1.9
		s1.3,0.8,2.2,1.1v1.1h-13.5L468.3,511.5z M502.1,487h0.2c1.4-2.9,3.1-5.1,5.3-6.5c2.2-1.4,4.9-2.2,8.1-2.2c3.3,0,6.1,0.8,8.4,2.4
		c2.2,1.6,3.7,3.6,4.4,6c1.5-2.8,3.3-4.9,5.4-6.3c2.2-1.4,4.9-2.1,8.3-2.1c2,0,3.9,0.3,5.6,1c1.7,0.7,3.1,1.6,4.3,2.7
		c1.2,1.2,2.2,2.6,2.9,4.2c0.7,1.6,1,3.5,1,5.5v20.2c0,1.8,0.4,3.2,1.2,4.2s2.1,1.7,3.8,2.1v1.1c-1.8,0-3.6-0.1-5.4-0.2
		c-1.8-0.1-3.5-0.2-5.2-0.2c-1.6,0-3.2,0-4.9,0.2c-1.7,0.1-3.5,0.2-5.2,0.2v-1.1c1.3-0.2,2.4-0.7,3.3-1.8c0.9-1,1.3-2.5,1.3-4.5
		v-16.1c0-1.7-0.1-3.4-0.3-5c-0.2-1.6-0.6-3-1.1-4.3c-0.5-1.2-1.3-2.2-2.2-3c-1-0.7-2.2-1.1-3.7-1.1c-1.4,0-2.6,0.4-3.7,1.3
		s-1.8,1.9-2.5,3.2c-0.6,1.3-1.1,2.7-1.4,4.3c-0.3,1.6-0.5,3.1-0.5,4.6v16.1c0,1.8,0.4,3.2,1.2,4.2s2.1,1.7,3.8,2.1v1.1
		c-1.8,0-3.6-0.1-5.4-0.2c-1.8-0.1-3.6-0.2-5.2-0.2c-1.6,0-3.2,0-4.9,0.2c-1.7,0.1-3.5,0.2-5.2,0.2v-1.1c1.3-0.2,2.4-0.7,3.3-1.8
		c0.9-1,1.3-2.5,1.3-4.5v-16.1c0-1.7-0.1-3.4-0.3-5c-0.2-1.6-0.6-3-1.1-4.3c-0.5-1.2-1.3-2.2-2.2-3c-1-0.7-2.2-1.1-3.7-1.1
		c-1.4,0-2.6,0.4-3.7,1.3c-1,0.8-1.8,1.9-2.5,3.2c-0.6,1.3-1.1,2.7-1.4,4.3c-0.3,1.6-0.5,3.1-0.5,4.6v10.4c0,3.1,0.3,5.8,1,7.9
		c0.7,2.1,2.1,3.4,4.1,4v1.1c-1.8,0-3.6-0.1-5.4-0.2c-1.8-0.1-3.6-0.2-5.4-0.2c-1.8,0-3.6,0-5.4,0.2c-1.8,0.1-3.6,0.2-5.4,0.2v-1.1
		c2-0.6,3.4-1.9,4.1-4c0.7-2.1,1.1-4.7,1.1-7.9v-16.2c0-1.3-0.1-2.4-0.4-3.3c-0.3-0.9-0.6-1.6-1.1-2.2c-0.5-0.6-1-1-1.5-1.3
		c-0.6-0.3-1.1-0.5-1.7-0.6v-1.1c2.5-0.2,5-0.5,7.5-0.8c2.5-0.3,5-0.8,7.5-1.3V487z M628.5,491.8v-12c0.1-2.7-0.2-4.7-0.8-6
		c-0.6-1.3-1.7-2.1-3.2-2.5V470c1.8,0,3.6,0.1,5.4,0.2c1.8,0.1,3.6,0.2,5.3,0.2c1.7,0,3.5,0,5.3-0.2c1.8-0.1,3.7-0.2,5.7-0.2v1.2
		c-1.7,0.4-2.9,1.3-3.5,2.7c-0.6,1.4-0.9,3.3-0.9,5.9v24.5c0,1.4,0,2.8,0.1,4.3c0.1,1.5,0.3,2.9,0.6,4.2c0.4,1.3,0.9,2.4,1.6,3.3
		c0.7,0.9,1.7,1.4,3,1.4v1.5h-24.2v-1.5c1.3,0,2.3-0.5,3-1.2c0.7-0.8,1.3-1.8,1.6-3c0.4-1.2,0.6-2.6,0.6-4.1s0.1-3.2,0.1-4.9v-9.7
		h-21.1v9.7c0,1.7,0,3.4,0.1,4.9s0.3,2.9,0.7,4.1c0.4,1.2,0.9,2.2,1.7,3c0.7,0.8,1.8,1.2,3.1,1.2v1.5h-25v-1.5
		c1.4,0,2.5-0.5,3.3-1.2c0.8-0.8,1.4-1.8,1.8-3c0.4-1.2,0.6-2.6,0.7-4.1c0.1-1.5,0.2-3.2,0.2-4.9v-23.1c0-1.9,0-3.4-0.1-4.6
		c-0.1-1.2-0.3-2.1-0.5-2.9c-0.3-0.7-0.7-1.2-1.2-1.6c-0.5-0.4-1.3-0.7-2.2-0.9V470c1.8,0,3.6,0.1,5.4,0.2c1.8,0.1,3.6,0.2,5.3,0.2
		c1.7,0,3.5,0,5.3-0.2c1.8-0.1,3.8-0.2,5.9-0.2v1.2c-0.9,0.2-1.7,0.5-2.2,0.8c-0.6,0.3-1.1,0.8-1.4,1.5c-0.4,0.7-0.6,1.5-0.7,2.5
		c-0.1,1-0.2,2.2-0.2,3.8v12H628.5z M679,512.7c-1.5,2.3-3.1,4.1-5,5.4c-1.9,1.3-4.2,2-7.1,2c-1.9,0-3.9-0.2-5.8-0.6
		c-1.9-0.4-3.7-1.1-5.2-2s-2.8-2.1-3.7-3.6c-0.9-1.5-1.4-3.4-1.4-5.6c0-2.7,0.8-4.9,2.5-6.7c1.6-1.8,3.7-3.2,6.3-4.3
		c2.5-1.1,5.3-1.8,8.3-2.2c3-0.4,5.9-0.6,8.6-0.6h1.7v-3.3c0-3.1-0.8-5.6-2.4-7.5c-1.6-1.9-3.8-2.9-6.5-2.9
		c-3.2,0.1-5.8,1.3-7.9,3.6s-3.6,5.5-4.6,9.4l-1.1,0.3l-3.2-12c3.3-1,6.6-1.9,9.9-2.7c3.2-0.8,6.5-1.1,9.9-1c2.6,0,4.9,0.3,7,0.9
		c2.1,0.6,3.9,1.5,5.4,2.9c1.5,1.3,2.6,3.1,3.5,5.3c0.8,2.2,1.2,4.9,1.2,8.2v15.2c0,1.7,0.3,3.2,0.8,4.6c0.6,1.3,1.6,2.2,3.3,2.6
		v1.1h-12.9L679,512.7z M678.3,496.9h-1.4c-1.8,0-3.6,0.2-5.2,0.7c-1.6,0.5-3.1,1.2-4.3,2.1c-1.2,1-2.2,2.2-3,3.7
		c-0.7,1.5-1.1,3.3-1.1,5.4c0,1,0.1,2,0.4,3c0.3,1,0.7,1.8,1.3,2.6s1.3,1.4,2.1,1.9c0.8,0.5,1.8,0.7,2.9,0.7c1.7,0,3-0.5,4.1-1.4
		c1.1-0.9,1.9-2.1,2.5-3.4c0.6-1.4,1-2.8,1.3-4.4c0.3-1.5,0.4-3,0.4-4.2V496.9z M696.3,480.7c1.9,0,3.9,0.1,5.8,0.2
		c1.9,0.1,3.8,0.2,5.6,0.2s3.7,0,5.7-0.2c2.1-0.1,4-0.2,6-0.2v1.1c-1.2,0.2-2.3,0.6-3.3,1.3c-1,0.6-1.5,1.6-1.5,2.9
		c0,0.3,0.1,0.8,0.3,1.4c0.2,0.6,0.6,1.4,1,2.2l8.9,16.3l6.8-15c0.4-0.8,0.7-1.6,0.8-2.2c0.1-0.7,0.2-1.2,0.2-1.6
		c0-1.4-0.5-2.5-1.4-3.3c-0.9-0.9-2-1.5-3.3-1.9v-1.1c1.3,0,2.7,0.1,4,0.2c1.3,0.1,2.6,0.2,3.8,0.2c1.2,0,2.5,0,3.9-0.2
		c1.4-0.1,2.8-0.2,4.1-0.2v1.1c-1.1,0.5-2,1.1-2.9,1.9c-0.9,0.8-1.7,1.6-2.4,2.6c-0.7,0.9-1.4,1.9-2,2.9c-0.6,1-1.1,2-1.6,2.9
		l-13.4,25.9c-1.6,3.2-3.1,5.8-4.4,7.7s-2.7,3.5-4.1,4.6c-1.5,1.1-3.2,1.9-5.2,2.3c-2,0.5-4.5,0.8-7.5,0.9l4.7-12.8l1.1,0.6
		c0,0.7,0.2,1.2,0.5,1.8c0.3,0.5,0.7,0.9,1.2,1.3c0.5,0.4,1,0.6,1.6,0.8s1.2,0.3,1.8,0.3c1.7,0,3.1-0.6,4-1.8c1-1.2,1.4-2.6,1.4-4.3
		c0-1.2-0.3-2.6-0.8-4.2c-0.6-1.6-1.3-3.4-2.1-5.1l-9.8-19.9c-1-2.1-2.2-4-3.5-5.6c-1.3-1.6-2.8-2.5-4.2-2.7V480.7z M770.1,478.3
		c3,0,5.9,0.5,8.7,1.4c2.8,1,5.2,2.4,7.3,4.2s3.8,4,5.1,6.6c1.2,2.6,1.9,5.5,1.9,8.7s-0.6,6.1-1.9,8.7c-1.2,2.6-2.9,4.8-5.1,6.6
		c-2.1,1.8-4.6,3.2-7.3,4.2c-2.8,1-5.7,1.4-8.7,1.4c-3,0-5.9-0.5-8.7-1.4c-2.8-1-5.2-2.4-7.3-4.2c-2.1-1.8-3.8-4-5.1-6.6
		c-1.2-2.6-1.9-5.5-1.9-8.7s0.6-6.1,1.9-8.7c1.2-2.6,2.9-4.8,5.1-6.6s4.6-3.2,7.3-4.2C764.2,478.8,767.1,478.3,770.1,478.3z
		 M770.1,480.7c-2.2,0-4,0.7-5.3,2c-1.4,1.3-2.4,2.9-3.2,4.8c-0.8,1.9-1.3,3.9-1.6,6c-0.3,2.1-0.4,4-0.4,5.6c0,1.6,0.1,3.5,0.4,5.6
		c0.3,2.1,0.8,4.1,1.6,6c0.8,1.9,1.8,3.5,3.2,4.8c1.4,1.3,3.1,2,5.3,2c2.2,0,4-0.7,5.3-2c1.4-1.3,2.4-2.9,3.2-4.8
		c0.8-1.9,1.3-3.9,1.6-6c0.3-2.1,0.4-4,0.4-5.6c0-1.6-0.1-3.5-0.4-5.6c-0.3-2.1-0.8-4.1-1.6-6c-0.8-1.9-1.8-3.5-3.2-4.8
		C774.1,481.4,772.3,480.7,770.1,480.7z M806.3,519c-1.8,0-2.9-0.6-3.4-1.8c-0.5-1.2-0.8-2.6-0.8-4.4c0-0.6,0-1.4,0-2.4
		c0-1,0.1-2,0.1-3c0-1,0-2.1,0.1-3.1c0-1,0-1.9,0-2.6v-17.2h-5.5l0.7-4c1.6-0.2,3.1-0.6,4.5-1.3c1.4-0.7,2.8-1.5,4.1-2.4
		c1.3-1,2.4-2.1,3.5-3.3c1.1-1.2,2.1-2.5,2.9-3.7h0.8v10.7h9.3l-1.5,4h-7.8V508c0,1.3,0.1,2.5,0.2,3.7c0.1,1.2,0.4,2.2,0.8,3.1
		c0.4,0.9,0.9,1.6,1.7,2.2c0.7,0.6,1.7,0.9,2.9,0.9v1.1H806.3z"/>
</g>
</svg>
