<?xml version="1.0" encoding="utf-8"?>
<!-- Generator: Adobe Illustrator 26.0.0, SVG Export Plug-In . SVG Version: 6.00 Build 0)  -->
<svg version="1.1" id="Layer_1" xmlns="http://www.w3.org/2000/svg" xmlns:xlink="http://www.w3.org/1999/xlink" x="0px" y="0px"
	 viewBox="0 0 624.9 370.2" style="enable-background:new 0 0 624.9 370.2;" xml:space="preserve">
<style type="text/css">
	.st0{fill:url(#SVGID_1_);}
</style>
<linearGradient id="SVGID_1_" gradientUnits="userSpaceOnUse" x1="58.9153" y1="404.2708" x2="430.5063" y2="64.9616">
	<stop  offset="0.2335" style="stop-color:#AB8031"/>
	<stop  offset="0.5713" style="stop-color:#C6A16E"/>
	<stop  offset="0.8114" style="stop-color:#EED78D"/>
</linearGradient>
<path class="st0" d="M140.8,121c0.3-1.9,2-3.2,3.9-3c7,0.9,35-0.1,50.8-11.5c-12.8-3.3-25.6-7.4-36.5-16.3c-1.5-1.2-1.7-3.4-0.5-4.9
	c1.2-1.5,3.4-1.7,4.9-0.5c11.7,9.6,25.9,13,41,16.7c13.1,3.2,26.4,6.5,38.1,14c-7.4-15.3-18.1-28.8-38.3-41.8c-1.6-1-2.1-3.2-1-4.8
	c1-1.6,3.2-2.1,4.8-1c27.4,17.7,38.5,36.2,46.6,58.4c0,0,0,0,0,0c0.2,0.4,0.2,0.9,0.2,1.3c0,0.2-0.1,0.4-0.2,0.6
	c-0.1,0.2-0.1,0.4-0.2,0.7c-0.2,0.4-0.5,0.8-0.8,1.1c0,0,0,0,0,0c-0.3,0.3-0.7,0.5-1.1,0.7c0,0,0,0,0,0c-0.4,0.1-0.8,0.2-1.2,0.2
	c-0.4,0-0.8-0.1-1.2-0.3c-0.1,0-0.2-0.1-0.3-0.2c-0.3-0.2-0.6-0.4-0.8-0.6c-0.1-0.1-0.1-0.1-0.2-0.1c-12-13.1-27.9-17.2-44.9-21.3
	c-14.1,13.5-40.5,16.6-53.8,16.6c-2.7,0-4.8-0.1-6.2-0.3C141.9,124.7,140.6,122.9,140.8,121z M147.4,230.5c-1.8,0.2-3.6,0.3-5.5,0.3
	c-0.5,0-1.1,0-1.6-0.1c-0.2,0-0.5,0-0.8-0.1c-0.3,0-0.5,0-0.8-0.1c-2.2-0.2-4.5-0.6-6.7-1.2c-16.8-4.4-33.1-19.1-34-38.3
	c-1-20.9,13.7-38.2,34.7-42.3c2-0.4,4.1-0.7,6.3-0.8c0.3-0.1,0.5-0.1,0.8-0.1l0.8,0c0.6,0,1.1-0.1,1.7-0.1h0.2
	c1.9,0,3.8,0.1,5.6,0.3c23.7,2.9,39.2,23.6,37.6,44.3C184.2,213.2,167.8,228.2,147.4,230.5z M172.4,190.6
	c0.4-16.9-5.8-35.6-23.5-39.3c-2-0.4-4.2-0.6-6.5-0.6h-0.6c-0.2,0-0.3,0-0.5,0c-0.2,0-0.5,0-0.8,0c-0.3,0-0.5,0-0.8,0.1
	c-2.2,0.2-4.3,0.6-6.2,1.2c-15.6,4.7-21.6,21.5-21.3,37.9c0.2,15.6,6.5,31.6,20.6,36.6c2,0.7,4.3,1.2,6.6,1.5c0.3,0,0.5,0.1,0.8,0.1
	c0.3,0,0.5,0,0.8,0.1c0.5,0,0.9,0,1.4,0h0.6c1.8-0.1,3.5-0.2,5.1-0.5C166.3,224.6,172,208.3,172.4,190.6z M55.8,181.9
	c-10.7-7.3-25.9-4.7-25.3-6.9c0.5-2.4,2.2-3.2,4.1-4.6l14.8-11.1c2.3-1.8,17.8-14.6,25.1-19.1c5.6-3.3,9-5.1,14.9-7.8v-1.1
	c-5.2,0.6-8.4,0.8-13.8,0.8c-5.1,0-8.1-0.1-13.4-0.8v1.1c1.4,1,2.2,1.8,2.7,3.4c1,3.8-4.3,8.9-9.8,13.4l-20,16.3
	c-5.7,4.7-12.6,10.7-15.4,11.6c-0.1,0-0.2,0-0.2,0c-1.3,0-1.4-3-1.4-3.7l0.1-30.1c0-1,0.4-4.7,1.8-7c2-3.3,2.5-3.6,3-3.9v-1.1
	c-4.6,0.5-7.2,0.6-12,0.6c-3.8,0-6.2-0.1-10.2-0.6v1.1c0.5,0.4,2.2,2.3,3.1,3.9c1.8,2.9,3.3,13.1,3.3,14.6v58.6c0,1.3-0.8,11.1-2,13
	c-1.5,2.3-2.8,3.7-5.1,5.1v1c5.6-0.4,9-0.5,14.6-0.5c5,0,8,0.1,13,0.5v-1c-2.2-0.8-3.7-2.2-5.2-3.9c-0.6-1-2.7-6.6-2.8-11.1l-1-23.6
	c-0.3-5.8,5-9.9,10.6-10.1h0.2c10.2,0,17.9,8.3,24.2,18.2l20.5,31.4h23.6l0.3-1c-0.5-0.2-3.2-1.3-7.9-4.3
	C78.7,216.2,65.2,188.4,55.8,181.9z M240.7,150.6c0.5,0,1,0,1.5,0c6.5,0.3,19.5,2.9,23.7,13.8l0.8,1.9l1.5,0.5l3.4-12.7l-1.8-0.6
	c-6.5-2.5-17.1-5.3-27.1-5.3c-16.6,0-34.9,7-35.3,24.2c-0.5,13.4,15.5,19.7,29.7,21.3l3.2,0.4c12.2,1.3,24.8,1.5,25.1,15
	c0.1,12.6-13,18.3-25.8,18.3c-0.9,0-1.9,0-2.8-0.1c-10.6-0.6-26.4-6-28.9-17.4l-0.4-1.8l-0.8-0.2l-5.2,15.2l2.4,1
	c9.8,3.9,21.4,6.6,33.9,6.7h0.4c20.7,0,38.9-11.2,38-27.1c-0.9-16.2-13.8-18.7-29.7-20.1l-2.5-0.3c-12.7-1.1-25.3-2.5-25.5-14.4
	C218.3,158.2,225.7,150.6,240.7,150.6z M376.1,126.4C376,126.4,376.1,126.4,376.1,126.4c-0.2,0.4-0.2,0.9-0.2,1.4
	c0,0.2,0.1,0.4,0.2,0.7c0.1,0.2,0.1,0.4,0.2,0.6c0.2,0.4,0.5,0.8,0.8,1.1c0,0,0,0,0,0c0.3,0.3,0.7,0.5,1.1,0.7c0,0,0,0,0,0
	c0.4,0.1,0.8,0.2,1.2,0.2c0.4,0,0.8-0.1,1.2-0.3c0.1,0,0.2-0.1,0.3-0.2c0.3-0.2,0.6-0.4,0.8-0.6c0.1-0.1,0.1-0.1,0.2-0.1
	c12-13.1,27.9-17.2,44.9-21.3c14.1,13.5,40.5,16.6,53.8,16.6c2.7,0,4.8-0.1,6.2-0.3c1.9-0.3,3.2-2,3-3.9c-0.3-1.9-2-3.2-3.9-3
	c-7,0.9-35-0.1-50.8-11.5c12.8-3.3,25.6-7.4,36.5-16.3c1.5-1.2,1.7-3.4,0.5-4.9c-1.2-1.5-3.4-1.7-4.9-0.5c-11.7,9.6-25.9,13-41,16.7
	c-13.1,3.2-26.4,6.5-38.1,14c7.4-15.3,37.8-44.4,58-57.4c1.6-1,2.1-3.2,1-4.8c-1-1.6-3.2-2.1-4.8-1
	C414.9,70.1,382.1,101.6,376.1,126.4z M171.3,56.6c0.3,0.3,0.6,0.6,0.8,0.9c7.1,7.5,11.4,17.6,11.4,28.8h2.3c0-23.2,18.8-42,42-42
	V42c-10.8,0-20.6-4-28-10.7c-0.3-0.3-0.6-0.5-0.9-0.8c-0.2-0.2-0.5-0.5-0.7-0.7c-7.7-7.6-12.4-18.1-12.4-29.7h-2.3
	c0,23.2-18.8,42-42,42v2.3c11.2,0,21.5,4.4,29,11.7C170.8,56.1,171.1,56.3,171.3,56.6z M346.7,128.4c0.1,0.2,0.1,0.4,0.2,0.6
	c0.1,0.2,0.2,0.4,0.3,0.6c0.1,0.2,0.3,0.3,0.4,0.5c0.2,0.1,0.3,0.3,0.5,0.4c0.2,0.1,0.4,0.2,0.6,0.3c0.1,0,0.2,0.1,0.3,0.1
	c0.2,0.1,0.4,0.1,0.6,0.1c0,0,0.1,0,0.1,0c0.1,0,0.1,0,0.2,0c0,0,0,0,0,0c0.4,0,0.8-0.1,1.2-0.2c0.1-0.1,0.2-0.1,0.4-0.2
	c0.2-0.1,0.5-0.3,0.7-0.4c0.1-0.1,0.2-0.2,0.3-0.3c0.2-0.2,0.3-0.4,0.4-0.6c0.1-0.2,0.1-0.3,0.2-0.5c0-0.1,0.1-0.2,0.1-0.3
	c9-34.6,33.8-74.4,52.9-101.8c1.1-1.6,0.7-3.7-0.9-4.8c-1.6-1.1-3.7-0.7-4.8,0.9c-15.2,21.7-33.8,51.1-45.6,79.8
	c2.1-27.5,6.3-59.3,15.7-90.8c0.6-1.8-0.5-3.8-2.3-4.3c-1.8-0.6-3.8,0.5-4.3,2.3c-12.8,42.5-16.1,85.2-17.5,117.7
	c0,0.1,0,0.2,0.1,0.3C346.6,128,346.6,128.2,346.7,128.4z M301.7,72.5c2.8,21.5,5.5,41.9,10.4,56.2c0,0.1,0.1,0.1,0.1,0.2
	c0.1,0.1,0.1,0.3,0.2,0.4c0.1,0.2,0.3,0.5,0.5,0.6c0.1,0.1,0.2,0.2,0.3,0.3c0.3,0.2,0.6,0.4,0.9,0.5c0,0,0.1,0.1,0.1,0.1
	c0,0,0,0,0,0c0.3,0.1,0.7,0.2,1.1,0.2c0.4,0,0.7-0.1,1.1-0.2c0,0,0,0,0,0c0.1,0,0.1-0.1,0.1-0.1c0.3-0.1,0.6-0.3,0.9-0.5
	c0.1-0.1,0.2-0.2,0.3-0.3c0.2-0.2,0.3-0.4,0.5-0.6c0.1-0.1,0.2-0.3,0.2-0.4c0-0.1,0.1-0.1,0.1-0.2c4.9-14.3,7.6-34.7,10.4-56.2
	c3.1-23.4,6.2-47.6,12.5-66.8c0.6-1.8-0.4-3.8-2.2-4.4c-1.8-0.6-3.8,0.4-4.4,2.2c-6.5,19.8-9.7,44.3-12.8,68.1
	c-2,15.6-4,30.6-6.8,42.9c-2.8-12.3-4.7-27.3-6.8-42.9c-3.1-23.7-6.3-48.3-12.8-68.1c-0.6-1.8-2.6-2.8-4.4-2.2
	c-1.8,0.6-2.8,2.6-2.2,4.4C295.5,24.8,298.6,49,301.7,72.5z M353.4,223.6c-1.5,1.9-3,3.3-5.4,4.2v1c5.4-0.6,8.7-0.8,14.1-0.8
	c5,0,7.9,0.2,12.9,0.8v-1c-2.4-1.1-3.3-2.3-5.2-4.7c-0.9-1-2.2-6.2-2.2-10.3l-0.4-30.8c-0.1-13.4,7.6-30.2,26.5-30.2h0.2
	c12.1,0,21.8,12.1,21.8,28l0.1,31.6c0,1.3-0.5,8.9-2,11.3c-1.5,2.2-2.8,3.7-5.1,5.1v1c4.3-0.5,7-0.8,11.3-0.8c5.5,0,8.8,0,14.3,0.8
	v-1c-2-1.3-2.4-2.3-4.3-4.7c-0.8-1-1.9-6.2-1.9-10.3l-0.9-34.9c-0.5-19.1-12.5-29.8-30.4-30.4c-0.5,0-1,0-1.5,0
	c-10.7,0-21.6,5.2-27,16l-2.8,5.4l-1.1-2.7c-4.5-11.2-12.7-17.7-27.5-17.8h-0.3c-17.8,0-25.8,11.9-28.6,17.4l-1.7,3.3l-0.6-0.8
	c-0.8-0.9-0.3-8.2,0-13.2c0-3.8,0-2.4,0.1-3.2l-1.3-0.6c-2.2,0.8-3.4,1.3-5.6,2c-3.1,0.9-5.1,1.5-8.3,2.3v1.2
	c0.6,0.2,2.4,1.5,3.6,2.9c1.4,1.8,2,5.4,2,6.9l-0.1,46.3c0,1.3-0.6,8.4-1.5,9.9c-1.3,2.2-2.5,3.8-4.8,5.1v1
	c5.4-0.4,8.7-0.4,14.1-0.4c4.1,0,6.5,0.1,10.6,0.4v-1c-1.9-1-2.4-1.5-4.3-3.9c-0.9-1-3-6.6-3-11.1v-25.5c0-16.7,7.7-34.8,25.5-34.8
	c0.4,0,0.7,0,1.1,0c18,0.8,22.4,15.8,22.4,30.3l-0.1,29.9C356,214,354.4,222.3,353.4,223.6z M534.6,192.6
	c-1.5,20.6-18,35.6-38.3,37.9c-1.8,0.2-3.6,0.3-5.5,0.3c-0.5,0-1.1,0-1.6-0.1c-0.2,0-0.5,0-0.8-0.1c-0.3,0-0.5,0-0.8-0.1
	c-2.2-0.2-4.5-0.6-6.7-1.2c-16.8-4.4-33.1-19.1-34-38.3c-1-20.9,13.7-38.2,34.7-42.3c2-0.4,4.1-0.7,6.3-0.8c0.3-0.1,0.5-0.1,0.8-0.1
	l0.8,0c0.6,0,1.1-0.1,1.7-0.1h0.2c1.9,0,3.8,0.1,5.6,0.3C520.7,151.1,536.2,171.9,534.6,192.6z M521.2,190.6
	c0.4-16.9-5.8-35.6-23.5-39.3c-2-0.4-4.2-0.6-6.5-0.6h-0.6c-0.2,0-0.3,0-0.5,0c-0.2,0-0.5,0-0.8,0c-0.3,0-0.5,0-0.8,0.1
	c-2.2,0.2-4.3,0.6-6.2,1.2c-15.6,4.7-21.6,21.5-21.3,37.9c0.2,15.6,6.5,31.6,20.6,36.6c2,0.7,4.3,1.2,6.6,1.5c0.3,0,0.5,0.1,0.8,0.1
	c0.3,0,0.5,0,0.8,0.1c0.5,0,0.9,0,1.4,0h0.6c1.8-0.1,3.5-0.2,5.1-0.5C515.1,224.6,520.9,208.3,521.2,190.6z M334.3,249.4
	c-0.1-1.9-1.8-3.4-3.7-3.3c-1.9,0.1-3.3,1.7-3.3,3.7c0.4,22.4,1.9,44.2,3.9,67c1.5,16.9,3.8,33.9,6.8,50.6c0.3,1.7,1.8,2.9,3.4,2.9
	c0.2,0,0.4,0,0.6-0.1c1.9-0.3,3.1-2.1,2.8-4c-3-16.5-5.2-33.4-6.8-50.2C336.2,294.5,334.9,271.8,334.3,249.4z M459.6,314.8
	c-0.3-0.3-0.6-0.6-1-0.9c-5.4-5-12.6-8-20.5-8c-16.7,0-30.3,13.5-30.3,30.2c0,5.8,1.6,11.2,4.5,15.9c0.2,0.4,0.5,0.7,0.7,1.1
	c0.2,0.3,0.4,0.6,0.6,0.9c5.5,7.5,14.4,12.4,24.4,12.4c16.7,0,30.2-13.6,30.2-30.3c0-7.9-3-15.1-8-20.5
	C460.1,315.3,459.8,315,459.6,314.8z M211.9,310.8c-7.8-6.5-20.1-6.6-29.3-0.2c-1.6,1.1-2,3.3-0.9,4.8c1.1,1.6,3.3,2,4.8,0.9
	c6.6-4.6,15.4-4.7,20.9-0.2c5.8,4.8,7.4,13.5,3.8,20.6c-0.9,1.7-0.2,3.8,1.5,4.7c0.5,0.3,1,0.4,1.6,0.4c1.3,0,2.5-0.7,3.1-1.9
	C222.5,330,220.2,317.7,211.9,310.8z M595.2,183.3l-2.6-0.3c-12.7-1.1-25.3-2.5-25.5-14.4c0-10.5,7.4-18.1,22.4-18.1
	c0.5,0,1,0,1.5,0c6.5,0.3,19.5,2.9,23.7,13.8l0.8,1.9l1.5,0.5l3.4-12.7l-1.8-0.6c-6.5-2.5-17.1-5.3-27.1-5.3
	c-16.5,0-34.9,7-35.3,24.2c-0.5,13.4,15.5,19.7,29.7,21.3l3.2,0.4c12.2,1.3,24.8,1.5,25.1,15c0.1,12.6-13,18.3-25.8,18.3
	c-0.9,0-1.9,0-2.8-0.1c-10.6-0.6-26.4-6-28.9-17.4l-0.4-1.8l-0.8-0.2l-5.2,15.2l2.4,1c9.8,3.9,21.4,6.6,33.9,6.7h0.4
	c20.7,0,38.9-11.2,38-27.1C623.9,187.3,611.1,184.7,595.2,183.3z M262.3,7.4c-1.8,0.6-2.9,2.5-2.3,4.3c9.5,31.5,13.6,63.3,15.7,90.8
	c-11.9-28.7-30.5-58.2-45.6-79.8c-1.1-1.6-3.3-2-4.8-0.9c-1.6,1.1-2,3.3-0.9,4.8c19.2,27.4,43.9,67.2,52.9,101.8
	c0,0.1,0.1,0.2,0.1,0.3c0.1,0.2,0.1,0.3,0.2,0.5c0.1,0.2,0.3,0.4,0.4,0.6c0.1,0.1,0.2,0.2,0.3,0.3c0.2,0.2,0.4,0.3,0.7,0.4
	c0.1,0.1,0.2,0.1,0.4,0.2c0.4,0.1,0.8,0.2,1.2,0.2c0,0,0,0,0,0c0.1,0,0.1,0,0.2,0c0,0,0.1,0,0.1,0c0.2,0,0.4,0,0.6-0.1
	c0.1,0,0.2-0.1,0.3-0.1c0.2-0.1,0.4-0.2,0.6-0.3c0.2-0.1,0.4-0.2,0.5-0.4c0.2-0.2,0.3-0.3,0.4-0.5c0.1-0.2,0.2-0.4,0.3-0.6
	c0.1-0.2,0.2-0.4,0.2-0.6c0.1-0.2,0.1-0.5,0.1-0.7c0-0.1,0.1-0.2,0.1-0.3c-1.5-32.5-4.8-75.3-17.5-117.7
	C266.1,7.8,264.1,6.8,262.3,7.4z M301.1,246.1c-1.9-0.1-3.6,1.4-3.7,3.3c-0.6,22.4-1.9,45.1-3.9,66.5c-1.5,16.8-3.7,33.7-6.8,50.2
	c-0.3,1.9,0.9,3.7,2.8,4c0.2,0,0.4,0.1,0.6,0.1c1.6,0,3.1-1.2,3.4-2.9c3-16.7,5.3-33.7,6.8-50.6c2-22.8,3.5-44.5,3.9-67
	C304.5,247.9,303.1,246.2,301.1,246.1z M478.8,263.6c-0.5-0.2-47.3-19.4-83.6,1.1c-17.6,9.9-25.6,20.2-30.5,29.5
	c-2.2-13.6-3.8-28.6-4.1-44.8c0-1.9-1.7-3.4-3.5-3.4c-1.9,0-3.4,1.6-3.4,3.5c0.9,49.3,12.7,88.3,23.5,108.3c0,0,0,0.1,0.1,0.1
	c0.1,0.1,0.1,0.2,0.2,0.3c0.2,0.2,0.3,0.4,0.5,0.6c0.1,0.1,0.2,0.1,0.3,0.2c0.2,0.1,0.4,0.3,0.6,0.4c0.1,0,0.2,0.1,0.3,0.1
	c0.3,0.1,0.7,0.2,1,0.2c0,0,0,0,0,0c0,0,0,0,0,0c0,0,0,0,0,0c0,0,0,0,0,0c0.2,0,0.4,0,0.6-0.1c0,0,0,0,0.1,0
	c0.3-0.1,0.6-0.2,0.9-0.3c0.1,0,0.1-0.1,0.1-0.1c0.2-0.1,0.4-0.3,0.6-0.5c0.2-0.1,0.3-0.3,0.4-0.4c0.1-0.2,0.2-0.4,0.3-0.6
	c0.1-0.2,0.2-0.4,0.3-0.6c0.1-0.2,0-0.4,0.1-0.6c0-0.2,0-0.5,0-0.7c0-0.1,0-0.1,0-0.2c-4.4-22,2.4-42.7,18.7-56.7
	c17.1-14.7,46.7-14.9,63.7-5.7c1.7,0.9,3.8,0.3,4.7-1.4c0.9-1.7,0.3-3.8-1.4-4.7c-18.9-10.2-51.6-10.6-71.5,6.6
	c-13.2,11.4-20.8,26.6-22.1,43.5c-3.2-8.9-6.3-19.3-8.8-31.3c4.5-10.3,10.3-23,31.8-35.1c32.8-18.5,76.9-0.9,77.3-0.8
	c1.7,0.8,3.8,0,4.6-1.8C481.3,266.5,480.5,264.4,478.8,263.6z M275.1,246c-1.8,0-3.5,1.5-3.5,3.4c-0.3,16.2-1.8,31.2-4.1,44.8
	c-5-9.3-13-19.6-30.5-29.5c-36.2-20.4-83.1-1.3-83.6-1.1c-1.8,0.8-2.5,2.8-1.8,4.6c0.8,1.8,2.8,2.5,4.6,1.8
	c0.4-0.2,44.5-17.7,77.3,0.8c21.5,12.1,27.3,24.8,31.8,35.1c-2.5,11.9-5.5,22.4-8.8,31.3c-1.3-16.9-8.9-32.2-22.1-43.5
	c-19.9-17.1-52.6-16.8-71.5-6.6c-1.7,0.9-2.3,3-1.4,4.7c0.9,1.7,3,2.3,4.7,1.4c16.9-9.1,46.6-9,63.7,5.7c16.2,14,23,34.6,18.7,56.7
	c0,0.1,0,0.1,0,0.2c0,0.2,0,0.5,0,0.7c0,0.2,0,0.4,0.1,0.6c0.1,0.2,0.2,0.4,0.3,0.6c0.1,0.2,0.2,0.4,0.3,0.6
	c0.1,0.2,0.3,0.3,0.4,0.4c0.2,0.2,0.3,0.3,0.6,0.5c0.1,0,0.1,0.1,0.1,0.1c0.3,0.2,0.6,0.3,0.9,0.3c0,0,0,0,0.1,0
	c0.2,0,0.4,0.1,0.6,0.1c0,0,0,0,0,0c0,0,0,0,0,0c0,0,0,0,0,0c0,0,0,0,0,0c0.4,0,0.7-0.1,1-0.2c0.1,0,0.2-0.1,0.3-0.1
	c0.2-0.1,0.4-0.2,0.6-0.4c0.1-0.1,0.2-0.1,0.3-0.2c0.2-0.2,0.4-0.4,0.5-0.6c0.1-0.1,0.1-0.2,0.2-0.3c0,0,0-0.1,0.1-0.1
	c10.7-20,22.6-59,23.5-108.3C278.5,247.6,277,246,275.1,246z"/>
</svg>
