<svg id="Слой_1" data-name="Слой 1" xmlns="http://www.w3.org/2000/svg" xmlns:xlink="http://www.w3.org/1999/xlink" viewBox="0 0 1282.27 193.02"><defs><linearGradient id="Безымянный_градиент_56" x1="0.78" y1="98.6" x2="1280.93" y2="98.6" gradientUnits="userSpaceOnUse"><stop offset="0" stop-color="#b78b32"/><stop offset="0.38" stop-color="#d3ae6f"/><stop offset="1" stop-color="#fae298"/></linearGradient></defs><path d="M33.69,10.9h1.9c1.27,0,2.58,0,3.93-.11s2.74-.11,4.2-.11v.9a3.38,3.38,0,0,0-2.55,2,11.37,11.37,0,0,0-.64,4.31v18c0,1,0,2.08.08,3.2a14.79,14.79,0,0,0,.48,3.11,6.35,6.35,0,0,0,1.2,2.41,2.91,2.91,0,0,0,2.22,1v1.12H26.68V45.66a3.15,3.15,0,0,0,2.22-.9,5.15,5.15,0,0,0,1.2-2.19,13.45,13.45,0,0,0,.48-3c.05-1.14.08-2.35.08-3.62V13.42H15.08V35.9c0,1.27,0,2.48.08,3.62a12.36,12.36,0,0,0,.51,3,5.41,5.41,0,0,0,1.23,2.19,3.21,3.21,0,0,0,2.27.9v1.12H.78V45.66a3.69,3.69,0,0,0,2.47-.9,4.93,4.93,0,0,0,1.32-2.19,12.81,12.81,0,0,0,.53-3c.08-1.14.11-2.35.11-3.62v-17c0-1.38,0-2.51-.08-3.39a7.57,7.57,0,0,0-.39-2.11,2.46,2.46,0,0,0-.9-1.17,5.38,5.38,0,0,0-1.6-.67v-.9c1.35,0,2.68,0,4,.11s2.63.11,3.9.11Zm24,12h.11a11.34,11.34,0,0,1,4-4.65,11.37,11.37,0,0,1,6.14-1.46,12.61,12.61,0,0,1,5.61,1.26A14.82,14.82,0,0,1,78,21.41a16,16,0,0,1,3,4.82,15,15,0,0,1,1.09,5.64A17.19,17.19,0,0,1,81,37.92a15.85,15.85,0,0,1-3,5,14.2,14.2,0,0,1-4.52,3.42,12.73,12.73,0,0,1-5.63,1.26,17.34,17.34,0,0,1-5.44-.79A12,12,0,0,1,57.9,44v7.06a6.8,6.8,0,0,0,.93,3.81c.61.94,1.82,1.54,3.61,1.8v.95c-1.38,0-2.81,0-4.28-.11s-2.85-.11-4.12-.11-2.55,0-3.93.11-2.76.11-4.15.11v-.84A3.66,3.66,0,0,0,49,55a7.48,7.48,0,0,0,.76-3.42V24.79q0-4.16-3-4.43v-.85q2.91-.33,5.69-.78a53.79,53.79,0,0,0,5.3-1.12Zm.22,9.3q0,6.54,1.77,9.94a6.5,6.5,0,0,0,11.43,0q1.77-3.41,1.77-9.94T71.1,22.27a6.49,6.49,0,0,0-11.43,0Q57.9,25.67,57.9,32.2ZM95.4,29V32.2a26.9,26.9,0,0,0,.4,4.63A12.27,12.27,0,0,0,97.28,41,8.22,8.22,0,0,0,105,45.26a8.42,8.42,0,0,0,4-.95,11.08,11.08,0,0,0,3.14-2.47,14.67,14.67,0,0,0,2.27-3.44,18.51,18.51,0,0,0,1.37-3.9l1.46,1.07q-3,12-15.81,12a15.71,15.71,0,0,1-6.39-1.26A14.37,14.37,0,0,1,90.3,43a15.21,15.21,0,0,1-3-4.91,16.2,16.2,0,0,1-1.06-5.86,16.67,16.67,0,0,1,1.06-6,14.79,14.79,0,0,1,3-4.91A14,14,0,0,1,95.12,18a16.39,16.39,0,0,1,6.39-1.2,18.33,18.33,0,0,1,5.47.81A14.62,14.62,0,0,1,111.6,20a11.59,11.59,0,0,1,3.25,3.83,12.33,12.33,0,0,1,1.4,5.22Zm11.66-1.8c0-.89-.12-1.85-.25-2.85a9.5,9.5,0,0,0-.79-2.81,5.36,5.36,0,0,0-1.73-2.13,5.09,5.09,0,0,0-3.06-.84,5,5,0,0,0-3.08.84,5.4,5.4,0,0,0-1.71,2.13,9.8,9.8,0,0,0-.78,2.81c-.14,1-.22,2-.26,2.85Zm19.34-4h-.06v14a21.22,21.22,0,0,0,.17,2.66,10.66,10.66,0,0,0,.67,2.58,7.2,7.2,0,0,0,1.43,2.24,5.3,5.3,0,0,0,2.33,1.43v.68H119.79v-.62A6.11,6.11,0,0,0,122,44.7a7.89,7.89,0,0,0,1.59-2.27,9.8,9.8,0,0,0,.82-2.58,15.65,15.65,0,0,0,.22-2.66V25.48a18,18,0,0,0-.19-3,5.25,5.25,0,0,0-.62-1.8,2.79,2.79,0,0,0-1.07-1,9.38,9.38,0,0,0-1.31-.56v-.56c.93,0,1.85,0,2.74.06s1.76.05,2.58.05,1.75,0,2.78-.05,2-.06,2.83-.06l8.74,17.49,7.79-17.49c.94,0,1.87,0,2.81.06s1.81.05,2.63.05,1.72,0,2.69-.05,1.91-.06,2.8-.06v.56a4.39,4.39,0,0,0-1.54.65,2.56,2.56,0,0,0-.87,1.06,3.68,3.68,0,0,0-.3,1.35q0,.71,0,1.59V38.31c0,1,0,1.95.08,2.81a9.34,9.34,0,0,0,.45,2.35,4.18,4.18,0,0,0,1.09,1.74,2.93,2.93,0,0,0,1.91.73v.84H145.46v-.84a3,3,0,0,0,2-.73,4.23,4.23,0,0,0,1.06-1.74,8.53,8.53,0,0,0,.45-2.35c.06-.86.09-1.8.09-2.81V22.56h-.17L137.5,47.62H137Zm74.89-3.93a5.07,5.07,0,0,0-2.3.93,3.54,3.54,0,0,0-1.12,1.6,7.46,7.46,0,0,0-.42,2.07c-.06.75-.09,1.53-.09,2.36V37.42a16,16,0,0,0,.23,2.55,11.57,11.57,0,0,0,.81,2.72A7.44,7.44,0,0,0,199.94,45a4.86,4.86,0,0,0,2.47,1.29V47c-1,0-2,0-3-.11s-1.83-.11-2.69-.11c-5.24,0-8.34,0-9.31.11s-1.94.11-2.91.11v-.73a4.38,4.38,0,0,0,2.35-1.4,7.9,7.9,0,0,0,1.32-2.27,12.23,12.23,0,0,0,.67-2.63,18.37,18.37,0,0,0,.2-2.55V21.72L171,46.38a3.06,3.06,0,0,1-.67.85,1.3,1.3,0,0,1-.73.39h-.06a1.16,1.16,0,0,1-.62-.23c-.22-.15-.33-.52-.33-1.12V28.05a17.73,17.73,0,0,0-.2-2.52,9.37,9.37,0,0,0-.78-2.6,8.42,8.42,0,0,0-1.6-2.3,5,5,0,0,0-2.3-1.38v-.67c.9,0,1.82,0,2.78.06s4,.05,9,.05c.82,0,1.75,0,2.78-.05s2-.06,2.83-.06v.73a4.25,4.25,0,0,0-2.19,1.37A9.76,9.76,0,0,0,177.46,23a8.67,8.67,0,0,0-.7,2.58c-.09.9-.14,1.74-.14,2.52v6.62L189,18.58a26,26,0,0,0,4.06.11c2.75,0,4.57,0,5.46-.05s1.84-.06,2.81-.06Zm3.36-.72c1.42,0,2.84,0,4.26.11s2.78.11,4.09.11,2.72,0,4.23-.11,3-.11,4.4-.11v.84a6.62,6.62,0,0,0-2.41.92,2.39,2.39,0,0,0-1.12,2.16,3.55,3.55,0,0,0,.26,1,13.53,13.53,0,0,0,.75,1.65l6.56,12,5.05-11a6.67,6.67,0,0,0,.72-2.86,3.19,3.19,0,0,0-1-2.46,6.52,6.52,0,0,0-2.44-1.4v-.84c1,0,1.95,0,2.94.11s1.94.11,2.83.11,1.82,0,2.89-.11,2.08-.11,3.05-.11v.84a7.77,7.77,0,0,0-2.15,1.37,12.3,12.3,0,0,0-1.77,1.91c-.52.69-1,1.41-1.46,2.15s-.84,1.46-1.17,2.13L223.26,46A59.86,59.86,0,0,1,220,51.68,13.11,13.11,0,0,1,217,55a9.9,9.9,0,0,1-3.81,1.71,32.74,32.74,0,0,1-5.49.68L211.15,48l.84.45a2.29,2.29,0,0,0,.37,1.29,3.66,3.66,0,0,0,.89,1,3.89,3.89,0,0,0,1.21.59,4.66,4.66,0,0,0,1.29.2,3.57,3.57,0,0,0,3-1.35A4.91,4.91,0,0,0,219.78,47a10,10,0,0,0-.61-3.11,33.88,33.88,0,0,0-1.57-3.78l-7.23-14.63a18.69,18.69,0,0,0-2.61-4.1,5.41,5.41,0,0,0-3.11-2Zm42.66,4.65h-.06v14a21.22,21.22,0,0,0,.17,2.66,10.66,10.66,0,0,0,.67,2.58,7,7,0,0,0,1.43,2.24,5.25,5.25,0,0,0,2.33,1.43v.68H240.69v-.62a6.14,6.14,0,0,0,2.25-1.46,7.89,7.89,0,0,0,1.59-2.27,10.19,10.19,0,0,0,.82-2.58,16.75,16.75,0,0,0,.22-2.66V25.48a17.84,17.84,0,0,0-.2-3,5.05,5.05,0,0,0-.61-1.8,2.79,2.79,0,0,0-1.07-1,9.5,9.5,0,0,0-1.32-.56v-.56c.94,0,1.85,0,2.75.06s1.76.05,2.58.05,1.75,0,2.77-.05,2-.06,2.83-.06l8.75,17.49,7.79-17.49c.93,0,1.87,0,2.8.06s1.82.05,2.64.05,1.72,0,2.69-.05,1.9-.06,2.8-.06v.56a4.39,4.39,0,0,0-1.54.65,2.56,2.56,0,0,0-.87,1.06,3.69,3.69,0,0,0-.31,1.35q0,.71,0,1.59V38.31c0,1,0,1.95.09,2.81a8.53,8.53,0,0,0,.45,2.35,4.08,4.08,0,0,0,1.09,1.74,2.93,2.93,0,0,0,1.91.73v.84H266.37v-.84a2.94,2.94,0,0,0,2-.73,4.24,4.24,0,0,0,1.07-1.74,9.34,9.34,0,0,0,.45-2.35c.05-.86.08-1.8.08-2.81V22.56h-.17L258.41,47.62h-.51Zm81.16-12.5,2.8.11,1.52.11h4.59a10.27,10.27,0,0,0,1.57-.11h.62l.39-.06h.73c.34,0,.67-.05,1-.05h1.4v.89a6,6,0,0,0-1.48.56,2.34,2.34,0,0,0-.93,1,5.56,5.56,0,0,0-.47,1.79,22.83,22.83,0,0,0-.14,2.9v9.05l9-8.15c.26-.27.55-.59.87-1a10.51,10.51,0,0,0,.87-1.23,10.59,10.59,0,0,0,.65-1.23,2.76,2.76,0,0,0,.25-1,2.17,2.17,0,0,0-.7-1.82,5.21,5.21,0,0,0-2-.81v-1c1.3,0,2.61,0,3.92.11s2.6.11,3.87.11,2.56,0,3.87-.11,2.61-.11,3.92-.11V11.8a33.94,33.94,0,0,0-5.83,2.87q-2.75,1.71-5.38,3.66l-10,8.21v.11a29.22,29.22,0,0,1,4.59.34,13.42,13.42,0,0,1,3.9,1.27,12,12,0,0,1,3.42,2.67,23.49,23.49,0,0,1,3.11,4.49c.67,1.24,1.32,2.42,1.93,3.54a33,33,0,0,0,1.91,3.1,19.08,19.08,0,0,0,2,2.47,9.1,9.1,0,0,0,2.32,1.74v.51H353.25a.65.65,0,0,1-.67-.45l-5.11-11.72c-.22-.52-.48-1.13-.78-1.82a11,11,0,0,0-1.07-1.93,6.48,6.48,0,0,0-1.43-1.52,3,3,0,0,0-1.87-.61c-1.5,0-2.24,1-2.24,3.08V35.9c0,1.65,0,3.09.05,4.32v.28a14.43,14.43,0,0,0,.45,2.07,5.23,5.23,0,0,0,1.18,2.19,2.43,2.43,0,0,0,1.62.9h.56v1.12H326.29V45.66h.16a3,3,0,0,0,2-.9,5.35,5.35,0,0,0,1.18-2.19,10.65,10.65,0,0,0,.39-2.13v-.22c.08-1.23.11-2.67.11-4.32V31.81c0-2-.74-3.08-2.24-3.08a3,3,0,0,0-1.88.61,6.93,6.93,0,0,0-1.43,1.52,11.59,11.59,0,0,0-1.06,1.93l-.79,1.82-5.1,11.72a.65.65,0,0,1-.67.45H303.7v-.51A9.1,9.1,0,0,0,306,44.53a19.94,19.94,0,0,0,2-2.47A35.29,35.29,0,0,0,310,39c.61-1.12,1.26-2.3,1.93-3.54A23.49,23.49,0,0,1,315,30.93a12,12,0,0,1,3.42-2.67,13.22,13.22,0,0,1,3.9-1.27,29.22,29.22,0,0,1,4.59-.34v0l-10-8.24q-2.64-2-5.38-3.67a33.66,33.66,0,0,0-5.83-2.89V10.68c1.31,0,2.61,0,3.92.11s2.6.11,3.87.11,2.56,0,3.87-.11,2.61-.11,3.92-.11v1a5.21,5.21,0,0,0-2,.81,2.14,2.14,0,0,0-.7,1.82,2.56,2.56,0,0,0,.25,1,10.59,10.59,0,0,0,.65,1.23,10.51,10.51,0,0,0,.87,1.23,11.46,11.46,0,0,0,.87,1l9,8.15v-9a22.83,22.83,0,0,0-.14-2.9,5.56,5.56,0,0,0-.47-1.79,2.4,2.4,0,0,0-.93-1,6.12,6.12,0,0,0-1.48-.56v-.89Zm77.47,8.57a5.07,5.07,0,0,0-2.3.93,3.54,3.54,0,0,0-1.12,1.6,7.46,7.46,0,0,0-.42,2.07c-.06.75-.09,1.53-.09,2.36V37.42a16,16,0,0,0,.23,2.55,11.57,11.57,0,0,0,.81,2.72A7.44,7.44,0,0,0,404.59,45a4.86,4.86,0,0,0,2.47,1.29V47c-1.05,0-2,0-3-.11s-1.83-.11-2.69-.11c-5.23,0-8.34,0-9.31.11s-1.94.11-2.91.11v-.73a4.38,4.38,0,0,0,2.35-1.4,7.9,7.9,0,0,0,1.32-2.27,12.23,12.23,0,0,0,.67-2.63,18.37,18.37,0,0,0,.2-2.55V21.72L375.67,46.38a3.06,3.06,0,0,1-.67.85,1.3,1.3,0,0,1-.73.39h-.06a1.16,1.16,0,0,1-.62-.23c-.22-.15-.33-.52-.33-1.12V28.05a17.73,17.73,0,0,0-.2-2.52,9.37,9.37,0,0,0-.78-2.6,8.21,8.21,0,0,0-1.6-2.3,5,5,0,0,0-2.3-1.38v-.67c.9,0,1.82,0,2.78.06s3.95.05,9,.05c.82,0,1.75,0,2.78-.05s2-.06,2.83-.06v.73a4.25,4.25,0,0,0-2.19,1.37A9.41,9.41,0,0,0,382.12,23a8.4,8.4,0,0,0-.71,2.58c-.09.9-.14,1.74-.14,2.52v6.62l12.34-16.09a26,26,0,0,0,4.06.11c2.75,0,4.57,0,5.47-.05s1.83-.06,2.8-.06Zm5.88.62q2.93-.78,5.58-1.37a26.49,26.49,0,0,1,5.69-.59,37.71,37.71,0,0,1,4.18.25,18.93,18.93,0,0,1,4.34,1,8.68,8.68,0,0,1,3.48,2.29,5.44,5.44,0,0,1,1.4,3.78,4.51,4.51,0,0,1-1,3,7.24,7.24,0,0,1-2.47,1.9,13.88,13.88,0,0,1-3.28,1.07c-1.21.24-2.32.42-3.33.53v.05a27.54,27.54,0,0,1,3.58.68,21.86,21.86,0,0,1,3.76,1.29,9,9,0,0,1,2.92,2,4.64,4.64,0,0,1,1.17,3.28,6,6,0,0,1-1.45,4.16,10.33,10.33,0,0,1-3.54,2.55A16,16,0,0,1,428.28,47a39.22,39.22,0,0,1-4.63.31,46,46,0,0,1-7-.54,34.08,34.08,0,0,1-6.7-1.7l2.63-8.41.9.39A8.68,8.68,0,0,0,416,43.33a9.58,9.58,0,0,0,2.89,2,8.81,8.81,0,0,0,3.7.76,5.89,5.89,0,0,0,2.71-.59,7.51,7.51,0,0,0,2.05-1.54,5.09,5.09,0,0,0,1.23-2.19,9.51,9.51,0,0,0,.34-2.58,6.69,6.69,0,0,0-.53-2.71,7,7,0,0,0-1.4-2.08A6.41,6.41,0,0,0,424.94,33a6.14,6.14,0,0,0-2.47-.51,4.93,4.93,0,0,0-1.62.28,12.82,12.82,0,0,1-1.52.45V30.58a10.64,10.64,0,0,0,3.14.45,5,5,0,0,0,2.33-.51,5.53,5.53,0,0,0,1.68-1.31,4.61,4.61,0,0,0,1-1.95,9.09,9.09,0,0,0,.28-2.2,5.72,5.72,0,0,0-1.48-4.16,5.33,5.33,0,0,0-4-1.53,6,6,0,0,0-2.89.7,7.86,7.86,0,0,0-2.38,2,12.92,12.92,0,0,0-1.68,2.64,9.17,9.17,0,0,0-.79,2.77l-.89.34ZM464.35,31V24.16a7.82,7.82,0,0,0-.51-3.43,2.76,2.76,0,0,0-1.9-1.48v-.67c1,0,2.12,0,3.23.06s2.19.05,3.24.05,2.14,0,3.27-.05,2.27-.06,3.43-.06v.67a2.73,2.73,0,0,0-2.05,1.57,8.83,8.83,0,0,0-.53,3.37V38.31c0,.79,0,1.61,0,2.47a8.83,8.83,0,0,0,.39,2.44,5.37,5.37,0,0,0,1,1.9,2.36,2.36,0,0,0,1.76.82v.84H461.15v-.84a2.42,2.42,0,0,0,1.74-.73,4.54,4.54,0,0,0,.95-1.74,9.36,9.36,0,0,0,.42-2.35c.06-.86.09-1.8.09-2.81V32.82H451.51v5.49c0,1,0,1.95.08,2.81a10.35,10.35,0,0,0,.42,2.35,4.69,4.69,0,0,0,1,1.74,2.7,2.7,0,0,0,2,.73v.84H439.68v-.84a3.35,3.35,0,0,0,2.16-.73,3.81,3.81,0,0,0,1.09-1.74,10.32,10.32,0,0,0,.45-2.35c.08-.86.11-1.8.11-2.81V25a23.1,23.1,0,0,0-.11-2.58,8.1,8.1,0,0,0-.33-1.65,1.74,1.74,0,0,0-.73-.95,5.11,5.11,0,0,0-1.4-.54v-.67c1.19,0,2.33,0,3.41.06s2.13.05,3.14.05,2.12,0,3.23-.05,2.32-.06,3.67-.06v.67a4.15,4.15,0,0,0-1.46.48,2.23,2.23,0,0,0-.81.83,4,4,0,0,0-.45,1.4,14.56,14.56,0,0,0-.14,2.2V31Zm21.1-12.34c1.05,0,2.12,0,3.19-.05s2.13-.06,3.17-.06v.67A2.79,2.79,0,0,0,490,20.49a5.71,5.71,0,0,0-.5,2.69V31h1.4q1.72,0,7.79.7t7.89,1.57a8.75,8.75,0,0,1,3,2.33,5.62,5.62,0,0,1,1.2,3.7,5.3,5.3,0,0,1-.81,3,8.25,8.25,0,0,1-2.08,2.13,10.34,10.34,0,0,1-2.91,1.4,17.8,17.8,0,0,1-3.37.67c-1.14.11-2.26.2-3.36.25s-2.1.09-3,.09h-8.74l-2.13,0-2.13.09c-.71,0-1.44.06-2.19.08l-2.19,0V45.94a3.08,3.08,0,0,0,1.91-.73,3.41,3.41,0,0,0,1.07-1.74.62.62,0,0,0,.11-.34,13.81,13.81,0,0,0,.22-1.85c.08-.89.11-1.81.11-2.74V24.19a11,11,0,0,0-.44-3.42,2.22,2.22,0,0,0-1.18-1.29l-.73-.23v-.67h.84c.26,0,.6,0,1,.06s1,0,1.52.05h3.16Zm4,13.68v5.92c0,1,0,1.93.05,2.79a12.5,12.5,0,0,0,.39,2.23,2.43,2.43,0,0,0,.51.95,2.64,2.64,0,0,0,1.67.89,19.83,19.83,0,0,0,2.9.17,8,8,0,0,0,5.33-1.67,6.09,6.09,0,0,0,2-4.92,5.22,5.22,0,0,0-1-3.4,6.38,6.38,0,0,0-2.6-1.87,13.53,13.53,0,0,0-3.57-.87,35.48,35.48,0,0,0-3.71-.22Zm54.31-15.53q9.76,0,13,1.41,4.49,1.84,4.49,5.71,0,3.48-3.82,5.44a20.4,20.4,0,0,1-5.88,1.51,31.47,31.47,0,0,1,7.29,1.46c3.47,1.5,5.21,3.66,5.21,6.5a5.74,5.74,0,0,1-1.57,3.93,11.42,11.42,0,0,1-4.32,2.86,28.34,28.34,0,0,1-9.47,1.23l-2.41-.06h-1.91c-.82,0-1.6,0-2.35,0h-1.85l-1.74-.06h-3q-.84,0-1.62.06l-.84,0h-.68a5.71,5.71,0,0,0-1,.06v-.34a3.83,3.83,0,0,0,3.14-3.25q.51-2.85.51-14.12V23.91a16.09,16.09,0,0,0-.51-5.1,2.72,2.72,0,0,0-2.24-1.63v-.34Zm1,13.68q6.68,0,9.31-2A5.38,5.38,0,0,0,556.22,24c0-2.47-1-4.15-2.86-5.05-1.68-.74-4.71-1.12-9.08-1.12h-5.55V30.52Zm-6,4.93q.1,7.23.17,7.46a2.68,2.68,0,0,0,2.63,2.75,46.27,46.27,0,0,0,6.11.22q5.61,0,8-1.35a6,6,0,0,0,3.36-5.6,6.49,6.49,0,0,0-1-3.36,7,7,0,0,0-2.52-2.47q-2.81-1.62-11.32-1.63h-5.44Zm82.62-18.1a13.6,13.6,0,0,0-7.12-5.27q-4.54-1.45-13.51-1.46h-6.05q0,30.72,1.23,33.58A4.43,4.43,0,0,0,599,46.5v.39q-3.13-.22-7.73-.23a50.78,50.78,0,0,0-5.39.23V46.5a4.92,4.92,0,0,0,2.25-1.12,5.94,5.94,0,0,0,1.23-2.86q.61-3.42.62-17.77V18.19a21.89,21.89,0,0,0-.56-6.22,3.57,3.57,0,0,0-2.41-2.19V9.39h32.51l2.18,7.79Zm30.38,29.43a27.19,27.19,0,0,1-1.29-5.72,11.86,11.86,0,0,1-11.1,6.45,16.34,16.34,0,0,1-9.47-2.58,7.67,7.67,0,0,1-3.75-6.51q0-5.49,6.89-8a40.86,40.86,0,0,1,14-2h3V26.71q0-9.69-9.58-9.7a12.68,12.68,0,0,0-7.12,2,9.27,9.27,0,0,0-3.76,5.39l-.33.11-1.74-5.61A34.67,34.67,0,0,1,641,15.78q6.94,0,10.37,3.08,3,2.64,3,10v8.24a24.55,24.55,0,0,0,.67,6.78,4.06,4.06,0,0,0,2.47,2.64v.28Zm-4.88-17.16q-15.3,0-15.3,8.86a7.36,7.36,0,0,0,2.36,5.66A8.54,8.54,0,0,0,640,46.27a10.63,10.63,0,0,0,5.55-1.46A7.45,7.45,0,0,0,648.93,41Q650,38.43,650,31.14V29.62Zm20.69-5a36,36,0,0,1,2.91-4.49,12.43,12.43,0,0,1,10-4.37,15.44,15.44,0,0,1,11.21,4.48,15,15,0,0,1,4.6,11.1,15.79,15.79,0,0,1-4.54,11.49,15.09,15.09,0,0,1-11.27,4.66q-6.84,0-12.22-5.89v6.73q0,5.26.84,7.28a3.49,3.49,0,0,0,3,2.41v.4c-2.17-.12-4.47-.17-6.9-.17-1.64,0-3.19,0-4.65.17V58a3.46,3.46,0,0,0,2.64-2.41,24.65,24.65,0,0,0,.73-7.28V35a121.37,121.37,0,0,0-.45-13.79,2.38,2.38,0,0,0-2.53-2.24v-.39a43.46,43.46,0,0,0,6.9-2q-.29,4.2-.28,7.28Zm3.25-2.7q-2.46,3.48-2.47,9.76,0,7,2.69,10.31a10.77,10.77,0,0,0,4,3.14,11.44,11.44,0,0,0,5,1.18,10.24,10.24,0,0,0,5.1-1.35,8.9,8.9,0,0,0,3.59-3.47q2.13-3.81,2.13-10.26,0-6.84-2.86-10.43A9.85,9.85,0,0,0,679.76,17a9.43,9.43,0,0,0-4.82,1.4A12.89,12.89,0,0,0,670.79,21.94ZM733,16.84a19.52,19.52,0,0,0,2.69.17,30.14,30.14,0,0,0,3.09-.17v.34a2.53,2.53,0,0,0-1.85,1.68,17.44,17.44,0,0,0-.45,4.82v9.7q0,9.25.9,11.55a3.09,3.09,0,0,0,2.18,1.85v.33c-1.53-.15-3.38-.22-5.55-.22a32.6,32.6,0,0,0-4.26.22v-.33a2.9,2.9,0,0,0,2.13-1.85q.9-2.13.9-11.55V20.32L719.33,47.9,706.21,20V32.43q0,10.14.85,11.94a4.43,4.43,0,0,0,2.57,2.41v.33a38.52,38.52,0,0,0-4.54-.22,22.41,22.41,0,0,0-3.53.22v-.33A4.39,4.39,0,0,0,704,44.59c.45-.93.77-3,1-6.22V36.69c0-1,0-2.15.05-3.31,0-.6,0-1.21.06-1.85V30c0-.94.05-1.54.05-1.8V23.68q0-4-.84-5.21a3.5,3.5,0,0,0-1.9-1.29v-.34a27.65,27.65,0,0,0,3.25.17,32.65,32.65,0,0,0,3.47-.17l12,24.5Zm45.18,14.8a14.75,14.75,0,0,1-4.88,11.27A18.32,18.32,0,0,1,749,43a14.81,14.81,0,0,1-4.93-11.27A14.81,14.81,0,0,1,749,20.32a17.64,17.64,0,0,1,12.33-4.54,16.52,16.52,0,0,1,11.88,4.6A14.84,14.84,0,0,1,778.13,31.64Zm-28.59,0a20.81,20.81,0,0,0,2,9.48q2.81,5.15,9.53,5.15t9.59-5.15a20.7,20.7,0,0,0,2-9.42,20.48,20.48,0,0,0-2-9.53Q767.88,17,760.92,17a10,10,0,0,0-8.4,3.81Q749.54,24.75,749.54,31.64Zm41.26,0v5.1q0,5.71.73,7.74a2.86,2.86,0,0,0,2.41,2v.39q-2.64-.22-6.06-.23a40.66,40.66,0,0,0-4.76.23V46.5a3.39,3.39,0,0,0,2.47-2.13q.88-2.13.89-7.63V35q0-11.78-.39-14a2.62,2.62,0,0,0-2.52-2.3v-.33q1.62-.28,4.2-1a24,24,0,0,0,3-.89V30.19h20.46a85.62,85.62,0,0,0-.39-9.2,2.64,2.64,0,0,0-2.53-2.3v-.33c1.09-.19,2.49-.51,4.21-1a24.59,24.59,0,0,0,3-.89V36.74q0,5.71.72,7.74a2.88,2.88,0,0,0,2.41,2v.39q-2.62-.22-6.05-.23a40.66,40.66,0,0,0-4.76.23V46.5a3.36,3.36,0,0,0,2.46-2.13q.9-2.13.9-7.63v-5.1Zm58.52,15.14a31.87,31.87,0,0,1-1.85-6,12.72,12.72,0,0,1-11.77,6.68q-12.11,0-12.11-12V33.94c0-.82,0-1.44.06-1.85s.05-1,.05-1.85v-2.8a38.65,38.65,0,0,0-.33-7.06c-.27-.71-1.12-1.14-2.58-1.29v-.4a39.92,39.92,0,0,0,7.4-2.18q-.23,2.74-.23,7.28v8.13c0,4.52.53,7.76,1.57,9.7q2.13,4,7.57,4a10.68,10.68,0,0,0,5.32-1.35,7.81,7.81,0,0,0,3.48-3.48q1.58-3.3,1.57-11.6V27.44q0-6.06-.39-7.06c-.26-.68-1.11-1.11-2.53-1.29v-.4a27.68,27.68,0,0,0,3.82-1A30.18,30.18,0,0,0,852,16.51q-.23,2.74-.22,7.28v7.35a84,84,0,0,0,.5,11.55c.27,1.86,1,3.1,2.08,3.69v.4Zm36.15,0a33.47,33.47,0,0,1-1.85-6,12.71,12.71,0,0,1-11.77,6.68q-12.11,0-12.1-12V33.94c0-.82,0-1.44,0-1.85s.06-1,.06-1.85v-2.8q0-6.06-.34-7.06t-2.58-1.29v-.4a39.69,39.69,0,0,0,7.4-2.18q-.23,2.74-.22,7.28v8.13c0,4.52.52,7.76,1.57,9.7q2.13,4,7.56,4a10.72,10.72,0,0,0,5.33-1.35,7.74,7.74,0,0,0,3.47-3.48q1.58-3.3,1.57-11.6V27.44q0-6.06-.39-7.06t-2.52-1.29v-.4a27.91,27.91,0,0,0,3.81-1,31,31,0,0,0,3.59-1.23q-.23,2.74-.23,7.28v7.35a81.86,81.86,0,0,0,.51,11.55c.26,1.86,1,3.1,2.07,3.69v.4ZM940,24.8l-.34-.11a13.86,13.86,0,0,0-2.47-4.26A11.62,11.62,0,0,0,928.3,17a9.93,9.93,0,0,0-8.3,3.81q-3,3.76-3,10.6t3.26,10.65a11.11,11.11,0,0,0,8.91,3.87,11.68,11.68,0,0,0,6.56-1.74A19.59,19.59,0,0,0,941,38.37l.78,1.4q-4.26,7.74-13.4,7.74a16.54,16.54,0,0,1-11.94-4.6,14.77,14.77,0,0,1-4.87-11.27,15.06,15.06,0,0,1,4.93-11.49,16.75,16.75,0,0,1,11.94-4.37,27.45,27.45,0,0,1,13.34,3.7Zm31.27-14.29v2.07q0,27.2.51,30.22c.41,2.05,1.19,3.29,2.35,3.7v.39c-1.64-.15-3.72-.23-6.22-.23a41.3,41.3,0,0,0-4.82.23V46.5a4.66,4.66,0,0,0,2-1.12,6.38,6.38,0,0,0,1.07-2.92q.49-3.19.5-17.71v-6.9a27.54,27.54,0,0,0-.45-6.11,2.77,2.77,0,0,0-2-2.07V9.28a34.1,34.1,0,0,0,4.26.22h29.88c1.87,0,3.62-.07,5.27-.22v.39a3,3,0,0,0-2,2.07,27.54,27.54,0,0,0-.45,6.11v6.9q0,14.4.5,17.71a5.78,5.78,0,0,0,1.07,2.92,3.85,3.85,0,0,0,2,1.12v.39c-1.68-.15-3.78-.23-6.28-.23a42.08,42.08,0,0,0-4.88.23V46.5a3.34,3.34,0,0,0,2.13-2.3q.84-2.87.84-31.62V10.51Zm44.56,14.13a36,36,0,0,1,2.92-4.49,12.41,12.41,0,0,1,10-4.37,15.45,15.45,0,0,1,11.21,4.48,15,15,0,0,1,4.59,11.1A15.79,15.79,0,0,1,1040,42.85a15.07,15.07,0,0,1-11.26,4.66q-6.84,0-12.22-5.89v6.73q0,5.26.84,7.28a3.46,3.46,0,0,0,3,2.41v.4c-2.16-.12-4.46-.17-6.89-.17-1.64,0-3.19,0-4.65.17V58a3.45,3.45,0,0,0,2.63-2.41,24.3,24.3,0,0,0,.73-7.28V35a121.37,121.37,0,0,0-.45-13.79,2.38,2.38,0,0,0-2.52-2.24v-.39a43.46,43.46,0,0,0,6.9-2q-.29,4.2-.29,7.28Zm3.26-2.7q-2.47,3.48-2.47,9.76,0,7,2.69,10.31a10.77,10.77,0,0,0,4,3.14,11.41,11.41,0,0,0,5,1.18,10.3,10.3,0,0,0,5.1-1.35,9,9,0,0,0,3.59-3.47q2.13-3.81,2.13-10.26,0-6.84-2.86-10.43A9.87,9.87,0,0,0,1028,17a9.49,9.49,0,0,0-4.82,1.4A12.85,12.85,0,0,0,1019.05,21.94Zm58.18,24.84a31.87,31.87,0,0,1-1.85-6,12.72,12.72,0,0,1-11.77,6.68q-12.1,0-12.11-12V33.94c0-.82,0-1.44.06-1.85s0-1,0-1.85v-2.8a38.65,38.65,0,0,0-.33-7.06c-.27-.71-1.12-1.14-2.58-1.29v-.4a39.92,39.92,0,0,0,7.4-2.18q-.22,2.74-.23,7.28v8.13c0,4.52.53,7.76,1.57,9.7q2.13,4,7.57,4a10.68,10.68,0,0,0,5.32-1.35,7.81,7.81,0,0,0,3.48-3.48q1.57-3.3,1.57-11.6V27.44q0-6.06-.39-7.06c-.26-.68-1.11-1.11-2.53-1.29v-.4a27.68,27.68,0,0,0,3.82-1,30.18,30.18,0,0,0,3.58-1.23q-.22,2.74-.22,7.28v7.35a84,84,0,0,0,.5,11.55c.27,1.86,1,3.1,2.08,3.69v.4Zm14.63-22.14a36,36,0,0,1,2.91-4.49,12.43,12.43,0,0,1,10-4.37A15.44,15.44,0,0,1,1116,20.26a15,15,0,0,1,4.6,11.1A15.79,15.79,0,0,1,1116,42.85a15.09,15.09,0,0,1-11.27,4.66q-6.84,0-12.22-5.89v6.73q0,5.26.84,7.28a3.49,3.49,0,0,0,3,2.41v.4c-2.17-.12-4.47-.17-6.9-.17-1.64,0-3.19,0-4.65.17V58a3.46,3.46,0,0,0,2.64-2.41,24.65,24.65,0,0,0,.73-7.28V35a121.37,121.37,0,0,0-.45-13.79,2.38,2.38,0,0,0-2.52-2.24v-.39a43.73,43.73,0,0,0,6.89-2q-.29,4.2-.28,7.28Zm3.25-2.7q-2.46,3.48-2.47,9.76,0,7,2.69,10.31a10.77,10.77,0,0,0,4,3.14,11.44,11.44,0,0,0,5,1.18,10.24,10.24,0,0,0,5.1-1.35,8.9,8.9,0,0,0,3.59-3.47q2.13-3.81,2.13-10.26,0-6.84-2.86-10.43a9.84,9.84,0,0,0-8.18-3.86,9.46,9.46,0,0,0-4.82,1.4A12.89,12.89,0,0,0,1095.11,21.94Zm65.3,9.7a14.77,14.77,0,0,1-4.87,11.27,18.33,18.33,0,0,1-24.22.06,14.81,14.81,0,0,1-4.93-11.27,14.81,14.81,0,0,1,4.93-11.38,17.64,17.64,0,0,1,12.33-4.54,16.56,16.56,0,0,1,11.89,4.6A14.87,14.87,0,0,1,1160.41,31.64Zm-28.58,0a20.81,20.81,0,0,0,2,9.48q2.81,5.15,9.53,5.15t9.59-5.15a20.7,20.7,0,0,0,2-9.42,20.48,20.48,0,0,0-2-9.53Q1150.15,17,1143.2,17a10,10,0,0,0-8.4,3.81Q1131.83,24.75,1131.83,31.64Zm72,13.9,1.91,6.17-.28.11A21.11,21.11,0,0,0,1202,49a18.38,18.38,0,0,0-6.67-2.13h0l-.73.06-.79,0v-.11h-17.54v.11l-.45,0-.56-.06h-1.07a18.37,18.37,0,0,0-6.61,2.13,17.92,17.92,0,0,0-3.47,2.86l-.28-.11,1.84-6.17H1169l.17-.11.11-.11h.12a15.51,15.51,0,0,0,1.4-1.68q1.62-2.52,5.16-9.31l9.41-17.93L1193.54,32q1.8,3.54,5.66,10.6a10.37,10.37,0,0,0,2.19,2.91Zm-8.91.4a1.75,1.75,0,0,0,.51-1.29q0-2-11.72-22.26l-3.14,5.83q-2.91,5.61-5.55,11.27a11.23,11.23,0,0,0-1.4,4.43,2.29,2.29,0,0,0,.56,1.68l.17.17.22.17Zm48.32-14.3a14.78,14.78,0,0,1-4.88,11.27,18.32,18.32,0,0,1-24.21.06,14.82,14.82,0,0,1-4.94-11.27,14.82,14.82,0,0,1,4.94-11.38,17.6,17.6,0,0,1,12.33-4.54,16.52,16.52,0,0,1,11.88,4.6A14.88,14.88,0,0,1,1243.26,31.64Zm-28.59,0a20.68,20.68,0,0,0,2,9.48q2.8,5.15,9.53,5.15t9.58-5.15a20.57,20.57,0,0,0,2-9.42,20.36,20.36,0,0,0-2-9.53Q1233,17,1226.05,17a10,10,0,0,0-8.41,3.81Q1214.67,24.75,1214.67,31.64Zm61.27,15.14a31.87,31.87,0,0,1-1.85-6,12.72,12.72,0,0,1-11.77,6.68q-12.1,0-12.11-12V33.94c0-.82,0-1.44.06-1.85s0-1,0-1.85v-2.8a38.65,38.65,0,0,0-.33-7.06q-.4-1.06-2.58-1.29v-.4a39.92,39.92,0,0,0,7.4-2.18q-.22,2.74-.23,7.28v8.13c0,4.52.52,7.76,1.57,9.7q2.13,4,7.57,4a10.68,10.68,0,0,0,5.32-1.35,7.81,7.81,0,0,0,3.48-3.48q1.56-3.3,1.57-11.6V27.44q0-6.06-.39-7.06c-.27-.68-1.11-1.11-2.53-1.29v-.4a28.41,28.41,0,0,0,3.82-1,30.81,30.81,0,0,0,3.58-1.23q-.22,2.74-.22,7.28v7.35a84,84,0,0,0,.5,11.55c.26,1.86,1,3.1,2.08,3.69v.4ZM1260.3,13.09l7.85-7.51a4,4,0,0,1,2.35-1.35c1.16,0,1.74.54,1.74,1.63q0,1.17-3,3l-7.12,4.26ZM47.59,84.11q9.75,0,12.95,1.4Q65,87.35,65,91.23c0,2.31-1.27,4.13-3.81,5.44a20.84,20.84,0,0,1-5.88,1.51,30.71,30.71,0,0,1,7.28,1.46q5.22,2.23,5.22,6.5a5.72,5.72,0,0,1-1.57,3.92,11.38,11.38,0,0,1-4.32,2.86,28.38,28.38,0,0,1-9.47,1.23l-2.41-.05H48.15c-.82,0-1.61-.06-2.35-.06H44L42.21,114h-3c-.56,0-1.1,0-1.63.05l-.84.06H36.1a7.25,7.25,0,0,0-1,.05v-.33a3.85,3.85,0,0,0,3.14-3.25q.51-2.86.5-14.13V91.17a16.18,16.18,0,0,0-.5-5.1A2.72,2.72,0,0,0,36,84.45v-.34Zm1,13.68q6.67,0,9.3-2A5.37,5.37,0,0,0,60,91.28q0-3.69-2.85-5c-1.69-.75-4.71-1.12-9.09-1.12H42.55V97.79Zm-6.05,4.93c.07,4.82.13,7.3.16,7.45a2.69,2.69,0,0,0,2.64,2.75,46.27,46.27,0,0,0,6.11.22c3.73,0,6.39-.44,8-1.34a6,6,0,0,0,3.36-5.61,6.64,6.64,0,0,0-1-3.36,7,7,0,0,0-2.52-2.47Q56.51,98.74,48,98.74H42.55Zm84.13-25.79A2.9,2.9,0,0,0,124.89,79a27.14,27.14,0,0,0-.45,6V94.7l7.79-6.28q6.84-5.43,8.35-6.89c1.12-1.08,1.68-2,1.68-2.69a2,2,0,0,0-1.45-1.91v-.39a45.33,45.33,0,0,0,4.93.23q3.48,0,6.22-.23v.39q-5,1.86-17.82,11.94l-6,4.66q6.78.27,9.53,1.85t6.39,7a63.32,63.32,0,0,0,6.72,8.63,11.07,11.07,0,0,0,5.1,2.75v.39c-1.53-.15-3.45-.22-5.77-.22a36.19,36.19,0,0,0-4.48.22l-5.5-8.24q-5.49-8-7.79-9.58a6.85,6.85,0,0,0-4-1.35q-3.87,0-3.87,4.88v1q0,8.91,1,11.1a3.41,3.41,0,0,0,2.58,1.79v.39h-.28l-.34-.05v.05l-.62-.05-.67-.06c-1.79-.07-3.21-.11-4.26-.11s-2.52,0-4.32.11l-.67.06-.62.05v-.05l-.33.05h-.28v-.39a3.41,3.41,0,0,0,2.58-1.79q1-2.19,1-11.1v-1q0-4.87-3.87-4.88a7.06,7.06,0,0,0-4,1.35q-2.29,1.58-7.79,9.58L98,114.15a36.47,36.47,0,0,0-4.49-.22c-2.31,0-4.24.07-5.77.22v-.39a11,11,0,0,0,5.1-2.75,63.14,63.14,0,0,0,6.73-8.63q3.52-5.38,6.39-7c1.83-1,5-1.67,9.53-1.85l-6-4.66Q96.75,78.79,91.7,76.93v-.39q2.74.22,6.23.23a45.46,45.46,0,0,0,4.93-.23v.39a2,2,0,0,0-1.46,1.91c0,.71.56,1.61,1.68,2.69s3.79,3.27,8.35,6.89l7.8,6.28V85.06a27.14,27.14,0,0,0-.45-6,2.9,2.9,0,0,0-1.8-2.08v-.39a44.86,44.86,0,0,0,4.88.23h.22a38.88,38.88,0,0,0,4.6-.23Zm56.33,29q-5.49-8-7.79-9.58a6.85,6.85,0,0,0-4-1.35q-3.87,0-3.87,4.88v1q0,8.91,1,11.1a3.41,3.41,0,0,0,2.58,1.79v.39q-2.74-.23-6.9-.22a42.12,42.12,0,0,0-4.87.22v-.39a4.62,4.62,0,0,0,2-1.12,6.38,6.38,0,0,0,1.06-2.91q.51-3.32.51-17.83V85.06a21.34,21.34,0,0,0-.56-6.11,3.1,3.1,0,0,0-2.25-2v-.39a39.12,39.12,0,0,0,4.6.23,50.45,50.45,0,0,0,5.1-.23v.39A2.9,2.9,0,0,0,167.77,79a27.14,27.14,0,0,0-.45,6V94.7l7.79-6.28Q182,83,183.46,81.53c1.12-1.08,1.68-2,1.68-2.69a2,2,0,0,0-1.45-1.91v-.39a45.33,45.33,0,0,0,4.93.23q3.48,0,6.22-.23v.39q-5,1.86-17.82,11.94l-6,4.66q6.78.27,9.53,1.85t6.39,7a63.14,63.14,0,0,0,6.73,8.63,11,11,0,0,0,5.1,2.75v.39c-1.54-.15-3.46-.22-5.78-.22a36.3,36.3,0,0,0-4.48.22Zm44.06-17.09a14.24,14.24,0,0,0,2.24,1.4q-4.69,6.39-5.77,8.24,1.62,2.75,5.38,7.9l.23.28.22.34a8.76,8.76,0,0,0-1.23.62,12.46,12.46,0,0,0-1.46.89,106.29,106.29,0,0,0-6.73-10,10.55,10.55,0,0,0,.62-1c.3-.45.64-.93,1-1.46q1.29-2,2.91-4.37c1.31-1.94,2-3,2.13-3.25Zm9.48,0a13.79,13.79,0,0,0,2.24,1.4q-4.71,6.39-5.78,8.24,1.91,3.14,5.44,7.9l.23.28.22.34c-.19.07-.62.28-1.29.62a12.46,12.46,0,0,0-1.46.89,107.83,107.83,0,0,0-6.72-10L234,91.73c1-1.49,1.75-2.58,2.13-3.25Zm32.11,17.09q-5.49-8-7.79-9.58a6.85,6.85,0,0,0-4-1.35Q253,95,253,99.86v1q0,8.91,1,11.1a3.41,3.41,0,0,0,2.58,1.79v.39c-1.84-.15-4.13-.22-6.9-.22a42.43,42.43,0,0,0-4.88.22v-.39a4.67,4.67,0,0,0,2-1.12,6.38,6.38,0,0,0,1.06-2.91q.51-3.32.51-17.83V85.06a21.34,21.34,0,0,0-.56-6.11,3.1,3.1,0,0,0-2.25-2v-.39a39.12,39.12,0,0,0,4.6.23,50.45,50.45,0,0,0,5.1-.23v.39A2.9,2.9,0,0,0,253.42,79a27.14,27.14,0,0,0-.45,6V94.7l7.79-6.28q6.84-5.43,8.35-6.89c1.12-1.08,1.68-2,1.68-2.69a2,2,0,0,0-1.45-1.91v-.39a45.33,45.33,0,0,0,4.93.23q3.48,0,6.22-.23v.39q-5,1.86-17.82,11.94l-6,4.66q6.78.27,9.53,1.85t6.39,7a63.32,63.32,0,0,0,6.72,8.63,11.07,11.07,0,0,0,5.1,2.75v.39c-1.53-.15-3.45-.22-5.77-.22a36.19,36.19,0,0,0-4.48.22Zm53.87-7a14.72,14.72,0,0,1-4.88,11.26,18.32,18.32,0,0,1-24.21.06,15.47,15.47,0,0,1,0-22.65A17.68,17.68,0,0,1,305.77,83a16.57,16.57,0,0,1,11.88,4.6A14.85,14.85,0,0,1,322.53,98.91Zm-28.59,0a20.77,20.77,0,0,0,2,9.47q2.81,5.16,9.53,5.16t9.59-5.16a20.64,20.64,0,0,0,2-9.42,20.51,20.51,0,0,0-2-9.53q-2.81-5.15-9.76-5.15a10.06,10.06,0,0,0-8.41,3.81Q293.94,92,293.94,98.91Zm60.88-7.85-.34-.17a7.23,7.23,0,0,0-3.59-4.71,12.72,12.72,0,0,0-6.95-1.85,9.7,9.7,0,0,0-6.16,1.85A5.86,5.86,0,0,0,335.42,91a4.12,4.12,0,0,0,1.74,3.59,14.13,14.13,0,0,0,5.72,1.79L347,97q6.78.94,8.74,2.8a6.29,6.29,0,0,1,2.13,4.82,8.45,8.45,0,0,1-1.34,4.43,10.72,10.72,0,0,1-3.59,3.47,20.26,20.26,0,0,1-10.2,2.3,35,35,0,0,1-14.41-3.08l2-5.5.39.12q.45,3.14,3.93,5.21a17.72,17.72,0,0,0,8.69,2,12.54,12.54,0,0,0,7.28-1.91,5.62,5.62,0,0,0,2.81-4.88,4.22,4.22,0,0,0-1.74-3.69q-1.68-1.19-6.17-1.8l-4.71-.62Q331,99.41,331,92.35a7.87,7.87,0,0,1,3.69-6.73A16.49,16.49,0,0,1,344.34,83a29.07,29.07,0,0,1,12.33,2.8Zm15,1.29Q372.93,83,381.84,83q5.6,0,8.52,3.08a12.39,12.39,0,0,1,2.57,5.38Q396.08,83,404.87,83q5.94,0,9,3.59,2.91,3.14,2.91,10.54V104a30.21,30.21,0,0,0,.68,7.79,2.63,2.63,0,0,0,2.29,2v.39q-2.4-.23-6-.22a39.46,39.46,0,0,0-4.71.22v-.39a3,3,0,0,0,2.35-2.41,29.94,29.94,0,0,0,.62-7.34V96.22q0-5.5-2.24-8.41a7.68,7.68,0,0,0-6.45-2.92,8.41,8.41,0,0,0-7.68,4.26q-2.13,3.48-2.13,9.53V104c0,3.89.24,6.48.73,7.79a2.87,2.87,0,0,0,2.41,2v.39q-2.47-.23-5.94-.22a36.47,36.47,0,0,0-4.49.22v-.39a3,3,0,0,0,2.36-2.41,30.07,30.07,0,0,0,.61-7.34v-4.6q0-7.11-1.45-10.31Q386,85,380.6,85q-6,0-8.35,4.93-1.85,3.59-1.85,11.32V104a34.42,34.42,0,0,0,.62,7.79,2.48,2.48,0,0,0,2.18,2v.39c-1.45-.15-3.38-.22-5.77-.22a32.36,32.36,0,0,0-4.32.22v-.39a3.19,3.19,0,0,0,2.36-2.47,29.61,29.61,0,0,0,.61-7.28v-1.8c0-1.6,0-4.39-.11-8.35,0-1.27-.09-2.43-.17-3.47,0-.79-.07-1.39-.11-1.8a2.32,2.32,0,0,0-2.41-2.24V86a29.61,29.61,0,0,0,6.78-2.19c-.18,2.43-.28,4.86-.28,7.29Zm88.85,6.56a14.76,14.76,0,0,1-4.88,11.26,18.32,18.32,0,0,1-24.21.06,15.45,15.45,0,0,1,0-22.65A17.65,17.65,0,0,1,441.87,83a16.57,16.57,0,0,1,11.88,4.6A14.89,14.89,0,0,1,458.63,98.91Zm-28.59,0a20.64,20.64,0,0,0,2,9.47q2.81,5.16,9.53,5.16t9.58-5.16a20.51,20.51,0,0,0,2-9.42,20.39,20.39,0,0,0-2-9.53q-2.81-5.15-9.75-5.15A10.05,10.05,0,0,0,433,88.09Q430,92,430,98.91Zm60.88-7.85-.34-.17A7.26,7.26,0,0,0,487,86.18,12.72,12.72,0,0,0,480,84.33a9.68,9.68,0,0,0-6.16,1.85A5.86,5.86,0,0,0,471.52,91a4.12,4.12,0,0,0,1.74,3.59A14.13,14.13,0,0,0,479,96.38l4.14.57c4.53.63,7.44,1.56,8.75,2.8a6.29,6.29,0,0,1,2.13,4.82,8.37,8.37,0,0,1-1.35,4.43,10.69,10.69,0,0,1-3.58,3.47,20.28,20.28,0,0,1-10.21,2.3,35,35,0,0,1-14.4-3.08l2-5.5.39.12q.45,3.14,3.93,5.21a17.7,17.7,0,0,0,8.68,2,12.56,12.56,0,0,0,7.29-1.91,5.61,5.61,0,0,0,2.8-4.88,4.24,4.24,0,0,0-1.73-3.69q-1.68-1.19-6.17-1.8l-4.71-.62q-9.81-1.23-9.81-8.29a7.88,7.88,0,0,1,3.7-6.73A16.48,16.48,0,0,1,480.43,83a29.08,29.08,0,0,1,12.34,2.8Zm11.37,17.1a11,11,0,0,0-2.29-1.41q4.25-5.76,5.83-8.24-1.51-2.52-5.44-7.9l-.45-.67a8,8,0,0,0,1.29-.56,12.67,12.67,0,0,0,1.46-.9,94.41,94.41,0,0,0,6.67,10l-1.74,2.63-1,1.46-1,1.57q-2.42,3.52-2.86,4.37Zm9.48,0a13.9,13.9,0,0,0-2.25-1.41q4.49-6,5.78-8.24-1.51-2.52-5.44-7.9a3.34,3.34,0,0,0-.45-.67,8,8,0,0,0,1.29-.56,11.87,11.87,0,0,0,1.46-.9,97.42,97.42,0,0,0,6.73,10,4,4,0,0,0-.45.62l-.17.28-.17.22-.45.67c-.82,1.24-1.68,2.52-2.58,3.87q-2.36,3.52-2.85,4.37Zm37.1-30c1.2,0,2.45,0,3.76-.11s2.61-.12,3.92-.12v.23h.84l6.51-.11,5-.09,4.2,0,2.64,9.87h-1.23A22.93,22.93,0,0,0,567.4,82,17.91,17.91,0,0,0,559.13,80h-4.54a2.76,2.76,0,0,0-.28.45,5.69,5.69,0,0,0-.62,2.75v10.7h1.74q2,0,9.42.9t9.64,2a10.84,10.84,0,0,1,3.73,2.94,7.27,7.27,0,0,1,1.48,4.71,7.41,7.41,0,0,1-1,3.84,8.6,8.6,0,0,1-2.55,2.69,13.22,13.22,0,0,1-3.59,1.71,26.38,26.38,0,0,1-4.09.92,39.8,39.8,0,0,1-4.09.4c-1.33.05-2.52.08-3.56.08H558v.23q-2.35,0-4.71-.12l-2.86-.11h-2.91l-2.64.11c-.86,0-1.73.06-2.63.06h-.17q-.62,0-1.23.06h-1.35v-1.35a3.49,3.49,0,0,0,2.38-.9,5,5,0,0,0,1.27-2.18,2,2,0,0,0,.16-.45,13.64,13.64,0,0,0,.28-2.36c.08-1.15.12-2.37.12-3.64V85.12a13.09,13.09,0,0,0-.56-4.32,3.62,3.62,0,0,0-.62-1l-.11-.11-.06-.06a3,3,0,0,0-.73-.5,4.77,4.77,0,0,1-.67-.28v-.9h.95c.38,0,.77,0,1.18.06.63,0,1.25,0,1.85.06l.06,0a.82.82,0,0,1,.44,0,3.59,3.59,0,0,0,.62.06h2.8Zm4.82,17.49c0,6.87,0,10.67.12,11.37a13.88,13.88,0,0,0,.5,3,.43.43,0,0,1,.06.17,2.6,2.6,0,0,0,.44.62,3.4,3.4,0,0,0,2.05,1.15,20.25,20.25,0,0,0,3.5.25,9.65,9.65,0,0,0,6.62-2.13c1.6-1.42,2.41-3.55,2.41-6.39a6.86,6.86,0,0,0-1.26-4.35A8.11,8.11,0,0,0,564.88,97a14.46,14.46,0,0,0-4.35-1.07c-1.57-.15-3.08-.22-4.54-.22Zm39.13.61v3.2a27.89,27.89,0,0,0,.39,4.62,12.41,12.41,0,0,0,1.49,4.21,8.27,8.27,0,0,0,7.76,4.23,8.57,8.57,0,0,0,4-1,11.41,11.41,0,0,0,3.14-2.47,15,15,0,0,0,2.27-3.45,19.22,19.22,0,0,0,1.37-3.89l1.46,1.06q-3,12.06-15.81,12a15.64,15.64,0,0,1-6.39-1.26,14.27,14.27,0,0,1-4.82-3.39,15.27,15.27,0,0,1-3-4.9,16.24,16.24,0,0,1-1.06-5.86,16.76,16.76,0,0,1,1.06-6,14.89,14.89,0,0,1,3-4.91,13.79,13.79,0,0,1,4.82-3.3,16.14,16.14,0,0,1,6.39-1.21,18,18,0,0,1,5.46.82A14.76,14.76,0,0,1,609,87.22a11.85,11.85,0,0,1,3.25,3.84,12.39,12.39,0,0,1,1.4,5.21Zm11.66-1.79c0-.9-.12-1.85-.25-2.86a10.08,10.08,0,0,0-.79-2.8,5.3,5.3,0,0,0-1.74-2.13,6,6,0,0,0-6.13,0,5.4,5.4,0,0,0-1.71,2.13,9.44,9.44,0,0,0-.79,2.8c-.13,1-.21,2-.25,2.86ZM620,87.14q2.93-.8,5.58-1.38a26.49,26.49,0,0,1,5.69-.59,37.87,37.87,0,0,1,4.18.26,18.41,18.41,0,0,1,4.34,1,8.7,8.7,0,0,1,3.48,2.3,5.4,5.4,0,0,1,1.4,3.77,4.53,4.53,0,0,1-1,3,7.37,7.37,0,0,1-2.47,1.9,13.87,13.87,0,0,1-3.28,1.06c-1.21.24-2.32.42-3.33.53v.06a27.78,27.78,0,0,1,3.59.67,23,23,0,0,1,3.75,1.29,9.18,9.18,0,0,1,2.92,2,4.66,4.66,0,0,1,1.17,3.29,6,6,0,0,1-1.45,4.15,10.36,10.36,0,0,1-3.54,2.56,15.62,15.62,0,0,1-4.56,1.23,37.19,37.19,0,0,1-4.63.31,47.33,47.33,0,0,1-7-.53,34.81,34.81,0,0,1-6.7-1.71l2.63-8.41.9.39a8.68,8.68,0,0,0,2.55,6.25,9.6,9.6,0,0,0,2.89,2,9,9,0,0,0,3.7.75,5.76,5.76,0,0,0,2.71-.59,7.31,7.31,0,0,0,2-1.54,5,5,0,0,0,1.23-2.18,9.56,9.56,0,0,0,.34-2.58,6.73,6.73,0,0,0-.53-2.72,6.87,6.87,0,0,0-1.4-2.07,6.49,6.49,0,0,0-2-1.38,6.3,6.3,0,0,0-2.47-.5A4.68,4.68,0,0,0,629,100a15.67,15.67,0,0,1-1.51.45V97.84a10.53,10.53,0,0,0,3.13.45,5.1,5.1,0,0,0,2.33-.5,5.69,5.69,0,0,0,1.68-1.31,4.5,4.5,0,0,0,1-2,9.17,9.17,0,0,0,.28-2.21,5.7,5.7,0,0,0-1.48-4.15,5.3,5.3,0,0,0-4-1.54,6.14,6.14,0,0,0-2.89.7,7.87,7.87,0,0,0-2.38,2A13.14,13.14,0,0,0,623.48,92a9.23,9.23,0,0,0-.79,2.78l-.89.34Zm79.71-9h1.91c1.27,0,2.58,0,3.92-.11s2.75-.12,4.21-.12v.9a3.38,3.38,0,0,0-2.55,2,11.4,11.4,0,0,0-.65,4.32v18c0,1,0,2.07.09,3.19a14.18,14.18,0,0,0,.47,3.11,6.15,6.15,0,0,0,1.21,2.41,2.87,2.87,0,0,0,2.21,1V114H692.71v-1.12a3.13,3.13,0,0,0,2.21-.9,5.17,5.17,0,0,0,1.2-2.18,12.58,12.58,0,0,0,.48-3.06c.06-1.14.09-2.34.09-3.61V80.69H681.1v22.48c0,1.27,0,2.47.09,3.61a12.08,12.08,0,0,0,.5,3.06,5.44,5.44,0,0,0,1.23,2.18,3.22,3.22,0,0,0,2.27.9V114H666.81v-1.12a3.71,3.71,0,0,0,2.47-.9,5,5,0,0,0,1.31-2.18,13,13,0,0,0,.53-3.06c.08-1.14.12-2.34.12-3.61v-17q0-2.07-.09-3.39a6.77,6.77,0,0,0-.39-2.1,2.43,2.43,0,0,0-.9-1.18,5.7,5.7,0,0,0-1.59-.67v-.9c1.34,0,2.68,0,4,.12s2.63.11,3.9.11Zm24,12h.11a10,10,0,0,1,10.09-6.11,12.61,12.61,0,0,1,5.61,1.26A14.72,14.72,0,0,1,744,88.68a16,16,0,0,1,3,4.82,14.93,14.93,0,0,1,1.1,5.63,17.25,17.25,0,0,1-1.07,6.06,15.92,15.92,0,0,1-3,5,14.16,14.16,0,0,1-4.51,3.42,12.8,12.8,0,0,1-5.64,1.26,17.58,17.58,0,0,1-5.43-.78,12.05,12.05,0,0,1-4.54-2.81v7.07a6.93,6.93,0,0,0,.92,3.81c.62.93,1.82,1.53,3.62,1.79v1c-1.39,0-2.81,0-4.29-.12s-2.85-.11-4.12-.11-2.54,0-3.92.11-2.77.12-4.15.12v-.85a3.69,3.69,0,0,0,3-1.85,7.61,7.61,0,0,0,.75-3.42V92.05c0-2.77-1-4.24-3-4.43v-.84q2.91-.34,5.69-.79c1.84-.3,3.61-.67,5.29-1.12Zm.23,9.31q0,6.52,1.76,9.93a6.5,6.5,0,0,0,11.44,0q1.75-3.41,1.76-9.93t-1.76-9.94a6.51,6.51,0,0,0-11.44,0Q723.94,92.94,723.93,99.47Zm44.9-15.42a19.29,19.29,0,0,1,6.41,1.07,16.71,16.71,0,0,1,5.41,3.08,14.84,14.84,0,0,1,3.73,4.88,15.59,15.59,0,0,1,0,12.78,14.8,14.8,0,0,1-3.73,4.87,16.55,16.55,0,0,1-5.41,3.09,19.94,19.94,0,0,1-12.83,0,16.55,16.55,0,0,1-5.41-3.09,14.8,14.8,0,0,1-3.73-4.87,15.59,15.59,0,0,1,0-12.78A14.84,14.84,0,0,1,757,88.2a16.71,16.71,0,0,1,5.41-3.08A19.31,19.31,0,0,1,768.83,84.05Zm0,1.8a5.43,5.43,0,0,0-3.93,1.45,10.1,10.1,0,0,0-2.35,3.56,18.15,18.15,0,0,0-1.15,4.46,27.93,27.93,0,0,0,0,8.3,18.08,18.08,0,0,0,1.15,4.45,10,10,0,0,0,2.35,3.56,6,6,0,0,0,7.85,0,10,10,0,0,0,2.35-3.56,18.08,18.08,0,0,0,1.15-4.45,27.93,27.93,0,0,0,0-8.3,18.15,18.15,0,0,0-1.15-4.46,10.1,10.1,0,0,0-2.35-3.56A5.43,5.43,0,0,0,768.83,85.85Zm48.76-13.12q-10.14,2.74-12.3,3.14a28.51,28.51,0,0,0-4.79,1.37,8,8,0,0,0-4.24,4.23,24.18,24.18,0,0,0-2,8.47A17.86,17.86,0,0,1,796,88.2a17.13,17.13,0,0,1,4.54-3.08,13.79,13.79,0,0,1,5.71-1.07,19.35,19.35,0,0,1,6.42,1.07A16.71,16.71,0,0,1,818,88.2a14.84,14.84,0,0,1,3.73,4.88,15.59,15.59,0,0,1,0,12.78,14.8,14.8,0,0,1-3.73,4.87,16.55,16.55,0,0,1-5.41,3.09,20,20,0,0,1-12.84,0,16.6,16.6,0,0,1-5.4-3.09,14.44,14.44,0,0,1-5.1-11.26,16.31,16.31,0,0,1,.11-2q.17-16.76,2-18.72A13,13,0,0,1,796,75.59a24.39,24.39,0,0,1,6.14-1.65q3.33-.48,15.16-5.3ZM806.21,85.85a5.43,5.43,0,0,0-3.92,1.45,10.1,10.1,0,0,0-2.35,3.56,18.15,18.15,0,0,0-1.15,4.46,27.93,27.93,0,0,0,0,8.3,18.08,18.08,0,0,0,1.15,4.45,10,10,0,0,0,2.35,3.56,6,6,0,0,0,7.85,0,10,10,0,0,0,2.35-3.56,18.53,18.53,0,0,0,1.15-4.45,27.93,27.93,0,0,0,0-8.3,18.61,18.61,0,0,0-1.15-4.46,10.1,10.1,0,0,0-2.35-3.56A5.43,5.43,0,0,0,806.21,85.85Zm50.51,20c0,.94,0,1.85.08,2.75a8.29,8.29,0,0,0,.48,2.38,4.62,4.62,0,0,0,1.12,1.74,2.77,2.77,0,0,0,1.9.75v.85q-1.9,0-3.81-.12c-1.27-.07-2.5-.11-3.7-.11s-2.58,0-3.84.11-2.55.12-3.89.12v-.85a2.88,2.88,0,0,0,2.07-.75,4.68,4.68,0,0,0,1-1.73,9.15,9.15,0,0,0,.45-2.38q.07-1.35.08-21.14h-4.48a52.16,52.16,0,0,0-5.22.22,2.36,2.36,0,0,0-.22.45,8,8,0,0,0-.62,3.41v11.19q0,12.3-5.94,12.19a31.3,31.3,0,0,1-3.87-.22,16.7,16.7,0,0,1-3.42-.79l2.75-9.08.84.23c0,.74.12,1.59.25,2.55a13.37,13.37,0,0,0,.68,2.72,8.54,8.54,0,0,0,1.17,2.21,2.18,2.18,0,0,0,1.83.92,2,2,0,0,0,1-.36,3.25,3.25,0,0,0,1.1-1.4,11.49,11.49,0,0,0,.81-3,38.32,38.32,0,0,0,.31-5.46V91.45a7.94,7.94,0,0,0-.59-3.36,3,3,0,0,0-2.38-1.57v-.67c1.38,0,2.65,0,3.81.11h19.34l1.79-.09,1.51,0v.67a2.7,2.7,0,0,0-1.9,1.57,8.15,8.15,0,0,0-.56,3.36ZM873,96.27v3.2a27.89,27.89,0,0,0,.39,4.62,12.63,12.63,0,0,0,1.49,4.21,8.27,8.27,0,0,0,7.76,4.23,8.54,8.54,0,0,0,4-1,11.41,11.41,0,0,0,3.14-2.47,14.73,14.73,0,0,0,2.27-3.45,19.22,19.22,0,0,0,1.37-3.89l1.46,1.06q-3,12.06-15.81,12a15.71,15.71,0,0,1-6.39-1.26,14.37,14.37,0,0,1-4.82-3.39,15.27,15.27,0,0,1-3-4.9,16.24,16.24,0,0,1-1.06-5.86,16.76,16.76,0,0,1,1.06-6,14.89,14.89,0,0,1,3-4.91,13.88,13.88,0,0,1,4.82-3.3,16.21,16.21,0,0,1,6.39-1.21,18,18,0,0,1,5.47.82,14.6,14.6,0,0,1,4.62,2.35,11.73,11.73,0,0,1,3.25,3.84,12.39,12.39,0,0,1,1.4,5.21Zm11.66-1.79c0-.9-.12-1.85-.25-2.86a9.44,9.44,0,0,0-.79-2.8,5.36,5.36,0,0,0-1.73-2.13,5.09,5.09,0,0,0-3.06-.84,5,5,0,0,0-3.08.84A5.4,5.4,0,0,0,874,88.82a10.08,10.08,0,0,0-.79,2.8c-.13,1-.21,2-.25,2.86Zm19.34-4h-.06v14a21.47,21.47,0,0,0,.17,2.66,10.66,10.66,0,0,0,.67,2.58,7.2,7.2,0,0,0,1.43,2.24,5.49,5.49,0,0,0,2.33,1.43V114H897.36v-.62A6.08,6.08,0,0,0,899.6,112a8.28,8.28,0,0,0,1.6-2.27,10.16,10.16,0,0,0,.81-2.58,15.83,15.83,0,0,0,.22-2.66V92.74a18.18,18.18,0,0,0-.19-3,5.11,5.11,0,0,0-.62-1.79,2.72,2.72,0,0,0-1.07-1,8.32,8.32,0,0,0-1.31-.56v-.56c.93,0,1.85,0,2.74.05s1.76.06,2.58.06,1.75,0,2.78-.06,2-.05,2.83-.05l8.74,17.49,7.79-17.49c.94,0,1.87,0,2.81.05s1.81.06,2.63.06,1.72,0,2.69-.06,1.91-.05,2.8-.05v.56a4.38,4.38,0,0,0-1.54.64,2.58,2.58,0,0,0-.87,1.07,3.91,3.91,0,0,0-.31,1.34c0,.47,0,1,0,1.6v14.52c0,1,0,1.94.08,2.8a9.34,9.34,0,0,0,.45,2.35,4.18,4.18,0,0,0,1.09,1.74,2.93,2.93,0,0,0,1.91.73V114H923v-.84a3,3,0,0,0,2-.73,4.34,4.34,0,0,0,1.06-1.74,8.53,8.53,0,0,0,.45-2.35c.06-.86.09-1.79.09-2.8V89.83h-.17l-11.38,25h-.51Zm84.08,1.63-.34-.11a14.06,14.06,0,0,0-2.46-4.26,11.65,11.65,0,0,0-8.86-3.42,9.93,9.93,0,0,0-8.3,3.81q-3,3.75-3,10.59t3.25,10.65a11.11,11.11,0,0,0,8.91,3.87,11.66,11.66,0,0,0,6.56-1.74,19.46,19.46,0,0,0,5.27-5.83l.78,1.4q-4.26,7.74-13.39,7.74a16.47,16.47,0,0,1-11.94-4.6,14.72,14.72,0,0,1-4.88-11.26,15,15,0,0,1,4.93-11.49A16.71,16.71,0,0,1,976.5,83a27.56,27.56,0,0,1,13.34,3.7Zm58.12-7.46a13.57,13.57,0,0,0-7.11-5.27q-4.55-1.45-13.51-1.45h-6.06q0,30.72,1.24,33.57a4.43,4.43,0,0,0,3.14,2.3v.39q-3.15-.23-7.74-.22a51,51,0,0,0-5.38.22v-.39a4.78,4.78,0,0,0,2.24-1.12,5.9,5.9,0,0,0,1.23-2.86q.63-3.42.62-17.77V85.45a21.89,21.89,0,0,0-.56-6.22,3.56,3.56,0,0,0-2.41-2.18v-.4h32.51l2.19,7.8Zm16,11.55-2.07,4q-4,8-4,10.09,0,2.4,3.08,3.47v.39c-1.6-.15-3.57-.22-5.88-.22a38.46,38.46,0,0,0-4.6.22v-.39a15.24,15.24,0,0,0,4.54-4.59q2.25-3.32,7-12.28l11.32-21.36L1082,96.16l3.2,5.94,3.19,5.94c1.72,2.84,3.54,4.75,5.44,5.72v.39c-1.9-.15-4.26-.22-7.06-.22-2.21,0-4,.07-5.5.22v-.39c1.46-.34,2.19-1.14,2.19-2.41s-.73-3.44-2.19-6.39l-4.42-8.8Zm7.51-14-6.84,12.73h13.4Zm30.89,22.26.33.11a10,10,0,0,0,4.32,6.44,15,15,0,0,0,8.63,2.47,11.24,11.24,0,0,0,7.29-2.19,8.76,8.76,0,0,0,3.53-7.17,8.2,8.2,0,0,0-3.08-6.56,11.6,11.6,0,0,0-7.68-2.63,12.12,12.12,0,0,0-4,.56V92.57a9.88,9.88,0,0,0,4.31,1c2.92,0,5.14-.7,6.67-2.08a8.26,8.26,0,0,0,.06-11.6,9.4,9.4,0,0,0-6.45-2.13,11.53,11.53,0,0,0-8,2.75,18.43,18.43,0,0,0-3,3.92l-.39.11-1.29-5.21q4.82-2.87,12.22-2.86,6.78,0,10.93,2.47c2.76,1.64,4.15,3.81,4.15,6.5s-1.39,5-4.15,6.67a22.23,22.23,0,0,1-6.73,2.18,24.45,24.45,0,0,1,8.13,2.86,8.14,8.14,0,0,1,4.09,7.07,8.84,8.84,0,0,1-4.43,7.68q-4.42,2.91-11.82,2.91a30.86,30.86,0,0,1-15.75-4.37ZM1182,95.38a18.21,18.21,0,0,1-6.11,14q-6.11,5.61-15.41,5.6t-15.36-5.6a19.13,19.13,0,0,1,0-28.14q6.17-5.55,15.64-5.55a21.56,21.56,0,0,1,15.13,5.66A18.22,18.22,0,0,1,1182,95.38Zm-36.88,0q0,8.46,3.92,13.22a14,14,0,0,0,11.44,5.16q7.17,0,11.26-4.88t4.1-13.45c0-5.86-1.37-10.41-4.1-13.62s-6.55-4.88-11.49-4.88A13.72,13.72,0,0,0,1149,82.09Q1145.12,86.86,1145.11,95.38Zm81.56-18.84a21.42,21.42,0,0,0,3.36.23,34,34,0,0,0,3.87-.23v.39a3.41,3.41,0,0,0-2.3,2.08,20.62,20.62,0,0,0-.56,6v12q0,11.49,1.06,14.35a4,4,0,0,0,2.75,2.3v.39c-1.91-.15-4.2-.22-6.89-.22a50.48,50.48,0,0,0-5.33.22v-.39a3.92,3.92,0,0,0,2.69-2.3q1.07-2.62,1.07-14.35V80.86l-16.65,34.3-16.31-34.69V95.94q0,12.72,1.06,14.85a5.7,5.7,0,0,0,3.2,3v.39c-1.54-.15-3.42-.22-5.67-.22a33.62,33.62,0,0,0-4.37.22v-.39a6,6,0,0,0,3-2.69q.84-1.78,1.12-7.73c0-.12,0-2.19.11-6.23,0-.74,0-1.51.06-2.3V93c0-1.2,0-2,0-2.25V85.06q0-5-1-6.5a5.52,5.52,0,0,0-2.36-1.63v-.39a30.2,30.2,0,0,0,4,.23,36,36,0,0,0,4.31-.23L1211.92,107Zm14.74,43.67q2.8-3.31,2.8-5.83V114a5.66,5.66,0,0,1-1,.17,2.55,2.55,0,0,1-1.9-.79,2.61,2.61,0,0,1-.73-2,3,3,0,0,1,.78-2,2.89,2.89,0,0,1,2-.79q3,0,3,3.81a9.52,9.52,0,0,1-4.48,8.13ZM247.84,143.92q11.94,0,15.92,1.74,5.55,2.35,5.55,7.11,0,4.38-4.71,6.84a28.48,28.48,0,0,1-7.23,1.85,37.34,37.34,0,0,1,9,1.85q6.39,2.87,6.39,8.13a7.4,7.4,0,0,1-1.91,4.88,12.7,12.7,0,0,1-5.32,3.53q-4,1.58-11.66,1.57-1.8,0-8.19-.17h-2.29l-2.13-.06h-3.59c-.75,0-1.44,0-2.08.06-1.42,0-2.44.09-3.08.17V181a4.72,4.72,0,0,0,3.87-4.1q.61-3.69.62-17.65v-6.56a21.52,21.52,0,0,0-.62-6.34,3.5,3.5,0,0,0-2.75-2.07v-.39Zm1.23,17q8.25,0,11.49-2.41a6.59,6.59,0,0,0,2.58-5.66c0-3.1-1.17-5.22-3.53-6.34q-3-1.4-11.15-1.4h-6.84V161Zm-7.45,6.22q.16,9,.22,9.31a3.38,3.38,0,0,0,3.25,3.41,60.49,60.49,0,0,0,7.51.29c4.6,0,7.87-.57,9.81-1.69a7.49,7.49,0,0,0,4.15-7,7.8,7.8,0,0,0-1.18-4.21,8.55,8.55,0,0,0-3.13-3.08q-3.42-2-13.91-2h-6.72Zm71.41-1a14.78,14.78,0,0,1-4.88,11.27,18.33,18.33,0,0,1-24.21.05,15.46,15.46,0,0,1,0-22.64,17.6,17.6,0,0,1,12.33-4.54,16.56,16.56,0,0,1,11.88,4.59A14.92,14.92,0,0,1,313,166.17Zm-28.59,0a20.77,20.77,0,0,0,2,9.47q2.81,5.16,9.53,5.16t9.58-5.16a23.21,23.21,0,0,0,0-18.94c-1.86-3.44-5.12-5.16-9.75-5.16a10.05,10.05,0,0,0-8.41,3.81Q284.44,159.28,284.44,166.17Zm72,13.9,1.91,6.17-.28.11a20.62,20.62,0,0,0-3.48-2.86,18.44,18.44,0,0,0-6.67-2.13h-.05l-.73.06-.79.05v-.11H328.84v.11l-.45-.05-.56-.06h-1.07a18.37,18.37,0,0,0-6.61,2.13,17.89,17.89,0,0,0-3.48,2.86l-.28-.11,1.85-6.17h3.42l.17-.11.11-.11h.11a14.43,14.43,0,0,0,1.41-1.68q1.62-2.52,5.15-9.31L338,150.92l8.13,15.64q1.79,3.54,5.66,10.6a10.5,10.5,0,0,0,2.18,2.91Zm-8.91.4a1.74,1.74,0,0,0,.5-1.29q0-2-11.71-22.26l-3.14,5.83q-2.91,5.61-5.55,11.27a11.18,11.18,0,0,0-1.4,4.43,2.24,2.24,0,0,0,.56,1.68l.17.17.22.17Zm48.32-14.3A14.78,14.78,0,0,1,391,177.44a18.35,18.35,0,0,1-24.22.05,15.46,15.46,0,0,1,0-22.64,17.65,17.65,0,0,1,12.34-4.54A16.57,16.57,0,0,1,391,154.9,14.92,14.92,0,0,1,395.88,166.17Zm-28.59,0a20.64,20.64,0,0,0,2,9.47q2.81,5.16,9.53,5.16t9.58-5.16a23.21,23.21,0,0,0,0-18.94q-2.81-5.16-9.75-5.16a10,10,0,0,0-8.41,3.81Q367.29,159.28,367.29,166.17Zm61.27,15.14a31.87,31.87,0,0,1-1.85-5.95A12.73,12.73,0,0,1,414.93,182q-12.1,0-12.1-12v-1.57c0-.82,0-1.44.05-1.85s.06-1,.06-1.85V162c0-4-.11-6.39-.34-7.07s-1.12-1.13-2.58-1.28v-.4a39.69,39.69,0,0,0,7.4-2.18q-.23,2.75-.22,7.28v8.13c0,4.52.52,7.76,1.57,9.7q2.13,4,7.57,4a10.71,10.71,0,0,0,5.32-1.35,7.81,7.81,0,0,0,3.48-3.48q1.56-3.3,1.57-11.6V162c0-4-.14-6.39-.4-7.07s-1.1-1.1-2.52-1.28v-.4a27.91,27.91,0,0,0,3.81-.95,30.34,30.34,0,0,0,3.59-1.23q-.22,2.75-.22,7.28v7.35a82.11,82.11,0,0,0,.5,11.54c.26,1.87.95,3.11,2.07,3.7v.4Zm-15.64-33.69,7.84-7.51a4.09,4.09,0,0,1,2.36-1.35c1.16,0,1.74.54,1.74,1.63q0,1.17-3,3l-7.12,4.26Zm68.6,33.69a33.47,33.47,0,0,1-1.85-5.95A12.7,12.7,0,0,1,467.9,182q-12.11,0-12.1-12v-1.57c0-.82,0-1.44.05-1.85s.06-1,.06-1.85V162c0-4-.11-6.39-.34-7.07s-1.12-1.13-2.58-1.28v-.4a39.69,39.69,0,0,0,7.4-2.18q-.22,2.75-.22,7.28v8.13c0,4.52.52,7.76,1.57,9.7q2.13,4,7.57,4a10.71,10.71,0,0,0,5.32-1.35,7.81,7.81,0,0,0,3.48-3.48q1.56-3.3,1.56-11.6V162c0-4-.13-6.39-.39-7.07s-1.1-1.1-2.52-1.28v-.4a27.91,27.91,0,0,0,3.81-.95,30.34,30.34,0,0,0,3.59-1.23q-.23,2.75-.22,7.28v7.35a82.11,82.11,0,0,0,.5,11.54c.26,1.87.95,3.11,2.07,3.7v.4Zm38-18.45v-2.24h20.91a18.77,18.77,0,0,0-4.26-11.38,14.22,14.22,0,0,0-11.44-5,17.14,17.14,0,0,0-9.36,2.41,11.71,11.71,0,0,0-5,6.73l-.4.11-2-5.38Q514,143,524.46,143t16.71,6.33a18.52,18.52,0,0,1,5.49,13.34,19,19,0,0,1-2,8.35,17.22,17.22,0,0,1-5.27,6.45,25.38,25.38,0,0,1-15.53,4.82,25.71,25.71,0,0,1-16-5l1.18-4.82.39.12a12.94,12.94,0,0,0,3.2,4.48,16.13,16.13,0,0,0,11.1,4,15.5,15.5,0,0,0,12.11-5.11q4.49-4.92,4.59-13.06Zm49.1-12.55,9.31,18.44q3.46,6.94,4.87,9.08a10.33,10.33,0,0,0,3.53,3.2v.39c-1.27-.08-2.39-.13-3.36-.17s-1.46-.06-1.91-.06c-1.45,0-3,.08-4.59.23V181c2.2-.64,3.31-1.82,3.31-3.54q0-2.13-3.37-8.74l-6.16-12.16-8.19,16.08c-1.64,3.22-2.46,5.29-2.46,6.23s.69,1.68,2.07,2.13v.39c-1.38-.08-2.63-.13-3.76-.17q-1.33-.06-2.13-.06c-1.45,0-3.15.08-5.1.23V181a5.55,5.55,0,0,0,2.58-1.74,28.1,28.1,0,0,0,2.92-4.82q1-2,2.18-4.26c.23-.41.51-1,.84-1.63s.62-1.18.73-1.4Zm26.79,11.94a19.77,19.77,0,0,0-.28,3.36,18.92,18.92,0,0,0,2.19,9.47q2.91,5.44,9.81,5.44a12.73,12.73,0,0,0,8.46-2.91,16.9,16.9,0,0,0,5.1-8.36l1.07,1a15.06,15.06,0,0,1-5.55,8.69,16,16,0,0,1-10,3.19,16.32,16.32,0,0,1-11.82-4.54,15.22,15.22,0,0,1-4.71-11.43,15,15,0,0,1,4.76-11.22,16.1,16.1,0,0,1,11.6-4.59,15.86,15.86,0,0,1,10.15,3.42,12.59,12.59,0,0,1,5.1,8.52Zm20.13-1.18a9.4,9.4,0,0,0-2.58-6.95,9.25,9.25,0,0,0-6.84-2.63q-8.46,0-10.43,9.58Zm34.86,20.24a52.84,52.84,0,0,1-4.09-6.45,44.25,44.25,0,0,0-5.44-8,6,6,0,0,0-4.37-2.24q-3,0-3,4.76v1.85q0,5.67.84,7.63a3.78,3.78,0,0,0,2.92,2.13v.39c-1.83-.15-4.06-.23-6.67-.23a47.17,47.17,0,0,0-5.1.23V181q2.74-.9,3.25-4.77.33-3,.56-9.3c0-1.05.07-2.1.11-3.14q0-.62.06-1.29c0-.3,0-.66,0-1.07q.06-2,.06-2.13t-.06-.84c0-.48-.09-1-.16-1.68-.15-1.42-.49-2.32-1-2.69a3.51,3.51,0,0,0-2-.56v-.39a36,36,0,0,0,7.34-2.19q-.23,5-.23,13.4l5.1-3.81q7.63-5.61,7.63-7.29,0-1.35-1.68-1.68v-.28c2.76.11,4.63.17,5.6.17q.68,0,6.39-.17v.28a27.25,27.25,0,0,0-6.27,2.41q-1.86,1-9.65,6.84l-3.42,2.46h1.07a10.37,10.37,0,0,1,6.73,2.13q1.72,1.41,5.71,7.51a36.07,36.07,0,0,0,4.26,5.61,10.56,10.56,0,0,0,3.81,2.47v.28Zm23-.23a3.83,3.83,0,0,0,3.36-3.25q.57-2.81.56-14.35V158a20.39,20.39,0,0,0-.28-4.54c-.26-.78-1.27-1.17-3-1.17a17.26,17.26,0,0,0-6.62,1.06,14.92,14.92,0,0,0-5.21,3.7h-.34l2.13-5.72h30.78l2.13,5.72h-.34a14.92,14.92,0,0,0-5.21-3.7,17.83,17.83,0,0,0-6.62-1.06c-1.87,0-2.91.5-3.14,1.51a31,31,0,0,0-.17,4.2v5.44q0,11.55.57,14.35a3.83,3.83,0,0,0,3.36,3.25v.34q-2.25-.16-5.94-.17t-6,.17Zm32.85-21.91a34.85,34.85,0,0,1,2.91-4.49,12.41,12.41,0,0,1,10-4.37,15.44,15.44,0,0,1,11.21,4.48,15,15,0,0,1,4.6,11.1,15.83,15.83,0,0,1-4.54,11.49A15.13,15.13,0,0,1,719.19,182q-6.84,0-12.22-5.88v6.73q0,5.26.84,7.28a3.49,3.49,0,0,0,3,2.41v.4c-2.17-.12-4.47-.17-6.9-.17-1.64,0-3.19,0-4.65.17v-.4a3.43,3.43,0,0,0,2.63-2.41,24.3,24.3,0,0,0,.73-7.28v-13.4a124.87,124.87,0,0,0-.44-13.79,2.39,2.39,0,0,0-2.53-2.24v-.39a43.46,43.46,0,0,0,6.9-2q-.29,4.2-.28,7.28Zm3.25-2.7q-2.47,3.48-2.47,9.76,0,7,2.69,10.31a10.77,10.77,0,0,0,4,3.14,11.44,11.44,0,0,0,5,1.18,10.3,10.3,0,0,0,5.1-1.35,9,9,0,0,0,3.59-3.47q2.13-3.81,2.13-10.26,0-6.84-2.86-10.43a9.84,9.84,0,0,0-8.18-3.86,9.43,9.43,0,0,0-4.82,1.4A12.78,12.78,0,0,0,709.55,156.47Zm58.18,24.84a32.65,32.65,0,0,1-1.85-5.95A12.71,12.71,0,0,1,754.11,182Q742,182,742,170v-1.57c0-.82,0-1.44.06-1.85s.06-1,.06-1.85V162a38.4,38.4,0,0,0-.34-7.07c-.26-.7-1.12-1.13-2.58-1.28v-.4a39.92,39.92,0,0,0,7.4-2.18q-.23,2.75-.22,7.28v8.13c0,4.52.52,7.76,1.56,9.7,1.42,2.69,3.95,4,7.57,4a10.72,10.72,0,0,0,5.33-1.35,7.79,7.79,0,0,0,3.47-3.48q1.58-3.3,1.57-11.6V162c0-4-.13-6.39-.39-7.07s-1.1-1.1-2.52-1.28v-.4a27.91,27.91,0,0,0,3.81-.95,31,31,0,0,0,3.59-1.23q-.23,2.75-.23,7.28v7.35a81.58,81.58,0,0,0,.51,11.54c.26,1.87,1,3.11,2.07,3.7v.4Zm34.47,0L802,168.47a12.73,12.73,0,0,1-11.78,6.67q-12.1,0-12-9.64t-.28-10.6c-.26-.7-1.12-1.13-2.58-1.28v-.4a39.69,39.69,0,0,0,7.4-2.18q-.22,2.75-.22,6.05v2.47q0,6.78,1.57,9.69c1.42,2.7,3.94,4,7.57,4A10.81,10.81,0,0,0,797,172a7.91,7.91,0,0,0,3.48-3.48q1.56-3.3,1.57-11.6a5.29,5.29,0,0,0-.4-2c-.26-.67-1.1-1.1-2.52-1.28v-.4a27.91,27.91,0,0,0,3.81-.95,30.34,30.34,0,0,0,3.59-1.23q-.22,2.75-.22,7.28v7.35a82.11,82.11,0,0,0,.5,11.54c.26,1.87,1,3.11,2.08,3.7v.4Zm16.65-19.06a21.23,21.23,0,0,0,1.91,12.83q2.91,5.44,9.81,5.44a12.75,12.75,0,0,0,8.46-2.91,17,17,0,0,0,5.1-8.36l1.07,1a15.06,15.06,0,0,1-5.55,8.69,16,16,0,0,1-10,3.19,16.34,16.34,0,0,1-11.83-4.54,15.22,15.22,0,0,1-4.71-11.43,15,15,0,0,1,4.77-11.22,16.08,16.08,0,0,1,11.6-4.59,15.86,15.86,0,0,1,10.15,3.42,12.59,12.59,0,0,1,5.1,8.52ZM839,161.07a9.43,9.43,0,0,0-2.57-6.95,9.25,9.25,0,0,0-6.84-2.63q-8.47,0-10.43,9.58Zm40-1.74-.34-.11a13.66,13.66,0,0,0-2.46-4.26,11.65,11.65,0,0,0-8.86-3.42,9.91,9.91,0,0,0-8.29,3.81q-3,3.77-3,10.6t3.25,10.65a11.11,11.11,0,0,0,8.91,3.87,11.66,11.66,0,0,0,6.56-1.74A19.59,19.59,0,0,0,880,172.9l.78,1.4Q876.47,182,867.34,182a16.5,16.5,0,0,1-11.94-4.59,14.78,14.78,0,0,1-4.88-11.27,15.1,15.1,0,0,1,4.93-11.49,16.78,16.78,0,0,1,11.94-4.37,27.45,27.45,0,0,1,13.34,3.7Zm16.7,21.75a3.85,3.85,0,0,0,3.37-3.25q.56-2.81.56-14.35V158a21.07,21.07,0,0,0-.28-4.54q-.39-1.17-3-1.17a17.21,17.21,0,0,0-6.61,1.06,14.86,14.86,0,0,0-5.22,3.7h-.33l2.13-5.72H917l2.13,5.72h-.34a14.83,14.83,0,0,0-5.21-3.7,17.77,17.77,0,0,0-6.61-1.06c-1.87,0-2.92.5-3.14,1.51a31,31,0,0,0-.17,4.2v5.44q0,11.55.56,14.35a3.85,3.85,0,0,0,3.36,3.25v.34q-2.24-.16-5.94-.17c-2.47,0-4.46.06-6,.17Zm39.86-29.71q9.75,0,13,1.4c3,1.24,4.48,3.14,4.48,5.72q0,3.48-3.81,5.44a20.49,20.49,0,0,1-5.89,1.51,30.82,30.82,0,0,1,7.29,1.46c3.48,1.5,5.21,3.66,5.21,6.5a5.7,5.7,0,0,1-1.57,3.93,11.38,11.38,0,0,1-4.31,2.86,28.38,28.38,0,0,1-9.47,1.23l-2.42-.06h-1.9c-.82,0-1.61-.05-2.36-.05h-1.85l-1.73-.06h-3c-.57,0-1.11,0-1.63.06l-.84.05H924a5.56,5.56,0,0,0-1,.06v-.34a3.85,3.85,0,0,0,3.14-3.25q.5-2.87.5-14.12v-5.27a16.5,16.5,0,0,0-.5-5.1,2.75,2.75,0,0,0-2.25-1.63v-.34Zm1,13.68q6.66,0,9.3-2a5.38,5.38,0,0,0,2.13-4.54q0-3.7-2.86-5.05c-1.68-.74-4.7-1.12-9.08-1.12h-5.55v12.67ZM930.45,170c.08,4.82.13,7.31.17,7.46a2.69,2.69,0,0,0,2.64,2.75,48.14,48.14,0,0,0,6.11.22c3.73,0,6.39-.45,8-1.35a6,6,0,0,0,3.36-5.6,6.59,6.59,0,0,0-1-3.36,6.9,6.9,0,0,0-2.53-2.47Q944.41,166,935.89,166h-5.44Zm64.91-3.81a14.77,14.77,0,0,1-4.87,11.27,18.35,18.35,0,0,1-24.22.05,15.46,15.46,0,0,1,0-22.64,17.64,17.64,0,0,1,12.33-4.54,16.6,16.6,0,0,1,11.89,4.59A14.91,14.91,0,0,1,995.36,166.17Zm-28.59,0a20.77,20.77,0,0,0,2,9.47q2.81,5.16,9.53,5.16t9.59-5.16a23.31,23.31,0,0,0,0-18.94q-2.8-5.16-9.76-5.16a10,10,0,0,0-8.4,3.81Q966.77,159.28,966.77,166.17Zm65.25-14.8a19.52,19.52,0,0,0,2.69.17,29.82,29.82,0,0,0,3.08-.17v.34a2.53,2.53,0,0,0-1.84,1.68,17.44,17.44,0,0,0-.45,4.82v9.7c0,6.17.29,10,.89,11.55a3.13,3.13,0,0,0,2.19,1.85v.33c-1.53-.15-3.38-.22-5.55-.22a32.39,32.39,0,0,0-4.26.22v-.33a2.94,2.94,0,0,0,2.13-1.85q.9-2.13.9-11.55V154.85l-13.4,27.58-13.12-27.92V167q0,10.14.84,11.94a4.48,4.48,0,0,0,2.58,2.41v.33a38.52,38.52,0,0,0-4.54-.22,22.41,22.41,0,0,0-3.53.22v-.33a4.39,4.39,0,0,0,2.41-2.19c.45-.93.77-3,1-6.22v-1.68c0-1.05,0-2.15.06-3.31,0-.6,0-1.21.06-1.85v-1.51c0-.94,0-1.54,0-1.8v-4.54q0-4-.84-5.21a3.5,3.5,0,0,0-1.9-1.29v-.34a27.53,27.53,0,0,0,3.25.17,32.65,32.65,0,0,0,3.47-.17l12,24.5Zm17.21,27.53a2.68,2.68,0,0,1-.78,2,2.78,2.78,0,0,1-2,.84,2.56,2.56,0,0,1-2-.84,2.6,2.6,0,0,1-.85-2,2.76,2.76,0,0,1,.85-2,2.69,2.69,0,0,1,2-.79,2.72,2.72,0,0,1,2,.84A3,3,0,0,1,1049.23,178.9Z" style="fill:url(#Безымянный_градиент_56)"/></svg>