<svg id="Слой_1" data-name="Слой 1" xmlns="http://www.w3.org/2000/svg" xmlns:xlink="http://www.w3.org/1999/xlink" viewBox="0 0 1023.07 534.9"><defs><linearGradient id="Безымянный_градиент_56" x1="3.8" y1="274.18" x2="1021.24" y2="274.18" gradientUnits="userSpaceOnUse"><stop offset="0" stop-color="#b78b32"/><stop offset="0.38" stop-color="#d3ae6f"/><stop offset="1" stop-color="#fae298"/></linearGradient></defs><path d="M210,13.85h2.59c1.72,0,3.5,0,5.33-.16s3.72-.15,5.7-.15v1.22a4.62,4.62,0,0,0-3.46,2.66,15.55,15.55,0,0,0-.87,5.86v24.5c0,1.37,0,2.81.11,4.33a19.53,19.53,0,0,0,.65,4.22,8.64,8.64,0,0,0,1.63,3.28,3.94,3.94,0,0,0,3,1.4v1.52H200.54V61a4.24,4.24,0,0,0,3-1.21,7.11,7.11,0,0,0,1.64-3,18,18,0,0,0,.64-4.15c.08-1.54.12-3.18.12-4.9V17.27H184.79V47.78c0,1.72,0,3.36.11,4.9a16.88,16.88,0,0,0,.69,4.15,7.15,7.15,0,0,0,1.67,3A4.31,4.31,0,0,0,190.34,61v1.52h-25V61a5,5,0,0,0,3.34-1.21,6.72,6.72,0,0,0,1.79-3,17.82,17.82,0,0,0,.72-4.15c.11-1.54.16-3.18.16-4.9V24.72c0-1.87,0-3.41-.12-4.6a9.46,9.46,0,0,0-.53-2.85,3.29,3.29,0,0,0-1.22-1.6,7.61,7.61,0,0,0-2.16-.91V13.54q2.73,0,5.43.15c1.8.11,3.57.16,5.29.16ZM242.6,30.13h.16a15.37,15.37,0,0,1,5.36-6.32,15.49,15.49,0,0,1,8.33-2,17,17,0,0,1,7.61,1.72,20,20,0,0,1,6.08,4.56,21.57,21.57,0,0,1,4.07,6.54,20.31,20.31,0,0,1,1.49,7.65,23.37,23.37,0,0,1-1.45,8.21,21.48,21.48,0,0,1-4,6.81A19.1,19.1,0,0,1,264.1,62a17.23,17.23,0,0,1-7.65,1.72,23.77,23.77,0,0,1-7.38-1.07,16.41,16.41,0,0,1-6.16-3.8v9.58a9.38,9.38,0,0,0,1.25,5.18c.84,1.26,2.48,2.08,4.91,2.43v1.29q-2.82,0-5.82-.15c-2-.1-3.87-.15-5.59-.15s-3.45.05-5.33.15-3.75.15-5.62.15V76.15a5,5,0,0,0,4.06-2.51,10.18,10.18,0,0,0,1-4.64V32.69q0-5.64-4.11-6V25.53c2.64-.3,5.21-.66,7.72-1.06a73.37,73.37,0,0,0,7.19-1.53Zm.31,12.62q0,8.86,2.39,13.49a8.83,8.83,0,0,0,15.52,0q2.4-4.62,2.4-13.49t-2.4-13.48a8.83,8.83,0,0,0-15.52,0Q242.92,33.89,242.91,42.75Zm50.89-4.33v4.33a37.17,37.17,0,0,0,.54,6.28,16.64,16.64,0,0,0,2,5.71,11.25,11.25,0,0,0,10.54,5.74,11.54,11.54,0,0,0,5.48-1.29,15.23,15.23,0,0,0,4.26-3.35,20.29,20.29,0,0,0,3.08-4.68,25.29,25.29,0,0,0,1.86-5.29l2,1.45q-4,16.35-21.45,16.36A21.15,21.15,0,0,1,293.42,62a19.46,19.46,0,0,1-6.54-4.6,20.62,20.62,0,0,1-4.11-6.66,22.06,22.06,0,0,1-1.44-8,22.82,22.82,0,0,1,1.44-8.14A20.16,20.16,0,0,1,286.88,28a18.92,18.92,0,0,1,6.54-4.49,22.16,22.16,0,0,1,8.68-1.64,24.62,24.62,0,0,1,7.41,1.11,20.11,20.11,0,0,1,6.28,3.19,15.89,15.89,0,0,1,4.41,5.21,16.74,16.74,0,0,1,1.9,7.08ZM309.63,36c-.05-1.21-.17-2.51-.34-3.88a13.35,13.35,0,0,0-1.07-3.8,7.21,7.21,0,0,0-2.36-2.89,8.18,8.18,0,0,0-8.33,0,7.37,7.37,0,0,0-2.32,2.89,13,13,0,0,0-1.06,3.8c-.18,1.37-.3,2.67-.35,3.88Zm26.24-5.47h-.07v19a27.13,27.13,0,0,0,.23,3.61,14,14,0,0,0,.91,3.5,9.44,9.44,0,0,0,1.94,3A7.19,7.19,0,0,0,342,61.62v.91H326.9V61.7a8.4,8.4,0,0,0,3-2,11,11,0,0,0,2.17-3.08,13.66,13.66,0,0,0,1.1-3.5,21.81,21.81,0,0,0,.31-3.61V33.63a24.13,24.13,0,0,0-.27-4,6.9,6.9,0,0,0-.84-2.43A3.7,3.7,0,0,0,331,25.79a12.64,12.64,0,0,0-1.79-.76v-.76c1.27,0,2.51,0,3.73.07s2.38.08,3.5.08,2.37,0,3.76-.08,2.68-.07,3.84-.07L355.88,48l10.58-23.73c1.26,0,2.53,0,3.8.07s2.46.08,3.58.08,2.33,0,3.65-.08,2.58-.07,3.8-.07V25a5.85,5.85,0,0,0-2.09.87A3.46,3.46,0,0,0,378,27.35a5.2,5.2,0,0,0-.42,1.82c0,.64,0,1.36,0,2.17V51.05c0,1.37,0,2.63.12,3.8a12.12,12.12,0,0,0,.61,3.2,5.54,5.54,0,0,0,1.48,2.35,3.94,3.94,0,0,0,2.59,1v1.14H361.74V61.39a4,4,0,0,0,2.7-1,5.78,5.78,0,0,0,1.44-2.35,12.12,12.12,0,0,0,.61-3.2c.08-1.17.12-2.43.12-3.8V29.67h-.23l-15.44,34h-.69Zm101.64-5.33a6.85,6.85,0,0,0-3.12,1.26,4.85,4.85,0,0,0-1.52,2.16,11.38,11.38,0,0,0-.57,2.82c-.08,1-.11,2.08-.11,3.19V49.83a21.78,21.78,0,0,0,.3,3.46,15.41,15.41,0,0,0,1.1,3.69,10,10,0,0,0,2.1,3.12A6.6,6.6,0,0,0,439,61.85v1c-1.42,0-2.76-.05-4-.15s-2.48-.16-3.65-.16q-10.65,0-12.63.16t-4,.15v-1A6,6,0,0,0,418,60a10.63,10.63,0,0,0,1.79-3.08,17.09,17.09,0,0,0,.91-3.58,24.15,24.15,0,0,0,.27-3.46V28.53L396.43,62a3.69,3.69,0,0,1-.91,1.14,1.74,1.74,0,0,1-1,.54h-.08a1.56,1.56,0,0,1-.83-.31c-.31-.2-.46-.71-.46-1.52V37.12a23.51,23.51,0,0,0-.27-3.42,12.87,12.87,0,0,0-1.06-3.54A11.6,11.6,0,0,0,389.66,27a6.73,6.73,0,0,0-3.12-1.86v-.91c1.22,0,2.47,0,3.77.07s5.36.08,12.21.08c1.11,0,2.37,0,3.76-.08s2.68-.07,3.84-.07v1a5.73,5.73,0,0,0-3,1.86,13,13,0,0,0-2,3.08,11,11,0,0,0-.95,3.5,32.32,32.32,0,0,0-.19,3.42v9l16.74-21.83a36.7,36.7,0,0,0,5.51.15c3.73,0,6.2,0,7.42-.08s2.48-.07,3.8-.07Zm4.57-1c1.92,0,3.85,0,5.78.15s3.77.16,5.55.16,3.69-.05,5.74-.16,4.05-.15,6-.15v1.14a9,9,0,0,0-3.27,1.26,3.2,3.2,0,0,0-1.53,2.93,4.69,4.69,0,0,0,.35,1.4,17,17,0,0,0,1,2.25l8.9,16.28,6.85-15a8.58,8.58,0,0,0,.8-2.24,9.23,9.23,0,0,0,.19-1.64A4.35,4.35,0,0,0,477,27.23a8.86,8.86,0,0,0-3.31-1.9V24.19c1.32,0,2.65,0,4,.15s2.62.16,3.84.16,2.47-.05,3.92-.16,2.82-.15,4.14-.15v1.14a10.76,10.76,0,0,0-2.92,1.87,17.73,17.73,0,0,0-2.4,2.58,34.18,34.18,0,0,0-2,2.93c-.61,1-1.14,2-1.6,2.89L467.33,61.47A79,79,0,0,1,463,69.19a18.09,18.09,0,0,1-4.15,4.57,13.8,13.8,0,0,1-5.17,2.32,44.34,44.34,0,0,1-7.46.91l4.72-12.78,1.14.61a3.15,3.15,0,0,0,.5,1.75,5.12,5.12,0,0,0,1.21,1.29,5.33,5.33,0,0,0,1.64.8,6.16,6.16,0,0,0,1.75.27,4.85,4.85,0,0,0,4-1.83,6.7,6.7,0,0,0,1.45-4.26,13.5,13.5,0,0,0-.84-4.22,45.38,45.38,0,0,0-2.13-5.14l-9.81-19.85a25.45,25.45,0,0,0-3.54-5.56,7.41,7.41,0,0,0-4.22-2.74ZM500,30.51h-.08v19a28.92,28.92,0,0,0,.23,3.61,14,14,0,0,0,.92,3.5,9.59,9.59,0,0,0,1.93,3,7.25,7.25,0,0,0,3.16,1.94v.91H491V61.7a8.44,8.44,0,0,0,3.05-2,11,11,0,0,0,2.17-3.08,14.07,14.07,0,0,0,1.1-3.5,21.8,21.8,0,0,0,.3-3.61V33.63a25.43,25.43,0,0,0-.26-4,6.9,6.9,0,0,0-.84-2.43,3.66,3.66,0,0,0-1.45-1.37,12.53,12.53,0,0,0-1.78-.76v-.76c1.26,0,2.51,0,3.72.07s2.39.08,3.5.08,2.37,0,3.77-.08,2.67-.07,3.84-.07L520,48l10.57-23.73c1.27,0,2.54,0,3.81.07s2.46.08,3.57.08,2.33,0,3.65-.08,2.59-.07,3.81-.07V25a6,6,0,0,0-2.1.87,3.43,3.43,0,0,0-1.17,1.45,4.79,4.79,0,0,0-.42,1.82c0,.64,0,1.36,0,2.17V51.05c0,1.37,0,2.63.11,3.8a12.54,12.54,0,0,0,.61,3.2,5.56,5.56,0,0,0,1.49,2.35,3.94,3.94,0,0,0,2.58,1v1.14H525.84V61.39a4,4,0,0,0,2.7-1A5.78,5.78,0,0,0,530,58.05a12.12,12.12,0,0,0,.61-3.2c.08-1.17.12-2.43.12-3.8V29.67h-.23L515,63.68h-.68Zm110.16-17,3.8.15,2.05.16h6.24a13.89,13.89,0,0,0,2.13-.16h.84l.53-.07h1a12.59,12.59,0,0,1,1.37-.08H630v1.21a8.38,8.38,0,0,0-2,.76,3.23,3.23,0,0,0-1.26,1.37,7.77,7.77,0,0,0-.65,2.43,34.67,34.67,0,0,0-.18,3.94V35.54l12.17-11.08c.35-.35.74-.79,1.18-1.32a17.38,17.38,0,0,0,1.18-1.67,14.18,14.18,0,0,0,.87-1.67,3.5,3.5,0,0,0,.34-1.33,2.88,2.88,0,0,0-1-2.46,6.8,6.8,0,0,0-2.7-1.1V13.54c1.78,0,3.55.05,5.33.15s3.52.16,5.25.16,3.47,0,5.24-.16,3.56-.15,5.33-.15v1.52a45.78,45.78,0,0,0-7.91,3.9q-3.74,2.31-7.3,5L630.29,35.07v.15a39.69,39.69,0,0,1,6.24.46,18.07,18.07,0,0,1,5.28,1.72A16.49,16.49,0,0,1,646.45,41a31.39,31.39,0,0,1,4.23,6.1c.91,1.68,1.78,3.29,2.62,4.81a45.33,45.33,0,0,0,2.59,4.2,25.74,25.74,0,0,0,2.74,3.35,12.24,12.24,0,0,0,3.15,2.37v.68h-18a.89.89,0,0,1-.91-.6L635.92,46c-.31-.71-.66-1.54-1.07-2.48a15.78,15.78,0,0,0-1.44-2.62,8.84,8.84,0,0,0-1.94-2,4.11,4.11,0,0,0-2.55-.84q-3,0-3,4.18v5.56c0,2.23,0,4.18.07,5.85V54a19.64,19.64,0,0,0,.61,2.82,7.17,7.17,0,0,0,1.6,3,3.26,3.26,0,0,0,2.2,1.21h.76v1.52h-24V61h.23a4.07,4.07,0,0,0,2.74-1.21,7.16,7.16,0,0,0,1.59-3,15.65,15.65,0,0,0,.54-2.89v-.31q.15-2.51.15-5.85V42.22c0-2.79-1-4.18-3-4.18a4.07,4.07,0,0,0-2.55.84,8.64,8.64,0,0,0-1.94,2,15.82,15.82,0,0,0-1.45,2.62L602.37,46l-6.92,15.9a.9.9,0,0,1-.92.6h-18v-.68a12.29,12.29,0,0,0,3.16-2.37,26.58,26.58,0,0,0,2.74-3.35,45.32,45.32,0,0,0,2.58-4.2c.84-1.52,1.72-3.13,2.63-4.81a31.38,31.38,0,0,1,4.22-6.1,16.63,16.63,0,0,1,4.64-3.62,18,18,0,0,1,5.29-1.72,39.51,39.51,0,0,1,6.24-.46v-.07L594.38,24q-3.58-2.66-7.3-5a46.32,46.32,0,0,0-7.92-3.92V13.54c1.78,0,3.55.05,5.33.15s3.52.16,5.25.16,3.47,0,5.25-.16,3.55-.15,5.32-.15v1.37a6.93,6.93,0,0,0-2.7,1.1,2.91,2.91,0,0,0-1,2.46A3.7,3.7,0,0,0,597,19.8a13,13,0,0,0,.88,1.67,15.78,15.78,0,0,0,1.18,1.67,15.34,15.34,0,0,0,1.18,1.32l12.17,11.08V23.25a32.17,32.17,0,0,0-.19-3.94,7.51,7.51,0,0,0-.65-2.43,3.15,3.15,0,0,0-1.25-1.37,8.47,8.47,0,0,0-2-.76V13.54ZM715.27,25.18a6.85,6.85,0,0,0-3.12,1.26,4.87,4.87,0,0,0-1.53,2.16,11.38,11.38,0,0,0-.57,2.82c-.07,1-.11,2.08-.11,3.19V49.83a21.78,21.78,0,0,0,.3,3.46A15.44,15.44,0,0,0,711.35,57a10,10,0,0,0,2.09,3.12,6.63,6.63,0,0,0,3.35,1.75v1c-1.42,0-2.77-.05-4-.15s-2.49-.16-3.66-.16q-10.65,0-12.63.16c-1.32.1-2.63.15-4,.15v-1a5.93,5.93,0,0,0,3.19-1.9,10.63,10.63,0,0,0,1.79-3.08,16.49,16.49,0,0,0,.91-3.58,24.15,24.15,0,0,0,.27-3.46V28.53L674.18,62a3.55,3.55,0,0,1-.91,1.14,1.69,1.69,0,0,1-1,.54h-.07a1.56,1.56,0,0,1-.84-.31c-.31-.2-.46-.71-.46-1.52V37.12a24.91,24.91,0,0,0-.26-3.42,12.9,12.9,0,0,0-1.07-3.54A11.16,11.16,0,0,0,667.41,27a6.73,6.73,0,0,0-3.12-1.86v-.91c1.22,0,2.48,0,3.77.07s5.36.08,12.21.08c1.11,0,2.37,0,3.77-.08s2.67-.07,3.84-.07v1a5.72,5.72,0,0,0-3,1.86,13,13,0,0,0-2,3.08,11.51,11.51,0,0,0-.95,3.5c-.12,1.22-.19,2.36-.19,3.42v9l16.74-21.83a36.94,36.94,0,0,0,5.51.15c3.73,0,6.2,0,7.42-.08s2.49-.07,3.81-.07Zm8,.84q4-1.07,7.57-1.87a35.86,35.86,0,0,1,7.72-.8,51.2,51.2,0,0,1,5.67.35,25.6,25.6,0,0,1,5.9,1.36,11.63,11.63,0,0,1,4.71,3.12,7.32,7.32,0,0,1,1.91,5.12,6.1,6.1,0,0,1-1.37,4.06A10,10,0,0,1,752,40a18.89,18.89,0,0,1-4.45,1.44q-2.47.49-4.53.72v.08a35.26,35.26,0,0,1,4.87.91,30.25,30.25,0,0,1,5.1,1.75,12.32,12.32,0,0,1,4,2.78,6.33,6.33,0,0,1,1.59,4.46,8.12,8.12,0,0,1-2,5.64,13.83,13.83,0,0,1-4.79,3.47,21.6,21.6,0,0,1-6.2,1.68,51.27,51.27,0,0,1-6.28.42,63.65,63.65,0,0,1-9.54-.73,45.89,45.89,0,0,1-9.09-2.32l3.57-11.41,1.22.53a11.83,11.83,0,0,0,3.46,8.49,13.17,13.17,0,0,0,3.92,2.66,12.15,12.15,0,0,0,5,1,8,8,0,0,0,3.69-.8,10.29,10.29,0,0,0,2.78-2.1,6.9,6.9,0,0,0,1.67-3,13.44,13.44,0,0,0,.46-3.5,9.07,9.07,0,0,0-2.63-6.51,8.92,8.92,0,0,0-2.78-1.86,8.32,8.32,0,0,0-3.34-.68,6.38,6.38,0,0,0-2.21.38,18.57,18.57,0,0,1-2,.6V40.55a14.29,14.29,0,0,0,4.26.61,6.94,6.94,0,0,0,3.16-.68,7.8,7.8,0,0,0,2.28-1.78,6.44,6.44,0,0,0,1.33-2.65,12.76,12.76,0,0,0,.38-3,7.72,7.72,0,0,0-2-5.64,7.2,7.2,0,0,0-5.44-2.09,8.29,8.29,0,0,0-3.92,1A10.62,10.62,0,0,0,730.25,29,17.84,17.84,0,0,0,728,32.6a12.28,12.28,0,0,0-1.07,3.76l-1.21.46Zm71.29,15.14V31.84a10.4,10.4,0,0,0-.69-4.66,3.72,3.72,0,0,0-2.58-2v-.91c1.42,0,2.88,0,4.38.07s3,.08,4.4.08,2.91,0,4.44-.08,3.08-.07,4.65-.07v.91a3.67,3.67,0,0,0-2.77,2.13,11.63,11.63,0,0,0-.73,4.57V51.05c0,1.06,0,2.18,0,3.34a11.82,11.82,0,0,0,.53,3.31,7.4,7.4,0,0,0,1.37,2.59,3.19,3.19,0,0,0,2.4,1.1v1.14H790.2V61.39a3.28,3.28,0,0,0,2.36-1,6,6,0,0,0,1.29-2.35,13,13,0,0,0,.57-3.2c.08-1.17.12-2.43.12-3.8V43.59H777.12v7.46c0,1.37,0,2.63.11,3.8a13.5,13.5,0,0,0,.57,3.2,6.16,6.16,0,0,0,1.29,2.35,3.68,3.68,0,0,0,2.67,1v1.14h-20.7V61.39a4.53,4.53,0,0,0,2.93-1,5,5,0,0,0,1.48-2.35,14.54,14.54,0,0,0,.61-3.2c.11-1.17.16-2.43.16-3.8V32.94a30.39,30.39,0,0,0-.16-3.5,10.6,10.6,0,0,0-.45-2.24,2.37,2.37,0,0,0-1-1.3,7.21,7.21,0,0,0-1.9-.72v-.91c1.62,0,3.17,0,4.64.07s2.89.08,4.26.08,2.88,0,4.37-.08,3.16-.07,5-.07v.91a5.66,5.66,0,0,0-2,.64A3.19,3.19,0,0,0,777.91,27a5.6,5.6,0,0,0-.61,1.89,20.34,20.34,0,0,0-.18,3v9.32Zm28.64-16.74c1.43,0,2.87,0,4.32-.08s2.89-.07,4.31-.07v.91a3.77,3.77,0,0,0-2.51,1.67,7.78,7.78,0,0,0-.68,3.66V41.08h1.9q2.34,0,10.58,1t10.7,2.13a12,12,0,0,1,4.1,3.16,7.67,7.67,0,0,1,1.63,5,7.19,7.19,0,0,1-1.1,4,10.9,10.9,0,0,1-2.82,2.89,13.48,13.48,0,0,1-4,1.91,23.61,23.61,0,0,1-4.56.91c-1.55.15-3.07.26-4.56.34s-2.86.11-4.07.11H824.59c-1,0-1.93,0-2.89,0s-1.93.07-2.89.12-2,.08-3,.11-2,0-3,0V61.39a4.18,4.18,0,0,0,2.59-1,4.47,4.47,0,0,0,1.44-2.35.88.88,0,0,0,.16-.46,18.18,18.18,0,0,0,.3-2.51c.1-1.22.15-2.46.15-3.73V31.88a14.42,14.42,0,0,0-.61-4.65,2.94,2.94,0,0,0-1.59-1.74c-.31-.11-.64-.21-1-.31v-.91h1.14c.35,0,.81,0,1.37.07s1.4,0,2.06.08h4.29ZM828.62,43v8c0,1.37,0,2.63.08,3.79a14.37,14.37,0,0,0,.53,3,3.18,3.18,0,0,0,.68,1.29,3.59,3.59,0,0,0,2.27,1.21,26.72,26.72,0,0,0,3.94.23,10.85,10.85,0,0,0,7.23-2.27A8.26,8.26,0,0,0,846,51.62,7.09,7.09,0,0,0,844.68,47a8.69,8.69,0,0,0-3.52-2.54,18.44,18.44,0,0,0-4.85-1.17,43.33,43.33,0,0,0-5-.31ZM20.77,113.2q13.23,0,17.57,1.9,6.09,2.52,6.09,7.76,0,4.73-5.17,7.38a28.12,28.12,0,0,1-8,2.06c4.76.56,8.06,1.21,9.89,2q7.06,3,7.07,8.83a7.76,7.76,0,0,1-2.13,5.33,15.45,15.45,0,0,1-5.86,3.88Q35.75,154,27.39,154c-.46,0-1.55,0-3.27-.08H21.53c-1.12-.05-2.18-.07-3.2-.07H15.82l-2.36-.08h-4c-.76,0-1.49,0-2.2.08l-1.14.07H5.17A8.18,8.18,0,0,0,3.8,154v-.46a5.21,5.21,0,0,0,4.26-4.41q.69-3.88.69-19.17v-7.15q0-5.25-.69-6.93a3.7,3.7,0,0,0-3-2.2v-.46Zm1.37,18.56q9,0,12.63-2.66a7.32,7.32,0,0,0,2.89-6.16c0-3.35-1.3-5.63-3.88-6.85q-3.42-1.52-12.33-1.52H13.92v17.19Zm-8.22,6.7c.1,6.54.18,9.92.23,10.12a3.64,3.64,0,0,0,3.57,3.73,63.54,63.54,0,0,0,8.3.3q7.61,0,10.8-1.83a8.15,8.15,0,0,0,4.56-7.6,8.92,8.92,0,0,0-1.29-4.57,9.48,9.48,0,0,0-3.42-3.35q-3.81-2.2-15.37-2.2H13.92Zm112.14-24.57a18.49,18.49,0,0,0-9.66-7.16q-6.16-2-18.34-2H89.85q0,41.69,1.67,45.57a6,6,0,0,0,4.26,3.12V154c-2.84-.2-6.34-.31-10.5-.31A69.69,69.69,0,0,0,78,154v-.53a6.52,6.52,0,0,0,3-1.53A7.88,7.88,0,0,0,82.69,148q.84-4.64.84-24.11V115q0-6.39-.76-8.45a4.81,4.81,0,0,0-3.27-3v-.54h44.12l3,10.58Zm41.23,39.94a36.09,36.09,0,0,1-1.75-7.76q-4.87,8.75-15.06,8.75-7.77,0-12.86-3.5t-5.1-8.83q0-7.45,9.36-10.88,7.45-2.73,18.94-2.74h4.11v-2.28q0-13.16-13-13.16a17.18,17.18,0,0,0-9.66,2.66,12.54,12.54,0,0,0-5.1,7.31l-.45.15-2.36-7.61a46.91,46.91,0,0,1,18.33-4.18q9.44,0,14.08,4.18,4,3.57,4,13.54v11.19a33.73,33.73,0,0,0,.91,9.2,5.51,5.51,0,0,0,3.35,3.58v.38Zm-6.62-23.28q-20.76,0-20.77,12a10,10,0,0,0,3.2,7.68,11.59,11.59,0,0,0,8.21,2.89,14.56,14.56,0,0,0,7.54-2,10,10,0,0,0,4.64-5.25q1.44-3.42,1.44-13.31v-2Zm28.07-6.77a48.61,48.61,0,0,1,4-6.09q5-5.94,13.54-5.93a21,21,0,0,1,15.22,6.08,20.37,20.37,0,0,1,6.24,15.07,21.46,21.46,0,0,1-6.17,15.59,20.49,20.49,0,0,1-15.29,6.32q-9.28,0-16.58-8V156q0,7.14,1.14,9.89a4.76,4.76,0,0,0,4.11,3.27v.53c-2.95-.15-6.06-.23-9.36-.23q-3.35,0-6.32.23v-.53a4.71,4.71,0,0,0,3.58-3.27q1-2.74,1-9.89V137.77q0-14.91-.61-18.71-.3-2.82-3.42-3v-.54a57,57,0,0,0,9.35-2.73q-.37,5.7-.38,9.89Zm4.42-3.66q-3.36,4.72-3.35,13.24,0,9.51,3.65,14a14.56,14.56,0,0,0,5.4,4.26,15.51,15.51,0,0,0,6.77,1.6,14,14,0,0,0,6.93-1.83,12.15,12.15,0,0,0,4.87-4.71q2.88-5.18,2.89-13.93,0-9.27-3.88-14.15a13.38,13.38,0,0,0-11.11-5.25,12.9,12.9,0,0,0-6.54,1.91A17.38,17.38,0,0,0,193.16,120.12Zm84.37-6.92a28.48,28.48,0,0,0,3.65.23c1.21,0,2.61-.08,4.18-.23v.46a3.46,3.46,0,0,0-2.51,2.28,23.52,23.52,0,0,0-.61,6.54v13.16q0,12.56,1.22,15.68a4.21,4.21,0,0,0,3,2.51v.45q-3.12-.3-7.54-.3a44.66,44.66,0,0,0-5.78.3v-.45a4,4,0,0,0,2.89-2.51q1.22-2.9,1.22-15.68V117.92L259,155.35l-17.8-37.89v16.89q0,13.77,1.14,16.21a6,6,0,0,0,3.5,3.27v.45a53.34,53.34,0,0,0-6.17-.3,30.78,30.78,0,0,0-4.79.3v-.45a5.94,5.94,0,0,0,3.27-3q.92-1.91,1.3-8.44v-2.29c0-1.42,0-2.91.07-4.49,0-.81,0-1.64.08-2.51v-2c.05-1.27.07-2.08.07-2.43v-6.17q0-5.4-1.14-7.07a4.75,4.75,0,0,0-2.58-1.75v-.46a40.56,40.56,0,0,0,4.41.23c1.62,0,3.2-.08,4.72-.23l16.28,33.25Zm61.31,20.09a20,20,0,0,1-6.62,15.29,24.85,24.85,0,0,1-32.86.07,21,21,0,0,1,0-30.73,23.92,23.92,0,0,1,16.74-6.16A22.49,22.49,0,0,1,332.22,118,20.19,20.19,0,0,1,338.84,133.29Zm-38.8,0a28.16,28.16,0,0,0,2.74,12.85q3.81,7,12.93,7t13-7a27.88,27.88,0,0,0,2.74-12.78,27.66,27.66,0,0,0-2.74-12.93q-3.8-7-13.23-7-7.38,0-11.41,5.17Q300,123.93,300,133.29Zm56,0v6.92q0,7.75,1,10.5a3.87,3.87,0,0,0,3.27,2.74V154c-2.39-.2-5.13-.31-8.22-.31a56.28,56.28,0,0,0-6.47.31v-.53a4.57,4.57,0,0,0,3.35-2.89q1.21-2.9,1.22-10.35v-2.44q0-16-.54-18.94a3.55,3.55,0,0,0-3.42-3.12v-.45q2.2-.39,5.71-1.3a35.09,35.09,0,0,0,4.11-1.21v18.56H383.8a111.92,111.92,0,0,0-.53-12.48,3.55,3.55,0,0,0-3.42-3.12v-.45q2.2-.39,5.7-1.3a35.09,35.09,0,0,0,4.11-1.21v27.46q0,7.75,1,10.5a3.89,3.89,0,0,0,3.27,2.74V154c-2.38-.2-5.12-.31-8.21-.31a56.15,56.15,0,0,0-6.47.31v-.53a4.57,4.57,0,0,0,3.35-2.89q1.21-2.9,1.21-10.35v-6.92Zm79.42,20.54a44.44,44.44,0,0,1-2.51-8.07q-5.25,9.06-16,9.06-16.43,0-16.43-16.28v-2.13c0-1.12,0-2,.08-2.52s.07-1.39.07-2.51v-3.8c0-5.48-.15-8.67-.45-9.59s-1.53-1.54-3.5-1.75v-.53a54.69,54.69,0,0,0,10-3c-.2,2.48-.31,5.78-.31,9.89v11q0,9.2,2.14,13.16,2.88,5.47,10.27,5.48a14.54,14.54,0,0,0,7.22-1.83,10.66,10.66,0,0,0,4.72-4.72Q433,141.28,433,130v-2.43c0-5.48-.18-8.67-.53-9.59s-1.5-1.49-3.43-1.75v-.53a37.69,37.69,0,0,0,5.18-1.29,42.33,42.33,0,0,0,4.87-1.67q-.32,3.72-.31,9.89v10q0,11.79.69,15.67.52,3.81,2.81,5v.54Zm49.07,0a44.44,44.44,0,0,1-2.51-8.07q-5.25,9.06-16,9.06-16.43,0-16.43-16.28v-2.13c0-1.12,0-2,.08-2.52s.07-1.39.07-2.51v-3.8c0-5.48-.15-8.67-.46-9.59s-1.52-1.54-3.49-1.75v-.53a54.69,54.69,0,0,0,10-3q-.32,3.72-.31,9.89v11q0,9.2,2.13,13.16,2.9,5.47,10.27,5.48a14.55,14.55,0,0,0,7.23-1.83,10.66,10.66,0,0,0,4.72-4.72Q482,141.28,482,130v-2.43c0-5.48-.18-8.67-.53-9.59s-1.5-1.49-3.43-1.75v-.53a37.69,37.69,0,0,0,5.18-1.29,42.33,42.33,0,0,0,4.87-1.67q-.32,3.72-.31,9.89v10q0,11.79.68,15.67t2.82,5v.54ZM558.47,124l-.45-.15a19,19,0,0,0-3.35-5.78q-4.41-4.63-12-4.64-7.23,0-11.26,5.17T527.28,133q0,9.28,4.42,14.46t12.09,5.25a15.84,15.84,0,0,0,8.9-2.36,26.4,26.4,0,0,0,7.15-7.91l1.07,1.9q-5.79,10.5-18.18,10.5a22.4,22.4,0,0,1-16.21-6.24,20.07,20.07,0,0,1-6.62-15.29,20.42,20.42,0,0,1,6.7-15.6q6.31-5.94,16.2-5.93a37.32,37.32,0,0,1,18.11,5Zm42.45-19.4v2.82q0,36.9.69,41c.55,2.78,1.62,4.46,3.19,5V154c-2.23-.2-5-.31-8.44-.31a57.2,57.2,0,0,0-6.55.31v-.53a6.31,6.31,0,0,0,2.67-1.53,8.56,8.56,0,0,0,1.44-3.95q.69-4.33.69-24v-9.36a37.78,37.78,0,0,0-.61-8.29,3.77,3.77,0,0,0-2.66-2.82v-.53a46.64,46.64,0,0,0,5.78.31h40.55c2.53,0,4.92-.11,7.15-.31v.53a4.09,4.09,0,0,0-2.66,2.82,37.15,37.15,0,0,0-.61,8.29v9.36q0,19.55.68,24a7.77,7.77,0,0,0,1.45,3.95,5.16,5.16,0,0,0,2.66,1.53V154c-2.28-.2-5.12-.31-8.52-.31a57.93,57.93,0,0,0-6.62.31v-.53a4.59,4.59,0,0,0,2.89-3.12q1.14-3.89,1.14-42.91V104.6Zm60.48,19.18a48.61,48.61,0,0,1,4-6.09q5-5.94,13.54-5.93a21,21,0,0,1,15.22,6.08,20.4,20.4,0,0,1,6.23,15.07,21.45,21.45,0,0,1-6.16,15.59,20.5,20.5,0,0,1-15.29,6.32q-9.28,0-16.59-8V156c0,4.76.39,8.06,1.15,9.89a4.75,4.75,0,0,0,4.1,3.27v.53q-4.41-.22-9.35-.23c-2.24,0-4.34.08-6.32.23v-.53a4.71,4.71,0,0,0,3.58-3.27q1-2.74,1-9.89V137.77q0-14.91-.61-18.71c-.2-1.88-1.35-2.89-3.42-3v-.54a57.57,57.57,0,0,0,9.35-2.73q-.37,5.7-.38,9.89Zm4.41-3.66q-3.34,4.72-3.34,13.24,0,9.51,3.65,14a14.56,14.56,0,0,0,5.4,4.26,15.51,15.51,0,0,0,6.77,1.6,13.94,13.94,0,0,0,6.92-1.83,12.09,12.09,0,0,0,4.87-4.71q2.89-5.18,2.89-13.93,0-9.27-3.88-14.15a13.34,13.34,0,0,0-11.1-5.25,12.87,12.87,0,0,0-6.54,1.91A17.52,17.52,0,0,0,665.81,120.12Zm79,33.71a44.44,44.44,0,0,1-2.51-8.07q-5.25,9.06-16,9.06-16.42,0-16.43-16.28v-2.13c0-1.12,0-2,.08-2.52s.08-1.39.08-2.51v-3.8c0-5.48-.16-8.67-.46-9.59s-1.52-1.54-3.5-1.75v-.53a54.46,54.46,0,0,0,10-3q-.3,3.72-.3,9.89v11q0,9.2,2.13,13.16,2.88,5.47,10.27,5.48a14.54,14.54,0,0,0,7.22-1.83,10.61,10.61,0,0,0,4.72-4.72q2.13-4.48,2.13-15.75v-2.43c0-5.48-.18-8.67-.53-9.59s-1.5-1.49-3.42-1.75v-.53a37.92,37.92,0,0,0,5.17-1.29,41.68,41.68,0,0,0,4.87-1.67q-.32,3.72-.31,9.89v10q0,11.79.69,15.67.53,3.81,2.81,5v.54Zm19.86-30.05a47.49,47.49,0,0,1,4-6.09q5-5.94,13.54-5.93a21,21,0,0,1,15.22,6.08,20.37,20.37,0,0,1,6.24,15.07,21.45,21.45,0,0,1-6.16,15.59,20.53,20.53,0,0,1-15.3,6.32q-9.27,0-16.58-8V156q0,7.14,1.14,9.89a4.76,4.76,0,0,0,4.11,3.27v.53q-4.41-.22-9.36-.23-3.35,0-6.31.23v-.53a4.69,4.69,0,0,0,3.57-3.27q1-2.74,1-9.89V137.77q0-14.91-.61-18.71-.3-2.82-3.42-3v-.54a57.33,57.33,0,0,0,9.36-2.73c-.26,3.8-.38,7.1-.38,9.89Zm4.41-3.66q-3.34,4.72-3.35,13.24,0,9.51,3.66,14a14.4,14.4,0,0,0,5.4,4.26,15.48,15.48,0,0,0,6.77,1.6,14,14,0,0,0,6.92-1.83,12.15,12.15,0,0,0,4.87-4.71q2.89-5.18,2.89-13.93,0-9.27-3.88-14.15a13.36,13.36,0,0,0-11.11-5.25,12.9,12.9,0,0,0-6.54,1.91A17.48,17.48,0,0,0,769.05,120.12Zm88.63,13.17a20.07,20.07,0,0,1-6.62,15.29,24.85,24.85,0,0,1-32.86.07,21,21,0,0,1,0-30.73,23.92,23.92,0,0,1,16.73-6.16A22.51,22.51,0,0,1,851.06,118,20.22,20.22,0,0,1,857.68,133.29Zm-38.8,0a28,28,0,0,0,2.74,12.85q3.79,7,12.93,7t13-7a27.88,27.88,0,0,0,2.74-12.78,27.66,27.66,0,0,0-2.74-12.93q-3.81-7-13.24-7-7.38,0-11.41,5.17Q818.88,123.93,818.88,133.29Zm97.76,18.86,2.58,8.37-.38.15a28.31,28.31,0,0,0-4.71-3.88,24.84,24.84,0,0,0-9.06-2.89H905l-1,.08-1.07.07v-.15H879.13v.15l-.61-.07-.76-.08h-1.44a24.66,24.66,0,0,0-9,2.89,25.13,25.13,0,0,0-4.72,3.88l-.38-.15,2.51-8.37h4.64l.23-.15.15-.15h.16a19.05,19.05,0,0,0,1.9-2.28q2.2-3.44,7-12.63l12.78-24.35,11,21.23q2.43,4.78,7.68,14.38a14.44,14.44,0,0,0,3,4Zm-12.1.54a2.37,2.37,0,0,0,.69-1.75q0-2.67-15.9-30.21l-4.26,7.92q-4,7.6-7.53,15.29a15.12,15.12,0,0,0-1.91,6,3.09,3.09,0,0,0,.76,2.28l.23.23.31.23Zm65.58-19.4a20.07,20.07,0,0,1-6.62,15.29,24.87,24.87,0,0,1-32.87.07,21,21,0,0,1,0-30.73,24,24,0,0,1,16.74-6.16A22.51,22.51,0,0,1,963.5,118,20.22,20.22,0,0,1,970.12,133.29Zm-38.8,0a28,28,0,0,0,2.74,12.85q3.8,7,12.93,7t13-7a27.88,27.88,0,0,0,2.74-12.78A27.66,27.66,0,0,0,960,120.43q-3.81-7-13.24-7-7.38,0-11.41,5.17Q931.32,123.93,931.32,133.29Zm83.15,20.54a44.44,44.44,0,0,1-2.51-8.07q-5.25,9.06-16,9.06-16.43,0-16.43-16.28v-2.13c0-1.12,0-2,.08-2.52s.08-1.39.08-2.51v-3.8c0-5.48-.16-8.67-.46-9.59s-1.52-1.54-3.5-1.75v-.53a54.46,54.46,0,0,0,10-3q-.3,3.72-.3,9.89v11q0,9.2,2.13,13.16,2.88,5.47,10.27,5.48a14.54,14.54,0,0,0,7.22-1.83,10.61,10.61,0,0,0,4.72-4.72Q1012,141.28,1012,130v-2.43c0-5.48-.18-8.67-.53-9.59s-1.5-1.49-3.42-1.75v-.53a37.92,37.92,0,0,0,5.17-1.29,42.33,42.33,0,0,0,4.87-1.67q-.31,3.72-.31,9.89v10q0,11.79.69,15.67.52,3.81,2.81,5v.54ZM993.25,108.1l10.65-10.19c1.31-1.22,2.38-1.83,3.19-1.83,1.57,0,2.36.74,2.36,2.21q0,1.6-4.11,4l-9.66,5.78ZM199.89,204.49q13.23,0,17.57,1.91,6.09,2.5,6.09,7.76,0,4.71-5.17,7.38a28.18,28.18,0,0,1-8,2.05q7.14.84,9.89,2,7.07,3,7.07,8.82a7.74,7.74,0,0,1-2.13,5.33,15.49,15.49,0,0,1-5.85,3.88q-4.5,1.67-12.86,1.67c-.46,0-1.55,0-3.27-.07h-2.59c-1.12-.06-2.18-.08-3.19-.08h-2.52l-2.35-.08h-4c-.76,0-1.49,0-2.2.08l-1.14.08h-.92a8.51,8.51,0,0,0-1.37.07v-.46a5.19,5.19,0,0,0,4.26-4.41q.69-3.87.69-19.17v-7.15q0-5.25-.69-6.92a3.69,3.69,0,0,0-3-2.21v-.46Zm1.37,18.57q9,0,12.63-2.67a7.32,7.32,0,0,0,2.89-6.16c0-3.35-1.3-5.63-3.88-6.84q-3.42-1.53-12.33-1.53H193v17.2ZM193,229.75c.1,6.54.18,9.92.23,10.12a3.64,3.64,0,0,0,3.58,3.73,63.23,63.23,0,0,0,8.29.3q7.61,0,10.8-1.82a8.18,8.18,0,0,0,4.57-7.61,9,9,0,0,0-1.3-4.57,9.37,9.37,0,0,0-3.42-3.34q-3.81-2.2-15.37-2.21H193Zm114.19-35a3.87,3.87,0,0,0-2.43,2.81,36.71,36.71,0,0,0-.61,8.22v13.08l10.57-8.52Q324,203,326.1,201c1.52-1.47,2.28-2.68,2.28-3.65a2.74,2.74,0,0,0-2-2.58v-.54a60.22,60.22,0,0,0,6.7.31c3.14,0,6-.1,8.44-.31v.54q-6.84,2.51-24.19,16.2l-8.14,6.31q9.21.39,12.93,2.52,3.89,2.21,8.68,9.5Q337,238.2,340,241a14.94,14.94,0,0,0,6.92,3.73v.53q-3.12-.3-7.84-.3a49.93,49.93,0,0,0-6.08.3l-7.46-11.18q-7.46-10.87-10.57-13a9.34,9.34,0,0,0-5.48-1.83q-5.25,0-5.25,6.62v1.37q0,12.1,1.37,15.06a4.62,4.62,0,0,0,3.5,2.44v.53h-.38l-.46-.07v.07l-.84-.07-.91-.08c-2.43-.1-4.36-.15-5.78-.15s-3.42.05-5.86.15l-.91.08-.84.07v-.07l-.46.07h-.38v-.53a4.62,4.62,0,0,0,3.5-2.44q1.38-3,1.37-15.06v-1.37q0-6.62-5.25-6.62a9.54,9.54,0,0,0-5.47,1.83q-3.12,2.13-10.58,13l-7.45,11.18a50.22,50.22,0,0,0-6.09-.3q-4.72,0-7.84.3v-.53a15,15,0,0,0,6.93-3.73q3-2.81,9.13-11.72,4.78-7.29,8.67-9.5c2.48-1.42,6.8-2.26,12.93-2.52L284,211q-17.34-13.69-24.19-16.2v-.54q3.72.32,8.45.31a60.15,60.15,0,0,0,6.69-.31v.54a2.74,2.74,0,0,0-2,2.58c0,1,.76,2.18,2.28,3.65q2.06,2,11.34,9.36l10.57,8.52V205.79a36.71,36.71,0,0,0-.61-8.22,3.87,3.87,0,0,0-2.43-2.81v-.54a59.3,59.3,0,0,0,6.62.31h.3a51.51,51.51,0,0,0,6.24-.31Zm76.46,39.33q-7.45-10.87-10.58-13a9.32,9.32,0,0,0-5.48-1.83q-5.24,0-5.24,6.62v1.37q0,12.1,1.37,15.06a4.6,4.6,0,0,0,3.5,2.44v.53q-3.74-.3-9.36-.3a58.17,58.17,0,0,0-6.62.3v-.53a6.26,6.26,0,0,0,2.66-1.52,8.67,8.67,0,0,0,1.45-4q.67-4.48.68-24.19v-9.28c0-4.16-.25-6.93-.76-8.29a4.16,4.16,0,0,0-3-2.74v-.54a51.51,51.51,0,0,0,6.24.31,66.68,66.68,0,0,0,6.92-.31v.54a3.91,3.91,0,0,0-2.44,2.81,37.51,37.51,0,0,0-.6,8.22v13.08L373,210.35Q382.25,203,384.3,201c1.52-1.47,2.28-2.68,2.28-3.65a2.74,2.74,0,0,0-2-2.58v-.54a60.15,60.15,0,0,0,6.69.31c3.15,0,6-.1,8.45-.31v.54q-6.84,2.51-24.19,16.2l-8.14,6.31c6.13.26,10.45,1.1,12.93,2.52s5.48,4.64,8.67,9.5q6.17,8.91,9.13,11.72a15,15,0,0,0,6.92,3.73v.53q-3.12-.3-7.83-.3a50,50,0,0,0-6.09.3Zm59.79-23.21a18.78,18.78,0,0,0,3,1.91q-6.39,8.67-7.84,11.18,2.21,3.74,7.3,10.73l.31.38.3.45a13.54,13.54,0,0,0-1.67.84,17.15,17.15,0,0,0-2,1.22,144.75,144.75,0,0,0-9.13-13.54c.25-.36.53-.79.84-1.3s.86-1.26,1.37-2q1.74-2.73,4-5.93c1.78-2.64,2.74-4.11,2.9-4.41Zm12.86,0a19.08,19.08,0,0,0,3,1.91Q453,221.46,451.55,224q2.58,4.26,7.38,10.73l.3.38.31.45c-.26.11-.84.38-1.75.84a17.15,17.15,0,0,0-2,1.22,144.75,144.75,0,0,0-9.13-13.54q1.06-1.61,6.16-9.21,2.13-3,2.89-4.41Zm43.59,23.21q-7.46-10.87-10.57-13a9.34,9.34,0,0,0-5.48-1.83q-5.25,0-5.25,6.62v1.37q0,12.1,1.37,15.06a4.63,4.63,0,0,0,3.5,2.44v.53q-3.74-.3-9.36-.3a58.29,58.29,0,0,0-6.62.3v-.53a6.3,6.3,0,0,0,2.67-1.52,8.67,8.67,0,0,0,1.44-4q.69-4.48.69-24.19v-9.28c0-4.16-.26-6.93-.77-8.29a4.16,4.16,0,0,0-3-2.74v-.54a51.74,51.74,0,0,0,6.24.31,66.41,66.41,0,0,0,6.92-.31v.54a3.87,3.87,0,0,0-2.43,2.81,36.71,36.71,0,0,0-.61,8.22v13.08l10.58-8.52q9.27-7.38,11.33-9.36c1.52-1.47,2.28-2.68,2.28-3.65a2.74,2.74,0,0,0-2-2.58v-.54a59.9,59.9,0,0,0,6.69.31c3.14,0,6-.1,8.44-.31v.54q-6.84,2.51-24.19,16.2l-8.14,6.31q9.21.39,12.93,2.52,3.89,2.21,8.68,9.5,6.17,8.91,9.13,11.72a14.94,14.94,0,0,0,6.92,3.73v.53q-3.12-.3-7.84-.3a49.93,49.93,0,0,0-6.08.3ZM573,224.58a20,20,0,0,1-6.62,15.29,24.87,24.87,0,0,1-32.86.08,21,21,0,0,1,0-30.74,23.92,23.92,0,0,1,16.73-6.16,22.46,22.46,0,0,1,16.13,6.24A20.17,20.17,0,0,1,573,224.58Zm-38.8,0A28.11,28.11,0,0,0,537,237.44q3.81,7,12.93,7t13-7a28,28,0,0,0,2.74-12.79,27.66,27.66,0,0,0-2.74-12.93q-3.79-7-13.23-7-7.38,0-11.42,5.18T534.24,224.58Zm82.62-10.65-.45-.23a9.83,9.83,0,0,0-4.87-6.39,17.3,17.3,0,0,0-9.44-2.51,13.2,13.2,0,0,0-8.37,2.51,7.92,7.92,0,0,0-3.19,6.54,5.58,5.58,0,0,0,2.36,4.87q2.28,1.6,7.76,2.43l5.63.77q9.19,1.29,11.86,3.8a8.56,8.56,0,0,1,2.9,6.54,11.34,11.34,0,0,1-1.83,6,14.45,14.45,0,0,1-4.87,4.72q-5.4,3.12-13.84,3.12A47.41,47.41,0,0,1,581,241.92l2.67-7.45.53.15q.6,4.26,5.32,7.08a24.07,24.07,0,0,0,11.8,2.73q6.16,0,9.89-2.58a7.64,7.64,0,0,0,3.8-6.62,5.75,5.75,0,0,0-2.36-5q-2.28-1.61-8.37-2.44l-6.39-.83q-13.3-1.68-13.31-11.26a10.66,10.66,0,0,1,5-9.13q5.1-3.57,13.08-3.58a39.43,39.43,0,0,1,16.74,3.81Zm20.31,1.75Q641.43,203,653.53,203q7.61,0,11.56,4.19a16.81,16.81,0,0,1,3.5,7.3q4.26-11.42,16.21-11.41,8.06,0,12.25,4.87,3.94,4.26,4,14.3v9.28c0,5.07.31,8.6.91,10.58a3.58,3.58,0,0,0,3.12,2.66v.53q-3.27-.3-8.14-.3a54.6,54.6,0,0,0-6.39.3v-.53a4,4,0,0,0,3.2-3.27q.84-2.9.84-10V220.93q0-7.45-3-11.41t-8.75-4a11.42,11.42,0,0,0-10.42,5.78q-2.9,4.72-2.89,12.93v7.23c0,5.28.33,8.8,1,10.58a3.89,3.89,0,0,0,3.27,2.66v.53q-3.35-.3-8.06-.3a50,50,0,0,0-6.09.3v-.53a4,4,0,0,0,3.2-3.27q.82-2.9.83-10v-6.24q0-9.66-2-14-2.36-5.57-9.73-5.56-8.15,0-11.34,6.7-2.5,4.86-2.51,15.36v3.73a46.55,46.55,0,0,0,.84,10.58,3.37,3.37,0,0,0,3,2.66v.53c-2-.2-4.59-.3-7.83-.3a44.33,44.33,0,0,0-5.86.3v-.53a4.34,4.34,0,0,0,3.2-3.35,40.66,40.66,0,0,0,.83-9.89v-2.43q0-3.27-.15-11.34c0-1.72-.13-3.29-.23-4.72q-.07-1.59-.15-2.43a3.14,3.14,0,0,0-3.27-3V207a40.39,40.39,0,0,0,9.2-3q-.37,4.94-.38,9.89Zm120.59,8.9a20.07,20.07,0,0,1-6.62,15.29,24.88,24.88,0,0,1-32.87.08,21,21,0,0,1,0-30.74A23.94,23.94,0,0,1,735,203.05a22.49,22.49,0,0,1,16.13,6.24A20.2,20.2,0,0,1,757.76,224.58Zm-38.8,0a28.11,28.11,0,0,0,2.74,12.86q3.79,7,12.93,7t13-7a28.08,28.08,0,0,0,2.74-12.79,27.79,27.79,0,0,0-2.74-12.93q-3.81-7-13.24-7-7.38,0-11.41,5.18T719,224.58Zm82.61-10.65-.45-.23a9.8,9.8,0,0,0-4.87-6.39,17.26,17.26,0,0,0-9.43-2.51,13.18,13.18,0,0,0-8.37,2.51,7.93,7.93,0,0,0-3.2,6.54,5.6,5.6,0,0,0,2.36,4.87q2.28,1.6,7.76,2.43l5.63.77q9.21,1.29,11.87,3.8a8.58,8.58,0,0,1,2.89,6.54,11.34,11.34,0,0,1-1.83,6,14.45,14.45,0,0,1-4.87,4.72q-5.4,3.12-13.84,3.12a47.33,47.33,0,0,1-19.55-4.19l2.66-7.45.53.15q.61,4.26,5.33,7.08A24,24,0,0,0,786,244.43q6.16,0,9.89-2.58a7.64,7.64,0,0,0,3.8-6.62,5.73,5.73,0,0,0-2.36-5Q795,228.6,789,227.77l-6.4-.83q-13.31-1.68-13.31-11.26a10.68,10.68,0,0,1,5-9.13q5.1-3.57,13.09-3.58a39.43,39.43,0,0,1,16.74,3.81ZM817,237.13a14.64,14.64,0,0,0-3.12-1.9q5.77-7.83,7.91-11.18-2.05-3.44-7.38-10.73l-.61-.91a10.27,10.27,0,0,0,1.75-.76,15.27,15.27,0,0,0,2-1.22A130.2,130.2,0,0,0,826.6,224c-.45.71-1.24,1.9-2.36,3.58l-1.36,2-1.37,2.13q-3.28,4.8-3.88,5.94Zm12.86,0a19.26,19.26,0,0,0-3-1.9q6.09-8.22,7.84-11.18-2.05-3.44-7.38-10.73a4.49,4.49,0,0,0-.61-.91,10.64,10.64,0,0,0,1.75-.76,15.27,15.27,0,0,0,2-1.22A132.82,132.82,0,0,0,839.54,224a5.7,5.7,0,0,0-.61.84l-.23.38-.23.3c-.2.31-.41.61-.61.91q-1.67,2.52-3.5,5.25-3.2,4.8-3.88,5.94ZM42.49,287.72q2.43,0,5.1-.15c1.77-.1,3.54-.15,5.32-.15v.3h1.14l8.83-.15c2.58-.05,4.87-.09,6.84-.11s3.88,0,5.71,0L79,300.81H77.33a31,31,0,0,0-9.7-7.88,24.39,24.39,0,0,0-11.22-2.77H50.25a3.62,3.62,0,0,0-.38.61,7.56,7.56,0,0,0-.84,3.72V309h2.36c1.82,0,6.09.41,12.78,1.22s11.06,1.71,13.09,2.7a14.54,14.54,0,0,1,5,4,9.84,9.84,0,0,1,2,6.39A10,10,0,0,1,83,328.54a11.79,11.79,0,0,1-3.46,3.65,18.1,18.1,0,0,1-4.87,2.32,36.76,36.76,0,0,1-5.56,1.26q-2.85.41-5.55.53c-1.8.07-3.41.11-4.83.11H54.89v.31q-3.2,0-6.39-.16l-3.88-.15h-4l-3.57.15c-1.17.05-2.36.08-3.58.08h-.23c-.56,0-1.11,0-1.67.08H29.78v-1.83A4.74,4.74,0,0,0,33,333.67a6.72,6.72,0,0,0,1.71-3,3.28,3.28,0,0,0,.23-.61,20.06,20.06,0,0,0,.38-3.2c.1-1.57.15-3.22.15-4.94v-24.8a17.79,17.79,0,0,0-.76-5.86,4.48,4.48,0,0,0-.84-1.37l-.15-.15-.08-.08a3.66,3.66,0,0,0-1-.68,9.81,9.81,0,0,1-.91-.38v-1.22h1.29c.51,0,1,0,1.6.07.86,0,1.7,0,2.51.08l.08.08a1.26,1.26,0,0,1,.61,0,5.09,5.09,0,0,0,.84.07h3.8ZM49,311.46q0,14,.15,15.44a19.56,19.56,0,0,0,.69,4.11.56.56,0,0,1,.07.23,3.75,3.75,0,0,0,.61.84,4.5,4.5,0,0,0,2.78,1.55,26.05,26.05,0,0,0,4.75.35c3.81,0,6.8-1,9-2.89s3.27-4.82,3.27-8.68a9.26,9.26,0,0,0-1.71-5.89,10.87,10.87,0,0,0-4.41-3.31,20.18,20.18,0,0,0-5.9-1.45q-3.2-.3-6.16-.3Zm53.1.84v4.33a38.3,38.3,0,0,0,.53,6.28,16.81,16.81,0,0,0,2,5.7,11.2,11.2,0,0,0,10.54,5.75,11.46,11.46,0,0,0,5.48-1.3,15.19,15.19,0,0,0,4.26-3.34A20.29,20.29,0,0,0,128,325a25.88,25.88,0,0,0,1.86-5.29l2,1.45q-4,16.35-21.46,16.35a21.3,21.3,0,0,1-8.67-1.71,19.26,19.26,0,0,1-6.54-4.6,20.55,20.55,0,0,1-4.11-6.66,22.07,22.07,0,0,1-1.45-7.95,22.82,22.82,0,0,1,1.45-8.14,20.14,20.14,0,0,1,4.11-6.66,18.71,18.71,0,0,1,6.54-4.48,22.15,22.15,0,0,1,8.67-1.64,25,25,0,0,1,7.42,1.1,20.13,20.13,0,0,1,6.28,3.2,16,16,0,0,1,4.41,5.21,16.89,16.89,0,0,1,1.9,7.08ZM118,309.86c-.06-1.22-.17-2.51-.35-3.88a12.94,12.94,0,0,0-1.06-3.8,7.21,7.21,0,0,0-2.36-2.89,8.18,8.18,0,0,0-8.33,0,7.29,7.29,0,0,0-2.32,2.89,13.26,13.26,0,0,0-1.07,3.8c-.18,1.37-.29,2.66-.34,3.88Zm21.07-10c2.63-.7,5.16-1.33,7.57-1.86a35.86,35.86,0,0,1,7.72-.8,53.9,53.9,0,0,1,5.67.34,25.53,25.53,0,0,1,5.89,1.37,11.64,11.64,0,0,1,4.72,3.11,7.34,7.34,0,0,1,1.9,5.13,6.12,6.12,0,0,1-1.37,4.06,9.87,9.87,0,0,1-3.34,2.58,18.09,18.09,0,0,1-4.46,1.44c-1.64.33-3.15.57-4.52.73v.07a35.7,35.7,0,0,1,4.87.92,29.57,29.57,0,0,1,5.09,1.75,12.1,12.1,0,0,1,4,2.78,6.3,6.3,0,0,1,1.6,4.46,8.12,8.12,0,0,1-2,5.64,14.16,14.16,0,0,1-4.79,3.47,21.68,21.68,0,0,1-6.2,1.67,51.27,51.27,0,0,1-6.28.42,63.67,63.67,0,0,1-9.55-.72,46.59,46.59,0,0,1-9.09-2.32L140,322.72l1.21.53a11.85,11.85,0,0,0,3.47,8.48,13.15,13.15,0,0,0,3.91,2.67,12.18,12.18,0,0,0,5,1,7.88,7.88,0,0,0,3.69-.8,10.11,10.11,0,0,0,2.78-2.09,7,7,0,0,0,1.68-3,13.38,13.38,0,0,0,.45-3.5,9.05,9.05,0,0,0-.72-3.68,9.33,9.33,0,0,0-1.9-2.82,8.7,8.7,0,0,0-2.78-1.86,8.34,8.34,0,0,0-3.35-.69,6.57,6.57,0,0,0-2.2.38,16.86,16.86,0,0,1-2.06.61v-3.57a14.62,14.62,0,0,0,4.26.6,6.79,6.79,0,0,0,3.16-.68,7.25,7.25,0,0,0,2.28-1.78,6.1,6.1,0,0,0,1.33-2.65,12.2,12.2,0,0,0,.38-3,7.78,7.78,0,0,0-2-5.64,7.23,7.23,0,0,0-5.44-2.08,8.26,8.26,0,0,0-3.92,1A10.62,10.62,0,0,0,146,302.9a17.2,17.2,0,0,0-2.29,3.58,12.18,12.18,0,0,0-1.06,3.76l-1.22.46Zm108.18-12.17h2.58c1.73,0,3.5-.05,5.33-.15s3.73-.15,5.71-.15v1.22a4.58,4.58,0,0,0-3.46,2.66,15.32,15.32,0,0,0-.88,5.86v24.49c0,1.37,0,2.82.12,4.34a19.54,19.54,0,0,0,.64,4.22,8.61,8.61,0,0,0,1.64,3.27,3.88,3.88,0,0,0,3,1.41v1.52H237.7v-1.52a4.25,4.25,0,0,0,3-1.22,7.12,7.12,0,0,0,1.63-3,18.52,18.52,0,0,0,.65-4.15c.07-1.55.11-3.18.11-4.91v-30.5H222v30.5c0,1.73,0,3.36.12,4.91a16.44,16.44,0,0,0,.68,4.15,7.4,7.4,0,0,0,1.67,3,4.36,4.36,0,0,0,3.09,1.22v1.52h-25v-1.52a5,5,0,0,0,3.35-1.22,6.74,6.74,0,0,0,1.79-3,17.82,17.82,0,0,0,.72-4.15c.1-1.55.15-3.18.15-4.91v-23c0-1.87,0-3.41-.11-4.6a10.12,10.12,0,0,0-.53-2.85,3.31,3.31,0,0,0-1.22-1.6,7.41,7.41,0,0,0-2.17-.91v-1.22c1.83,0,3.64.05,5.44.15s3.56.15,5.29.15ZM279.77,304h.15a13.55,13.55,0,0,1,13.7-8.29,17.08,17.08,0,0,1,7.6,1.71,20,20,0,0,1,6.09,4.57,21.77,21.77,0,0,1,4.07,6.54,20.3,20.3,0,0,1,1.48,7.65,23.4,23.4,0,0,1-1.44,8.21,21.5,21.5,0,0,1-4,6.81,19.24,19.24,0,0,1-6.12,4.64,17.34,17.34,0,0,1-7.64,1.71,23.78,23.78,0,0,1-7.38-1.06,16.27,16.27,0,0,1-6.17-3.81v9.59a9.26,9.26,0,0,0,1.26,5.17c.84,1.27,2.47,2.08,4.91,2.44v1.29q-2.82,0-5.82-.15c-2-.1-3.87-.15-5.6-.15s-3.44.05-5.32.15-3.76.15-5.63.15V350c2-.31,3.38-1.14,4.07-2.51a10.32,10.32,0,0,0,1-4.65V306.56q0-5.62-4.11-6v-1.14c2.63-.3,5.21-.66,7.72-1.07a71.17,71.17,0,0,0,7.19-1.52Zm.3,12.63q0,8.87,2.4,13.49a8.83,8.83,0,0,0,15.52,0q2.4-4.62,2.4-13.49T298,303.15a8.83,8.83,0,0,0-15.52,0Q280.07,307.77,280.07,316.63ZM341,295.71a26.1,26.1,0,0,1,8.71,1.45,22.47,22.47,0,0,1,7.34,4.18,20,20,0,0,1,5.06,6.62,21,21,0,0,1,0,17.34,19.92,19.92,0,0,1-5.06,6.62,22.68,22.68,0,0,1-7.34,4.19,27.06,27.06,0,0,1-17.42,0,22.68,22.68,0,0,1-7.34-4.19,20.16,20.16,0,0,1,0-30.58,22.47,22.47,0,0,1,7.34-4.18A26.1,26.1,0,0,1,341,295.71Zm0,2.44a7.32,7.32,0,0,0-5.32,2,13.65,13.65,0,0,0-3.2,4.83,25.13,25.13,0,0,0-1.56,6.05,37.94,37.94,0,0,0,0,11.26,25,25,0,0,0,1.56,6.05,13.65,13.65,0,0,0,3.2,4.83,8.15,8.15,0,0,0,10.65,0,13.63,13.63,0,0,0,3.19-4.83,25,25,0,0,0,1.56-6.05,37.94,37.94,0,0,0,0-11.26,25.13,25.13,0,0,0-1.56-6.05,13.63,13.63,0,0,0-3.19-4.83A7.36,7.36,0,0,0,341,298.15Zm66.19-17.81q-13.77,3.74-16.7,4.26a39.07,39.07,0,0,0-6.51,1.87c-2.38.88-4.29,2.8-5.74,5.74a32.57,32.57,0,0,0-2.78,11.49,26.28,26.28,0,0,1,2.36-2.36,23.09,23.09,0,0,1,6.16-4.18,18.66,18.66,0,0,1,7.76-1.45,26.06,26.06,0,0,1,8.71,1.45,22.27,22.27,0,0,1,7.34,4.18,20,20,0,0,1,5.07,6.62,20.14,20.14,0,0,1-5.07,24,22.47,22.47,0,0,1-7.34,4.19,27.06,27.06,0,0,1-17.42,0,22.68,22.68,0,0,1-7.34-4.19,19.65,19.65,0,0,1-6.92-15.29,24,24,0,0,1,.15-2.74q.22-22.74,2.7-25.41a18,18,0,0,1,6.28-4.26,33.83,33.83,0,0,1,8.33-2.24q4.51-.64,20.58-7.19Zm-15.45,17.81a7.34,7.34,0,0,0-5.32,2,13.65,13.65,0,0,0-3.2,4.83,25.13,25.13,0,0,0-1.56,6.05,37.94,37.94,0,0,0,0,11.26,25,25,0,0,0,1.56,6.05,13.65,13.65,0,0,0,3.2,4.83,8.15,8.15,0,0,0,10.65,0,13.63,13.63,0,0,0,3.19-4.83,24.56,24.56,0,0,0,1.56-6.05,37.94,37.94,0,0,0,0-11.26,24.67,24.67,0,0,0-1.56-6.05,13.63,13.63,0,0,0-3.19-4.83A7.36,7.36,0,0,0,391.75,298.15Zm68.55,27.08c0,1.27,0,2.51.11,3.73a11.08,11.08,0,0,0,.65,3.23,6.28,6.28,0,0,0,1.52,2.36,3.87,3.87,0,0,0,2.59,1v1.15c-1.73,0-3.45-.05-5.18-.16s-3.39-.15-5-.15-3.51,0-5.21.15-3.46.16-5.29.16v-1.15a4,4,0,0,0,2.82-1,6.41,6.41,0,0,0,1.41-2.35,11.75,11.75,0,0,0,.6-3.23q.12-1.82.12-28.7h-6.09c-2.74,0-5.09.11-7.07.31a3.42,3.42,0,0,0-.31.61,10.75,10.75,0,0,0-.83,4.63V321q0,16.71-8.07,16.55a43.19,43.19,0,0,1-5.25-.3,22.57,22.57,0,0,1-4.64-1.07l3.73-12.32,1.14.3c.05,1,.17,2.17.34,3.46a17.49,17.49,0,0,0,.92,3.69,11.71,11.71,0,0,0,1.59,3,3,3,0,0,0,2.48,1.25,2.75,2.75,0,0,0,1.4-.49,4.43,4.43,0,0,0,1.49-1.9,15,15,0,0,0,1.1-4.11,50.87,50.87,0,0,0,.42-7.42v-15.9a10.78,10.78,0,0,0-.8-4.56,4.1,4.1,0,0,0-3.23-2.13v-.91c1.87,0,3.6.05,5.17.15h26.25l2.43-.12,2.05,0v.91a3.64,3.64,0,0,0-2.58,2.13,11.17,11.17,0,0,0-.76,4.56Zm22.06-12.93v4.33a38.3,38.3,0,0,0,.53,6.28,16.81,16.81,0,0,0,2,5.7,11.2,11.2,0,0,0,10.54,5.75,11.39,11.39,0,0,0,5.47-1.3,15.19,15.19,0,0,0,4.26-3.34,19.67,19.67,0,0,0,3.08-4.68,25.33,25.33,0,0,0,1.87-5.29l2,1.45q-4,16.35-21.46,16.35a21.3,21.3,0,0,1-8.67-1.71,19.26,19.26,0,0,1-6.54-4.6,20.55,20.55,0,0,1-4.11-6.66,21.86,21.86,0,0,1-1.45-7.95,22.61,22.61,0,0,1,1.45-8.14,20.14,20.14,0,0,1,4.11-6.66,18.71,18.71,0,0,1,6.54-4.48,22.15,22.15,0,0,1,8.67-1.64,25,25,0,0,1,7.42,1.1,20.13,20.13,0,0,1,6.28,3.2,16,16,0,0,1,4.41,5.21,16.89,16.89,0,0,1,1.9,7.08Zm15.82-2.44c-.05-1.22-.16-2.51-.34-3.88a13.25,13.25,0,0,0-1.06-3.8,7.3,7.3,0,0,0-2.36-2.89,8.18,8.18,0,0,0-8.33,0,7.29,7.29,0,0,0-2.32,2.89,13,13,0,0,0-1.07,3.8c-.18,1.37-.29,2.66-.34,3.88Zm26.25-5.48h-.08v19a29,29,0,0,0,.23,3.62,14.57,14.57,0,0,0,.91,3.5,9.8,9.8,0,0,0,1.94,3,7.34,7.34,0,0,0,3.16,1.94v.91H515.45v-.84a8.17,8.17,0,0,0,3-2,10.7,10.7,0,0,0,2.17-3.08,13.82,13.82,0,0,0,1.11-3.5,21.83,21.83,0,0,0,.3-3.62V307.5a24.08,24.08,0,0,0-.27-4A6.64,6.64,0,0,0,521,301a3.66,3.66,0,0,0-1.45-1.37,11.18,11.18,0,0,0-1.79-.76v-.76c1.27,0,2.51,0,3.73.07s2.39.08,3.5.08,2.37,0,3.77-.08,2.67-.07,3.84-.07l11.87,23.73L555,298.15c1.27,0,2.54,0,3.81.07s2.46.08,3.57.08,2.33,0,3.65-.08,2.59-.07,3.81-.07v.76a5.91,5.91,0,0,0-2.1.87,3.37,3.37,0,0,0-1.17,1.45,4.79,4.79,0,0,0-.42,1.82c0,.64,0,1.36,0,2.17v19.7c0,1.37,0,2.64.11,3.81a12.37,12.37,0,0,0,.61,3.19,5.59,5.59,0,0,0,1.49,2.36,3.92,3.92,0,0,0,2.58,1v1.14H550.29v-1.14a4,4,0,0,0,2.71-1,5.82,5.82,0,0,0,1.44-2.36,12.37,12.37,0,0,0,.61-3.19c.08-1.17.11-2.44.11-3.81V303.55h-.22l-15.45,34h-.68Zm114.11,2.21-.45-.15a18.89,18.89,0,0,0-3.35-5.78q-4.41-4.65-12-4.65-7.23,0-11.26,5.18t-4.11,14.38q0,9.27,4.41,14.45a15.12,15.12,0,0,0,12.1,5.25,15.84,15.84,0,0,0,8.9-2.36,26.27,26.27,0,0,0,7.15-7.91l1.07,1.9q-5.79,10.5-18.19,10.5a22.4,22.4,0,0,1-16.2-6.24A20.05,20.05,0,0,1,600,315.87a20.42,20.42,0,0,1,6.7-15.6q6.32-5.92,16.2-5.93a37.32,37.32,0,0,1,18.11,5Zm78.89-10.12a18.4,18.4,0,0,0-9.66-7.15q-6.16-2-18.33-2h-8.22q0,41.7,1.67,45.57a6,6,0,0,0,4.26,3.12v.53q-4.26-.3-10.5-.3a70.28,70.28,0,0,0-7.3.3V336a6.38,6.38,0,0,0,3-1.52,7.87,7.87,0,0,0,1.68-3.88q.84-4.63.84-24.12v-8.9q0-6.39-.77-8.44a4.81,4.81,0,0,0-3.27-3v-.53H715l3,10.57Zm21.69,15.67-2.82,5.48q-5.47,10.8-5.48,13.69,0,3.29,4.19,4.72v.53q-3.28-.3-8-.3a52.74,52.74,0,0,0-6.24.3V336a20.66,20.66,0,0,0,6.16-6.24q3-4.49,9.51-16.66l15.37-29,14.22,28,4.34,8.07,4.34,8.06q3.49,5.79,7.38,7.76v.53c-2.59-.2-5.78-.3-9.59-.3q-4.49,0-7.45.3V336c2-.46,3-1.55,3-3.27s-1-4.67-3-8.67l-6-11.95Zm10.19-18.94L740,310.47h18.18Zm41.92,30.2.45.15a13.6,13.6,0,0,0,5.86,8.75,20.34,20.34,0,0,0,11.72,3.35q6.22,0,9.89-3a11.89,11.89,0,0,0,4.79-9.73,11.13,11.13,0,0,0-4.19-8.91,15.67,15.67,0,0,0-10.42-3.57,16.61,16.61,0,0,0-5.4.76v-4a13.46,13.46,0,0,0,5.86,1.3q5.93,0,9.05-2.82a11.22,11.22,0,0,0,.08-15.75,12.77,12.77,0,0,0-8.75-2.89,15.78,15.78,0,0,0-10.88,3.73,25.48,25.48,0,0,0-4.11,5.33l-.53.15-1.75-7.08q6.54-3.87,16.58-3.88,9.21,0,14.84,3.35t5.63,8.83q0,5.7-5.63,9c-1.83,1.12-4.87,2.1-9.13,3q7.6,1.59,11,3.88,5.55,3.65,5.56,9.58,0,6.47-6,10.42t-16.06,4a42,42,0,0,1-21.38-5.93Zm110.54-12.32a24.73,24.73,0,0,1-8.3,19q-8.29,7.61-20.92,7.61t-20.84-7.61a26,26,0,0,1,0-38.19q8.37-7.53,21.22-7.53a29.27,29.27,0,0,1,20.54,7.68A24.73,24.73,0,0,1,901.77,311.08Zm-50.06,0q0,11.49,5.32,17.95,5.72,7,15.52,7t15.29-6.62q5.55-6.69,5.56-18.26,0-11.94-5.56-18.48t-15.59-6.62a18.64,18.64,0,0,0-15.22,7Q851.71,299.52,851.71,311.08ZM962.4,285.52a29.72,29.72,0,0,0,4.56.3,46.73,46.73,0,0,0,5.25-.3v.53a4.64,4.64,0,0,0-3.12,2.81q-.76,2.06-.76,8.22v16.36q0,15.58,1.45,19.47A5.37,5.37,0,0,0,973.5,336v.53q-3.87-.3-9.35-.3a69.32,69.32,0,0,0-7.23.3V336a5.32,5.32,0,0,0,3.65-3.12q1.44-3.57,1.45-19.47V291.37l-22.6,46.56-22.14-47.09v21q0,17.27,1.45,20.16a7.77,7.77,0,0,0,4.33,4v.53q-3.12-.3-7.68-.3a46.16,46.16,0,0,0-5.93.3V336a8.16,8.16,0,0,0,4.11-3.65q1.14-2.43,1.52-10.5c0-.15,0-3,.15-8.44,0-1,0-2.06.07-3.12v-2.51c.06-1.63.08-2.64.08-3.05v-7.68c0-4.51-.45-7.46-1.37-8.83a7.37,7.37,0,0,0-3.19-2.2v-.53a41.59,41.59,0,0,0,5.47.3,49.93,49.93,0,0,0,5.86-.3l20.24,41.31Zm20,59.26q3.81-4.48,3.81-7.91v-.46a7.62,7.62,0,0,1-1.37.23,3.49,3.49,0,0,1-2.59-1.07,3.57,3.57,0,0,1-1-2.66,4.08,4.08,0,0,1,1.07-2.74,4,4,0,0,1,2.66-1.06q4.11,0,4.11,5.17,0,6.77-6.09,11ZM361,377q16.2,0,21.61,2.36,7.53,3.19,7.53,9.66,0,5.94-6.39,9.28a38.41,38.41,0,0,1-9.82,2.51q8.52,1,12.18,2.51,8.67,3.89,8.67,11a10,10,0,0,1-2.59,6.62,17.21,17.21,0,0,1-7.22,4.8q-5.49,2.13-15.83,2.13c-1.62,0-5.33-.08-11.11-.23h-3.12l-2.89-.08h-4.87c-1,0-1.95,0-2.81.08-1.93.05-3.32.12-4.19.23v-.54a6.38,6.38,0,0,0,5.25-5.55q.84-5,.84-24V388.9c0-4.2-.28-7.07-.84-8.59a4.77,4.77,0,0,0-3.72-2.82V377Zm1.67,23.13q11.19,0,15.6-3.27,3.5-2.6,3.5-7.69,0-6.31-4.79-8.59-4-1.91-15.14-1.91h-9.28v21.46Zm-10.11,8.44q.22,12.25.3,12.63a4.57,4.57,0,0,0,4.41,4.64,82.69,82.69,0,0,0,10.2.38q9.36,0,13.31-2.28a10.2,10.2,0,0,0,5.63-9.51,10.63,10.63,0,0,0-1.6-5.71,11.52,11.52,0,0,0-4.26-4.18q-4.63-2.75-18.86-2.74h-9.13Zm96.92-1.37a20.07,20.07,0,0,1-6.62,15.3,24.9,24.9,0,0,1-32.87.07,21,21,0,0,1,0-30.73,24,24,0,0,1,16.74-6.17,22.49,22.49,0,0,1,16.13,6.24A20.22,20.22,0,0,1,449.46,407.16Zm-38.8,0A28.08,28.08,0,0,0,413.4,420q3.8,7,12.93,7t13-7a31.52,31.52,0,0,0,0-25.71q-3.81-7-13.24-7-7.38,0-11.41,5.17Q410.66,397.8,410.66,407.16ZM508.42,426,511,434.4l-.38.15a27.82,27.82,0,0,0-4.71-3.88,24.84,24.84,0,0,0-9.06-2.89h-.07l-1,.08-1.07.07v-.15H470.91v.15l-.61-.07-.76-.08H468.1a24.6,24.6,0,0,0-9,2.89,24.14,24.14,0,0,0-4.72,3.88l-.38-.15,2.51-8.37h4.64l.23-.15.15-.15h.16a19.38,19.38,0,0,0,1.9-2.29q2.2-3.42,7-12.63l12.78-24.34,11,21.23q2.43,4.79,7.68,14.37a14.15,14.15,0,0,0,3,4Zm-12.1.53a2.34,2.34,0,0,0,.68-1.75q0-2.65-15.9-30.2l-4.26,7.91q-3.94,7.61-7.53,15.29a15.16,15.16,0,0,0-1.9,6,3.1,3.1,0,0,0,.76,2.29l.23.22.3.23Zm65.58-19.4a20.07,20.07,0,0,1-6.62,15.3,24.9,24.9,0,0,1-32.87.07,21,21,0,0,1,0-30.73,24,24,0,0,1,16.74-6.17,22.48,22.48,0,0,1,16.13,6.24A20.22,20.22,0,0,1,561.9,407.16Zm-38.8,0A28.08,28.08,0,0,0,525.84,420q3.79,7,12.93,7t13-7a31.52,31.52,0,0,0,0-25.71q-3.81-7-13.24-7-7.38,0-11.41,5.17Q523.1,397.8,523.1,407.16Zm83.15,20.54a44,44,0,0,1-2.51-8.06q-5.25,9.06-16,9.05-16.43,0-16.43-16.28v-2.13c0-1.11,0-1.95.08-2.51s.07-1.39.07-2.51v-3.8q0-8.22-.45-9.59c-.36-1-1.53-1.55-3.5-1.75v-.53a53.93,53.93,0,0,0,10-3c-.2,2.49-.31,5.78-.31,9.89v11q0,9.21,2.13,13.16,2.9,5.49,10.27,5.48a14.65,14.65,0,0,0,7.23-1.82,10.66,10.66,0,0,0,4.72-4.72q2.13-4.49,2.13-15.75v-2.43q0-8.22-.53-9.59c-.36-.91-1.5-1.49-3.43-1.75v-.53A40.83,40.83,0,0,0,605,388.3a39.8,39.8,0,0,0,4.86-1.68c-.2,2.49-.3,5.78-.3,9.89v10q0,11.79.69,15.67.52,3.81,2.81,5v.53ZM585,382l10.65-10.19c1.32-1.22,2.39-1.83,3.2-1.83,1.57,0,2.36.74,2.36,2.21,0,1.06-1.37,2.41-4.11,4L587.46,382Zm93.12,45.72a44,44,0,0,1-2.51-8.06q-5.25,9.06-16,9.05-16.42,0-16.43-16.28v-2.13c0-1.11,0-1.95.08-2.51s.07-1.39.07-2.51v-3.8q0-8.22-.45-9.59c-.36-1-1.53-1.55-3.5-1.75v-.53a53.7,53.7,0,0,0,10-3c-.2,2.49-.31,5.78-.31,9.89v11q0,9.21,2.14,13.16,2.88,5.49,10.26,5.48a14.65,14.65,0,0,0,7.23-1.82,10.66,10.66,0,0,0,4.72-4.72q2.13-4.49,2.13-15.75v-2.43q0-8.22-.53-9.59c-.36-.91-1.5-1.49-3.43-1.75v-.53a59.54,59.54,0,0,0,10.05-3c-.21,2.49-.31,5.78-.31,9.89v10q0,11.79.69,15.67.52,3.81,2.81,5v.53ZM159.87,494v-3.05h28.38a25.36,25.36,0,0,0-5.78-15.44q-5.79-6.84-15.52-6.85a23.34,23.34,0,0,0-12.71,3.27A16,16,0,0,0,147.4,481l-.53.16-2.75-7.31q8.3-6.92,22.45-6.92t22.67,8.6a25.13,25.13,0,0,1,7.46,18.1A25.58,25.58,0,0,1,194,505a23.2,23.2,0,0,1-7.15,8.75q-8.82,6.54-21.07,6.54-12.63,0-21.69-6.85l1.6-6.54.54.15a17.32,17.32,0,0,0,4.33,6.09,21.88,21.88,0,0,0,15.07,5.48q10.18,0,16.43-6.93,6.07-6.69,6.24-17.72Zm66.65-17,12.62,25q4.73,9.42,6.62,12.32a14,14,0,0,0,4.8,4.34v.53c-1.73-.1-3.25-.18-4.57-.23-1.11,0-2-.08-2.59-.08-2,0-4.05.11-6.23.31v-.53c3-.87,4.49-2.46,4.49-4.8q0-2.88-4.57-11.86l-8.37-16.51-11.1,21.83c-2.24,4.36-3.35,7.18-3.35,8.44s.94,2.29,2.81,2.9v.53c-1.87-.1-3.57-.18-5.09-.23-1.22,0-2.19-.08-2.9-.08-2,0-4.28.11-6.92.31v-.53a7.61,7.61,0,0,0,3.5-2.36,38.43,38.43,0,0,0,4-6.55q1.37-2.73,3-5.78c.31-.55.69-1.29,1.14-2.2s.84-1.6,1-1.9Zm36.36,16.2a26.29,26.29,0,0,0-.38,4.56,25.75,25.75,0,0,0,3,12.86q3.94,7.38,13.31,7.38a17.29,17.29,0,0,0,11.49-4,23,23,0,0,0,6.92-11.33l1.45,1.29a20.42,20.42,0,0,1-7.53,11.79,21.71,21.71,0,0,1-13.55,4.34,22.19,22.19,0,0,1-16.05-6.16,20.65,20.65,0,0,1-6.39-15.52,20.36,20.36,0,0,1,6.47-15.22,21.87,21.87,0,0,1,15.75-6.23,21.5,21.5,0,0,1,13.77,4.64A17.08,17.08,0,0,1,298,493.13Zm27.31-1.6q0-5.92-3.5-9.43a12.57,12.57,0,0,0-9.28-3.58q-11.49,0-14.15,13ZM337.51,519a70.29,70.29,0,0,1-5.55-8.75,61.34,61.34,0,0,0-7.38-10.81c-1.88-2-3.86-3-5.94-3-2.74,0-4.1,2.16-4.1,6.47v2.51q0,7.68,1.14,10.34a5.1,5.1,0,0,0,3.95,2.9v.53c-2.48-.2-5.5-.31-9.05-.31a65.1,65.1,0,0,0-6.92.31v-.53c2.48-.82,3.95-3,4.41-6.47q.45-4,.76-12.63l.15-4.26c0-.56,0-1.14.08-1.75,0-.4,0-.89.07-1.45.05-1.77.08-2.73.08-2.89s0-.63-.08-1.14-.12-1.42-.22-2.28c-.21-1.93-.66-3.14-1.37-3.65a4.73,4.73,0,0,0-2.67-.76v-.53a48.71,48.71,0,0,0,10-3q-.3,6.77-.3,18.18l6.92-5.17q10.35-7.61,10.34-9.89,0-1.83-2.28-2.28v-.39c3.76.16,6.29.23,7.61.23.61,0,3.5-.07,8.67-.23v.39a37.55,37.55,0,0,0-8.52,3.27q-2.5,1.37-13.08,9.28l-4.64,3.35H321a14,14,0,0,1,9.13,2.89q2.36,1.89,7.76,10.19a48.12,48.12,0,0,0,5.78,7.61,14.3,14.3,0,0,0,5.18,3.35V519Zm31.27-.31a5.2,5.2,0,0,0,4.56-4.41q.77-3.81.76-19.48v-7.38a27.51,27.51,0,0,0-.38-6.16c-.35-1.06-1.72-1.6-4.1-1.6a23.43,23.43,0,0,0-9,1.45,20.33,20.33,0,0,0-7.08,5h-.45l2.89-7.76h41.76l2.89,7.76h-.45a20.24,20.24,0,0,0-7.08-5,24.15,24.15,0,0,0-9-1.45q-3.79,0-4.26,2.06a42.63,42.63,0,0,0-.22,5.7v7.38q0,15.68.76,19.48a5.22,5.22,0,0,0,4.56,4.41v.46c-2-.15-4.71-.23-8.06-.23s-6.06.08-8.14.23ZM413.36,489a48.59,48.59,0,0,1,3.95-6.09q5-5.94,13.55-5.93A21,21,0,0,1,446.07,483a20.37,20.37,0,0,1,6.24,15.07,21.45,21.45,0,0,1-6.16,15.59A20.52,20.52,0,0,1,430.86,520q-9.28,0-16.59-8v9.13q0,7.14,1.14,9.89a4.76,4.76,0,0,0,4.11,3.27v.53q-4.41-.23-9.36-.23-3.35,0-6.31.23v-.53a4.69,4.69,0,0,0,3.57-3.27q1-2.74,1-9.89V502.94q0-14.91-.61-18.71-.3-2.82-3.42-3v-.54a57.33,57.33,0,0,0,9.36-2.73c-.26,3.8-.38,7.1-.38,9.88Zm4.41-3.66q-3.34,4.72-3.35,13.24,0,9.51,3.66,14a14.58,14.58,0,0,0,5.4,4.26,15.62,15.62,0,0,0,6.77,1.6,14,14,0,0,0,6.92-1.83,12.11,12.11,0,0,0,4.87-4.72q2.9-5.16,2.89-13.92,0-9.27-3.88-14.15a13.36,13.36,0,0,0-11.11-5.25,13,13,0,0,0-6.54,1.9A17.63,17.63,0,0,0,417.77,485.29Zm79,33.71a44.44,44.44,0,0,1-2.51-8.07Q489,520,478.25,520q-16.42,0-16.43-16.28v-2.14c0-1.11,0-1.95.07-2.51s.08-1.39.08-2.51v-3.8c0-5.48-.15-8.67-.46-9.59s-1.52-1.54-3.49-1.75v-.53a54.69,54.69,0,0,0,10-3c-.21,2.48-.31,5.78-.31,9.88v11q0,9.2,2.13,13.16,2.89,5.47,10.27,5.47a14.54,14.54,0,0,0,7.23-1.82,10.66,10.66,0,0,0,4.72-4.72q2.13-4.49,2.13-15.75v-2.43c0-5.48-.18-8.67-.53-9.59s-1.5-1.49-3.43-1.75v-.53a38.06,38.06,0,0,0,5.18-1.29,41.53,41.53,0,0,0,4.86-1.67c-.2,2.48-.3,5.78-.3,9.88v10q0,11.79.68,15.67t2.82,5V519Zm46.79,0-.23-17.43q-5.25,9.06-16,9.06-16.43,0-16.36-13.09.07-12.93-.38-14.38c-.35-1-1.52-1.54-3.5-1.75v-.53a54.57,54.57,0,0,0,10.05-3q-.32,3.72-.31,8.21v3.35q0,9.21,2.13,13.16,2.89,5.48,10.27,5.48a14.55,14.55,0,0,0,7.23-1.83,10.61,10.61,0,0,0,4.72-4.72q2.13-4.49,2.13-15.74a7.27,7.27,0,0,0-.54-2.67c-.35-.91-1.49-1.49-3.42-1.75v-.53a37.56,37.56,0,0,0,5.17-1.29,41.06,41.06,0,0,0,4.87-1.67c-.2,2.48-.3,5.78-.3,9.88v10q0,11.79.68,15.67t2.82,5V519Zm22.59-25.87a26.29,26.29,0,0,0-.38,4.56,25.75,25.75,0,0,0,3,12.86q3.94,7.38,13.31,7.38a17.29,17.29,0,0,0,11.49-4,23,23,0,0,0,6.92-11.33l1.45,1.29a20.38,20.38,0,0,1-7.54,11.79,21.66,21.66,0,0,1-13.54,4.34,22.19,22.19,0,0,1-16-6.16,20.65,20.65,0,0,1-6.39-15.52,20.33,20.33,0,0,1,6.47-15.22,21.83,21.83,0,0,1,15.74-6.23,21.46,21.46,0,0,1,13.77,4.64,17.06,17.06,0,0,1,6.93,11.56Zm27.31-1.6q0-5.92-3.5-9.43a12.57,12.57,0,0,0-9.28-3.58q-11.49,0-14.15,13Zm54.24-2.36-.46-.15a18.81,18.81,0,0,0-3.34-5.78q-4.41-4.64-12-4.64-7.23,0-11.26,5.17t-4.11,14.38q0,9.28,4.41,14.46t12.1,5.24a15.84,15.84,0,0,0,8.9-2.35,26.46,26.46,0,0,0,7.15-7.92l1.07,1.91Q644.32,520,631.92,520a22.4,22.4,0,0,1-16.2-6.24,20.07,20.07,0,0,1-6.62-15.29,20.45,20.45,0,0,1,6.69-15.6q6.33-5.94,16.21-5.93a37.34,37.34,0,0,1,18.11,5Zm22.67,29.52a5.22,5.22,0,0,0,4.57-4.41q.75-3.81.76-19.48v-7.38a28.17,28.17,0,0,0-.38-6.16c-.36-1.06-1.73-1.6-4.11-1.6a23.47,23.47,0,0,0-9,1.45,20.3,20.3,0,0,0-7.07,5h-.46l2.89-7.76h41.77l2.89,7.76h-.46a20.3,20.3,0,0,0-7.07-5,24.22,24.22,0,0,0-9-1.45q-3.81,0-4.26,2.06a42,42,0,0,0-.23,5.7v7.38q0,15.68.76,19.48a5.22,5.22,0,0,0,4.57,4.41v.46q-3-.23-8.07-.23t-8.14.23Zm54.09-40.32q13.25,0,17.58,1.9,6.07,2.52,6.08,7.76,0,4.73-5.17,7.38a28,28,0,0,1-8,2.06c4.77.56,8.07,1.21,9.89,2q7.08,3,7.08,8.83a7.72,7.72,0,0,1-2.13,5.32,15.37,15.37,0,0,1-5.86,3.88q-4.49,1.68-12.86,1.68c-.45,0-1.55,0-3.27-.08h-2.59C724.08,519,723,519,722,519h-2.51l-2.36-.08h-4c-.76,0-1.5,0-2.21.08l-1.14.07h-.91a8.1,8.1,0,0,0-1.37.08v-.46a5.23,5.23,0,0,0,4.26-4.41q.67-3.88.68-19.17V488q0-5.25-.68-6.93a3.72,3.72,0,0,0-3-2.2v-.46Zm1.37,18.56q9.06,0,12.63-2.66a7.29,7.29,0,0,0,2.89-6.16q0-5-3.88-6.85-3.42-1.51-12.32-1.52h-7.53v17.19Zm-8.21,6.7q.15,9.81.22,10.12a3.64,3.64,0,0,0,3.58,3.72,60.72,60.72,0,0,0,8.29.31c5.07,0,8.68-.61,10.8-1.83a8.15,8.15,0,0,0,4.57-7.6,8.92,8.92,0,0,0-1.29-4.57,9.59,9.59,0,0,0-3.43-3.35q-3.8-2.21-15.37-2.2h-7.37Zm88.09-5.17a20,20,0,0,1-6.62,15.29,24.85,24.85,0,0,1-32.86.07,21,21,0,0,1,0-30.73,23.92,23.92,0,0,1,16.74-6.16,22.49,22.49,0,0,1,16.12,6.23A20.19,20.19,0,0,1,805.68,498.46Zm-38.8,0a28,28,0,0,0,2.74,12.85q3.81,7,12.93,7t13-7a31.52,31.52,0,0,0,0-25.71q-3.79-7-13.23-7-7.38,0-11.42,5.17Q766.89,489.1,766.88,498.46Zm88.56-20.09a28.48,28.48,0,0,0,3.65.23c1.21,0,2.61-.08,4.18-.23v.46a3.46,3.46,0,0,0-2.51,2.28,23.52,23.52,0,0,0-.61,6.54v13.16q0,12.56,1.22,15.68a4.21,4.21,0,0,0,3,2.51v.45q-3.12-.3-7.54-.3a44.66,44.66,0,0,0-5.78.3V519a4,4,0,0,0,2.89-2.51q1.22-2.9,1.22-15.68V483.09L837,520.52l-17.8-37.89v16.89q0,13.77,1.14,16.2a6,6,0,0,0,3.5,3.28v.45a53.34,53.34,0,0,0-6.17-.3,30.78,30.78,0,0,0-4.79.3V519a5.94,5.94,0,0,0,3.27-3c.61-1.27,1-4.08,1.3-8.45V505.3c0-1.42,0-2.91.07-4.49,0-.81,0-1.64.08-2.51v-2.05c.05-1.27.07-2.08.07-2.44v-6.16q0-5.4-1.14-7.07a4.75,4.75,0,0,0-2.58-1.75v-.46a40.56,40.56,0,0,0,4.41.23c1.62,0,3.2-.08,4.72-.23l16.28,33.25Zm23.35,37.35a3.62,3.62,0,0,1-1.06,2.67,3.76,3.76,0,0,1-2.74,1.14,3.9,3.9,0,0,1-3.81-3.81,3.77,3.77,0,0,1,3.88-3.8,3.67,3.67,0,0,1,2.67,1.14A4,4,0,0,1,878.79,515.72Z" style="fill:url(#Безымянный_градиент_56)"/></svg>