<svg width="19" height="20" viewBox="0 0 19 20" fill="none" xmlns="http://www.w3.org/2000/svg">
<path d="M18.4633 13.6787C18.7602 13.8271 18.9828 14.1611 18.9828 14.5322C18.9828 14.5693 18.9828 14.6436 18.9828 14.7178L18.0922 18.5771C17.9809 18.9854 17.6469 19.2451 17.2387 19.2451C7.70156 19.2451 0.0199223 11.5635 0.0199223 2.02637C0.0199223 1.61816 0.279688 1.28418 0.687891 1.17285L4.54727 0.282227C4.62148 0.282227 4.6957 0.245117 4.73281 0.245117C5.10391 0.245117 5.43789 0.467773 5.58633 0.801758L7.36758 4.95801C7.40469 5.06934 7.4418 5.18066 7.4418 5.29199C7.4418 5.58887 7.29336 5.84863 7.10781 5.99707L4.84414 7.85254C6.21719 10.7471 8.51797 13.0479 11.4125 14.4209L13.268 12.1572C13.4164 11.9717 13.6762 11.8232 13.9359 11.8232C14.0844 11.8232 14.1957 11.8604 14.307 11.8975L18.4633 13.6787Z" fill="#D3AE6F"/>
</svg>
