<svg width="1026" height="64" viewBox="0 0 1026 64" fill="none" xmlns="http://www.w3.org/2000/svg">
<path d="M1.46036 9.62119L0.773131 0.687227H3.35023L2.5771 9.62119H1.46036ZM6.35686 9.62119L5.75553 0.687227H8.24673L7.5595 9.62119H6.35686ZM25.8569 18.1256C23.7094 14.9472 22.1631 13.0573 21.2182 12.456C20.445 11.9406 19.6719 11.6829 18.8129 11.6829C17.2666 11.6829 16.4935 12.6278 16.4935 14.6036V15.2049C16.4935 18.727 16.6653 20.9604 17.0948 21.8195C17.3525 22.3349 17.8679 22.7644 18.6411 22.8503V23.108C17.5243 23.0221 16.1499 22.9362 14.5177 22.9362C13.315 22.9362 12.3701 23.0221 11.597 23.108V22.8503C12.1124 22.6785 12.5419 22.4208 12.7996 22.1631C13.0573 21.8195 13.315 21.2182 13.4009 20.445C13.5727 19.1565 13.7446 15.5485 13.7446 9.793V5.75553C13.7446 3.95156 13.6587 2.74891 13.4009 2.14759C13.2291 1.54626 12.7137 1.11674 12.0265 0.944938V0.601324C12.7996 0.687228 13.6587 0.773131 14.7754 0.773131C15.8921 0.773131 16.923 0.687228 17.782 0.601324V0.859035C17.2666 1.11675 16.8371 1.46036 16.7512 2.06168C16.5794 2.74891 16.4935 3.95156 16.4935 5.66963V11.4252L21.1323 7.64541C23.8812 5.49782 25.5133 4.12337 26.1147 3.52204C26.8019 2.83481 27.1455 2.31939 27.1455 1.88988C27.1455 1.37446 26.8878 1.03084 26.2865 0.773131V0.601324C27.0596 0.687228 28.0904 0.773131 29.2072 0.773131C30.5816 0.773131 31.7843 0.687228 32.901 0.601324V0.859035C30.9252 1.63217 27.3173 3.95156 22.249 7.98902L18.727 10.7379C21.39 10.8238 23.2798 11.2534 24.3966 11.8547C25.5133 12.5419 26.8019 13.9164 28.1763 16.0639C29.9803 18.6411 31.3548 20.3591 32.2138 21.2182C32.9869 21.9913 34.0178 22.5067 35.2204 22.8503V23.108C34.2755 23.0221 33.1587 22.9362 31.7843 22.9362C30.6675 22.9362 29.8085 23.0221 29.1213 23.108L25.8569 18.1256ZM63.5686 11.8547C63.5686 15.2049 62.3659 17.9538 59.9606 20.1873C57.5553 22.4208 54.4628 23.5375 50.7689 23.5375C47.0751 23.5375 44.0685 22.4208 41.5773 20.1873C39.0861 17.9538 37.8834 15.119 37.8834 11.8547C37.8834 8.50444 39.0861 5.66963 41.5773 3.43614C44.0685 1.20265 47.161 0.171807 50.8549 0.171807C54.3769 0.171807 57.3835 1.28855 59.8747 3.52204C62.3659 5.66963 63.5686 8.50444 63.5686 11.8547ZM41.5773 11.8547C41.5773 15.2049 42.3504 17.8679 43.8967 19.7578C45.5288 21.8195 47.8482 22.8503 50.683 22.8503C53.5179 22.8503 55.7514 21.9054 57.3835 19.9296C59.0157 17.9538 59.7888 15.2908 59.7888 11.9406C59.7888 8.41854 59.0157 5.75553 57.3835 3.86566C55.7514 1.88988 53.5179 0.944938 50.5112 0.944938C47.7623 0.944938 45.5288 1.97578 43.8108 4.03746C42.3504 5.84144 41.5773 8.41854 41.5773 11.8547ZM87.7933 6.01324L87.5356 5.92734C87.5356 4.46698 86.6766 3.26433 84.9585 2.31939C83.2405 1.37446 81.1788 0.859035 78.7735 0.859035C77.1413 0.859035 75.7669 1.28855 74.6501 2.06168C73.4475 3.00662 72.8461 4.12337 72.8461 5.41192C72.8461 6.52866 73.2757 7.3877 74.2206 8.07493C75.0796 8.76215 76.54 9.27757 78.6876 9.70709L81.2647 10.2225C84.3572 10.9097 86.4189 11.6829 87.6215 12.6278C88.7383 13.4868 89.3396 14.6895 89.3396 16.3217C89.3396 18.2974 88.3947 20.0155 86.5048 21.39C84.6149 22.7644 82.2955 23.4516 79.6325 23.4516C75.5091 23.4516 71.4717 22.5067 67.606 20.5309L69.1523 16.6653L69.3241 16.7512C69.4959 18.0397 70.0113 19.0706 70.8704 19.9296C73.0179 21.8195 75.7669 22.6785 79.2889 22.6785C81.3506 22.6785 82.9828 22.1631 84.2713 21.2182C85.5599 20.2732 86.2471 19.0706 86.2471 17.6102C86.2471 16.1499 85.6458 15.119 84.4431 14.5177C83.67 14.0882 82.3814 13.6587 80.4916 13.2291L77.4849 12.456C74.736 11.7688 72.7602 10.9956 71.6435 10.1366C70.5267 9.27757 70.0113 8.16083 70.0113 6.61457C70.0113 4.63879 70.8704 3.09252 72.5025 1.88988C74.1347 0.687228 76.2823 0.0859034 78.8594 0.0859034C82.2096 0.0859034 85.6458 0.859034 89.1678 2.4912L87.7933 6.01324ZM115.97 0.601324C116.485 0.687228 117.172 0.773131 117.945 0.773131C118.719 0.773131 119.492 0.687228 120.265 0.601324V0.859035C119.578 1.11675 119.062 1.54626 118.89 2.06168C118.633 2.66301 118.547 3.86566 118.547 5.66963V12.8855C118.547 17.4384 118.719 20.2732 119.148 21.4759C119.406 22.1631 119.921 22.5926 120.78 22.8503V23.108C119.664 23.0221 118.289 22.9362 116.657 22.9362C115.368 22.9362 114.252 23.0221 113.478 23.108V22.8503C114.252 22.5926 114.853 22.1631 115.111 21.4759C115.54 20.445 115.712 17.6102 115.712 12.8855V3.17843L105.833 23.6235L96.126 2.92072V12.1983C96.126 17.2666 96.2978 20.1873 96.7273 21.0463C97.0709 21.8195 97.6722 22.4208 98.6172 22.8503V23.108C97.6722 23.0221 96.5555 22.9362 95.2669 22.9362C94.1502 22.9362 93.2912 23.0221 92.6898 23.108V22.8503C93.5489 22.5067 94.1502 21.9054 94.4938 21.2182C94.8374 20.5309 95.0092 18.9847 95.181 16.5794C95.181 16.4935 95.181 15.2908 95.2669 12.8855C95.2669 12.456 95.2669 12.0265 95.2669 11.5111V10.3943C95.2669 9.70709 95.2669 9.27757 95.2669 9.01986V5.66963C95.2669 3.69385 95.0951 2.4053 94.6656 1.80397C94.4079 1.46036 93.9784 1.11675 93.2912 0.859035V0.601324C93.9784 0.687228 94.7515 0.773131 95.6965 0.773131C96.6414 0.773131 97.5004 0.687228 98.2736 0.601324L107.122 18.727L115.97 0.601324ZM150.073 11.8547C150.073 15.2049 148.871 17.9538 146.465 20.1873C144.06 22.4208 140.968 23.5375 137.274 23.5375C133.58 23.5375 130.573 22.4208 128.082 20.1873C125.591 17.9538 124.388 15.119 124.388 11.8547C124.388 8.50444 125.591 5.66963 128.082 3.43614C130.573 1.20265 133.666 0.171807 137.36 0.171807C140.882 0.171807 143.888 1.28855 146.38 3.52204C148.871 5.66963 150.073 8.50444 150.073 11.8547ZM128.082 11.8547C128.082 15.2049 128.855 17.8679 130.401 19.7578C132.034 21.8195 134.353 22.8503 137.188 22.8503C140.023 22.8503 142.256 21.9054 143.888 19.9296C145.52 17.9538 146.294 15.2908 146.294 11.9406C146.294 8.41854 145.52 5.75553 143.888 3.86566C142.256 1.88988 140.023 0.944938 137.016 0.944938C134.267 0.944938 132.034 1.97578 130.316 4.03746C128.855 5.84144 128.082 8.41854 128.082 11.8547ZM174.298 6.01324L174.04 5.92734C174.04 4.46698 173.181 3.26433 171.463 2.31939C169.745 1.37446 167.684 0.859035 165.278 0.859035C163.646 0.859035 162.272 1.28855 161.155 2.06168C159.952 3.00662 159.351 4.12337 159.351 5.41192C159.351 6.52866 159.78 7.3877 160.725 8.07493C161.584 8.76215 163.045 9.27757 165.192 9.70709L167.769 10.2225C170.862 10.9097 172.924 11.6829 174.126 12.6278C175.243 13.4868 175.844 14.6895 175.844 16.3217C175.844 18.2974 174.899 20.0155 173.01 21.39C171.12 22.7644 168.8 23.4516 166.137 23.4516C162.014 23.4516 157.976 22.5067 154.111 20.5309L155.657 16.6653L155.829 16.7512C156.001 18.0397 156.516 19.0706 157.375 19.9296C159.523 21.8195 162.272 22.6785 165.794 22.6785C167.855 22.6785 169.488 22.1631 170.776 21.2182C172.065 20.2732 172.752 19.0706 172.752 17.6102C172.752 16.1499 172.151 15.119 170.948 14.5177C170.175 14.0882 168.886 13.6587 166.996 13.2291L163.99 12.456C161.241 11.7688 159.265 10.9956 158.148 10.1366C157.032 9.27757 156.516 8.16083 156.516 6.61457C156.516 4.63879 157.375 3.09252 159.007 1.88988C160.639 0.601324 162.787 0 165.278 0C168.629 0 172.065 0.773131 175.587 2.4053L174.298 6.01324ZM180.225 9.62119L179.538 0.687227H182.115L181.342 9.62119H180.225ZM185.208 9.62119L184.521 0.687227H187.012L186.325 9.62119H185.208ZM207.629 22.7644C208.917 22.5067 209.69 21.6477 209.948 20.3591C210.206 18.8129 210.292 15.2908 210.292 9.70709V5.66963C210.292 3.77975 210.206 2.66301 210.12 2.31939C209.948 1.71807 209.261 1.46036 208.058 1.46036C206.254 1.46036 204.794 1.71807 203.591 2.23349C202.389 2.74891 201.186 3.69385 200.069 4.9824H199.811L201.272 0.773131H222.232L223.693 4.9824H223.435C222.318 3.69385 221.116 2.74891 219.913 2.23349C218.71 1.71807 217.164 1.46036 215.36 1.46036C214.071 1.46036 213.384 1.80397 213.298 2.5771C213.212 2.92072 213.127 3.95156 213.127 5.66963V9.62119C213.127 15.2049 213.212 18.8129 213.47 20.2732C213.728 21.6477 214.501 22.4208 215.79 22.6785V22.9362C214.93 22.8503 213.556 22.7644 211.752 22.7644C209.948 22.7644 208.574 22.8503 207.715 22.9362V22.7644H207.629ZM230.393 12.0265C230.393 15.7203 230.909 18.2974 231.853 19.8437C233.142 21.8195 235.29 22.7644 238.468 22.7644C241.561 22.7644 243.708 21.9913 244.997 20.3591C246.285 18.8129 246.887 16.0639 246.887 12.2842V9.10577C246.887 5.75553 246.629 3.52204 246.028 2.4053C245.684 1.71807 245.083 1.28855 244.138 0.944938V0.601324C244.911 0.687228 245.77 0.773131 246.801 0.773131C248.003 0.773131 249.12 0.687228 250.065 0.601324V0.859035C248.948 1.20265 248.261 1.88988 248.003 2.92072C247.746 3.69385 247.66 5.84143 247.66 9.53528V12.7137C247.66 16.4076 247.058 19.0706 245.77 20.7027C244.224 22.5926 241.646 23.5375 238.038 23.5375C234.774 23.5375 232.111 22.9362 230.221 21.6477C229.19 20.9604 228.503 20.1014 228.074 18.9847C227.644 17.8679 227.472 16.3217 227.472 14.3459C227.472 13.1432 227.472 12.3701 227.472 12.1124V11.3393C227.472 10.9956 227.472 10.8238 227.472 10.652C227.472 10.5661 227.472 10.3943 227.472 10.2225V5.75553C227.472 3.95156 227.386 2.74891 227.129 2.14759C226.957 1.54626 226.442 1.11674 225.754 0.944938V0.601324C226.527 0.687228 227.472 0.773131 228.503 0.773131C229.792 0.773131 230.994 0.687228 232.197 0.601324V0.859035C231.338 1.03084 230.823 1.46036 230.565 2.06168C230.307 2.66301 230.135 3.86566 230.135 5.66963V12.0265H230.393ZM258.312 12.8855C258.312 17.5243 258.484 20.3591 258.913 21.39C259.171 22.0772 259.686 22.5067 260.459 22.7644V23.0221C259.343 22.9362 257.882 22.8503 256.25 22.8503C254.961 22.8503 253.845 22.9362 253.072 23.0221V22.7644C253.673 22.5926 254.102 22.4208 254.446 22.0772C254.79 21.7336 254.961 21.1323 255.219 20.3591C255.477 18.9847 255.563 15.4626 255.563 9.793V5.66963C255.563 3.86566 255.477 2.66301 255.219 2.06168C254.961 1.46036 254.532 1.03084 253.759 0.859035V0.687227H263.552C268.792 0.687227 272.142 1.28855 273.603 2.5771C274.719 3.52204 275.321 4.63879 275.321 6.01324C275.321 7.04408 274.977 7.98902 274.376 8.76215C273.774 9.53528 272.915 10.2225 271.799 10.652C270.854 10.9956 269.393 11.2534 267.417 11.4252C269.479 11.9406 271.025 12.7137 271.97 13.4868C272.915 14.3459 273.774 15.8062 274.462 17.8679C275.149 19.7578 275.75 21.0464 276.18 21.6477C276.609 22.3349 277.21 22.6785 277.898 22.7644V23.0221C277.125 22.9362 276.266 22.8503 275.149 22.8503C274.29 22.8503 273.603 22.9362 273.001 23.0221C272.486 22.1631 271.799 20.3591 270.94 17.6961C269.823 14.4318 268.448 12.5419 266.73 12.0265C265.957 11.7688 264.411 11.597 262.263 11.597H258.312V12.8855ZM262.951 10.9097C266.301 10.9097 268.62 10.4802 269.909 9.53528C271.025 8.67625 271.541 7.4736 271.541 5.92734C271.541 4.12337 270.94 2.92072 269.651 2.31939C268.534 1.71807 266.473 1.46036 263.552 1.46036H258.226V10.9097H262.951ZM287.691 12.2842L286.488 14.6895C284.856 17.8679 284.083 19.8437 284.083 20.7027C284.083 21.6477 284.684 22.3349 285.887 22.7644V23.0221C284.942 22.9362 283.739 22.8503 282.365 22.8503C281.248 22.8503 280.303 22.9362 279.616 23.0221V22.7644C280.561 22.249 281.42 21.3041 282.279 20.0155C283.138 18.727 284.598 16.2358 286.488 12.7137L293.274 0L299.545 12.2842L301.435 15.8062L303.325 19.3283C304.356 21.0463 305.387 22.1631 306.589 22.7644V23.0221C305.473 22.9362 304.012 22.8503 302.38 22.8503C301.092 22.8503 299.975 22.9362 299.116 23.0221V22.7644C299.975 22.5926 300.404 22.0772 300.404 21.3041C300.404 20.5309 299.975 19.2424 299.116 17.5243L296.453 12.2842H287.691ZM292.158 3.95156L288.12 11.5111H296.109L292.158 3.95156ZM313.891 12.8855C313.891 17.5243 314.063 20.3591 314.493 21.39C314.75 22.0772 315.266 22.5067 316.039 22.7644V23.0221C314.922 22.9362 313.462 22.8503 311.83 22.8503C310.541 22.8503 309.424 22.9362 308.651 23.0221V22.7644C309.252 22.5926 309.682 22.4208 310.026 22.0772C310.369 21.7336 310.541 21.1323 310.799 20.3591C311.056 18.9847 311.142 15.4626 311.142 9.793V5.66963C311.142 3.86566 311.056 2.66301 310.799 2.06168C310.541 1.46036 310.111 1.03084 309.338 0.859035V0.687227H319.131C324.371 0.687227 327.722 1.28855 329.182 2.5771C330.299 3.52204 330.9 4.63879 330.9 6.01324C330.9 7.04408 330.557 7.98902 329.955 8.76215C329.354 9.53528 328.495 10.2225 327.378 10.652C326.433 10.9956 324.973 11.2534 322.997 11.4252C325.059 11.9406 326.605 12.7137 327.55 13.4868C328.495 14.3459 329.354 15.8062 330.041 17.8679C330.728 19.7578 331.33 21.0464 331.759 21.6477C332.189 22.3349 332.79 22.6785 333.477 22.7644V23.0221C332.704 22.9362 331.845 22.8503 330.728 22.8503C329.869 22.8503 329.182 22.9362 328.581 23.0221C328.065 22.1631 327.378 20.3591 326.519 17.6961C325.402 14.4318 324.028 12.5419 322.31 12.0265C321.537 11.7688 319.99 11.597 317.843 11.597H313.891V12.8855ZM318.53 10.9097C321.88 10.9097 324.2 10.4802 325.488 9.53528C326.605 8.67625 327.12 7.4736 327.12 5.92734C327.12 4.12337 326.519 2.92072 325.23 2.31939C324.114 1.71807 322.052 1.46036 319.131 1.46036H313.805V10.9097H318.53ZM339.92 10.8238L339.662 12.3701H334.938L335.195 10.8238H339.92ZM342.068 19.2424L342.239 19.3283C343.098 21.39 344.301 22.4208 346.019 22.4208C347.394 22.4208 348.339 21.6477 348.854 20.0155C349.369 18.6411 349.713 15.3767 349.713 10.3943V5.75553C349.713 3.95156 349.627 2.74891 349.369 2.14759C349.198 1.54626 348.682 1.11674 347.995 0.944938V0.601324C348.768 0.687228 349.627 0.773131 350.658 0.773131C351.861 0.773131 352.977 0.687228 354.094 0.601324V0.859035C353.407 1.03084 352.977 1.46036 352.72 2.06168C352.462 2.66301 352.376 3.86566 352.376 5.66963V9.27757C352.376 9.44938 352.376 9.70709 352.376 10.1366V10.9097C352.376 11.2534 352.376 11.5111 352.376 11.7688V13.1432C352.376 16.0639 351.861 18.3833 350.744 19.9296C349.971 20.9604 349.026 21.8195 347.823 22.5067C346.62 23.1939 345.418 23.4516 344.215 23.4516C342.927 23.4516 341.724 23.108 340.779 22.5067L342.068 19.2424ZM383.731 11.8547C383.731 15.2049 382.528 17.9538 380.123 20.1873C377.718 22.4208 374.625 23.5375 370.931 23.5375C367.237 23.5375 364.231 22.4208 361.739 20.1873C359.248 17.9538 358.046 15.119 358.046 11.8547C358.046 8.50444 359.248 5.66963 361.739 3.43614C364.231 1.20265 367.323 0.171807 371.017 0.171807C374.539 0.171807 377.546 1.28855 380.037 3.52204C382.528 5.66963 383.731 8.50444 383.731 11.8547ZM361.739 11.8547C361.739 15.2049 362.513 17.8679 364.059 19.7578C365.691 21.8195 368.01 22.8503 370.845 22.8503C373.68 22.8503 375.914 21.9054 377.546 19.9296C379.178 17.9538 379.951 15.2908 379.951 11.9406C379.951 8.41854 379.178 5.75553 377.546 3.86566C375.914 1.88988 373.68 0.944938 370.673 0.944938C367.925 0.944938 365.691 1.97578 363.973 4.03746C362.513 5.84144 361.739 8.41854 361.739 11.8547ZM399.451 18.0397C399.451 19.8437 399.623 21.0464 399.881 21.6477C400.138 22.249 400.74 22.5926 401.599 22.7644V23.0221C400.482 22.9362 399.193 22.8503 397.561 22.8503C396.273 22.8503 395.328 22.9362 394.469 23.0221V22.7644C395.328 22.5926 395.843 22.249 396.101 21.7336C396.359 21.2182 396.53 20.1873 396.53 18.6411V13.4009L391.033 6.27095C390.259 5.15421 389.658 4.38108 389.314 3.95156C388.026 2.14759 386.823 1.11674 385.707 0.773131V0.601324C386.652 0.687228 387.768 0.773131 389.143 0.773131C390.775 0.773131 392.235 0.687228 393.524 0.601324V0.859035C392.579 1.20265 392.063 1.71807 392.063 2.4912C392.063 3.09252 392.407 3.77975 393.008 4.72469C393.094 4.81059 393.18 4.9824 393.352 5.24011L393.524 5.41192L393.696 5.58373C393.781 5.75553 393.953 5.92734 394.039 6.01324L394.297 6.35686L394.555 6.70047L394.726 6.87228L394.898 7.04408C394.984 7.12999 394.984 7.21589 395.07 7.21589L399.107 12.1124L401.685 9.10577C403.317 7.21589 404.519 5.58372 405.378 4.20927C405.722 3.60795 405.894 3.00662 405.894 2.4912C405.894 2.06168 405.808 1.71807 405.636 1.46036C405.464 1.28855 405.121 1.03084 404.519 0.773131V0.601324C405.293 0.687228 406.237 0.773131 407.354 0.773131C408.643 0.773131 409.845 0.687228 410.876 0.601324V0.859035C409.674 1.37446 407.268 3.77975 403.66 8.16083L399.623 12.9714V18.0397H399.451ZM445.753 0.601324C446.268 0.687228 446.956 0.773131 447.729 0.773131C448.502 0.773131 449.275 0.687228 450.048 0.601324V0.859035C449.361 1.11675 448.846 1.54626 448.674 2.06168C448.416 2.66301 448.33 3.86566 448.33 5.66963V12.8855C448.33 17.4384 448.502 20.2732 448.931 21.4759C449.189 22.1631 449.705 22.5926 450.564 22.8503V23.108C449.447 23.0221 448.072 22.9362 446.44 22.9362C445.152 22.9362 444.035 23.0221 443.262 23.108V22.8503C444.035 22.5926 444.636 22.1631 444.894 21.4759C445.324 20.445 445.495 17.6102 445.495 12.8855V3.17843L435.616 23.6235L425.909 2.92072V12.1983C425.909 17.2666 426.081 20.1873 426.511 21.0463C426.854 21.8195 427.456 22.4208 428.401 22.8503V23.108C427.456 23.0221 426.339 22.9362 425.05 22.9362C423.934 22.9362 423.075 23.0221 422.473 23.108V22.8503C423.332 22.5067 423.934 21.9054 424.277 21.2182C424.621 20.5309 424.793 18.9847 424.964 16.5794C424.964 16.4935 424.964 15.2908 425.05 12.8855C425.05 12.456 425.05 12.0265 425.05 11.5111V10.3943C425.05 9.70709 425.05 9.27757 425.05 9.01986V5.66963C425.05 3.69385 424.879 2.4053 424.449 1.80397C424.191 1.46036 423.762 1.11675 423.075 0.859035V0.601324C423.762 0.687228 424.535 0.773131 425.48 0.773131C426.425 0.773131 427.284 0.687228 428.057 0.601324L436.905 18.727L445.753 0.601324ZM460.7 12.2842L459.498 14.6895C457.865 17.8679 457.092 19.8437 457.092 20.7027C457.092 21.6477 457.694 22.3349 458.896 22.7644V23.0221C457.951 22.9362 456.749 22.8503 455.374 22.8503C454.257 22.8503 453.313 22.9362 452.625 23.0221V22.7644C453.57 22.249 454.429 21.3041 455.288 20.0155C456.147 18.727 457.608 16.2358 459.498 12.7137L466.284 0L472.555 12.2842L474.445 15.8062L476.335 19.3283C477.366 21.0463 478.396 22.1631 479.599 22.7644V23.0221C478.482 22.9362 477.022 22.8503 475.39 22.8503C474.101 22.8503 472.984 22.9362 472.125 23.0221V22.7644C472.984 22.5926 473.414 22.0772 473.414 21.3041C473.414 20.5309 472.984 19.2424 472.125 17.5243L469.462 12.2842H460.7ZM465.167 3.95156L461.13 11.5111H469.119L465.167 3.95156ZM482.004 19.2424L482.176 19.3283C483.035 21.39 484.238 22.4208 485.956 22.4208C487.33 22.4208 488.275 21.6477 488.791 20.0155C489.306 18.6411 489.65 15.3767 489.65 10.3943V5.75553C489.65 3.95156 489.564 2.74891 489.306 2.14759C489.134 1.54626 488.619 1.11674 487.932 0.944938V0.601324C488.705 0.687228 489.564 0.773131 490.595 0.773131C491.797 0.773131 492.914 0.687228 494.031 0.601324V0.859035C493.344 1.03084 492.914 1.46036 492.656 2.06168C492.399 2.66301 492.313 3.86566 492.313 5.66963V9.27757C492.313 9.44938 492.313 9.70709 492.313 10.1366V10.9097C492.313 11.2534 492.313 11.5111 492.313 11.7688V13.1432C492.313 16.0639 491.797 18.3833 490.681 19.9296C489.907 20.9604 488.963 21.8195 487.76 22.5067C486.557 23.1939 485.355 23.4516 484.152 23.4516C482.863 23.4516 481.661 23.108 480.716 22.5067L482.004 19.2424ZM520.833 0.601324C521.348 0.687228 522.035 0.773131 522.808 0.773131C523.582 0.773131 524.355 0.687228 525.128 0.601324V0.859035C524.441 1.11675 523.925 1.54626 523.753 2.06168C523.496 2.66301 523.41 3.86566 523.41 5.66963V12.8855C523.41 17.4384 523.582 20.2732 524.011 21.4759C524.269 22.1631 524.784 22.5926 525.643 22.8503V23.108C524.527 23.0221 523.152 22.9362 521.52 22.9362C520.231 22.9362 519.115 23.0221 518.341 23.108V22.8503C519.115 22.5926 519.716 22.1631 519.974 21.4759C520.403 20.445 520.575 17.6102 520.575 12.8855V3.17843L510.696 23.6235L500.989 2.92072V12.1983C500.989 17.2666 501.161 20.1873 501.59 21.0463C501.934 21.8195 502.535 22.4208 503.48 22.8503V23.108C502.535 23.0221 501.419 22.9362 500.13 22.9362C499.013 22.9362 498.154 23.0221 497.553 23.108V22.8503C498.412 22.5067 499.013 21.9054 499.357 21.2182C499.7 20.5309 499.872 18.9847 500.044 16.5794C500.044 16.4935 500.044 15.2908 500.13 12.8855C500.13 12.456 500.13 12.0265 500.13 11.5111V10.3943C500.13 9.70709 500.13 9.27757 500.13 9.01986V5.66963C500.13 3.69385 499.958 2.4053 499.529 1.80397C499.271 1.46036 498.841 1.11675 498.154 0.859035V0.601324C498.841 0.687228 499.615 0.773131 500.56 0.773131C501.504 0.773131 502.363 0.687228 503.137 0.601324L511.985 18.727L520.833 0.601324ZM533.117 12.0265C533.117 15.7203 533.632 18.2974 534.577 19.8437C535.866 21.8195 538.013 22.7644 541.192 22.7644C544.284 22.7644 546.432 21.9913 547.72 20.3591C549.009 18.8129 549.61 16.0639 549.61 12.2842V9.10577C549.61 5.75553 549.353 3.52204 548.751 2.4053C548.408 1.71807 547.806 1.28855 546.861 0.944938V0.601324C547.635 0.687228 548.494 0.773131 549.524 0.773131C550.727 0.773131 551.844 0.687228 552.789 0.601324V0.859035C551.672 1.20265 550.985 1.88988 550.727 2.92072C550.469 3.69385 550.384 5.84143 550.384 9.53528V12.7137C550.384 16.4076 549.782 19.0706 548.494 20.7027C546.947 22.5926 544.37 23.5375 540.762 23.5375C537.498 23.5375 534.835 22.9362 532.945 21.6477C531.914 20.9604 531.227 20.1014 530.797 18.9847C530.368 17.8679 530.196 16.3217 530.196 14.3459C530.196 13.1432 530.196 12.3701 530.196 12.1124V11.3393C530.196 10.9956 530.196 10.8238 530.196 10.652C530.196 10.5661 530.196 10.3943 530.196 10.2225V5.75553C530.196 3.95156 530.11 2.74891 529.853 2.14759C529.681 1.54626 529.165 1.11674 528.478 0.944938V0.601324C529.251 0.687228 530.196 0.773131 531.227 0.773131C532.516 0.773131 533.718 0.687228 534.921 0.601324V0.859035C534.062 1.03084 533.546 1.46036 533.289 2.06168C533.031 2.66301 532.859 3.86566 532.859 5.66963V12.0265H533.117ZM562.496 12.2842L561.293 14.6895C559.661 17.8679 558.888 19.8437 558.888 20.7027C558.888 21.6477 559.489 22.3349 560.692 22.7644V23.0221C559.747 22.9362 558.544 22.8503 557.17 22.8503C556.053 22.8503 555.108 22.9362 554.421 23.0221V22.7644C555.366 22.249 556.225 21.3041 557.084 20.0155C557.943 18.727 559.403 16.2358 561.293 12.7137L568.08 0L574.351 12.2842L576.24 15.8062L578.13 19.3283C579.161 21.0463 580.278 22.1631 581.395 22.7644V23.0221C580.278 22.9362 578.818 22.8503 577.185 22.8503C575.897 22.8503 574.78 22.9362 573.921 23.0221V22.7644C574.78 22.5926 575.21 22.0772 575.21 21.3041C575.21 20.5309 574.78 19.2424 573.921 17.5243L571.258 12.2842H562.496ZM566.963 3.95156L562.925 11.5111H570.914L566.963 3.95156ZM604.159 6.01324L603.901 5.92734C603.901 4.46698 603.042 3.26433 601.324 2.31939C599.606 1.37446 597.545 0.859035 595.139 0.859035C593.507 0.859035 592.133 1.28855 591.016 2.06168C589.813 3.00662 589.212 4.12337 589.212 5.41192C589.212 6.52866 589.641 7.3877 590.586 8.07493C591.445 8.76215 592.906 9.27757 595.053 9.70709L597.63 10.2225C600.723 10.9097 602.785 11.6829 603.987 12.6278C605.104 13.4868 605.705 14.6895 605.705 16.3217C605.705 18.2974 604.76 20.0155 602.87 21.39C600.981 22.7644 598.661 23.4516 595.998 23.4516C591.875 23.4516 587.837 22.5067 583.972 20.5309L585.518 16.6653L585.69 16.7512C585.862 18.0397 586.377 19.0706 587.236 19.9296C589.384 21.8195 592.133 22.6785 595.655 22.6785C597.716 22.6785 599.348 22.1631 600.637 21.2182C601.926 20.2732 602.613 19.0706 602.613 17.6102C602.613 16.1499 602.011 15.119 600.809 14.5177C600.036 14.0882 598.747 13.6587 596.857 13.2291L593.851 12.456C591.102 11.7688 589.126 10.9956 588.009 10.1366C586.892 9.27757 586.377 8.16083 586.377 6.61457C586.377 4.63879 587.236 3.09252 588.868 1.88988C590.5 0.601324 592.648 0 595.139 0C598.489 0 601.926 0.773131 605.448 2.4053L604.159 6.01324ZM616.271 23.0221C615.241 22.9362 613.952 22.8503 612.32 22.8503C611.117 22.8503 610.086 22.9362 609.313 23.0221V22.7644C609.829 22.5926 610.258 22.3349 610.516 22.0772C610.774 21.7336 611.031 21.1323 611.117 20.3591C611.289 19.0706 611.375 15.4626 611.375 9.70709V5.66963C611.375 3.95156 611.289 2.74891 611.117 2.06168C610.945 1.46036 610.602 1.03084 609.915 0.859035V0.601324C610.602 0.687228 611.375 0.773131 612.406 0.773131C613.608 0.773131 614.639 0.687228 615.584 0.601324V0.859035C614.983 1.11675 614.553 1.54626 614.382 2.06168C614.21 2.74891 614.124 3.95156 614.124 5.66963V9.70709C614.124 15.4626 614.21 19.0706 614.382 20.3591C614.553 21.1323 614.725 21.7336 614.983 22.0772C615.241 22.3349 615.584 22.5926 616.1 22.6785V23.0221H616.271ZM632.937 10.8238L632.679 12.3701H627.954L628.212 10.8238H632.937ZM665.408 6.01324L665.151 5.92734C665.151 4.46698 664.291 3.26433 662.573 2.31939C660.855 1.37446 658.794 0.859035 656.388 0.859035C654.756 0.859035 653.382 1.28855 652.265 2.06168C651.062 3.00662 650.461 4.12337 650.461 5.41192C650.461 6.52866 650.891 7.3877 651.836 8.07493C652.695 8.76215 654.155 9.27757 656.302 9.70709L658.88 10.2225C661.972 10.9097 664.034 11.6829 665.236 12.6278C666.353 13.4868 666.954 14.6895 666.954 16.3217C666.954 18.2974 666.01 20.0155 664.12 21.39C662.23 22.7644 659.91 23.4516 657.247 23.4516C653.124 23.4516 649.087 22.5067 645.221 20.5309L646.767 16.6653L646.939 16.7512C647.111 18.0397 647.626 19.0706 648.485 19.9296C650.633 21.8195 653.382 22.6785 656.904 22.6785C658.965 22.6785 660.598 22.1631 661.886 21.2182C663.175 20.2732 663.862 19.0706 663.862 17.6102C663.862 16.1499 663.261 15.119 662.058 14.5177C661.285 14.0882 659.996 13.6587 658.106 13.2291L655.1 12.456C652.351 11.7688 650.375 10.9956 649.258 10.1366C648.142 9.27757 647.626 8.16083 647.626 6.61457C647.626 4.63879 648.485 3.09252 650.117 1.88988C651.75 0.601324 653.897 0 656.388 0C659.739 0 663.175 0.773131 666.697 2.4053L665.408 6.01324ZM677.521 23.0221C676.49 22.9362 675.201 22.8503 673.569 22.8503C672.366 22.8503 671.336 22.9362 670.562 23.0221V22.7644C671.078 22.5926 671.507 22.3349 671.765 22.0772C672.023 21.7336 672.281 21.1323 672.366 20.3591C672.538 19.0706 672.624 15.4626 672.624 9.70709V5.66963C672.624 3.95156 672.538 2.74891 672.366 2.06168C672.195 1.46036 671.851 1.03084 671.164 0.859035V0.601324C671.851 0.687228 672.624 0.773131 673.655 0.773131C674.858 0.773131 675.888 0.687228 676.833 0.601324V0.859035C676.232 1.11675 675.803 1.54626 675.631 2.06168C675.459 2.74891 675.373 3.95156 675.373 5.66963V9.70709C675.373 15.4626 675.459 19.0706 675.631 20.3591C675.803 21.1323 675.974 21.7336 676.232 22.0772C676.49 22.3349 676.833 22.5926 677.349 22.6785V23.0221H677.521ZM701.745 5.41192C700.715 3.95156 699.34 2.83481 697.536 2.23349C695.732 1.63217 693.069 1.37445 689.461 1.37445H685.853V10.9956H690.148C693.155 10.9956 695.217 10.8238 696.162 10.4802C697.193 10.1366 697.88 9.36348 698.223 8.24673H698.481V14.5177H698.223C697.794 13.4868 697.107 12.7996 696.248 12.456C694.959 12.0265 692.983 11.7688 690.148 11.7688H685.681V12.9714C685.681 17.5243 685.939 20.3591 686.455 21.4759C686.798 22.1631 687.4 22.5926 688.344 22.8503V23.108C687.056 23.0221 685.596 22.9362 683.706 22.9362C682.331 22.9362 681.3 23.0221 680.527 23.108V22.8503C681.215 22.6785 681.644 22.4208 681.902 22.1631C682.245 21.8195 682.417 21.3041 682.675 20.445C682.933 19.0706 683.018 15.5485 683.018 9.8789V6.01324C683.018 4.12337 682.933 2.92072 682.675 2.31939C682.417 1.71807 681.988 1.28855 681.214 1.03084V0.687227H700.629L701.917 5.32601L701.745 5.41192ZM711.195 12.2842L709.992 14.6895C708.36 17.8679 707.587 19.8437 707.587 20.7027C707.587 21.6477 708.188 22.3349 709.391 22.7644V23.0221C708.446 22.9362 707.243 22.8503 705.869 22.8503C704.752 22.8503 703.807 22.9362 703.12 23.0221V22.7644C704.065 22.249 704.924 21.3041 705.869 20.0155C706.728 18.727 708.188 16.2358 710.078 12.7137L716.864 0L723.135 12.2842L725.025 15.8062L726.915 19.3283C727.946 21.0463 728.977 22.1631 730.179 22.7644V23.0221C729.063 22.9362 727.602 22.8503 725.97 22.8503C724.682 22.8503 723.565 22.9362 722.706 23.0221V22.7644C723.565 22.5926 723.994 22.0772 723.994 21.3041C723.994 20.5309 723.565 19.2424 722.706 17.5243L720.043 12.2842H711.195ZM715.748 3.95156L711.71 11.5111H719.699L715.748 3.95156ZM739.457 22.7644C740.746 22.5067 741.519 21.6477 741.776 20.3591C742.034 18.8129 742.12 15.2908 742.12 9.70709V5.66963C742.12 3.77975 742.034 2.66301 741.948 2.31939C741.776 1.71807 741.089 1.46036 739.887 1.46036C738.083 1.46036 736.622 1.71807 735.42 2.23349C734.217 2.74891 733.014 3.69385 731.898 4.9824H731.64L733.1 0.773131H754.061L755.521 4.9824H755.263C754.147 3.69385 752.944 2.74891 751.741 2.23349C750.539 1.71807 748.992 1.46036 747.188 1.46036C745.9 1.46036 745.213 1.80397 745.127 2.5771C745.041 2.92072 744.955 3.95156 744.955 5.66963V9.62119C744.955 15.2049 745.041 18.8129 745.298 20.2732C745.556 21.6477 746.329 22.4208 747.618 22.6785V22.9362C746.759 22.8503 745.384 22.7644 743.58 22.7644C741.776 22.7644 740.402 22.8503 739.543 22.9362V22.7644H739.457ZM783.44 14.6895C784.9 11.7688 786.274 8.93396 787.477 6.18505C788.164 4.63879 788.508 3.52204 788.508 2.83481C788.508 2.31939 788.336 1.88988 788.078 1.54626C787.821 1.28855 787.305 1.03084 786.532 0.773131V0.601324C787.305 0.687228 788.164 0.773131 789.281 0.773131C790.57 0.773131 791.686 0.687228 792.717 0.601324V0.859035C791.858 1.28855 791.171 2.06168 790.484 3.09252C789.711 4.38108 788.422 6.70047 786.704 10.0507L779.746 23.5375L773.818 11.7688C772.788 9.62119 771.327 6.95818 769.695 3.77975C768.836 2.23349 767.891 1.28855 766.86 0.773131V0.601324C767.719 0.687228 768.75 0.773131 769.867 0.773131C771.241 0.773131 772.53 0.687228 773.647 0.601324V0.859035C772.788 1.11675 772.444 1.63217 772.444 2.31939C772.444 3.26433 775.279 8.84806 781.034 19.0706L783.44 14.6895ZM801.823 12.2842L800.62 14.6895C798.988 17.8679 798.215 19.8437 798.215 20.7027C798.215 21.6477 798.816 22.3349 800.019 22.7644V23.0221C799.074 22.9362 797.871 22.8503 796.497 22.8503C795.38 22.8503 794.435 22.9362 793.748 23.0221V22.7644C794.693 22.249 795.552 21.3041 796.411 20.0155C797.27 18.727 798.73 16.2358 800.62 12.7137L807.407 0L813.678 12.2842L815.567 15.8062L817.457 19.3283C818.488 21.0463 819.605 22.1631 820.722 22.7644V23.0221C819.605 22.9362 818.145 22.8503 816.512 22.8503C815.224 22.8503 814.107 22.9362 813.248 23.0221V22.7644C814.107 22.5926 814.537 22.0772 814.537 21.3041C814.537 20.5309 814.107 19.2424 813.248 17.5243L810.585 12.2842H801.823ZM806.29 3.95156L802.252 11.5111H810.242L806.29 3.95156ZM840.394 25.9428C841.854 24.9979 843.486 24.1389 845.29 23.5375C842.541 23.3657 840.222 22.6785 838.246 21.39C836.614 20.2732 835.325 18.8988 834.466 17.2666C833.521 15.5485 833.092 13.7446 833.092 11.8547C833.092 8.50444 834.294 5.75553 836.786 3.52204C839.191 1.28855 842.283 0.171807 845.977 0.171807C849.671 0.171807 852.764 1.28855 855.169 3.52204C857.574 5.75553 858.777 8.50444 858.777 11.8547C858.777 15.0331 857.66 17.6961 855.513 19.9296C853.279 22.1631 850.358 23.3657 846.922 23.5375C847.953 23.7953 850.101 24.5684 853.107 25.771C855.427 26.6301 856.973 27.1455 857.574 27.1455C858.09 27.1455 858.605 26.9737 859.292 26.5442L859.55 26.9737C858.347 27.8327 856.887 28.6918 855.169 29.4649C853.709 28.9495 851.046 27.8327 847.18 26.0287C845.891 25.4274 844.946 25.0838 844.173 25.0838C843.228 25.0838 842.026 25.6851 840.651 26.9737L840.394 25.9428ZM836.786 11.8547C836.786 15.2049 837.559 17.8679 839.105 19.7578C840.737 21.8195 843.057 22.8503 845.891 22.8503C848.726 22.8503 850.96 21.9054 852.592 19.9296C854.224 17.9538 854.997 15.2908 854.997 11.9406C854.997 8.41854 854.224 5.75553 852.592 3.86566C850.96 1.88988 848.726 0.944938 845.72 0.944938C842.971 0.944938 840.737 1.97578 839.019 4.03746C837.559 5.84144 836.786 8.41854 836.786 11.8547ZM866.766 12.0265C866.766 15.7203 867.281 18.2974 868.226 19.8437C869.515 21.8195 871.662 22.7644 874.841 22.7644C877.933 22.7644 880.081 21.9913 881.37 20.3591C882.658 18.8129 883.26 16.0639 883.26 12.2842V9.10577C883.26 5.75553 883.002 3.52204 882.4 2.4053C882.057 1.71807 881.455 1.28855 880.51 0.944938V0.601324C881.284 0.687228 882.143 0.773131 883.174 0.773131C884.376 0.773131 885.493 0.687228 886.438 0.601324V0.859035C885.321 1.20265 884.634 1.88988 884.29 2.92072C884.033 3.69385 883.947 5.84143 883.947 9.53528V12.7137C883.947 16.4076 883.345 19.0706 882.057 20.7027C880.511 22.5926 877.933 23.5375 874.325 23.5375C871.061 23.5375 868.398 22.9362 866.508 21.6477C865.477 20.9604 864.79 20.1014 864.361 18.9847C863.931 17.8679 863.759 16.3217 863.759 14.3459C863.759 13.1432 863.759 12.3701 863.759 12.1124V11.3393C863.759 10.9956 863.759 10.8238 863.759 10.652C863.759 10.5661 863.759 10.3943 863.759 10.2225V5.75553C863.759 3.95156 863.673 2.74891 863.416 2.14759C863.244 1.54626 862.728 1.11674 862.041 0.944938V0.601324C862.814 0.687228 863.759 0.773131 864.79 0.773131C866.079 0.773131 867.281 0.687228 868.484 0.601324V0.859035C867.625 1.03084 867.11 1.46036 866.852 2.06168C866.594 2.66301 866.422 3.86566 866.422 5.66963V12.0265H866.766ZM910.319 22.9362H892.623C892.279 22.9362 891.85 22.9362 891.506 22.9362C890.475 22.9362 889.788 22.9362 889.53 22.9362V22.6785C890.819 22.3349 891.592 21.5618 891.85 20.2732C892.108 18.8988 892.279 15.3767 892.279 9.70709V5.66963C892.279 3.95156 892.193 2.66301 891.936 2.06168C891.678 1.46036 891.163 1.03084 890.389 0.859035V0.601324C891.163 0.687228 892.193 0.773131 893.31 0.773131C894.599 0.773131 895.801 0.687228 896.918 0.601324V0.859035C896.145 1.11675 895.63 1.54626 895.372 2.06168C895.114 2.74891 895.028 3.95156 895.028 5.66963V10.0507C895.114 16.6653 895.286 20.2732 895.63 20.8745C896.059 21.8195 897.519 22.249 899.839 22.249C903.876 22.249 906.969 21.6477 909.031 20.445C909.804 20.0155 910.663 19.2424 911.608 18.2974L911.779 18.3833L910.319 22.9362ZM920.628 12.2842L919.425 14.6895C917.793 17.8679 917.019 19.8437 917.019 20.7027C917.019 21.6477 917.621 22.3349 918.824 22.7644V23.0221C917.879 22.9362 916.676 22.8503 915.301 22.8503C914.185 22.8503 913.24 22.9362 912.553 23.0221V22.7644C913.497 22.249 914.356 21.3041 915.216 20.0155C916.075 18.727 917.535 16.2358 919.425 12.7137L926.211 0L932.482 12.2842L934.372 15.8062L936.262 19.3283C937.293 21.0463 938.41 22.1631 939.526 22.7644V23.0221C938.41 22.9362 936.949 22.8503 935.317 22.8503C934.028 22.8503 932.912 22.9362 932.053 23.0221V22.7644C932.912 22.5926 933.341 22.0772 933.341 21.3041C933.341 20.5309 932.912 19.2424 932.053 17.5243L929.39 12.2842H920.628ZM925.094 3.95156L921.057 11.5111H929.046L925.094 3.95156ZM953.7 18.0397C953.7 19.8437 953.872 21.0464 954.13 21.6477C954.388 22.249 954.989 22.5926 955.848 22.7644V23.0221C954.731 22.9362 953.443 22.8503 951.81 22.8503C950.522 22.8503 949.577 22.9362 948.718 23.0221V22.7644C949.577 22.5926 950.092 22.249 950.35 21.7336C950.608 21.2182 950.78 20.1873 950.78 18.6411V13.4009L945.282 6.27095C944.509 5.15421 943.907 4.38108 943.564 3.95156C942.275 2.14759 941.073 1.11674 939.956 0.773131V0.601324C940.901 0.687228 942.017 0.773131 943.392 0.773131C945.024 0.773131 946.484 0.687228 947.773 0.601324V0.859035C946.828 1.20265 946.313 1.71807 946.313 2.4912C946.313 3.09252 946.656 3.77975 947.258 4.72469C947.343 4.81059 947.429 4.9824 947.601 5.24011L947.773 5.41192L947.945 5.58373C948.031 5.75553 948.202 5.92734 948.288 6.01324L948.546 6.35686L948.804 6.70047L948.976 6.87228L949.147 7.04408C949.233 7.12999 949.233 7.21589 949.319 7.21589L953.357 12.1124L955.934 9.10577C957.566 7.21589 958.769 5.58372 959.628 4.20927C959.971 3.60795 960.143 3.00662 960.143 2.4912C960.143 2.06168 960.057 1.71807 959.885 1.46036C959.714 1.28855 959.37 1.03084 958.769 0.773131V0.601324C959.542 0.687228 960.487 0.773131 961.603 0.773131C962.892 0.773131 964.095 0.687228 965.125 0.601324V0.859035C963.923 1.37446 961.518 3.77975 957.91 8.16083L953.872 12.9714V18.0397H953.7ZM987.804 22.9362H970.108C969.764 22.9362 969.335 22.9362 968.991 22.9362C967.96 22.9362 967.273 22.9362 967.015 22.9362V22.6785C968.304 22.3349 969.077 21.5618 969.335 20.2732C969.592 18.8988 969.764 15.3767 969.764 9.70709V5.66963C969.764 3.95156 969.678 2.66301 969.421 2.06168C969.163 1.46036 968.648 1.03084 967.874 0.859035V0.601324C968.648 0.687228 969.678 0.773131 970.795 0.773131C972.084 0.773131 973.286 0.687228 974.403 0.601324V0.859035C973.63 1.11675 973.114 1.54626 972.857 2.06168C972.599 2.74891 972.513 3.95156 972.513 5.66963V10.0507C972.599 16.6653 972.771 20.2732 973.115 20.8745C973.544 21.8195 975.004 22.249 977.324 22.249C981.361 22.249 984.454 21.6477 986.515 20.445C987.289 20.0155 988.148 19.2424 989.093 18.2974L989.264 18.3833L987.804 22.9362ZM998.37 23.0221C997.339 22.9362 996.051 22.8503 994.419 22.8503C993.216 22.8503 992.185 22.9362 991.412 23.0221V22.7644C991.927 22.5926 992.357 22.3349 992.615 22.0772C992.872 21.7336 993.13 21.1323 993.216 20.3591C993.388 19.0706 993.474 15.4626 993.474 9.70709V5.66963C993.474 3.95156 993.388 2.74891 993.216 2.06168C993.044 1.46036 992.7 1.03084 992.013 0.859035V0.601324C992.7 0.687228 993.474 0.773131 994.504 0.773131C995.707 0.773131 996.738 0.687228 997.683 0.601324V0.859035C997.082 1.11675 996.652 1.54626 996.48 2.06168C996.308 2.74891 996.223 3.95156 996.223 5.66963V9.70709C996.223 15.4626 996.308 19.0706 996.48 20.3591C996.652 21.1323 996.824 21.7336 997.082 22.0772C997.339 22.3349 997.683 22.5926 998.198 22.6785V23.0221H998.37ZM1015.98 18.1256C1013.83 14.9472 1012.29 13.0573 1011.34 12.456C1010.57 11.9406 1009.8 11.6829 1008.94 11.6829C1007.39 11.6829 1006.62 12.6278 1006.62 14.6036V15.2049C1006.62 18.727 1006.79 20.9604 1007.22 21.8195C1007.48 22.3349 1007.99 22.7644 1008.76 22.8503V23.108C1007.65 23.0221 1006.27 22.9362 1004.64 22.9362C1003.44 22.9362 1002.49 23.0221 1001.72 23.108V22.8503C1002.24 22.6785 1002.67 22.4208 1002.92 22.1631C1003.18 21.8195 1003.44 21.2182 1003.52 20.445C1003.7 19.1565 1003.78 15.5485 1003.78 9.793V5.75553C1003.78 3.95156 1003.7 2.74891 1003.44 2.14759C1003.27 1.54626 1002.75 1.11674 1002.06 0.944938V0.601324C1002.84 0.687228 1003.7 0.773131 1004.81 0.773131C1005.93 0.773131 1006.96 0.687228 1007.82 0.601324V0.859035C1007.3 1.11675 1006.87 1.46036 1006.79 2.06168C1006.62 2.74891 1006.53 3.95156 1006.53 5.66963V11.4252L1011.17 7.64541C1013.92 5.49782 1015.55 4.12337 1016.15 3.52204C1016.84 2.83481 1017.18 2.31939 1017.18 1.88988C1017.18 1.37446 1016.93 1.03084 1016.32 0.773131V0.601324C1017.1 0.687228 1018.13 0.773131 1019.24 0.773131C1020.62 0.773131 1021.82 0.687228 1022.94 0.601324V0.859035C1020.96 1.63217 1017.35 3.95156 1012.29 7.98902L1008.68 10.7379C1011.34 10.8238 1013.23 11.2534 1014.35 11.8547C1015.46 12.5419 1016.75 13.9164 1018.13 16.0639C1019.93 18.6411 1021.31 20.3591 1022.17 21.2182C1022.94 21.9913 1023.97 22.5067 1025.17 22.8503V23.108C1024.23 23.0221 1023.11 22.9362 1021.74 22.9362C1020.62 22.9362 1019.76 23.0221 1019.07 23.108L1015.98 18.1256ZM2.4053 45.7865C2.4053 45.0134 2.4053 44.4121 2.31939 43.9826C2.23349 43.5531 2.14759 43.1235 2.06168 42.8658C1.88988 42.6081 1.71807 42.4363 1.54626 42.2645C1.37446 42.1786 1.03084 42.0927 0.687228 42.0068V41.4914C1.46036 41.4914 2.23349 41.4914 3.00662 41.5773C3.77975 41.6632 4.55288 41.6632 5.32601 41.6632C6.09915 41.6632 6.87228 41.6632 7.64541 41.5773C8.41854 41.4914 9.27757 41.4914 10.0507 41.4914V42.0068C9.70709 42.0927 9.36348 42.1786 9.19167 42.3504C8.93396 42.5222 8.76215 42.694 8.67625 42.9517C8.50444 43.2094 8.41854 43.5531 8.41854 43.9826C8.33264 44.4121 8.33264 45.0134 8.33264 45.7006V51.1126L13.6587 46.2161C13.8305 46.0443 14.0023 45.8725 14.1741 45.6147C14.3459 45.357 14.5177 45.0993 14.6895 44.8416C14.8613 44.5839 14.9472 44.3262 15.0331 44.0685C15.119 43.8108 15.2049 43.639 15.2049 43.4672C15.2049 42.9517 15.0331 42.6081 14.7754 42.3504C14.4318 42.4363 14.0882 42.2645 13.5727 42.0927V41.4914C14.3459 41.4914 15.119 41.4914 15.8921 41.5773C16.6653 41.6632 17.4384 41.6632 18.2115 41.6632C18.9847 41.6632 19.7578 41.6632 20.5309 41.5773C21.3041 41.4914 22.0772 41.4914 22.8503 41.4914V42.1786C21.6477 42.6081 20.445 43.2094 19.4142 43.8967C18.2974 44.5839 17.2666 45.2711 16.2358 46.0443L10.2225 50.9408V51.0267C11.2534 51.0267 12.1124 51.1126 12.9714 51.1985C13.8305 51.3703 14.6036 51.5421 15.2908 51.9716C15.978 52.4011 16.6653 52.8306 17.3525 53.5179C17.9538 54.2051 18.6411 55.0641 19.2424 56.1809C19.6719 56.954 20.0155 57.6412 20.3591 58.2425C20.7027 58.8439 21.1323 59.5311 21.4759 60.0465C21.9054 60.5619 22.249 61.0774 22.6785 61.5069C23.108 61.9364 23.5376 62.28 24.053 62.5377V62.8813H16.1499C15.978 62.8813 15.8062 62.7954 15.7203 62.6236L12.7137 55.6654C12.5419 55.3218 12.456 54.9782 12.2842 54.5487C12.1124 54.1192 11.8547 53.7756 11.6829 53.432C11.4252 53.0883 11.1675 52.7447 10.8238 52.5729C10.4802 52.3152 10.1366 52.2293 9.70709 52.2293C8.84806 52.2293 8.33264 52.8306 8.33264 54.0333V56.4386C8.33264 57.3835 8.33264 58.2425 8.41854 59.0157C8.41854 59.7029 8.50444 60.3042 8.67625 60.8196C8.84806 61.2492 9.01986 61.6787 9.36348 61.8505C9.70709 62.1082 10.0507 62.1941 10.652 62.28V62.9672H0V62.28C0.515421 62.28 1.03084 62.1082 1.28855 61.7646C1.63217 61.421 1.80397 60.9915 1.97578 60.476C2.14759 59.9606 2.23349 59.3593 2.23349 58.6721C2.23349 57.9848 2.31939 57.2976 2.31939 56.5245V45.7865H2.4053ZM31.6125 54.4628L30.3239 57.0399C30.0662 57.5553 29.8944 58.0707 29.7226 58.5862C29.5508 59.1016 29.4649 59.4452 29.4649 59.7888C29.4649 60.6478 29.7226 61.2492 30.1521 61.6787C30.5816 62.1082 31.2689 62.3659 31.9561 62.5377V63.2249C31.2689 63.2249 30.5816 63.2249 29.8085 63.139C29.1213 63.0531 28.434 63.0531 27.7468 63.0531C27.1455 63.0531 26.4583 63.0531 25.771 63.139C25.0838 63.2249 24.3966 63.2249 23.7094 63.2249V62.6236C23.9671 62.5377 24.2248 62.4518 24.6543 62.1941C24.9979 61.9364 25.4274 61.5928 25.8569 61.1633C26.2865 60.7337 26.716 60.2183 27.2314 59.5311C27.6609 58.9298 28.1763 58.1566 28.6059 57.3835L36.5949 42.2645C36.6808 42.0927 36.8526 41.835 37.0244 41.4914C37.1962 41.2337 37.2821 41.0619 37.4539 41.0619H37.5398C37.6257 41.0619 37.7116 41.1478 37.7975 41.2337C37.8834 41.3196 37.9693 41.4914 38.0552 41.5773C38.1411 41.7491 38.227 41.835 38.3129 42.0068C38.3988 42.1786 38.4848 42.2645 38.4848 42.3504L47.161 58.6721C47.5905 59.4452 47.9341 60.0465 48.1918 60.476C48.5355 60.9056 48.7932 61.3351 49.0509 61.5928C49.3086 61.8505 49.5663 62.1082 49.824 62.1941C50.0817 62.3659 50.3394 62.4518 50.5971 62.4518V63.2249C49.6522 63.2249 48.7073 63.2249 47.6764 63.139C46.6456 63.0531 45.7865 63.0531 44.9275 63.0531C44.0685 63.0531 43.2094 63.0531 42.2645 63.139C41.3196 63.2249 40.3746 63.2249 39.5156 63.2249V62.5377C39.7733 62.4518 40.031 62.4518 40.2887 62.3659C40.5464 62.28 40.7182 62.1941 40.89 62.1082C41.0619 62.0223 41.1478 61.8505 41.2337 61.6787C41.3196 61.5069 41.4055 61.2492 41.4055 60.9056C41.4055 60.5619 41.3196 60.0465 41.0619 59.4452C40.8041 58.8439 40.5464 58.2425 40.2887 57.6412L38.6566 54.4628H31.6125ZM32.1279 53.3461H38.1411L35.1345 47.3328L32.1279 53.3461ZM53.8615 45.7865C53.8615 44.6698 53.7756 43.8108 53.5179 43.2094C53.2602 42.6081 52.8306 42.1786 52.1434 42.0068V41.4914C52.487 41.4914 52.8306 41.4914 53.1742 41.4914C53.6038 41.4914 53.9474 41.4914 54.4628 41.5773C54.8923 41.5773 55.3218 41.5773 55.7514 41.6632C56.1809 41.6632 56.5245 41.6632 56.8681 41.6632C58.8439 41.6632 60.5619 41.6632 61.9364 41.6632C63.3968 41.6632 64.6853 41.6632 65.8021 41.5773C66.9188 41.5773 67.9496 41.5773 68.8087 41.4914C69.6677 41.4914 70.5267 41.4914 71.2999 41.4914L72.8461 47.4187H72.073C70.7845 45.9584 69.41 44.7557 67.7778 43.9826C66.1457 43.2094 64.5135 42.7799 62.8813 42.7799H59.617V51.1985H61.6787C62.3659 51.1985 63.1391 51.1126 63.8263 51.0267C64.5135 50.9408 65.2007 50.7689 65.8021 50.5112C66.4034 50.2535 67.0047 49.9099 67.4342 49.3945C67.9496 48.8791 68.2933 48.2777 68.551 47.5046H69.1523V55.8373H68.6369C68.4651 55.2359 68.2073 54.7205 67.7778 54.291C67.3483 53.8615 66.8329 53.5179 66.2316 53.1742C65.6303 52.9165 64.943 52.6588 64.1699 52.487C63.3968 52.3152 62.6236 52.2293 61.6787 52.2293H59.617V56.6104C59.617 57.3835 59.617 58.0707 59.7029 58.758C59.7888 59.4452 59.8747 60.0465 60.0465 60.5619C60.2183 61.0774 60.476 61.5069 60.8197 61.8505C61.1633 62.1941 61.6787 62.3659 62.28 62.3659V63.0531C61.3351 63.0531 60.3901 63.0531 59.5311 62.9672C58.5862 62.8813 57.7271 62.8813 56.7822 62.8813C55.9232 62.8813 54.9782 62.8813 54.0333 62.9672C53.0883 63.0531 52.1434 63.0531 51.2844 63.0531V62.3659C51.8857 62.3659 52.4011 62.1941 52.7447 61.8505C53.0883 61.5069 53.3461 61.0774 53.5179 60.5619C53.6897 60.0465 53.7756 59.4452 53.8615 58.758C53.9474 58.0707 53.9474 57.3835 53.9474 56.6104V45.7865H53.8615ZM74.4783 52.3152C74.4783 50.4253 74.8219 48.7932 75.5091 47.4187C76.1964 46.0443 77.1413 44.8416 78.344 43.8967C79.5466 42.9517 80.8352 42.2645 82.3814 41.7491C83.9277 41.2337 85.474 40.976 87.1061 40.976C88.7383 40.976 90.2845 41.2337 91.8308 41.7491C93.3771 42.2645 94.6656 42.9517 95.8683 43.8967C97.0709 44.8416 98.0159 46.0443 98.7031 47.4187C99.3903 48.7932 99.7339 50.5112 99.7339 52.3152C99.7339 54.2051 99.3903 55.8373 98.7031 57.2117C98.0159 58.5862 97.0709 59.7888 95.8683 60.7337C94.6656 61.6787 93.3771 62.3659 91.8308 62.8813C90.2845 63.3968 88.7383 63.6545 87.1061 63.6545C85.474 63.6545 83.9277 63.3968 82.3814 62.8813C80.8352 62.3659 79.5466 61.6787 78.344 60.7337C77.1413 59.7888 76.1964 58.5862 75.5091 57.2117C74.8219 55.8373 74.4783 54.2051 74.4783 52.3152ZM81.007 52.3152C81.007 55.8373 81.5224 58.4144 82.6391 60.1324C83.7559 61.8505 85.2162 62.6236 87.1061 62.6236C88.0511 62.6236 88.8242 62.4518 89.5973 62.0223C90.3705 61.5928 90.9718 60.9915 91.4872 60.1324C92.0026 59.2734 92.4321 58.2425 92.6898 56.954C92.9476 55.6654 93.1194 54.1192 93.1194 52.3152C93.1194 50.5971 92.9476 49.0509 92.6898 47.7623C92.4321 46.4738 92.0026 45.357 91.4872 44.5839C90.9718 43.8108 90.2845 43.1235 89.5973 42.694C88.8242 42.2645 88.0511 42.0927 87.1061 42.0927C85.2162 42.0927 83.7559 42.9517 82.6391 44.5839C81.5224 46.2161 81.007 48.7932 81.007 52.3152ZM110.128 57.2117C110.128 58.8439 110.386 60.0465 110.901 60.7337C111.417 61.421 112.276 61.7646 113.564 61.7646C114.595 61.7646 115.626 61.5928 116.657 61.1633C117.688 60.8197 118.633 60.3042 119.492 59.7029C120.437 59.1016 121.21 58.4144 122.069 57.6412C122.842 56.8681 123.529 56.095 124.131 55.4077L124.646 55.6654L122.241 63.139C121.124 63.139 120.007 63.139 118.89 63.139C117.774 63.139 116.571 63.139 115.368 63.0531C114.166 63.0531 112.877 63.0531 111.503 62.9672C110.128 62.9672 108.754 62.9672 107.208 62.9672C106.778 62.9672 106.348 62.9672 105.833 62.9672C105.404 62.9672 104.888 62.9672 104.459 63.0531C103.943 63.0531 103.514 63.0531 102.998 63.139C102.483 63.139 102.053 63.139 101.538 63.139V62.4518C102.225 62.4518 102.655 62.28 103.084 61.9364C103.428 61.5928 103.685 61.1633 103.943 60.6478C104.201 60.1324 104.201 59.5311 104.287 58.8439C104.373 58.1566 104.373 57.4694 104.373 56.6963V45.7865C104.373 44.6698 104.201 43.8108 103.943 43.2094C103.685 42.6081 103.17 42.1786 102.397 42.0068V41.4914C103.342 41.4914 104.201 41.4914 104.974 41.5773C105.747 41.6632 106.606 41.6632 107.379 41.6632C108.152 41.6632 108.926 41.6632 109.785 41.5773C110.558 41.4914 111.417 41.4914 112.362 41.4914V42.0068C111.589 42.1786 111.073 42.6081 110.73 43.2094C110.472 43.8108 110.3 44.6698 110.3 45.7865V57.2117H110.128ZM133.064 54.4628L131.776 57.0399C131.518 57.5553 131.346 58.0707 131.175 58.5862C131.003 59.1016 130.917 59.4452 130.917 59.7888C130.917 60.6478 131.175 61.2492 131.604 61.6787C132.034 62.1082 132.721 62.3659 133.408 62.5377V63.2249C132.721 63.2249 132.034 63.2249 131.26 63.139C130.573 63.0531 129.886 63.0531 129.199 63.0531C128.597 63.0531 127.91 63.0531 127.223 63.139C126.536 63.2249 125.849 63.2249 125.161 63.2249V62.6236C125.419 62.5377 125.677 62.4518 126.106 62.1941C126.45 61.9364 126.879 61.5928 127.309 61.1633C127.738 60.7337 128.168 60.2183 128.683 59.5311C129.113 58.9298 129.628 58.1566 130.058 57.3835L138.047 42.2645C138.133 42.0927 138.305 41.835 138.476 41.4914C138.648 41.2337 138.734 41.0619 138.906 41.0619H138.992C139.078 41.0619 139.164 41.1478 139.25 41.2337C139.335 41.3196 139.421 41.4914 139.507 41.5773C139.593 41.7491 139.679 41.835 139.765 42.0068C139.851 42.1786 139.937 42.2645 139.937 42.3504L148.613 58.6721C149.043 59.4452 149.386 60.0465 149.644 60.476C149.987 60.9056 150.245 61.3351 150.503 61.5928C150.761 61.8505 151.018 62.1082 151.276 62.1941C151.534 62.3659 151.791 62.4518 152.049 62.4518V63.2249C151.104 63.2249 150.159 63.2249 149.128 63.139C148.098 63.0531 147.239 63.0531 146.38 63.0531C145.52 63.0531 144.661 63.0531 143.717 63.139C142.772 63.2249 141.827 63.2249 140.968 63.2249V62.5377C141.225 62.4518 141.483 62.4518 141.741 62.3659C141.998 62.28 142.17 62.1941 142.342 62.1082C142.514 62.0223 142.6 61.8505 142.686 61.6787C142.772 61.5069 142.857 61.2492 142.857 60.9056C142.857 60.5619 142.772 60.0465 142.514 59.4452C142.256 58.8439 141.998 58.2425 141.741 57.6412L140.109 54.4628H133.064ZM133.58 53.3461H139.593L136.587 47.3328L133.58 53.3461ZM150.073 47.5905L151.791 41.6632H172.752L174.47 47.5905H173.697C173.353 47.161 172.924 46.6456 172.408 46.1302C171.893 45.6147 171.292 45.0993 170.69 44.5839C170.089 44.0685 169.402 43.7249 168.8 43.3812C168.113 43.0376 167.512 42.8658 166.91 42.8658C166.223 42.8658 165.708 43.0376 165.45 43.4672C165.192 43.8967 165.106 44.4121 165.106 45.0134V56.6963C165.106 57.4694 165.106 58.1566 165.192 58.8439C165.278 59.5311 165.364 60.1324 165.536 60.6478C165.708 61.1633 165.965 61.5928 166.395 61.9364C166.739 62.28 167.254 62.4518 167.941 62.4518V63.139C166.91 63.139 165.966 63.139 165.021 63.0531C164.076 62.9672 163.131 62.9672 162.272 62.9672C161.413 62.9672 160.468 62.9672 159.523 63.0531C158.578 63.139 157.461 63.139 156.344 63.139V62.4518C157.032 62.4518 157.633 62.28 157.976 61.9364C158.406 61.5928 158.664 61.1633 158.836 60.6478C159.007 60.1324 159.179 59.5311 159.179 58.8439C159.265 58.1566 159.265 57.4694 159.265 56.6963V45.0134C159.265 44.4121 159.179 43.8967 158.921 43.4672C158.664 43.0376 158.234 42.8658 157.461 42.8658C156.86 42.8658 156.258 43.0376 155.571 43.3812C154.884 43.7249 154.283 44.1544 153.681 44.5839C153.08 45.0993 152.479 45.6147 151.963 46.1302C151.448 46.6456 151.018 47.161 150.675 47.5905H150.073ZM178.851 44.9275C178.851 44.4121 178.851 43.8967 178.765 43.5531C178.679 43.2094 178.593 42.9517 178.421 42.694C178.25 42.5222 178.078 42.3504 177.906 42.2645C177.734 42.1786 177.477 42.0927 177.219 42.0068V41.4914C177.992 41.4914 178.765 41.4914 179.538 41.5773C180.311 41.6632 181.085 41.6632 181.858 41.6632C182.631 41.6632 183.404 41.6632 184.177 41.5773C184.95 41.4914 185.723 41.4914 186.496 41.4914V42.0068C185.809 42.1786 185.38 42.5222 185.122 42.9517C184.864 43.3812 184.778 44.0685 184.778 45.0134V56.5245C184.778 57.2976 184.778 57.9848 184.864 58.6721C184.864 59.3593 184.95 59.9606 185.122 60.476C185.294 60.9915 185.551 61.421 185.809 61.7646C186.153 62.1082 186.582 62.28 187.098 62.28V62.9672H176.36V62.28C176.961 62.28 177.477 62.1082 177.82 61.7646C178.164 61.421 178.422 60.9915 178.593 60.476C178.765 59.9606 178.851 59.3593 178.937 58.6721C179.023 57.9848 179.023 57.2976 179.023 56.5245V44.9275H178.851Z" fill="url(#paint0_linear_1_358)"/>
<defs>
<linearGradient id="paint0_linear_1_358" x1="-150.151" y1="156.076" x2="989.701" y2="-91.8185" gradientUnits="userSpaceOnUse">
<stop stop-color="#B78B32"/>
<stop offset="0.3144" stop-color="#D3AE6F"/>
<stop offset="1" stop-color="#FAE298"/>
</linearGradient>
</defs>
</svg>
