<svg width="804" height="163" viewBox="0 0 804 163" fill="none" xmlns="http://www.w3.org/2000/svg">
<path d="M31.4288 13.3834L31.1715 13.2119C30.5711 10.8959 29.1129 9.00878 26.7111 7.46479C24.4809 6.00658 21.8218 5.23458 18.8196 5.23458C14.6165 5.23458 11.357 6.60702 9.04099 9.43767C6.63923 12.2683 5.43835 16.1283 5.43835 21.0176C5.43835 25.8211 6.63923 29.5953 9.04099 32.3402C11.7001 35.3424 15.217 36.8864 19.6774 36.8864C21.5645 36.8864 23.1942 36.5433 24.7382 35.9428C26.368 35.3424 27.3973 34.5704 27.912 33.6268C28.3409 32.9406 28.5124 31.7397 28.5124 29.9384V27.022C28.5124 24.4487 27.7404 22.9047 26.2822 22.3042C25.7675 22.0469 24.6524 21.7038 22.8511 21.2749V20.9318C24.5667 21.0176 26.6253 21.1034 28.9413 21.1034C29.7991 21.1034 30.9142 21.1034 32.2866 21.0176H34.0879L35.975 20.9318V21.1891C34.6026 21.618 33.7448 22.1327 33.4875 22.7331C33.2302 23.3336 33.1444 24.7918 33.1444 27.2793V33.4553C29.1986 36.3717 24.6524 37.9157 19.42 37.9157C14.0161 37.9157 9.46988 36.2859 5.69568 33.1979C2.00726 29.9384 0.205933 25.9927 0.205933 21.2749C0.205933 16.2998 2.00726 12.2683 5.52413 9.09456C9.04099 5.9208 13.5872 4.29103 19.1627 4.29103C24.9098 4.29103 29.5417 5.66347 33.1444 8.40834L31.4288 13.3834ZM61.6224 37.1437C61.1935 36.1144 60.8504 34.4846 60.5073 32.2544C58.4487 35.9428 55.2749 37.7441 50.986 37.7441C47.7265 37.7441 44.9816 36.9721 42.8372 35.5139C40.6928 34.0557 39.5777 32.1686 39.5777 29.9384C39.5777 26.7647 41.5505 24.5345 45.4963 23.0762C48.6701 21.9611 52.6158 21.3607 57.5051 21.3607H60.0784V19.9025C60.0784 14.327 57.3336 11.5821 51.8438 11.5821C49.4421 11.5821 47.4692 12.1825 45.7536 13.2976C44.1239 14.4127 43.0945 15.9567 42.4941 17.9296L42.2368 18.0154L40.7785 13.2119C44.8959 11.4105 48.7558 10.5528 52.3585 10.5528C56.3042 10.5528 59.3064 11.4105 61.2793 13.2119C62.9949 14.7559 63.8526 17.5865 63.8526 21.7896V28.8233C63.8526 31.4824 64.0242 33.4553 64.4531 34.6562C64.8819 35.857 65.5682 36.629 66.5975 36.8864V37.1437H61.6224ZM57.4193 22.39C48.6701 22.39 44.2954 24.9633 44.2954 30.0242C44.2954 31.9971 44.9816 33.6268 46.3541 34.9135C47.6407 36.1144 49.3563 36.7148 51.5865 36.7148C53.3878 36.7148 54.9318 36.2859 56.3042 35.4282C57.7624 34.5704 58.706 33.4553 59.2206 32.0828C59.8211 30.6246 60.1642 27.794 60.1642 23.6767V22.39H57.4193ZM94.132 37.1437H70.3717L86.0689 16.9003C87.956 14.4985 88.9853 13.2119 88.9853 12.9545C88.9853 12.4399 88.1276 12.2683 86.4978 12.2683H83.5814C80.7507 12.2683 78.4348 12.6114 76.7192 13.2976C75.0037 13.9839 73.3739 15.2705 71.7441 17.0718L71.401 16.9861L73.3739 11.239H95.0755L84.1818 24.9633L83.324 25.9927L82.4663 27.022C81.6943 28.0513 81.1796 28.7375 81.0081 28.9949C80.7507 29.338 80.4076 29.8526 80.0645 30.2815L79.121 31.4824C77.6627 33.3695 76.9765 34.5704 76.9765 34.9993C76.9765 35.4282 77.1481 35.6855 77.577 35.857C77.9201 35.9428 78.9494 36.0286 80.4934 36.0286H82.4663C86.3262 36.0286 89.2427 35.4282 91.3871 34.313C92.6738 33.7126 94.0462 32.5117 95.5902 30.882L95.8475 31.0535L94.132 37.1437ZM101.509 42.3761C103.139 40.489 103.911 38.8592 103.911 37.401V37.1437C103.482 37.2295 103.224 37.3153 103.053 37.3153C102.452 37.3153 101.852 37.0579 101.423 36.629C100.994 36.2001 100.823 35.6855 100.823 34.9135C100.823 34.3131 101.08 33.7126 101.509 33.1979C102.023 32.7691 102.624 32.5117 103.224 32.5117C104.94 32.5117 105.798 33.6268 105.798 35.7713C105.798 38.6019 104.511 40.9179 101.938 42.7192L101.509 42.3761ZM155.377 12.783L155.034 12.6114C155.034 10.5528 153.747 8.83723 151.26 7.37901C148.772 6.00658 145.856 5.23458 142.339 5.23458C139.937 5.23458 137.964 5.83502 136.42 6.95013C134.705 8.32256 133.847 9.95233 133.847 11.8394C133.847 13.4692 134.447 14.7559 135.734 15.6994C137.021 16.643 139.079 17.5007 142.167 18.1012L145.941 18.8732C150.402 19.8167 153.404 20.9318 155.034 22.3042C156.664 23.5909 157.521 25.3064 157.521 27.6224C157.521 30.5389 156.149 32.9406 153.49 34.9135C150.745 36.8864 147.485 37.9157 143.625 37.9157C137.621 37.9157 131.874 36.5433 126.298 33.7126L128.529 28.1371L128.786 28.3086C128.958 30.1957 129.73 31.7397 131.016 32.9406C134.018 35.5997 138.136 36.9721 143.197 36.9721C146.113 36.9721 148.515 36.2859 150.402 34.9135C152.289 33.5411 153.232 31.8255 153.232 29.6811C153.232 27.6224 152.375 26.1642 150.659 25.2207C149.63 24.6202 147.743 24.0198 144.998 23.3336L140.623 22.3042C136.677 21.3607 133.847 20.2456 132.131 18.9589C130.587 17.7581 129.815 16.1283 129.815 13.8981C129.815 11.0674 131.016 8.83723 133.418 7.0359C135.82 5.23458 138.822 4.37681 142.51 4.37681C147.314 4.37681 152.289 5.57769 157.35 7.89368L155.377 12.783ZM185.914 37.1437C185.399 36.0286 184.884 34.3131 184.284 32.0828C182.054 35.857 178.708 37.8299 174.162 37.8299C167.214 37.8299 163.783 34.3988 163.783 27.5367V26.1642C163.783 25.478 163.783 24.9633 163.869 24.6202C163.869 24.2771 163.955 23.7625 163.955 23.0762V20.6745C163.955 17.2434 163.869 15.1847 163.697 14.5843C163.44 13.9839 162.754 13.6407 161.467 13.4692V13.1261C163.783 12.6972 165.842 12.011 167.815 11.239C167.729 12.783 167.643 14.9274 167.643 17.5007V24.4487C167.643 28.3086 168.072 31.1393 169.015 32.7691C170.216 35.085 172.361 36.2001 175.535 36.2001C177.164 36.2001 178.708 35.857 180.081 35.085C181.453 34.3988 182.397 33.3695 183.083 32.0828C183.941 30.1957 184.455 26.8504 184.455 22.1327V20.5887C184.455 17.1576 184.37 15.099 184.112 14.4985C183.855 13.8981 183.169 13.555 181.968 13.3834V13.0403C183.083 12.8688 184.112 12.6114 185.227 12.1825C186.257 11.9252 187.286 11.5821 188.315 11.1532C188.23 12.6972 188.144 14.8416 188.144 17.4149V23.6767C188.144 28.6518 188.315 31.9113 188.573 33.5411C188.83 35.1708 189.43 36.2002 190.374 36.7148V37.0579H185.914V37.1437ZM199.638 23.2478L199.381 22.6474L199.037 22.0469C198.78 21.4465 198.523 21.0176 198.351 20.5887C197.665 19.302 197.065 18.1012 196.464 16.9861C195.435 14.9274 194.577 13.555 193.977 12.8688C193.376 12.0968 192.604 11.6679 191.746 11.4105V11.0674C193.376 11.1532 194.834 11.239 196.121 11.239C196.55 11.239 197.15 11.239 197.922 11.1532C198.866 11.1532 199.981 11.0674 201.182 10.9817V11.3248C199.981 11.6679 199.381 12.3541 199.381 13.1261C199.381 13.8981 200.067 15.6994 201.525 18.4443L208.559 32.2544L213.877 21.7896C215.764 18.0154 216.793 15.4421 216.793 14.327C216.793 12.8688 215.85 11.8394 213.963 11.3248V10.9817C215.335 11.0674 216.622 11.1532 217.908 11.1532C218.252 11.1532 218.852 11.1532 219.538 11.0674C220.396 11.0674 221.34 10.9817 222.455 10.8959V11.239C221.254 11.8394 220.224 12.783 219.452 13.9839C218.68 15.1847 217.222 17.7581 215.249 21.7896L207.272 37.5726L199.638 23.2478ZM261.655 25.2207C263.799 21.0176 265.772 16.9861 267.488 13.0403C268.431 10.8959 268.946 9.26611 268.946 8.23679C268.946 7.46479 268.774 6.86435 268.345 6.43546C268.002 6.09236 267.23 5.66347 266.201 5.32036V4.97725C267.23 5.06303 268.603 5.14881 270.233 5.14881C272.034 5.14881 273.664 5.06303 275.208 4.97725V5.32036C274.007 6.00658 272.977 7.12168 271.948 8.5799C270.833 10.3812 268.946 13.7265 266.544 18.6158L256.508 38.0872L247.93 21.1034C246.387 18.0154 244.414 14.1554 241.926 9.60922C240.725 7.46479 239.353 6.00658 237.809 5.32036V4.97725C239.095 5.06303 240.554 5.14881 242.183 5.14881C244.242 5.14881 246.043 5.06303 247.673 4.97725V5.32036C246.472 5.74925 245.872 6.43546 245.872 7.46479C245.872 8.83723 249.989 16.9003 258.224 31.5682L261.655 25.2207ZM300.426 37.1437C299.997 36.1144 299.654 34.4846 299.311 32.2544C297.252 35.9428 294.079 37.7441 289.79 37.7441C286.53 37.7441 283.785 36.9721 281.641 35.5139C279.497 34.0557 278.381 32.1686 278.381 29.9384C278.381 26.7647 280.354 24.5345 284.3 23.0762C287.474 21.9611 291.42 21.3607 296.309 21.3607H298.882V19.9025C298.882 14.327 296.137 11.5821 290.648 11.5821C288.246 11.5821 286.273 12.1825 284.557 13.2976C282.928 14.4127 281.898 15.9567 281.298 17.9296L281.04 18.0154L279.582 13.2119C283.7 11.4105 287.56 10.5528 291.162 10.5528C295.108 10.5528 298.11 11.4105 300.083 13.2119C301.799 14.7559 302.656 17.5865 302.656 21.7896V28.8233C302.656 31.4824 302.828 33.4553 303.257 34.6562C303.686 35.857 304.372 36.629 305.401 36.8864V37.1437H300.426ZM296.223 22.39C287.474 22.39 283.099 24.9633 283.099 30.0242C283.099 31.9971 283.785 33.6268 285.158 34.9135C286.444 36.1144 288.16 36.7148 290.39 36.7148C292.192 36.7148 293.736 36.2859 295.108 35.4282C296.566 34.5704 297.51 33.4553 298.024 32.0828C298.625 30.6246 298.968 27.794 298.968 23.6767V22.39H296.223ZM354.208 11.4105L353.865 11.5821C352.236 9.52344 350.263 8.15101 348.118 7.37901C346.06 6.60702 343.057 6.17813 339.112 6.17813H331.134V19.8167H337.825C341.771 19.8167 344.516 19.5594 346.06 18.9589C347.604 18.4443 348.633 17.4149 349.233 15.871H349.576V24.706H349.233C348.804 23.162 347.861 22.1327 346.231 21.618C344.687 21.1034 341.857 20.846 337.653 20.846H331.049V24.1913C331.049 30.4531 331.392 33.9699 332.078 34.9135C332.421 35.3424 332.936 35.6855 333.793 35.857C334.651 36.0286 336.195 36.1144 338.34 36.1144C343.4 36.1144 347.261 35.6855 350.005 34.7419C352.75 33.8842 354.98 32.3402 356.524 30.11L356.782 30.2815L354.637 37.1437H329.076C327.703 37.1437 325.902 37.1437 323.586 37.2295V36.8864C325.216 36.4575 326.245 35.3424 326.588 33.3695C326.931 31.5682 327.103 26.5073 327.103 18.1869V12.6114C327.103 9.86655 326.931 8.06523 326.588 7.20746C326.245 6.26391 325.559 5.66347 324.53 5.40614V5.06303H352.407L354.208 11.4105ZM370.678 37.2295C369.134 37.1437 367.161 37.0579 364.931 37.0579C363.129 37.0579 361.671 37.1437 360.556 37.2295V36.8864C362.1 36.4575 362.958 35.1708 363.387 33.1122C363.73 30.9677 363.987 25.9927 363.987 18.1869V13.4692C363.987 12.9545 363.901 12.2683 363.901 11.3248L363.815 9.09456L363.73 7.12168L363.644 5.14881C363.644 3.69059 362.872 2.9186 361.328 2.74705V2.40394C363.301 2.06083 365.359 1.54616 367.418 0.77417C367.332 3.60482 367.247 7.29324 367.247 11.8394V18.1012C367.247 25.9927 367.418 31.0535 367.847 33.2837C368.104 35.1708 369.048 36.3717 370.592 36.8006V37.2295H370.678ZM379.255 20.7603C379.084 21.618 378.998 22.6474 378.998 23.6767C378.998 26.8504 379.599 29.5953 380.885 31.8255C382.515 34.9135 385.346 36.4575 389.291 36.4575C392.122 36.4575 394.524 35.5997 396.582 33.9699C398.641 32.2544 400.099 29.8526 400.957 26.7647L401.901 27.6224C401.129 30.7962 399.585 33.2837 397.183 35.085C394.781 36.8864 391.95 37.8299 388.605 37.8299C384.574 37.8299 381.142 36.5433 378.483 33.9699C375.824 31.3966 374.452 28.1371 374.452 24.1913C374.452 20.4171 375.824 17.2434 378.569 14.5843C381.314 11.9252 384.574 10.6385 388.519 10.6385C391.865 10.6385 394.781 11.5821 397.183 13.555C399.756 15.5278 401.214 17.9296 401.557 20.846H379.255V20.7603ZM396.497 19.7309C396.497 17.2434 395.725 15.2705 394.266 13.7265C392.722 12.1825 390.835 11.4963 388.434 11.4963C383.63 11.4963 380.628 14.2412 379.513 19.7309H396.497ZM426.433 37.1437C425.661 36.2002 424.46 34.3988 422.916 31.654C421.115 28.4802 419.571 26.25 418.284 24.7918C417.083 23.5051 415.882 22.9047 414.51 22.9047C412.794 22.9047 411.937 24.2771 411.937 27.022V28.566C411.937 31.8255 412.194 33.9699 412.623 35.085C412.966 36.0286 413.824 36.629 415.11 36.8864V37.2295C413.566 37.1437 411.593 37.0579 409.363 37.0579C407.562 37.0579 406.104 37.1437 404.989 37.2295V36.8864C406.533 36.3717 407.476 34.9993 407.819 32.7691C407.991 31.0535 408.162 28.3944 408.334 24.7918C408.505 20.2456 408.591 16.9861 408.591 14.9274V13.3834C408.591 9.35189 408.505 6.86435 408.42 5.74925C408.248 4.54837 407.991 3.77637 407.562 3.43326C407.219 3.17593 406.618 3.00438 405.846 2.9186V2.66127C407.991 2.31816 410.049 1.63194 412.108 0.77417C411.936 3.60482 411.937 7.29324 411.937 11.8394V22.5616L416.311 19.302C420.686 16.1283 422.83 13.9839 422.83 13.0403C422.83 12.2683 422.316 11.7537 421.372 11.5821V11.3248C423.774 11.4105 425.318 11.4963 426.176 11.4963C426.519 11.4963 428.406 11.4105 431.665 11.3248V11.5821C429.178 12.2683 427.376 12.9545 426.261 13.6407C425.232 14.2412 422.487 16.2141 418.027 19.4736L415.11 21.618H416.054C418.37 21.618 420.343 22.2185 421.801 23.4193C422.83 24.1913 424.46 26.3358 426.69 29.8526C428.063 31.9971 429.349 33.6268 430.379 34.6562C431.322 35.5997 432.437 36.2859 433.638 36.8006V37.0579H426.433V37.1437ZM443.76 12.2683H448.821L448.392 13.6407H443.674L443.588 19.9025V22.39C443.588 28.7375 444.017 32.7691 444.789 34.5704C445.304 35.7713 446.162 36.5433 447.448 36.8006V37.1437H441.958C441.101 36.8864 440.5 36.2001 440.157 35.2566C439.814 34.3131 439.643 32.6833 439.643 30.3673C439.643 29.338 439.728 25.1349 439.9 17.9296L439.986 13.555H435.954L436.211 12.6114C438.099 11.8394 439.557 10.8959 440.5 9.78078C441.53 8.66567 442.387 6.95013 443.331 4.71992H443.846L443.76 12.2683ZM452.423 12.783C454.739 12.4399 456.798 11.8394 458.685 11.239L458.599 12.5256V13.1261L458.514 13.8123V14.1554L458.428 14.6701V15.099L458.342 15.5278C458.342 16.0425 458.256 16.3856 458.256 16.8145V17.8438C459.285 15.6994 460.658 13.8981 462.288 12.5256C464.003 11.239 465.719 10.5528 467.52 10.5528H468.121L468.378 10.6385L466.577 15.6994C465.805 14.8416 464.947 14.327 464.003 14.327C462.373 14.327 461.001 15.2705 459.972 17.1576C458.942 19.0447 458.428 21.4465 458.428 24.4487V28.4802C458.428 31.654 458.685 33.8842 459.114 35.1708C459.457 36.1144 460.229 36.629 461.344 36.8864V37.2295C460.057 37.1437 458.342 37.0579 456.198 37.0579C454.225 37.0579 452.681 37.1437 451.48 37.2295V36.8864C452.766 36.7148 453.624 36.0286 454.053 34.8277C454.482 33.5411 454.739 31.4824 454.739 28.4802V26.9362C454.739 25.5638 454.739 23.162 454.654 19.6452C454.654 18.53 454.568 17.5007 454.482 16.5572C454.482 15.871 454.396 15.3563 454.396 15.0132C454.225 13.8123 453.453 13.2119 452.166 13.0403V12.783H452.423ZM499.858 5.06303C506.72 5.06303 511.266 5.57769 513.497 6.52124C516.67 7.89368 518.214 9.86655 518.214 12.6114C518.214 15.099 516.842 17.0718 514.183 18.4443C512.896 19.0447 510.838 19.5594 508.007 19.9883C511.61 20.4171 514.183 20.9318 515.727 21.618C519.415 23.2478 521.217 25.5638 521.217 28.566C521.217 30.11 520.702 31.4824 519.587 32.7691C518.472 34.0557 517.014 35.085 515.041 35.7713C512.725 36.629 509.379 37.1437 505.005 37.1437C503.975 37.1437 501.659 37.0579 497.971 36.9721H496.084L494.283 36.8864H491.195C490.594 36.8864 489.994 36.8864 489.393 36.9721C488.192 36.9721 487.335 37.0579 486.734 37.1437V36.8006C488.621 36.3717 489.736 35.2566 490.079 33.2837C490.423 31.1393 490.594 26.0784 490.594 18.1012V12.4399C490.594 9.78078 490.423 7.97945 490.079 7.0359C489.651 6.09236 488.879 5.49192 487.764 5.23458V5.06303H499.858ZM500.973 19.6452C505.691 19.6452 508.951 18.9589 510.838 17.5865C512.296 16.4714 513.068 14.8416 513.068 12.6972C513.068 10.0381 512.038 8.23679 510.066 7.29324C508.35 6.52124 505.176 6.09236 500.459 6.09236H494.626V19.6452H500.973ZM494.54 25.0491C494.626 30.1957 494.711 32.8548 494.711 33.0264C494.797 34.7419 495.741 35.7713 497.542 35.9428C498.572 36.1144 500.716 36.2001 503.975 36.2001C507.921 36.2001 510.752 35.6855 512.382 34.7419C514.783 33.4553 515.898 31.3966 515.898 28.7375C515.898 27.4509 515.555 26.25 514.869 25.1349C514.183 24.0198 513.239 23.0762 512.21 22.4758C510.237 21.3607 506.291 20.7603 500.287 20.7603H494.54V25.0491ZM526.363 12.783C527.307 12.6114 528.508 12.3541 529.966 11.9252C531.338 11.5821 532.196 11.3248 532.539 11.1532V28.4802C532.539 31.7397 532.711 33.9699 533.14 35.085C533.483 36.1144 534.255 36.7148 535.198 36.8006V37.1437C533.654 37.0579 531.939 36.9721 529.966 36.9721C528.336 36.9721 526.964 37.0579 525.849 37.1437V36.8006C526.792 36.629 527.478 36.0286 527.993 34.9993C528.508 33.7984 528.765 31.5682 528.765 28.4802V26.9362C528.765 20.2456 528.679 16.2141 528.422 14.9274C528.25 13.8123 527.478 13.1261 526.278 12.9545V12.783H526.363ZM532.711 4.97725C532.711 5.66347 532.453 6.26391 532.025 6.6928C531.596 7.12168 530.995 7.37901 530.309 7.37901C529.623 7.37901 529.022 7.12168 528.594 6.6928C528.165 6.26391 527.907 5.66347 527.907 4.97725C527.907 4.29103 528.165 3.69059 528.594 3.26171C529.022 2.83282 529.709 2.57549 530.395 2.57549C530.995 2.57549 531.596 2.83282 532.11 3.26171C532.625 3.69059 532.711 4.29103 532.711 4.97725ZM547.808 37.2295C546.264 37.1437 544.291 37.0579 542.06 37.0579C540.259 37.0579 538.801 37.1437 537.686 37.2295V36.8864C539.23 36.4575 540.088 35.1708 540.517 33.1122C540.86 30.9677 541.117 25.9927 541.117 18.1869V13.4692C541.117 12.9545 541.031 12.2683 541.031 11.3248L540.945 9.09456L540.86 7.12168L540.774 5.14881C540.774 3.69059 540.002 2.9186 538.458 2.74705V2.40394C540.431 2.06083 542.489 1.54616 544.548 0.77417C544.376 3.60482 544.377 7.29324 544.377 11.8394V18.1012C544.377 25.9927 544.548 31.0535 544.977 33.2837C545.234 35.1708 546.178 36.3717 547.722 36.8006V37.2295H547.808ZM573.369 37.1437C572.94 36.1144 572.597 34.4846 572.254 32.2544C570.195 35.9428 567.022 37.7441 562.733 37.7441C559.473 37.7441 556.728 36.9721 554.584 35.5139C552.44 34.0557 551.324 32.1686 551.324 29.9384C551.324 26.7647 553.297 24.5345 557.243 23.0762C560.417 21.9611 564.363 21.3607 569.252 21.3607H571.825V19.9025C571.825 14.327 569.08 11.5821 563.591 11.5821C561.189 11.5821 559.216 12.1825 557.5 13.2976C555.871 14.4127 554.841 15.9567 554.241 17.9296L553.984 18.0154L552.525 13.2119C556.643 11.4105 560.503 10.5528 564.105 10.5528C568.051 10.5528 571.053 11.4105 573.026 13.2119C574.742 14.7559 575.599 17.5865 575.599 21.7896V28.8233C575.599 31.4824 575.771 33.4553 576.2 34.6562C576.629 35.857 577.315 36.629 578.344 36.8864V37.1437H573.369ZM569.166 22.39C560.417 22.39 556.042 24.9633 556.042 30.0242C556.042 31.9971 556.728 33.6268 558.101 34.9135C559.387 36.1144 561.103 36.7148 563.333 36.7148C565.135 36.7148 566.679 36.2859 568.051 35.4282C569.509 34.5704 570.453 33.4553 570.967 32.0828C571.568 30.6246 571.911 27.794 571.911 23.6767V22.39H569.166ZM582.033 13.0403C583.662 12.6972 585.635 12.0968 587.865 11.1532C587.694 13.2976 587.608 15.3563 587.608 17.4149V18.2727C588.38 16.4714 589.152 15.099 589.924 13.9839C591.64 11.6679 594.299 10.5528 597.987 10.5528C602.019 10.5528 604.935 11.8394 606.565 14.4127C607.852 16.2998 608.452 19.8167 608.452 25.1349V28.566C608.452 31.7397 608.624 33.9699 609.053 35.2566C609.396 36.2859 610.168 36.8006 611.197 36.9721V37.3153C609.739 37.2295 608.023 37.1437 605.964 37.1437C604.42 37.1437 603.134 37.2295 602.104 37.3153V36.9721C603.134 36.8006 603.82 36.1144 604.163 34.9135C604.506 33.7126 604.678 31.5682 604.678 28.6518V24.1913C604.678 19.9025 604.077 16.9003 602.962 15.2705C601.59 13.2119 599.531 12.2683 596.701 12.2683C593.87 12.2683 591.811 13.3834 590.267 15.6136C588.809 17.7581 588.037 21.0176 588.037 25.2207V28.6518C588.037 31.9113 588.209 34.1415 588.638 35.3424C588.895 36.2859 589.581 36.8006 590.525 37.0579V37.401C589.238 37.3153 587.608 37.2295 585.635 37.2295C584.006 37.2295 582.719 37.3153 581.69 37.401V37.0579C582.719 36.9721 583.405 36.2859 583.748 34.9993C584.091 33.7984 584.263 31.654 584.263 28.6518V27.1078C584.263 25.7353 584.263 23.3336 584.177 19.9025C584.177 18.7874 584.091 17.8438 584.006 16.9861C584.006 16.2998 583.92 15.7852 583.92 15.4421C583.748 14.327 583.062 13.6407 581.861 13.555V13.0403H582.033ZM631.355 12.3541C631.355 10.7243 631.183 9.52344 630.926 8.66567C630.583 7.8079 629.982 7.20746 629.039 6.95013V6.17813C629.553 6.17813 630.154 6.17813 630.754 6.17813C631.355 6.17813 631.869 6.17813 632.47 6.26391C632.984 6.26391 633.585 6.34969 634.099 6.34969C634.7 6.34969 635.215 6.34969 635.729 6.34969H646.108C646.88 6.34969 647.738 6.34969 648.682 6.43546C649.625 6.43546 650.654 6.52124 651.684 6.6928C652.713 6.86435 653.657 7.03591 654.6 7.37901C655.544 7.72212 656.402 8.06523 657.174 8.5799C657.946 9.09456 658.546 9.695 658.975 10.467C659.404 11.239 659.661 12.0968 659.661 13.1261C659.661 14.5843 659.318 15.6994 658.717 16.643C658.117 17.5007 657.259 18.2727 656.23 18.7874C655.201 19.302 654.086 19.7309 652.885 19.9025C651.684 20.074 650.483 20.3314 649.368 20.4171V20.5029C650.654 20.5887 652.027 20.7603 653.571 21.0176C655.115 21.2749 656.487 21.7038 657.774 22.3042C659.061 22.9047 660.09 23.7625 660.948 24.7918C661.806 25.8211 662.234 27.1935 662.234 28.8233C662.234 30.11 661.977 31.2251 661.377 32.0828C660.862 33.0264 660.09 33.7984 659.232 34.3988C658.289 34.9993 657.259 35.5139 656.144 35.857C655.029 36.2001 653.828 36.4575 652.627 36.629C651.426 36.8006 650.226 36.8864 649.11 36.9721C647.995 37.0579 646.966 37.0579 646.022 37.0579H636.758C636.072 37.0579 635.3 37.0579 634.614 37.0579C633.842 37.0579 633.156 37.0579 632.384 37.1437C631.612 37.1437 630.926 37.2295 630.154 37.2295C629.382 37.2295 628.61 37.2295 627.838 37.2295V36.2859C628.695 36.2859 629.296 36.0286 629.811 35.5139C630.325 34.9993 630.668 34.3988 630.926 33.6268C631.183 32.8548 631.269 31.9971 631.355 30.9677C631.44 30.0242 631.44 28.9949 631.44 27.8798V12.3541H631.355ZM639.846 19.8167H641.391C642.506 19.8167 643.706 19.7309 644.822 19.6452C645.937 19.5594 646.966 19.2163 647.824 18.7874C648.682 18.3585 649.454 17.7581 649.968 16.9003C650.483 16.1283 650.826 15.0132 650.826 13.7265C650.826 12.5256 650.654 11.5821 650.311 10.8101C649.968 10.0381 649.368 9.52344 648.596 9.09456C647.824 8.66567 646.88 8.32256 645.679 8.15101C644.479 7.97945 643.106 7.89368 641.476 7.8079H639.932V19.8167H639.846ZM639.846 27.9655C639.846 29.6811 639.932 31.0535 640.104 31.9971C640.275 33.0264 640.533 33.7984 640.962 34.313C641.39 34.8277 641.991 35.1708 642.677 35.3424C643.449 35.5139 644.393 35.5997 645.679 35.5997C648.081 35.5997 649.968 34.9993 651.341 33.7984C652.713 32.5975 653.399 30.7962 653.399 28.3086C653.399 26.7647 653.056 25.478 652.284 24.6202C651.512 23.7625 650.654 22.9905 649.454 22.5616C648.338 22.0469 647.052 21.7896 645.765 21.618C644.393 21.5323 643.106 21.4465 641.905 21.4465H639.846V27.9655ZM679.819 11.4105C681.706 11.4105 683.593 11.7537 685.308 12.3541C687.024 12.9545 688.568 13.8123 689.94 15.0132C691.313 16.1283 692.342 17.5865 693.114 19.2163C693.886 20.846 694.315 22.6474 694.315 24.706C694.315 26.7647 693.886 28.566 693.114 30.1957C692.342 31.8255 691.227 33.1979 689.94 34.3988C688.568 35.5139 687.024 36.4575 685.308 37.0579C683.593 37.6584 681.706 38.0015 679.819 38.0015C677.932 38.0015 676.045 37.6584 674.329 37.0579C672.613 36.4575 671.069 35.5997 669.697 34.3988C668.325 33.1979 667.295 31.8255 666.523 30.1957C665.751 28.566 665.322 26.7647 665.322 24.706C665.322 22.6474 665.751 20.846 666.523 19.2163C667.295 17.5865 668.41 16.2141 669.697 15.0132C670.984 13.8123 672.613 12.9545 674.329 12.3541C676.13 11.6679 677.932 11.4105 679.819 11.4105ZM679.819 12.9545C678.446 12.9545 677.331 13.3834 676.473 14.2412C675.616 15.099 674.929 16.1283 674.415 17.3292C673.9 18.53 673.643 19.8167 673.471 21.1891C673.3 22.5616 673.214 23.7625 673.214 24.706C673.214 25.7353 673.3 26.9362 673.471 28.2229C673.643 29.5953 673.986 30.882 674.415 32.0828C674.844 33.2837 675.53 34.3131 676.473 35.1708C677.331 36.0286 678.446 36.4575 679.819 36.4575C681.191 36.4575 682.306 36.0286 683.164 35.1708C684.022 34.3131 684.708 33.2837 685.223 32.0828C685.737 30.882 685.995 29.5953 686.166 28.2229C686.338 26.8504 686.424 25.6496 686.424 24.706C686.424 23.6767 686.338 22.4758 686.166 21.1891C685.995 19.8167 685.651 18.53 685.223 17.3292C684.794 16.1283 684.107 15.099 683.164 14.2412C682.392 13.3834 681.191 12.9545 679.819 12.9545ZM722.879 14.9274C722.536 14.4985 722.193 14.1554 721.935 13.7265C721.678 13.3834 721.335 13.0403 721.078 12.783C720.734 12.5256 720.391 12.3541 719.962 12.1825C719.534 12.011 719.019 11.9252 718.418 11.9252C718.161 11.9252 717.818 11.9252 717.561 12.011C717.303 12.0968 717.046 12.2683 716.874 12.5256C717.646 12.8688 718.418 13.3834 719.19 13.8123C719.877 14.327 720.563 14.8416 721.078 15.5278C721.678 16.1283 722.107 16.9003 722.364 17.6723C722.707 18.4443 722.879 19.302 722.879 20.3314C722.879 21.9611 722.536 23.3336 721.764 24.4487C720.992 25.5638 720.048 26.4215 718.933 27.1078C717.818 27.794 716.531 28.3086 715.159 28.566C713.786 28.9091 712.414 29.0806 711.042 29.1664C710.098 29.2522 709.412 29.338 708.897 29.5095C708.382 29.6811 708.211 29.9384 708.211 30.2815C708.211 30.7104 708.554 31.0535 709.326 31.2251C710.098 31.3966 711.213 31.5682 712.757 31.7397C714.73 31.9971 716.531 32.2544 718.075 32.5117C719.619 32.7691 720.906 33.1122 721.935 33.6268C722.965 34.0557 723.737 34.6562 724.337 35.4282C724.852 36.2001 725.195 37.1437 725.195 38.3446C725.195 39.4597 724.937 40.4032 724.509 41.1752C723.994 42.033 723.393 42.7192 722.621 43.2339C721.849 43.8343 720.906 44.2632 719.877 44.6921C718.847 45.0352 717.818 45.3783 716.789 45.5499C715.759 45.7214 714.73 45.893 713.701 45.9787C712.671 46.0645 711.814 46.0645 711.127 46.0645C710.355 46.0645 709.498 46.0645 708.554 45.9787C707.525 45.893 706.495 45.8072 705.466 45.6356C704.437 45.4641 703.407 45.2925 702.378 44.9494C701.349 44.6921 700.405 44.349 699.633 43.8343C698.775 43.4054 698.175 42.805 697.66 42.1188C697.146 41.4326 696.888 40.6606 696.888 39.717C696.888 38.6877 697.231 37.8299 697.832 37.2295C698.518 36.629 699.29 36.1144 700.234 35.6855C701.177 35.3424 702.207 35.085 703.236 34.9135C704.265 34.7419 705.209 34.6562 705.895 34.5704V34.7419C704.094 34.4846 702.807 34.0557 702.035 33.6268C701.263 33.1979 700.92 32.5117 700.92 31.654C700.92 30.7962 701.434 30.11 702.464 29.5953C703.493 29.0806 705.037 28.8233 707.182 28.6518V28.566C706.066 28.3944 705.037 28.0513 704.008 27.6224C702.979 27.1935 702.035 26.6789 701.177 25.9927C700.319 25.3064 699.719 24.5345 699.204 23.5909C698.69 22.6474 698.432 21.5323 698.432 20.3314C698.432 18.7016 698.861 17.3292 699.633 16.2141C700.405 15.099 701.435 14.1554 702.635 13.3834C703.836 12.6114 705.209 12.0968 706.667 11.7537C708.125 11.4105 709.583 11.239 710.956 11.239C711.814 11.239 712.5 11.3248 713.186 11.4105C713.872 11.4963 714.473 11.6679 715.073 11.8394C716.017 11.1532 716.874 10.5528 717.646 10.0381C718.418 9.52344 719.105 9.18033 719.877 8.83723C720.649 8.49412 721.421 8.32256 722.278 8.15101C723.136 7.97945 724.166 7.89368 725.366 7.89368L722.879 14.9274ZM703.836 40.2317C703.836 41.0037 703.922 41.6041 704.179 42.2046C704.437 42.805 704.78 43.2339 705.38 43.6628C705.895 44.0059 706.667 44.349 707.61 44.5205C708.554 44.6921 709.669 44.7779 711.042 44.7779C712.414 44.7779 713.529 44.6921 714.473 44.5205C715.416 44.349 716.103 44.0059 716.703 43.6628C717.303 43.3197 717.646 42.805 717.904 42.2046C718.161 41.6041 718.247 41.0037 718.247 40.2317C718.247 39.5455 718.161 38.8592 717.904 38.3446C717.646 37.7441 717.303 37.3153 716.703 36.8864C716.103 36.4575 715.416 36.2001 714.473 36.0286C713.529 35.857 712.414 35.6855 711.042 35.6855C709.669 35.6855 708.554 35.7713 707.61 36.0286C706.667 36.2001 705.981 36.5433 705.38 36.8864C704.866 37.2295 704.437 37.7441 704.179 38.3446C704.008 38.8592 703.836 39.4597 703.836 40.2317ZM715.502 20.3314C715.502 19.302 715.416 18.3585 715.245 17.4149C715.073 16.5572 714.816 15.6994 714.387 15.099C714.044 14.4127 713.529 13.8981 712.929 13.555C712.328 13.2119 711.556 12.9545 710.698 12.9545C709.841 12.9545 709.069 13.1261 708.468 13.555C707.868 13.8981 707.353 14.4985 707.01 15.099C706.667 15.7852 706.324 16.5572 706.152 17.4149C705.981 18.2727 705.895 19.302 705.895 20.3314C705.895 21.3607 705.981 22.3042 706.152 23.2478C706.324 24.1056 706.581 24.9633 707.01 25.5638C707.353 26.25 707.868 26.7647 708.468 27.1935C709.069 27.5367 709.841 27.794 710.698 27.794C711.556 27.794 712.328 27.6224 712.929 27.1935C713.529 26.8504 714.044 26.25 714.387 25.5638C714.73 24.8776 715.073 24.1056 715.245 23.2478C715.416 22.3042 715.502 21.3607 715.502 20.3314ZM730.256 18.8732C730.942 18.1869 731.542 17.4149 732.057 16.5572C732.572 15.6994 732.829 14.7559 732.829 13.7265C731.714 13.7265 730.77 13.3834 729.998 12.6114C729.226 11.8394 728.883 10.8101 728.969 9.35189C728.969 8.23679 729.312 7.29324 730.084 6.52124C730.856 5.74925 731.714 5.32036 732.915 5.32036C734.116 5.32036 734.973 5.74925 735.745 6.52124C736.517 7.29324 736.86 8.23679 736.86 9.35189C736.86 10.3812 736.689 11.4105 736.346 12.4399C736.003 13.4692 735.574 14.4127 735.059 15.3563C734.544 16.2998 733.944 17.1576 733.258 17.9296C732.572 18.7016 731.971 19.302 731.285 19.8167L730.256 18.8732ZM744.323 8.23679C744.323 7.12168 744.152 6.34969 743.723 5.83502C743.294 5.32036 742.608 4.89148 741.578 4.71992V3.94793C743.208 3.77637 744.838 3.60482 746.468 3.26171C748.097 3.00438 749.813 2.66127 751.528 2.23238C751.528 3.00438 751.528 3.77637 751.443 4.71992C751.357 5.57769 751.357 6.52124 751.357 7.37901V29.0806C751.357 31.0535 751.614 32.7691 752.043 34.0557C752.472 35.4282 753.33 36.2001 754.702 36.5433V37.3153C753.587 37.3153 752.472 37.3153 751.271 37.2295C750.156 37.1437 749.041 37.1437 747.84 37.1437C746.725 37.1437 745.61 37.1437 744.409 37.2295C743.294 37.3153 742.179 37.3153 740.978 37.3153V36.629C742.264 36.2859 743.122 35.4282 743.551 34.1415C743.98 32.7691 744.237 31.1393 744.237 29.1664V8.23679H744.323ZM767.311 31.3966C767.311 32.8548 767.569 34.0557 767.998 34.9135C768.427 35.857 769.284 36.3717 770.657 36.629V37.3153C769.542 37.3153 768.426 37.3153 767.226 37.2295C766.11 37.1437 764.995 37.1437 763.794 37.1437C762.679 37.1437 761.564 37.1437 760.363 37.2295C759.248 37.3153 758.133 37.3153 756.932 37.3153V36.629C758.219 36.4575 759.163 35.857 759.591 34.9135C760.02 33.9699 760.278 32.7691 760.278 31.3966V16.9861C760.278 16.2141 760.02 15.6136 759.506 15.1847C758.991 14.6701 758.391 14.4127 757.619 14.2412V13.555C760.792 13.2976 763.966 12.8688 767.226 12.1825V31.3966H767.311ZM763.623 2.23238C764.652 2.23238 765.596 2.66127 766.282 3.43326C766.968 4.20526 767.311 5.14881 767.311 6.17813C767.311 7.20746 766.968 8.15101 766.282 8.923C765.596 9.695 764.738 10.1239 763.623 10.1239C762.594 10.1239 761.65 9.695 760.964 8.923C760.278 8.15101 759.935 7.20746 759.935 6.17813C759.935 5.14881 760.278 4.20526 760.964 3.43326C761.736 2.66127 762.594 2.23238 763.623 2.23238ZM794.503 12.0968H802.823V12.783C802.137 12.8688 801.622 13.2119 801.193 13.8123C800.764 14.4127 800.593 15.3563 800.593 16.5572V41.0895C800.593 41.6041 800.679 42.1188 800.764 42.6334C800.85 43.1481 801.022 43.577 801.279 44.0059C801.537 44.4348 801.88 44.7779 802.223 45.0352C802.652 45.2925 803.166 45.4641 803.767 45.5499V46.2361C802.566 46.2361 801.365 46.2361 800.25 46.1503C799.049 46.0645 797.934 46.0645 796.904 46.0645C795.789 46.0645 794.674 46.0645 793.388 46.1503C792.101 46.2361 790.9 46.2361 789.699 46.2361V45.3783C791.243 45.121 792.273 44.6063 792.787 43.8343C793.302 43.0623 793.559 41.9472 793.559 40.5748V32.5117H793.473C793.302 33.1122 792.959 33.7126 792.53 34.313C792.101 34.9135 791.586 35.5139 790.9 35.9428C790.214 36.4575 789.442 36.8006 788.498 37.1437C787.555 37.4868 786.44 37.5726 785.153 37.5726C783.352 37.5726 781.722 37.2295 780.264 36.4575C778.806 35.6855 777.519 34.7419 776.404 33.5411C775.289 32.3402 774.517 30.882 773.916 29.338C773.316 27.794 772.973 26.0784 772.973 24.4487C772.973 22.8189 773.316 21.1891 773.916 19.5594C774.517 17.9296 775.374 16.5572 776.404 15.3563C777.519 14.1554 778.72 13.1261 780.264 12.4399C781.722 11.6679 783.352 11.3248 785.153 11.3248C787.212 11.3248 788.927 11.6679 790.214 12.2683C791.501 12.9545 792.701 13.8123 793.645 14.8416L794.503 12.0968ZM780.95 24.6202C780.95 28.3086 781.465 31.1393 782.494 33.1122C783.523 35.085 785.153 36.0286 787.383 36.0286C789.699 36.0286 791.243 35.085 792.187 33.1122C793.13 31.1393 793.645 28.3086 793.645 24.6202C793.645 20.9318 793.13 18.1012 792.187 16.1283C791.243 14.1554 789.613 13.2119 787.383 13.2119C785.067 13.2119 783.438 14.1554 782.494 16.1283C781.465 18.1012 780.95 20.9318 780.95 24.6202ZM55.9611 68.8813L55.8753 84.3212C55.8753 85.1789 55.9611 86.1225 56.0469 87.1518C56.1327 88.1811 56.39 89.1247 56.7331 90.0682C57.0762 91.0118 57.5909 91.7838 58.1913 92.5558C58.7918 93.242 59.6495 93.7566 60.6789 94.014V94.8717H48.9274V94.0998C49.8709 93.8424 50.7287 93.3278 51.4149 92.6415C52.1011 91.9553 52.6158 91.0975 53.0447 90.154C53.4736 89.2105 53.7309 88.2669 53.9025 87.2376C54.074 86.2083 54.1598 85.2647 54.1598 84.4069V71.5404C54.1598 70.1679 54.074 69.0528 53.9025 68.195C53.7309 67.3373 53.5594 66.7368 53.2162 66.2222C52.9589 65.7075 52.6158 65.3644 52.1869 65.1071C51.758 64.8497 51.3292 64.6782 50.7287 64.5066V63.9062C51.6723 63.9062 52.6158 63.9062 53.6451 63.992C54.5887 64.0777 55.5322 64.0777 56.39 64.0777C57.2478 64.0777 58.2771 64.0777 59.3064 63.992C60.3358 63.9062 61.3651 63.9062 62.3086 63.9062L71.3152 83.1203L79.5498 63.9062C80.4934 63.9062 81.4369 63.9062 82.4663 63.992C83.4098 64.0777 84.3534 64.0777 85.2111 64.0777C86.0689 64.0777 87.0125 64.0777 88.0418 63.992C89.0711 63.9062 90.1004 63.9062 91.044 63.9062V64.5066C90.3578 64.6782 89.7573 64.9355 89.4142 65.2786C89.0711 65.6217 88.728 65.9648 88.5564 66.3937C88.3849 66.8226 88.2133 67.3373 88.2133 67.8519C88.2133 68.3666 88.1276 68.967 88.1276 69.6533V85.522C88.1276 86.6371 88.1276 87.6665 88.2133 88.61C88.2991 89.5536 88.4707 90.4971 88.6422 91.2691C88.8138 92.0411 89.2427 92.6415 89.7573 93.1562C90.272 93.6709 90.9582 93.9282 91.816 93.9282V94.8717H75.9472V93.9282C76.805 93.9282 77.4912 93.6709 78.0059 93.1562C78.5205 92.6415 78.8636 92.0411 79.121 91.2691C79.3783 90.4971 79.5498 89.6393 79.5498 88.61C79.6356 87.6665 79.6356 86.6371 79.6356 85.522V68.195H79.4641L67.6268 95.8153H67.0264L55.9611 68.8813ZM113.432 90.0682C112.488 91.8696 111.373 93.242 110.001 94.1855C108.628 95.0433 106.999 95.558 104.94 95.558C103.396 95.558 102.109 95.3006 100.994 94.786C99.879 94.2713 98.9355 93.5851 98.1635 92.7273C97.3915 91.8695 96.8768 90.8402 96.448 89.6393C96.1049 88.4385 95.9333 87.1518 95.9333 85.6936C95.9333 83.8065 95.9333 81.9194 95.9333 80.0323C95.9333 78.1452 95.9333 76.2581 95.8475 74.371C95.8475 73.5132 95.5902 72.9986 95.1613 72.6555C94.7324 72.3123 94.132 72.1408 93.36 71.9692V71.1972C94.9897 71.0257 96.6195 70.8541 98.2493 70.6826C99.8791 70.511 101.595 70.1679 103.31 69.8248C103.224 70.9399 103.139 72.4839 103.053 74.2852C102.967 76.1723 102.881 78.231 102.881 80.547V85.2647C102.881 86.0367 102.967 86.8087 103.053 87.6665C103.139 88.5242 103.396 89.2962 103.739 89.9825C104.082 90.6687 104.511 91.2691 105.197 91.698C105.798 92.1269 106.57 92.3842 107.513 92.3842C108.543 92.3842 109.486 92.1269 110.172 91.5264C110.859 90.926 111.459 90.2398 111.888 89.2962C112.317 88.3527 112.66 87.3234 112.831 86.2083C113.003 85.0931 113.089 83.8923 113.089 82.6914V74.8857C113.089 73.9421 112.831 73.2559 112.403 72.7412C111.974 72.2266 111.287 71.9692 110.344 71.7977V71.1115C111.974 70.9399 113.603 70.7684 115.233 70.5968C116.863 70.4253 118.493 70.1679 120.122 69.739C120.037 75.5719 119.951 81.4905 119.951 87.4949C119.951 88.61 120.037 89.4678 120.122 90.2398C120.208 91.0118 120.38 91.6122 120.551 92.1269C120.723 92.6415 121.066 92.9847 121.409 93.3278C121.752 93.5851 122.267 93.8424 122.782 94.014V94.7002H114.29L113.432 90.0682ZM143.282 90.8402C142.339 92.2984 141.309 93.4135 140.109 94.2713C138.908 95.1291 137.449 95.558 135.648 95.558C134.447 95.558 133.246 95.4722 131.96 95.2149C130.759 94.9575 129.644 94.5286 128.7 93.9282C127.757 93.3278 126.985 92.5558 126.384 91.6122C125.784 90.6687 125.526 89.4678 125.526 88.0954C125.526 86.3798 126.041 85.0074 127.07 83.8923C128.1 82.7772 129.472 81.8336 131.016 81.2332C132.646 80.547 134.361 80.1181 136.249 79.775C138.136 79.5176 139.937 79.3461 141.738 79.3461H142.768V77.2016C142.768 75.2288 142.253 73.6848 141.309 72.4839C140.28 71.283 138.908 70.6826 137.192 70.6826C135.133 70.6826 133.504 71.4546 132.217 72.9986C130.93 74.4568 129.987 76.4297 129.301 78.9172L128.614 79.0887L126.556 71.4546C128.7 70.8541 130.759 70.2537 132.817 69.739C134.876 69.2244 136.935 69.0528 139.079 69.0528C140.709 69.0528 142.167 69.2244 143.54 69.5675C144.912 69.9106 146.027 70.511 146.971 71.3688C147.914 72.2266 148.686 73.3417 149.201 74.7141C149.716 76.0865 149.973 77.8021 149.973 79.8607V89.4678C149.973 90.5829 150.144 91.5264 150.488 92.3842C150.831 93.242 151.517 93.7566 152.546 94.014V94.7002H144.397L143.282 90.8402ZM142.853 80.8901H141.996C140.881 80.8901 139.765 81.0616 138.736 81.319C137.707 81.5763 136.763 82.091 135.991 82.6914C135.219 83.2918 134.619 84.0638 134.104 85.0074C133.675 85.9509 133.418 87.066 133.418 88.4385C133.418 89.0389 133.504 89.7251 133.675 90.3256C133.847 90.926 134.104 91.4407 134.533 91.9553C134.876 92.47 135.391 92.8131 135.905 93.1562C136.42 93.4993 137.021 93.5851 137.707 93.5851C138.736 93.5851 139.594 93.3278 140.28 92.7273C140.966 92.1269 141.481 91.4407 141.91 90.5829C142.253 89.7251 142.596 88.7816 142.768 87.838C142.939 86.8945 143.025 85.9509 143.025 85.1789V80.8901H142.853ZM164.126 74.5426H164.212C165.07 72.7412 166.185 71.3688 167.557 70.4252C168.93 69.4817 170.645 69.0528 172.704 69.0528C174.848 69.0528 176.564 69.5675 178.022 70.5968C179.395 71.6261 180.338 72.9128 180.853 74.4568C181.796 72.6555 182.911 71.3688 184.284 70.4252C185.656 69.5675 187.372 69.0528 189.516 69.0528C190.803 69.0528 192.004 69.2244 193.033 69.6533C194.062 70.0821 195.006 70.6826 195.778 71.3688C196.55 72.1408 197.15 72.9986 197.579 74.0279C198.008 75.0572 198.265 76.2581 198.265 77.5448V90.3256C198.265 91.4407 198.523 92.2984 199.037 92.9846C199.552 93.5851 200.324 94.0998 201.439 94.2713V94.9575C200.324 94.9575 199.209 94.9575 198.008 94.8717C196.893 94.786 195.778 94.786 194.749 94.786C193.719 94.786 192.69 94.786 191.661 94.8717C190.546 94.9575 189.43 94.9575 188.315 94.9575V94.2713C189.173 94.1855 189.859 93.7566 190.374 93.1562C190.974 92.47 191.232 91.5264 191.232 90.3256V80.2038C191.232 79.0887 191.146 78.0594 191.06 77.0301C190.974 76.0008 190.717 75.143 190.374 74.371C190.031 73.599 189.602 72.9986 188.916 72.4839C188.315 72.055 187.543 71.7977 186.6 71.7977C185.742 71.7977 184.97 72.055 184.284 72.5697C183.683 73.0843 183.083 73.7706 182.74 74.6283C182.311 75.4861 182.054 76.3439 181.882 77.3732C181.71 78.4025 181.625 79.3461 181.625 80.2896V90.4113C181.625 91.5264 181.882 92.3842 182.397 93.0704C182.911 93.6709 183.683 94.1855 184.798 94.3571V95.0433C183.683 95.0433 182.568 95.0433 181.367 94.9575C180.252 94.8717 179.137 94.8717 178.108 94.8717C177.079 94.8717 176.049 94.8717 175.02 94.9575C173.905 95.0433 172.79 95.0433 171.675 95.0433V94.3571C172.532 94.2713 173.219 93.8424 173.733 93.242C174.334 92.5558 174.591 91.6122 174.591 90.4113V80.2038C174.591 79.0887 174.505 78.0594 174.419 77.0301C174.334 76.0008 174.076 75.143 173.733 74.371C173.39 73.599 172.961 72.9986 172.275 72.4839C171.675 72.055 170.903 71.7977 169.959 71.7977C169.101 71.7977 168.329 72.055 167.643 72.5697C167.043 73.0843 166.442 73.7706 166.099 74.6283C165.67 75.4861 165.413 76.3439 165.241 77.3732C165.07 78.4025 164.984 79.3461 164.984 80.2896V86.8945C164.984 88.8673 165.241 90.5829 165.67 91.8695C166.099 93.242 166.957 94.014 168.329 94.3571V95.0433C167.214 95.0433 166.099 95.0433 164.898 94.9575C163.783 94.8717 162.668 94.8717 161.467 94.8717C160.352 94.8717 159.237 94.8717 158.036 94.9575C156.921 95.0433 155.806 95.0433 154.605 95.0433V94.3571C155.892 94.014 156.749 93.1562 157.178 91.8695C157.607 90.4971 157.864 88.8673 157.864 86.8945V76.5154C157.864 75.6577 157.779 74.9714 157.607 74.4568C157.436 73.8563 157.178 73.4275 156.921 73.0843C156.664 72.7412 156.32 72.4839 155.977 72.2266C155.634 72.055 155.291 71.9692 154.948 71.8835V71.1972C156.578 71.1115 158.122 70.9399 159.666 70.6826C161.21 70.511 162.839 70.1679 164.383 69.8248V74.5426H164.126ZM212.247 74.5426H212.333C213.191 72.7412 214.306 71.3688 215.678 70.4252C217.051 69.4817 218.766 69.0528 220.825 69.0528C222.969 69.0528 224.685 69.5675 226.143 70.5968C227.516 71.6261 228.459 72.9128 228.974 74.4568C229.917 72.6555 231.032 71.3688 232.405 70.4252C233.777 69.5675 235.493 69.0528 237.637 69.0528C238.924 69.0528 240.125 69.2244 241.154 69.6533C242.183 70.0821 243.127 70.6826 243.899 71.3688C244.671 72.1408 245.271 72.9986 245.7 74.0279C246.129 75.0572 246.386 76.2581 246.386 77.5448V90.3256C246.386 91.4407 246.644 92.2984 247.158 92.9846C247.673 93.5851 248.445 94.0998 249.56 94.2713V94.9575C248.445 94.9575 247.33 94.9575 246.129 94.8717C245.014 94.786 243.899 94.786 242.87 94.786C241.84 94.786 240.811 94.786 239.782 94.8717C238.667 94.9575 237.551 94.9575 236.436 94.9575V94.2713C237.294 94.1855 237.98 93.7566 238.495 93.1562C239.095 92.47 239.353 91.5264 239.353 90.3256V80.2038C239.353 79.0887 239.267 78.0594 239.181 77.0301C239.095 76.0008 238.838 75.143 238.495 74.371C238.152 73.599 237.723 72.9986 237.037 72.4839C236.436 72.055 235.664 71.7977 234.721 71.7977C233.863 71.7977 233.091 72.055 232.405 72.5697C231.804 73.0843 231.204 73.7706 230.861 74.6283C230.432 75.4861 230.175 76.3439 230.003 77.3732C229.831 78.4025 229.746 79.3461 229.746 80.2896V90.4113C229.746 91.5264 230.003 92.3842 230.518 93.0704C231.032 93.6709 231.804 94.1855 232.919 94.3571V95.0433C231.804 95.0433 230.689 95.0433 229.488 94.9575C228.373 94.8717 227.258 94.8717 226.229 94.8717C225.2 94.8717 224.17 94.8717 223.141 94.9575C222.026 95.0433 220.911 95.0433 219.796 95.0433V94.3571C220.653 94.2713 221.34 93.8424 221.854 93.242C222.455 92.5558 222.712 91.6122 222.712 90.4113V80.2038C222.712 79.0887 222.626 78.0594 222.54 77.0301C222.455 76.0008 222.197 75.143 221.854 74.371C221.511 73.599 221.082 72.9986 220.396 72.4839C219.796 72.055 219.024 71.7977 218.08 71.7977C217.222 71.7977 216.45 72.055 215.764 72.5697C215.164 73.0843 214.563 73.7706 214.22 74.6283C213.791 75.4861 213.534 76.3439 213.362 77.3732C213.191 78.4025 213.105 79.3461 213.105 80.2896V86.8945C213.105 88.8673 213.362 90.5829 213.791 91.8695C214.22 93.242 215.078 94.014 216.45 94.3571V95.0433C215.335 95.0433 214.22 95.0433 213.019 94.9575C211.904 94.8717 210.789 94.8717 209.588 94.8717C208.473 94.8717 207.358 94.8717 206.157 94.9575C205.042 95.0433 203.927 95.0433 202.726 95.0433V94.3571C204.013 94.014 204.87 93.1562 205.299 91.8695C205.728 90.4971 205.985 88.8673 205.985 86.8945V76.5154C205.985 75.6577 205.9 74.9714 205.728 74.4568C205.557 73.8563 205.299 73.4275 205.042 73.0843C204.785 72.7412 204.441 72.4839 204.098 72.2266C203.755 72.055 203.412 71.9692 203.069 71.8835V71.1972C204.699 71.1115 206.243 70.9399 207.787 70.6826C209.331 70.511 210.961 70.1679 212.505 69.8248V74.5426H212.247ZM265.944 69.1386C267.831 69.1386 269.718 69.4817 271.433 70.0821C273.149 70.6826 274.693 71.5404 276.065 72.7412C277.438 73.9421 278.467 75.3145 279.239 76.9443C280.011 78.5741 280.44 80.3754 280.44 82.4341C280.44 84.4927 280.011 86.294 279.239 87.9238C278.467 89.5536 277.352 90.926 276.065 92.1269C274.779 93.3278 273.149 94.1855 271.433 94.786C269.718 95.3864 267.831 95.7295 265.944 95.7295C264.057 95.7295 262.169 95.3864 260.454 94.786C258.738 94.1855 257.194 93.3278 255.822 92.1269C254.45 91.0118 253.42 89.5536 252.648 87.9238C251.876 86.294 251.447 84.4927 251.447 82.4341C251.447 80.3754 251.876 78.5741 252.648 76.9443C253.42 75.3145 254.535 73.9421 255.822 72.7412C257.194 71.6261 258.738 70.6826 260.454 70.0821C262.169 69.3959 263.971 69.1386 265.944 69.1386ZM265.944 70.5968C264.571 70.5968 263.456 71.0257 262.598 71.8835C261.741 72.7412 261.054 73.7706 260.54 74.9714C260.025 76.1723 259.768 77.459 259.596 78.8314C259.425 80.2038 259.339 81.4047 259.339 82.3483C259.339 83.3776 259.425 84.5785 259.596 85.8651C259.768 87.2376 260.111 88.5242 260.54 89.7251C260.969 90.926 261.655 91.9553 262.598 92.8131C263.456 93.6709 264.571 94.0998 265.944 94.0998C267.316 94.0998 268.431 93.6709 269.289 92.8131C270.147 91.9553 270.833 90.926 271.348 89.7251C271.862 88.5242 272.12 87.2376 272.291 85.8651C272.463 84.4927 272.549 83.2918 272.549 82.3483C272.549 81.319 272.463 80.1181 272.291 78.8314C272.12 77.459 271.777 76.1723 271.348 74.9714C270.919 73.7706 270.233 72.7412 269.289 71.8835C268.431 71.0257 267.316 70.5968 265.944 70.5968ZM286.702 65.9648C286.702 64.8497 286.53 64.0777 286.101 63.5631C285.672 63.0484 284.986 62.6195 283.957 62.448V61.7618C285.587 61.5902 287.216 61.4186 288.846 61.0755C290.476 60.7324 292.191 60.4751 293.907 60.0462C293.907 60.8182 293.907 61.5902 293.821 62.5337C293.736 63.3915 293.736 64.3351 293.736 65.1928V86.8945C293.736 88.8673 293.993 90.5829 294.422 91.8695C294.851 93.242 295.708 94.014 297.081 94.3571V95.0433C295.966 95.0433 294.851 95.0433 293.65 94.9575C292.535 94.8717 291.42 94.8717 290.219 94.8717C289.104 94.8717 287.988 94.8717 286.788 94.9575C285.672 95.0433 284.557 95.0433 283.356 95.0433V94.3571C284.643 94.014 285.501 93.1562 285.93 91.8695C286.359 90.4971 286.616 88.8673 286.616 86.8945V65.9648H286.702ZM316.895 90.8402C315.952 92.2984 314.922 93.4135 313.722 94.2713C312.521 95.1291 311.063 95.558 309.261 95.558C308.06 95.558 306.859 95.4722 305.573 95.2149C304.372 94.9575 303.257 94.5286 302.313 93.9282C301.37 93.3278 300.598 92.5558 299.997 91.6122C299.397 90.6687 299.139 89.4678 299.139 88.0954C299.139 86.3798 299.654 85.0074 300.683 83.8923C301.713 82.7772 303.085 81.8336 304.629 81.2332C306.259 80.547 307.975 80.1181 309.862 79.775C311.749 79.5176 313.55 79.3461 315.351 79.3461H316.381V77.2016C316.381 75.2288 315.866 73.6848 314.922 72.4839C313.893 71.283 312.521 70.6826 310.805 70.6826C308.747 70.6826 307.117 71.4546 305.83 72.9986C304.543 74.4568 303.6 76.4297 302.914 78.9172L302.227 79.0887L300.169 71.4546C302.313 70.8541 304.372 70.2537 306.431 69.739C308.489 69.2244 310.548 69.0528 312.692 69.0528C314.322 69.0528 315.78 69.2244 317.153 69.5675C318.525 69.9106 319.64 70.511 320.584 71.3688C321.527 72.2266 322.299 73.3417 322.814 74.7141C323.329 76.0865 323.586 77.8021 323.586 79.8607V89.4678C323.586 90.5829 323.758 91.5264 324.101 92.3842C324.444 93.242 325.13 93.7566 326.159 94.014V94.7002H318.01L316.895 90.8402ZM316.466 80.8901H315.609C314.494 80.8901 313.378 81.0616 312.349 81.319C311.32 81.5763 310.376 82.091 309.604 82.6914C308.832 83.2918 308.232 84.0638 307.717 85.0074C307.288 85.9509 307.031 87.066 307.031 88.4385C307.031 89.0389 307.117 89.7251 307.288 90.3256C307.46 90.926 307.717 91.4407 308.146 91.9553C308.489 92.47 309.004 92.8131 309.519 93.1562C310.033 93.4993 310.634 93.5851 311.32 93.5851C312.349 93.5851 313.207 93.3278 313.893 92.7273C314.579 92.1269 315.094 91.4407 315.523 90.5829C315.866 89.7251 316.209 88.7816 316.381 87.838C316.552 86.8945 316.638 85.9509 316.638 85.1789V80.8901H316.466ZM344.944 77.459C344.601 77.0301 344.173 76.6012 343.744 76.2581C343.315 75.915 342.8 75.7434 342.2 75.7434C341.513 75.7434 340.913 76.0008 340.398 76.4296C339.884 76.8585 339.541 77.459 339.283 78.1452C339.026 78.8314 338.769 79.6034 338.683 80.4612C338.597 81.319 338.511 82.1767 338.511 83.1203V86.8087C338.511 88.7816 338.769 90.4971 339.197 91.7838C339.626 93.1562 340.484 93.9282 341.857 94.2713V94.9575C340.741 94.9575 339.626 94.9575 338.425 94.8717C337.31 94.786 336.195 94.786 334.994 94.786C333.879 94.786 332.764 94.786 331.563 94.8717C330.448 94.9575 329.333 94.9575 328.132 94.9575V94.2713C329.419 93.9282 330.277 93.0704 330.706 91.7838C331.134 90.4113 331.392 88.7816 331.392 86.8087V76.5154C331.392 75.6577 331.306 74.9714 331.134 74.4568C330.963 73.8563 330.706 73.4275 330.448 73.0843C330.191 72.7412 329.848 72.4839 329.505 72.2266C329.161 72.055 328.818 71.9692 328.475 71.8835V71.1972C331.563 70.9399 334.823 70.511 338.254 69.8248C338.254 70.4253 338.254 71.1115 338.168 71.7977C338.168 72.4839 338.082 73.1701 338.082 73.9421V76.7728H338.168C338.425 75.915 338.769 75.0572 339.197 74.1137C339.626 73.2559 340.141 72.3981 340.827 71.6261C341.428 70.8541 342.2 70.2537 342.972 69.739C343.744 69.2244 344.687 69.0528 345.631 69.0528H347.775L344.944 77.459ZM369.991 77.9736C369.906 76.9443 369.734 75.915 369.305 75.0572C368.876 74.1994 368.362 73.3417 367.675 72.7412C366.989 72.055 366.217 71.5404 365.274 71.1972C364.33 70.8541 363.387 70.6826 362.357 70.6826C360.985 70.6826 359.87 71.0257 359.012 71.7977C358.154 72.5697 357.639 73.6848 357.639 75.0572C357.639 75.7434 357.811 76.2581 358.154 76.7728C358.497 77.2016 359.012 77.6305 359.612 77.9736C360.299 78.3167 361.156 78.5741 362.186 78.8314C363.215 79.0887 364.416 79.3461 365.874 79.5176C366.903 79.6892 367.933 79.8607 368.876 80.2038C369.906 80.4612 370.763 80.8901 371.535 81.4047C372.307 81.9194 372.908 82.6056 373.423 83.5492C373.851 84.4069 374.109 85.522 374.109 86.9802C374.109 88.6958 373.68 90.154 372.822 91.2691C371.964 92.3842 370.849 93.3278 369.563 93.9282C368.276 94.5286 366.818 95.0433 365.274 95.3006C363.73 95.558 362.272 95.6437 360.899 95.6437C358.84 95.6437 356.868 95.3864 354.895 94.9575C352.922 94.5286 350.949 93.9282 349.148 93.0704L351.549 85.0931H351.721C352.064 86.294 352.579 87.4949 353.179 88.5242C353.78 89.6393 354.466 90.5829 355.238 91.3549C356.096 92.2127 356.953 92.8131 358.068 93.3278C359.098 93.8424 360.384 94.014 361.757 94.014C362.357 94.014 363.043 93.9282 363.644 93.6709C364.244 93.4135 364.845 93.1562 365.359 92.7273C365.874 92.2984 366.303 91.7838 366.646 91.2691C366.989 90.6687 367.161 90.0682 367.161 89.382C367.161 88.5242 366.903 87.838 366.475 87.3234C366.046 86.8087 365.359 86.3798 364.587 86.1225C363.815 85.8651 362.958 85.6078 361.928 85.4363C360.899 85.2647 359.956 85.0931 358.926 84.9216C357.811 84.75 356.782 84.4927 355.838 84.1496C354.809 83.8065 353.951 83.4634 353.179 82.8629C352.407 82.3483 351.807 81.5763 351.378 80.7185C350.949 79.8607 350.692 78.7456 350.692 77.3732C350.692 75.7434 351.035 74.4568 351.807 73.4275C352.579 72.3981 353.522 71.5404 354.723 70.9399C355.924 70.3395 357.211 69.9106 358.583 69.6533C359.956 69.3959 361.328 69.3102 362.615 69.3102C364.33 69.3102 366.131 69.4817 367.847 69.9106C369.648 70.3395 371.278 70.7684 372.908 71.283L370.678 78.4025L369.991 77.9736ZM387.147 89.0389C387.147 90.4971 387.404 91.698 387.833 92.5558C388.262 93.4993 389.12 94.014 390.492 94.2713V94.9575C389.377 94.9575 388.262 94.9575 387.061 94.8717C385.946 94.786 384.831 94.786 383.63 94.786C382.515 94.786 381.4 94.786 380.199 94.8717C379.084 94.9575 377.969 94.9575 376.768 94.9575V94.2713C378.055 94.0998 378.998 93.4993 379.427 92.5558C379.856 91.6122 380.113 90.4113 380.113 89.0389V74.7141C380.113 73.9421 379.856 73.3417 379.341 72.9128C378.827 72.3981 378.226 72.1408 377.454 71.9692V71.283C380.628 71.0257 383.802 70.5968 387.061 69.9106V89.0389H387.147ZM383.544 59.9604C384.574 59.9604 385.517 60.3893 386.203 61.1613C386.89 61.9333 387.233 62.8769 387.233 63.9062C387.233 64.9355 386.89 65.8791 386.203 66.651C385.517 67.423 384.659 67.8519 383.544 67.8519C382.515 67.8519 381.571 67.423 380.885 66.651C380.199 65.8791 379.856 64.9355 379.856 63.9062C379.856 62.8769 380.199 61.9333 380.885 61.1613C381.571 60.3893 382.429 59.9604 383.544 59.9604ZM418.027 86.3798L415.282 94.8717H392.551L406.018 75.915C406.79 74.7999 407.133 73.9421 407.133 73.3417C407.133 73.0843 407.047 72.827 406.876 72.6555C406.704 72.4839 406.533 72.3981 406.275 72.3123C406.018 72.2266 405.846 72.1408 405.589 72.1408C405.332 72.1408 405.074 72.1408 404.903 72.1408C403.788 72.1408 402.673 72.3123 401.643 72.6555C400.614 72.9986 399.67 73.5132 398.727 74.1137C397.869 74.7141 397.011 75.4003 396.239 76.1723C395.467 76.9443 394.781 77.8021 394.095 78.6599H393.409L395.896 70.5968H416.826L404.217 89.8109C403.53 90.8402 403.187 91.698 403.187 92.3842C403.187 92.7273 403.359 92.9846 403.616 93.0704C403.873 93.1562 404.217 93.242 404.474 93.242C405.761 93.242 406.961 93.0704 408.162 92.7273C409.363 92.3842 410.478 91.8696 411.593 91.2691C412.708 90.6687 413.652 89.8967 414.596 89.0389C415.539 88.1811 416.311 87.2376 417.083 86.2083H418.027V86.3798ZM440.758 58.9311C439.042 60.8182 438.27 62.6195 438.356 64.2493C438.785 64.1635 439.128 64.0777 439.214 64.0777C439.814 64.0777 440.414 64.3351 440.843 64.764C441.272 65.1928 441.444 65.7075 441.444 66.4795C441.444 67.0799 441.186 67.6804 440.758 68.195C440.243 68.6239 439.643 68.8813 439.042 68.8813C437.327 68.8813 436.469 67.7662 436.469 65.6217C436.469 62.7911 437.755 60.4751 440.329 58.6738L440.758 58.9311ZM448.134 58.9311C446.505 60.7324 445.647 62.448 445.733 64.2493C446.162 64.1635 446.505 64.0777 446.59 64.0777C447.191 64.0777 447.791 64.3351 448.22 64.764C448.649 65.1928 448.821 65.7075 448.821 66.3937C448.821 67.0799 448.563 67.5946 448.134 68.1093C447.62 68.6239 447.105 68.7955 446.419 68.7955C444.703 68.7955 443.846 67.6804 443.846 65.5359C443.846 62.7053 445.132 60.3893 447.706 58.588L448.134 58.9311ZM474.211 87.838C471.037 83.2918 468.807 80.547 467.52 79.6034C466.405 78.8314 465.29 78.4883 464.089 78.4883C461.859 78.4883 460.744 79.8607 460.744 82.6914V83.5492C460.744 88.61 461.001 91.7838 461.602 93.0704C461.945 93.8424 462.717 94.3571 463.832 94.6144V94.9575C462.288 94.8717 460.315 94.786 457.913 94.786C456.198 94.786 454.825 94.8717 453.71 94.9575V94.6144C454.482 94.3571 454.997 94.014 455.425 93.6709C455.854 93.1562 456.112 92.2984 456.369 91.1833C456.626 89.2962 456.798 84.2354 456.798 75.915V70.0821C456.798 67.423 456.626 65.7075 456.283 64.8497C456.026 63.992 455.34 63.3915 454.396 63.1342V62.7911C455.426 62.8769 456.798 62.9626 458.342 62.9626C459.972 62.9626 461.43 62.8769 462.717 62.7911V63.1342C461.945 63.4773 461.43 64.0777 461.173 64.9355C460.915 65.8791 460.829 67.5946 460.829 70.1679V78.4025L467.52 72.9986C471.466 69.9106 473.782 67.9377 474.725 67.0799C475.669 66.1364 476.184 65.3644 476.184 64.764C476.184 63.992 475.755 63.4773 474.897 63.1342V62.7911C476.012 62.8769 477.47 62.9626 479.1 62.9626C481.073 62.9626 482.874 62.8769 484.418 62.7911V63.1342C481.502 64.1635 476.441 67.5946 469.15 73.3417L464.003 77.3732C467.863 77.5448 470.608 78.0594 472.152 78.9172C473.782 79.8607 475.583 81.8336 477.642 84.9216C480.215 88.6958 482.188 91.0976 483.389 92.2984C484.504 93.4135 485.962 94.1855 487.764 94.6144V94.9575C486.477 94.8717 484.761 94.786 482.788 94.786C481.244 94.786 479.958 94.8717 478.928 94.9575L474.211 87.838ZM520.445 81.8336C520.445 85.6936 519.072 88.8673 516.242 91.5264C513.411 94.1855 509.98 95.4722 505.863 95.4722C501.745 95.4722 498.228 94.1855 495.483 91.6122C492.653 88.9531 491.28 85.7794 491.28 81.9194C491.28 77.9736 492.653 74.7141 495.483 72.1408C498.314 69.5675 501.831 68.2808 506.034 68.2808C510.066 68.2808 513.497 69.5675 516.242 72.2266C519.072 74.7999 520.445 78.0594 520.445 81.8336ZM495.912 81.8336C495.912 85.0074 496.513 87.6665 497.628 89.9825C499.258 92.8989 501.917 94.4429 505.777 94.4429C509.637 94.4429 512.382 92.9847 514.011 89.9825C515.126 87.6665 515.727 85.0074 515.727 81.9194C515.727 78.6599 515.126 75.915 514.011 73.7706C512.382 70.8541 509.637 69.3102 505.605 69.3102C502.517 69.3102 500.115 70.4252 498.4 72.5697C496.77 74.7999 495.912 77.8879 495.912 81.8336ZM548.151 75.143L547.893 74.9714C547.55 73.2559 546.521 71.9692 544.805 70.9399C543.176 69.9106 541.117 69.3959 538.801 69.3959C536.657 69.3959 534.855 69.9106 533.483 70.9399C532.11 71.9692 531.424 73.3417 531.424 75.0572C531.424 76.4297 531.939 77.459 532.882 78.1452C533.826 78.8314 535.456 79.3461 537.772 79.6892L541.289 80.2038C545.149 80.7185 547.636 81.5763 548.751 82.6056C549.952 83.7207 550.552 85.0931 550.552 86.7229C550.552 88.0096 550.209 89.2962 549.437 90.4971C548.665 91.7838 547.636 92.7273 546.349 93.4993C544.033 94.786 541.117 95.4722 537.6 95.4722C533.311 95.4722 529.194 94.6144 525.248 92.8131L526.964 88.0954L527.307 88.1811C527.564 89.9825 528.679 91.4407 530.652 92.6415C532.711 93.7566 535.198 94.3571 538.115 94.3571C540.688 94.3571 542.833 93.8424 544.377 92.7273C546.006 91.698 546.778 90.2398 546.778 88.5242C546.778 87.1518 546.264 86.0367 545.32 85.3505C544.376 84.6643 542.575 84.1496 540.002 83.8065L535.97 83.2918C530.395 82.6056 527.564 80.2039 527.564 76.1723C527.564 73.7706 528.593 71.8835 530.738 70.4252C532.882 68.8813 535.627 68.195 538.972 68.195C542.575 68.195 546.092 68.967 549.523 70.5968L548.151 75.143ZM561.017 76.1723C562.819 70.8541 566.25 68.1093 571.396 68.1093C574.57 68.1093 577.058 68.967 578.687 70.7684C579.631 71.7977 580.403 73.3417 580.918 75.4003C582.719 70.5968 586.15 68.195 591.125 68.195C594.556 68.195 597.129 69.2244 598.845 71.283C600.475 73.0843 601.333 76.0865 601.333 80.2896V86.1225C601.333 89.2962 601.504 91.5264 601.933 92.8131C602.19 93.7566 602.877 94.3571 603.906 94.5286V94.8717C602.533 94.786 600.818 94.7002 598.759 94.7002C597.13 94.7002 595.757 94.786 594.728 94.8717V94.5286C595.757 94.3571 596.443 93.6709 596.786 92.47C597.129 91.2691 597.301 89.1247 597.301 86.2083V79.5176C597.301 76.3439 596.701 73.9421 595.414 72.3123C594.127 70.6826 592.326 69.8248 589.924 69.8248C587.008 69.8248 584.778 71.0257 583.319 73.5132C582.119 75.4861 581.518 78.231 581.518 81.6621V86.2083C581.518 89.5536 581.69 91.7838 582.118 92.8989C582.462 93.8424 583.148 94.4429 584.177 94.6144V94.9575C582.805 94.8717 581.089 94.786 579.116 94.786C577.572 94.786 576.286 94.8717 575.256 94.9575V94.6144C576.286 94.4429 576.972 93.7566 577.315 92.5558C577.658 91.3549 577.83 89.2105 577.83 86.294V82.3483C577.83 78.3168 577.401 75.3146 576.543 73.5132C575.514 71.1972 573.455 69.9964 570.367 69.9964C566.936 69.9964 564.534 71.3688 563.162 74.1994C562.132 76.2581 561.618 79.5176 561.618 83.8923V86.2083C561.618 89.2962 561.789 91.5264 562.132 92.8989C562.39 93.9282 563.076 94.4429 564.02 94.6144V94.9575C562.733 94.8717 561.103 94.786 559.044 94.786C557.5 94.786 556.214 94.8717 555.356 94.9575V94.6144C556.385 94.3571 557.072 93.6709 557.415 92.47C557.758 91.2691 557.929 89.2105 557.929 86.2083V84.6643C557.929 83.2918 557.929 80.8901 557.844 77.459C557.844 76.3439 557.758 75.4003 557.672 74.4568C557.672 73.7706 557.586 73.2559 557.586 72.9128C557.415 71.7119 556.728 71.1115 555.528 71.0257V70.7684C556.986 70.511 558.959 69.9106 561.36 68.8813C561.189 70.9399 561.103 73.0843 561.103 75.143V76.1723H561.017ZM637.187 81.8336C637.187 85.6936 635.815 88.8673 632.984 91.5264C630.154 94.1855 626.723 95.4722 622.605 95.4722C618.488 95.4722 614.971 94.1855 612.226 91.6122C609.396 88.9531 608.023 85.7794 608.023 81.9194C608.023 77.9736 609.396 74.7141 612.226 72.1408C615.057 69.5675 618.574 68.2808 622.777 68.2808C626.808 68.2808 630.239 69.5675 632.984 72.2266C635.815 74.7999 637.187 78.0594 637.187 81.8336ZM612.655 81.8336C612.655 85.0074 613.256 87.6665 614.371 89.9825C616 92.8989 618.66 94.4429 622.52 94.4429C626.38 94.4429 629.124 92.9847 630.754 89.9825C631.869 87.6665 632.47 85.0074 632.47 81.9194C632.47 78.6599 631.869 75.915 630.754 73.7706C629.124 70.8541 626.38 69.3102 622.348 69.3102C619.26 69.3102 616.858 70.4252 615.143 72.5697C613.513 74.7999 612.655 77.8879 612.655 81.8336ZM664.893 75.143L664.636 74.9714C664.293 73.2559 663.264 71.9692 661.548 70.9399C659.918 69.9106 657.86 69.3959 655.544 69.3959C653.399 69.3959 651.598 69.9106 650.226 70.9399C648.853 71.9692 648.167 73.3417 648.167 75.0572C648.167 76.4297 648.682 77.459 649.625 78.1452C650.569 78.8314 652.198 79.3461 654.514 79.6892L658.031 80.2038C661.891 80.7185 664.379 81.5763 665.494 82.6056C666.695 83.7207 667.295 85.0931 667.295 86.7229C667.295 88.0096 666.952 89.2962 666.18 90.4971C665.408 91.7838 664.379 92.7273 663.092 93.4993C660.776 94.786 657.86 95.4722 654.343 95.4722C650.054 95.4722 645.937 94.6144 641.991 92.8131L643.706 88.0954L644.05 88.1811C644.307 89.9825 645.422 91.4407 647.395 92.6415C649.454 93.7566 651.941 94.3571 654.857 94.3571C657.431 94.3571 659.575 93.8424 661.119 92.7273C662.749 91.698 663.521 90.2398 663.521 88.5242C663.521 87.1518 663.006 86.0367 662.063 85.3505C661.119 84.6643 659.318 84.1496 656.745 83.8065L652.713 83.2918C647.138 82.6056 644.307 80.2039 644.307 76.1723C644.307 73.7706 645.336 71.8835 647.481 70.4252C649.625 68.8813 652.37 68.195 655.715 68.195C659.318 68.195 662.835 68.967 666.266 70.5968L664.893 75.143ZM673.128 68.7955C674.758 66.9942 675.616 65.1928 675.53 63.4773C675.101 63.5631 674.844 63.6488 674.672 63.6488C674.072 63.6488 673.471 63.3915 673.042 62.9626C672.613 62.5337 672.442 62.0191 672.442 61.2471C672.442 60.6466 672.699 60.0462 673.128 59.5315C673.643 59.1027 674.243 58.8453 674.844 58.8453C676.559 58.8453 677.417 59.9604 677.417 62.1049C677.417 64.9355 676.13 67.2515 673.557 69.0528L673.128 68.7955ZM680.505 68.7955C682.22 66.9084 682.992 65.1071 682.907 63.4773C682.564 63.5631 682.22 63.6488 682.049 63.6488C681.448 63.6488 680.848 63.3915 680.419 62.9626C679.99 62.5337 679.819 62.0191 679.819 61.2471C679.819 60.6466 680.076 60.0462 680.505 59.5315C681.02 59.1027 681.62 58.8453 682.22 58.8453C683.936 58.8453 684.794 59.9604 684.794 62.1049C684.794 64.9355 683.507 67.2515 680.934 69.0528L680.505 68.7955ZM714.987 94.6144C716.874 94.1855 717.989 93.0704 718.333 91.0975C718.676 88.9531 718.847 83.8065 718.847 75.7434V69.9106C718.847 67.1657 718.762 65.5359 718.59 65.0213C718.333 64.1635 717.303 63.7346 715.674 63.7346C713.1 63.7346 710.956 64.0777 709.154 64.8497C707.439 65.6217 705.723 66.9084 704.094 68.7955H703.75L705.809 62.7053H735.917L737.976 68.7955H737.632C736.003 66.9084 734.373 65.6217 732.572 64.8497C730.77 64.0777 728.626 63.7346 726.053 63.7346C724.251 63.7346 723.222 64.2493 723.05 65.3644C722.965 65.8791 722.879 67.4231 722.879 69.8248V75.6577C722.879 83.7207 723.05 88.8673 723.393 91.0118C723.737 92.8989 724.852 94.0998 726.739 94.5286V94.8717C725.452 94.786 723.479 94.7002 720.906 94.7002C718.247 94.7002 716.36 94.786 715.073 94.8717V94.6144H714.987ZM738.319 100.361L738.662 100.447C739.434 101.905 740.463 102.592 741.921 102.592C743.465 102.592 744.495 101.477 744.924 99.1606C745.438 96.8446 745.61 92.1269 745.61 85.0074V84.75C745.61 82.9487 745.61 80.547 745.524 77.3732C745.524 74.9714 745.438 73.4275 745.267 72.7412C745.095 71.6261 744.323 70.9399 743.036 70.7684V70.511C745.267 70.1679 747.325 69.6533 749.298 68.967C749.127 71.0257 749.127 73.0843 749.127 75.2288V81.319C749.127 82.9487 749.212 85.2647 749.298 88.3527V89.8109C749.298 95.9011 747.84 100.018 744.924 102.334C743.036 103.707 740.892 104.479 738.49 104.479C737.976 104.479 737.461 104.393 737.032 104.307L738.319 100.361ZM749.813 62.6195C749.813 63.3057 749.556 63.9062 749.127 64.3351C748.698 64.764 748.097 65.0213 747.411 65.0213C746.725 65.0213 746.124 64.764 745.696 64.3351C745.267 63.9062 745.009 63.3057 745.009 62.6195C745.009 61.9333 745.267 61.3329 745.696 60.904C746.124 60.4751 746.811 60.2178 747.497 60.2178C748.097 60.2178 748.698 60.4751 749.212 60.904C749.727 61.3329 749.813 62.0191 749.813 62.6195ZM75.8614 120.348C76.6334 120.433 77.6628 120.519 78.7779 120.519C79.893 120.519 81.0081 120.433 82.1232 120.348V120.691C81.0938 121.034 80.4076 121.634 80.1503 122.492C79.8072 123.35 79.6356 125.065 79.6356 127.724V138.103C79.6356 144.708 79.9787 148.74 80.5792 150.37C80.9223 151.313 81.6943 151.999 82.8951 152.342V152.686C81.2654 152.6 79.2925 152.514 76.9765 152.514C75.0894 152.514 73.5454 152.6 72.4303 152.686V152.257C73.5454 151.914 74.3174 151.227 74.7463 150.284C75.3468 148.74 75.6899 144.708 75.6899 138.018V124.036L61.4509 153.458L47.4692 123.693V136.988C47.4692 144.279 47.8123 148.483 48.4127 149.769C48.9274 150.884 49.7852 151.742 51.1576 152.342V152.686C49.8709 152.6 48.2412 152.514 46.2683 152.514C44.7243 152.514 43.4376 152.6 42.4941 152.686V152.257C43.695 151.742 44.5527 150.97 45.0674 149.941C45.5821 148.911 45.8394 146.681 46.011 143.336C46.011 143.25 46.011 141.449 46.0967 138.018C46.0967 137.417 46.0967 136.731 46.1825 136.045V134.501C46.1825 133.471 46.2683 132.871 46.2683 132.614V127.724C46.2683 124.894 46.011 123.007 45.4105 122.149C45.0674 121.634 44.3812 121.205 43.3519 120.776V120.433C44.2954 120.519 45.4105 120.605 46.783 120.605C48.1554 120.605 49.4421 120.519 50.4714 120.433L63.2522 146.51L75.8614 120.348ZM109.658 152.514C109.229 151.485 108.886 149.855 108.543 147.625C106.484 151.313 103.31 153.114 99.0213 153.114C95.7617 153.114 93.0169 152.342 90.8724 150.884C88.728 149.426 87.6129 147.539 87.6129 145.309C87.6129 142.135 89.5858 139.905 93.5315 138.447C96.7053 137.331 100.651 136.731 105.54 136.731H108.114V135.273C108.114 129.697 105.369 126.952 99.8791 126.952C97.4773 126.952 95.5044 127.553 93.7889 128.668C92.1591 129.783 91.1298 131.327 90.5293 133.3L90.3578 133.386L88.8996 128.582C93.0169 126.781 96.8768 125.923 100.479 125.923C104.425 125.923 107.427 126.781 109.4 128.582C111.116 130.126 111.974 132.957 111.974 137.16V144.194C111.974 146.853 112.145 148.826 112.574 150.026C113.003 151.227 113.689 151.999 114.718 152.257V152.514H109.658ZM105.54 137.846C96.7911 137.846 92.4164 140.419 92.4164 145.48C92.4164 147.453 93.1026 149.083 94.4751 150.37C95.7617 151.57 97.4773 152.171 99.7075 152.171C101.509 152.171 103.053 151.742 104.425 150.884C105.883 150.026 106.827 148.911 107.342 147.539C107.942 146.081 108.285 143.25 108.285 139.133V137.846H105.54ZM115.062 158.09L115.405 158.175C116.177 159.634 117.206 160.32 118.664 160.32C120.208 160.32 121.238 159.205 121.666 156.889C122.181 154.573 122.353 149.855 122.353 142.735V142.478C122.353 140.677 122.353 138.275 122.267 135.101C122.267 132.699 122.181 131.156 122.01 130.469C121.838 129.354 121.066 128.668 119.779 128.496V128.239C122.01 127.896 124.068 127.381 126.041 126.695C125.955 128.754 125.87 130.812 125.87 132.957V139.047C125.87 140.677 125.955 142.993 126.041 146.081V147.539C126.041 153.629 124.583 157.746 121.666 160.062C119.779 161.435 117.635 162.207 115.233 162.207C114.718 162.207 114.204 162.121 113.775 162.035L115.062 158.09ZM126.47 120.348C126.47 121.034 126.213 121.634 125.784 122.063C125.355 122.492 124.754 122.749 124.068 122.749C123.382 122.749 122.782 122.492 122.353 122.063C121.924 121.634 121.666 121.034 121.666 120.348C121.666 119.661 121.924 119.061 122.353 118.632C122.782 118.203 123.468 117.946 124.154 117.946C124.754 117.946 125.355 118.203 125.87 118.632C126.384 119.061 126.47 119.661 126.47 120.348ZM137.793 133.9C139.594 128.582 143.025 125.837 148.172 125.837C151.345 125.837 153.833 126.695 155.463 128.496C156.406 129.526 157.178 131.07 157.693 133.128C159.494 128.325 162.925 125.923 167.9 125.923C171.331 125.923 173.905 126.952 175.62 129.011C177.25 130.812 178.108 133.815 178.108 138.018V143.851C178.108 147.024 178.279 149.254 178.708 150.541C178.966 151.485 179.652 152.085 180.681 152.257V152.6C179.309 152.514 177.593 152.428 175.535 152.428C173.905 152.428 172.532 152.514 171.503 152.6V152.257C172.532 152.085 173.219 151.399 173.562 150.198C173.905 148.997 174.076 146.853 174.076 143.936V137.246C174.076 134.072 173.476 131.67 172.189 130.04C170.903 128.411 169.101 127.553 166.699 127.553C163.783 127.553 161.553 128.754 160.095 131.241C158.894 133.214 158.293 135.959 158.293 139.39V143.936C158.293 147.282 158.465 149.512 158.894 150.627C159.237 151.57 159.923 152.171 160.952 152.342V152.686C159.58 152.6 157.864 152.514 155.892 152.514C154.348 152.514 153.061 152.6 152.032 152.686V152.257C153.061 152.085 153.747 151.399 154.09 150.198C154.433 148.997 154.605 146.853 154.605 143.936V139.991C154.605 135.959 154.176 132.957 153.318 131.156C152.289 128.84 150.23 127.639 147.142 127.639C143.711 127.639 141.309 129.011 139.937 131.842C138.908 133.9 138.393 137.16 138.393 141.535V143.851C138.393 146.939 138.565 149.169 138.908 150.541C139.165 151.57 139.851 152.085 140.795 152.257V152.6C139.508 152.514 137.878 152.428 135.82 152.428C134.276 152.428 132.989 152.514 132.131 152.6V152.257C133.161 151.999 133.847 151.313 134.19 150.112C134.533 148.911 134.705 146.853 134.705 143.851V142.307C134.705 140.934 134.705 138.532 134.619 135.101C134.619 133.986 134.533 133.043 134.447 132.099C134.447 131.413 134.361 130.898 134.361 130.555C134.276 129.354 133.504 128.754 132.303 128.668V128.325C133.761 128.068 135.734 127.467 138.136 126.438C137.964 128.496 137.878 130.641 137.878 132.699V133.9H137.793ZM207.958 152.514C207.444 151.399 206.929 149.683 206.329 147.453C204.098 151.227 200.753 153.2 196.207 153.2C189.259 153.2 185.828 149.769 185.828 142.907V141.535C185.828 140.848 185.828 140.334 185.914 139.991C185.914 139.647 185.999 139.133 185.999 138.447V135.959C185.999 132.528 185.914 130.469 185.742 129.869C185.485 129.268 184.798 128.925 183.512 128.754V128.411C185.828 127.982 187.886 127.296 189.859 126.524C189.774 128.068 189.688 130.212 189.688 132.785V139.733C189.688 143.593 190.117 146.424 191.06 148.054C192.261 150.37 194.406 151.485 197.579 151.485C199.209 151.485 200.753 151.142 202.125 150.37C203.498 149.683 204.441 148.654 205.128 147.367C205.985 145.48 206.5 142.135 206.5 137.417V135.959C206.5 132.528 206.414 130.469 206.157 129.869C205.9 129.268 205.213 128.925 204.013 128.754V128.411C205.128 128.239 206.157 127.982 207.272 127.553C208.301 127.296 209.331 126.952 210.36 126.524C210.274 128.068 210.189 130.212 210.189 132.785V139.047C210.189 144.022 210.36 147.282 210.617 148.911C210.875 150.541 211.475 151.57 212.419 152.085V152.428H207.958V152.514ZM237.809 152.514C237.38 151.485 237.037 149.855 236.694 147.625C234.635 151.313 231.461 153.114 227.172 153.114C223.913 153.114 221.168 152.342 219.024 150.884C216.879 149.426 215.764 147.539 215.764 145.309C215.764 142.135 217.737 139.905 221.683 138.447C224.856 137.331 228.802 136.731 233.691 136.731H236.265V135.273C236.265 129.697 233.52 126.952 228.03 126.952C225.628 126.952 223.656 127.553 221.94 128.668C220.31 129.783 219.281 131.327 218.68 133.3L218.423 133.386L216.965 128.582C221.082 126.781 224.942 125.923 228.545 125.923C232.491 125.923 235.493 126.781 237.466 128.582C239.181 130.126 240.039 132.957 240.039 137.16V144.194C240.039 146.853 240.211 148.826 240.639 150.026C241.068 151.227 241.755 151.999 242.784 152.257V152.514H237.809ZM233.606 137.846C224.856 137.846 220.482 140.419 220.482 145.48C220.482 147.453 221.168 149.083 222.54 150.37C223.827 151.57 225.543 152.171 227.773 152.171C229.574 152.171 231.118 151.742 232.491 150.884C233.949 150.026 234.892 148.911 235.407 147.539C236.007 146.081 236.351 143.25 236.351 139.133V137.846H233.606ZM269.461 132.785L269.203 132.614C268.86 130.898 267.831 129.612 266.115 128.582C264.485 127.553 262.427 127.038 260.111 127.038C257.966 127.038 256.165 127.553 254.793 128.582C253.42 129.612 252.734 130.984 252.734 132.699C252.734 134.072 253.249 135.101 254.192 135.787C255.136 136.474 256.766 136.988 259.082 137.331L262.598 137.846C266.458 138.361 268.946 139.219 270.061 140.248C271.262 141.363 271.862 142.735 271.862 144.365C271.862 145.652 271.519 146.939 270.747 148.139C269.975 149.426 268.946 150.37 267.659 151.142C265.343 152.428 262.427 153.114 258.91 153.114C254.621 153.114 250.504 152.257 246.558 150.455L248.274 145.738L248.617 145.823C248.874 147.625 249.989 149.083 251.962 150.284C254.021 151.399 256.508 151.999 259.425 151.999C261.998 151.999 264.142 151.485 265.686 150.37C267.316 149.34 268.088 147.882 268.088 146.167C268.088 144.794 267.573 143.679 266.63 142.993C265.686 142.307 263.885 141.792 261.312 141.449L257.28 140.934C251.705 140.248 248.874 137.846 248.874 133.815C248.874 131.413 249.903 129.526 252.048 128.068C254.192 126.524 256.937 125.837 260.282 125.837C263.885 125.837 267.402 126.609 270.833 128.239L269.461 132.785ZM276.752 128.153C277.695 127.982 278.896 127.724 280.354 127.296C281.727 126.952 282.584 126.695 282.928 126.524V143.851C282.928 147.11 283.099 149.34 283.528 150.455C283.871 151.485 284.643 152.085 285.587 152.171V152.514C284.043 152.428 282.327 152.342 280.354 152.342C278.725 152.342 277.352 152.428 276.237 152.514V152.257C277.181 152.085 277.867 151.485 278.381 150.455C278.896 149.254 279.153 147.024 279.153 143.936V142.392C279.153 135.702 279.068 131.67 278.81 130.384C278.639 129.268 277.867 128.582 276.666 128.411V128.153H276.752ZM283.099 120.348C283.099 121.034 282.842 121.634 282.413 122.063C281.984 122.492 281.384 122.749 280.697 122.749C280.011 122.749 279.411 122.492 278.982 122.063C278.553 121.634 278.296 121.034 278.296 120.348C278.296 119.661 278.553 119.061 278.982 118.632C279.411 118.203 280.097 117.946 280.783 117.946C281.384 117.946 281.984 118.203 282.499 118.632C283.013 119.061 283.099 119.661 283.099 120.348ZM315.18 152.514C314.751 151.485 314.322 149.598 313.893 146.939C312.521 149.255 310.977 150.798 309.347 151.656C307.803 152.6 305.83 153.114 303.343 153.114C299.311 153.114 295.966 151.828 293.307 149.255C290.648 146.681 289.361 143.507 289.361 139.647C289.361 135.702 290.733 132.356 293.392 129.783C296.052 127.21 299.483 125.923 303.6 125.923C307.803 125.923 311.148 127.467 313.722 130.555V128.668C313.722 127.553 313.722 125.752 313.636 123.264C313.55 121.377 313.464 120.262 313.378 119.833C313.207 118.975 312.435 118.46 311.062 118.375V118.117C311.92 118.032 312.95 117.688 314.322 117.26C315.78 116.831 316.81 116.488 317.41 116.23C317.41 117.603 317.324 119.404 317.238 121.548C317.238 122.749 317.153 124.636 317.153 127.21V133.471C317.153 140.162 317.324 145.309 317.753 148.74C318.01 150.627 318.868 151.828 320.155 152.257V152.514H315.18ZM294.079 139.647C294.079 143.422 294.936 146.51 296.738 148.74C298.539 150.97 300.941 152.085 303.943 152.085C307.288 152.085 309.776 150.798 311.577 148.311C313.035 146.167 313.807 143.164 313.807 139.39C313.807 131.07 310.462 126.952 303.857 126.952C300.769 126.952 298.367 128.068 296.652 130.298C294.936 132.528 294.079 135.702 294.079 139.647ZM346.317 152.514C345.888 151.485 345.545 149.855 345.202 147.625C343.143 151.313 339.969 153.114 335.681 153.114C332.421 153.114 329.676 152.342 327.532 150.884C325.387 149.426 324.272 147.539 324.272 145.309C324.272 142.135 326.245 139.905 330.191 138.447C333.365 137.331 337.31 136.731 342.2 136.731H344.773V135.273C344.773 129.697 342.028 126.952 336.538 126.952C334.137 126.952 332.164 127.553 330.448 128.668C328.818 129.783 327.789 131.327 327.189 133.3L326.931 133.386L325.473 128.582C329.59 126.781 333.45 125.923 337.053 125.923C340.999 125.923 344.001 126.781 345.974 128.582C347.689 130.126 348.547 132.957 348.547 137.16V144.194C348.547 146.853 348.719 148.826 349.148 150.026C349.576 151.227 350.263 151.999 351.292 152.257V152.514H346.317ZM342.2 137.846C333.45 137.846 329.076 140.419 329.076 145.48C329.076 147.453 329.762 149.083 331.134 150.37C332.421 151.57 334.137 152.171 336.367 152.171C338.168 152.171 339.712 151.742 341.085 150.884C342.543 150.026 343.486 148.911 344.001 147.539C344.601 146.081 344.944 143.25 344.944 139.133V137.846H342.2ZM371.707 127.724C371.707 126.095 371.535 124.894 371.192 124.036C370.849 123.178 370.163 122.578 369.305 122.32V121.548C369.82 121.548 370.42 121.548 371.021 121.548C371.621 121.548 372.136 121.548 372.736 121.634C373.251 121.634 373.851 121.72 374.366 121.72C374.966 121.72 375.481 121.72 375.996 121.72H385.174C389.806 121.72 393.494 122.406 396.154 123.693C398.813 124.98 400.185 126.952 400.357 129.44C400.357 130.727 400.099 131.842 399.499 132.785C398.898 133.729 398.212 134.501 397.269 135.187C396.325 135.873 395.296 136.388 394.181 136.817C392.98 137.246 391.779 137.589 390.578 137.76C389.377 138.018 388.176 138.189 386.975 138.275C385.774 138.361 384.745 138.447 383.802 138.447C383.201 138.447 382.601 138.447 382 138.361C381.4 138.275 380.885 138.275 380.285 138.189V143.336C380.285 144.451 380.285 145.48 380.37 146.424C380.456 147.367 380.628 148.311 380.799 149.083C381.057 149.855 381.4 150.455 381.914 150.97C382.429 151.485 383.115 151.742 383.973 151.742V152.686C382.601 152.686 381.314 152.686 379.942 152.6C378.569 152.514 377.283 152.514 375.996 152.514C374.709 152.514 373.423 152.514 372.05 152.6C370.678 152.686 369.391 152.686 368.019 152.686V151.742C368.876 151.742 369.563 151.485 370.077 150.97C370.592 150.455 370.935 149.855 371.192 149.083C371.45 148.311 371.621 147.453 371.621 146.424C371.707 145.48 371.707 144.451 371.707 143.336V127.724ZM380.199 136.474H382.086C384.917 136.474 387.061 135.873 388.691 134.672C390.235 133.471 391.093 131.67 391.093 129.268C391.093 127.381 390.406 125.837 389.034 124.808C387.662 123.779 385.346 123.264 382.172 123.264H380.285V136.474H380.199ZM418.627 135.187C418.284 134.758 417.855 134.329 417.426 133.986C416.997 133.643 416.483 133.471 415.882 133.471C415.196 133.471 414.596 133.729 414.081 134.158C413.566 134.587 413.223 135.187 412.966 135.873C412.708 136.559 412.451 137.331 412.365 138.189C412.28 139.047 412.194 139.905 412.194 140.848V144.537C412.194 146.51 412.451 148.225 412.88 149.512C413.309 150.884 414.167 151.656 415.539 151.999V152.686C414.424 152.686 413.309 152.686 412.108 152.6C410.993 152.514 409.878 152.514 408.677 152.514C407.562 152.514 406.447 152.514 405.246 152.6C404.131 152.686 403.016 152.686 401.815 152.686V151.999C403.101 151.656 403.959 150.798 404.388 149.512C404.817 148.139 405.074 146.51 405.074 144.537V134.243C405.074 133.386 404.989 132.7 404.817 132.185C404.645 131.584 404.388 131.156 404.131 130.812C403.873 130.469 403.53 130.212 403.187 129.955C402.844 129.783 402.501 129.697 402.158 129.612V128.925C405.246 128.668 408.505 128.239 411.937 127.553C411.937 128.153 411.936 128.84 411.851 129.526C411.851 130.212 411.765 130.898 411.765 131.67V134.587H411.851C412.108 133.729 412.451 132.871 412.88 131.928C413.309 131.07 413.824 130.212 414.51 129.44C415.11 128.668 415.882 128.068 416.654 127.553C417.426 127.038 418.37 126.867 419.313 126.867H421.458L418.627 135.187ZM431.236 137.246V139.991C431.236 141.277 431.322 142.65 431.579 143.936C431.837 145.309 432.266 146.51 432.866 147.539C433.467 148.654 434.324 149.512 435.354 150.198C436.383 150.884 437.755 151.227 439.471 151.227C440.758 151.227 441.873 150.97 442.902 150.37C443.931 149.855 444.789 149.083 445.561 148.225C446.333 147.367 447.019 146.338 447.534 145.309C448.049 144.194 448.478 143.079 448.735 141.963L450.022 142.907C448.306 149.769 443.76 153.286 436.469 153.286C434.41 153.286 432.609 152.943 430.979 152.171C429.349 151.485 427.977 150.455 426.862 149.255C425.747 148.054 424.889 146.595 424.288 145.051C423.688 143.507 423.345 141.792 423.345 139.991C423.345 138.189 423.688 136.474 424.288 134.844C424.889 133.214 425.747 131.842 426.862 130.641C427.977 129.44 429.349 128.496 430.979 127.81C432.609 127.124 434.41 126.781 436.469 126.781C438.099 126.781 439.643 127.038 441.186 127.467C442.645 127.896 444.017 128.582 445.132 129.526C446.247 130.384 447.191 131.499 447.963 132.785C448.649 134.072 449.078 135.616 449.164 137.246H431.236ZM441.272 135.702C441.272 134.93 441.187 134.158 441.015 133.214C440.929 132.356 440.672 131.584 440.329 130.812C439.986 130.04 439.471 129.44 438.871 129.011C438.184 128.496 437.327 128.325 436.211 128.325C435.096 128.325 434.239 128.582 433.552 129.011C432.952 129.526 432.437 130.126 432.094 130.812C431.751 131.584 431.494 132.356 431.408 133.214C431.322 134.072 431.236 134.93 431.151 135.702H441.272ZM462.288 132.271H462.374C463.231 130.469 464.346 129.097 465.719 128.153C467.091 127.21 468.807 126.781 470.865 126.781C473.01 126.781 474.725 127.296 476.184 128.325C477.556 129.354 478.5 130.641 479.014 132.185C479.958 130.384 481.073 129.097 482.445 128.153C483.818 127.296 485.533 126.781 487.678 126.781C488.964 126.781 490.165 126.952 491.195 127.381C492.224 127.81 493.167 128.411 493.939 129.097C494.711 129.869 495.312 130.727 495.741 131.756C496.17 132.785 496.427 133.986 496.427 135.273V148.054C496.427 149.169 496.684 150.026 497.199 150.713C497.714 151.313 498.486 151.828 499.601 151.999V152.686C498.486 152.686 497.371 152.686 496.17 152.6C495.055 152.514 493.94 152.514 492.91 152.514C491.881 152.514 490.852 152.514 489.822 152.6C488.707 152.686 487.592 152.686 486.477 152.686V151.999C487.335 151.914 488.021 151.485 488.536 150.884C489.136 150.198 489.393 149.255 489.393 148.054V137.932C489.393 136.817 489.307 135.787 489.222 134.758C489.136 133.729 488.879 132.871 488.536 132.099C488.192 131.327 487.764 130.727 487.077 130.212C486.477 129.783 485.705 129.526 484.761 129.526C483.904 129.526 483.132 129.783 482.445 130.298C481.845 130.812 481.244 131.499 480.901 132.356C480.472 133.214 480.215 134.072 480.044 135.101C479.872 136.131 479.786 137.074 479.786 138.018V148.139C479.786 149.254 480.044 150.112 480.558 150.798C481.073 151.399 481.845 151.914 482.96 152.085V152.771C481.845 152.771 480.73 152.771 479.529 152.686C478.414 152.6 477.299 152.6 476.269 152.6C475.24 152.6 474.211 152.6 473.181 152.686C472.066 152.771 470.951 152.771 469.836 152.771V152.085C470.694 151.999 471.38 151.57 471.895 150.97C472.495 150.284 472.753 149.34 472.753 148.139V138.018C472.753 136.903 472.667 135.873 472.581 134.844C472.495 133.815 472.238 132.957 471.895 132.185C471.552 131.413 471.123 130.812 470.436 130.298C469.836 129.869 469.064 129.612 468.121 129.612C467.263 129.612 466.491 129.869 465.805 130.384C465.204 130.898 464.604 131.584 464.261 132.442C463.832 133.3 463.574 134.158 463.403 135.187C463.231 136.216 463.145 137.16 463.145 138.103V144.708C463.145 146.681 463.403 148.397 463.832 149.683C464.261 151.056 465.118 151.828 466.491 152.171V152.857C465.376 152.857 464.261 152.857 463.06 152.771C461.945 152.686 460.829 152.686 459.629 152.686C458.513 152.686 457.398 152.686 456.198 152.771C455.082 152.857 453.967 152.857 452.766 152.857V152.171C454.053 151.828 454.911 150.97 455.34 149.683C455.769 148.311 456.026 146.681 456.026 144.708V134.243C456.026 133.386 455.94 132.7 455.769 132.185C455.597 131.584 455.34 131.156 455.082 130.812C454.825 130.469 454.482 130.212 454.139 129.955C453.796 129.783 453.453 129.697 453.11 129.612V128.925C454.739 128.84 456.283 128.668 457.827 128.411C459.371 128.239 461.001 127.896 462.545 127.553V132.271H462.288ZM511.695 146.767C511.695 148.225 511.953 149.426 512.382 150.284C512.81 151.227 513.668 151.742 515.041 151.999V152.686C513.926 152.686 512.81 152.686 511.61 152.6C510.494 152.514 509.379 152.514 508.178 152.514C507.063 152.514 505.948 152.514 504.747 152.6C503.632 152.686 502.517 152.686 501.316 152.686V151.999C502.603 151.828 503.547 151.227 503.975 150.284C504.404 149.34 504.662 148.139 504.662 146.767V132.356C504.662 131.584 504.404 130.984 503.89 130.555C503.375 130.04 502.775 129.783 502.003 129.612V128.925C505.176 128.668 508.35 128.239 511.61 127.553V146.767H511.695ZM508.007 117.688C509.036 117.688 509.98 118.117 510.666 118.889C511.352 119.661 511.695 120.605 511.695 121.634C511.695 122.664 511.352 123.607 510.666 124.379C509.98 125.151 509.122 125.58 508.007 125.58C506.978 125.58 506.034 125.151 505.348 124.379C504.662 123.607 504.318 122.664 504.318 121.634C504.318 120.605 504.662 119.661 505.348 118.889C506.12 118.032 506.978 117.688 508.007 117.688ZM537.171 147.796C536.228 149.598 535.113 150.97 533.74 151.914C532.368 152.771 530.738 153.286 528.679 153.286C527.135 153.286 525.849 153.029 524.734 152.514C523.618 151.999 522.675 151.313 521.903 150.455C521.131 149.598 520.616 148.568 520.187 147.367C519.758 146.167 519.673 144.88 519.673 143.422C519.673 141.535 519.673 139.647 519.673 137.76C519.673 135.873 519.673 133.986 519.587 132.099C519.587 131.241 519.33 130.727 518.901 130.384C518.472 130.04 517.871 129.869 517.099 129.697V128.925C518.729 128.754 520.359 128.582 521.989 128.411C523.618 128.239 525.334 127.896 527.049 127.553C526.964 128.668 526.878 130.212 526.792 132.013C526.706 133.9 526.621 135.959 526.621 138.275V142.993C526.621 143.765 526.706 144.537 526.792 145.395C526.878 146.252 527.135 147.024 527.478 147.711C527.821 148.397 528.25 148.997 528.937 149.426C529.537 149.855 530.309 150.112 531.253 150.112C532.282 150.112 533.225 149.855 533.912 149.255C534.598 148.654 535.198 147.968 535.627 147.024C536.056 146.081 536.399 145.051 536.571 143.936C536.742 142.821 536.828 141.62 536.828 140.419V132.614C536.828 131.67 536.571 130.984 536.142 130.469C535.713 129.955 535.027 129.697 534.083 129.526V128.84C535.713 128.668 537.343 128.496 538.972 128.325C540.602 128.153 542.232 127.896 543.862 127.467C543.776 133.3 543.69 139.219 543.69 145.223C543.69 146.338 543.776 147.196 543.862 147.968C543.948 148.74 544.119 149.34 544.291 149.855C544.462 150.37 544.805 150.713 545.148 151.056C545.492 151.313 546.006 151.57 546.521 151.742V152.428H538.029L537.171 147.796ZM558.444 132.271H558.53C559.387 130.469 560.503 129.097 561.875 128.153C563.247 127.21 564.963 126.781 567.022 126.781C569.166 126.781 570.882 127.296 572.34 128.325C573.712 129.354 574.656 130.641 575.171 132.185C576.114 130.384 577.229 129.097 578.602 128.153C579.974 127.296 581.69 126.781 583.834 126.781C585.121 126.781 586.322 126.952 587.351 127.381C588.38 127.81 589.324 128.411 590.096 129.097C590.868 129.869 591.468 130.727 591.897 131.756C592.326 132.785 592.583 133.986 592.583 135.273V148.054C592.583 149.169 592.841 150.026 593.355 150.713C593.87 151.313 594.642 151.828 595.757 151.999V152.686C594.642 152.686 593.527 152.686 592.326 152.6C591.211 152.514 590.096 152.514 589.066 152.514C588.037 152.514 587.008 152.514 585.978 152.6C584.863 152.686 583.748 152.686 582.633 152.686V151.999C583.491 151.914 584.177 151.485 584.692 150.884C585.292 150.198 585.55 149.255 585.55 148.054V137.932C585.55 136.817 585.464 135.787 585.378 134.758C585.292 133.729 585.035 132.871 584.692 132.099C584.349 131.327 583.92 130.727 583.234 130.212C582.633 129.783 581.861 129.526 580.918 129.526C580.06 129.526 579.288 129.783 578.602 130.298C578.001 130.812 577.401 131.499 577.058 132.356C576.629 133.214 576.371 134.072 576.2 135.101C576.028 136.131 575.942 137.074 575.942 138.018V148.139C575.942 149.254 576.2 150.112 576.714 150.798C577.229 151.399 578.001 151.914 579.116 152.085V152.771C578.001 152.771 576.886 152.771 575.685 152.686C574.57 152.6 573.455 152.6 572.426 152.6C571.396 152.6 570.367 152.6 569.338 152.686C568.223 152.771 567.107 152.771 565.992 152.771V152.085C566.85 151.999 567.536 151.57 568.051 150.97C568.651 150.284 568.909 149.34 568.909 148.139V138.018C568.909 136.903 568.823 135.873 568.737 134.844C568.651 133.815 568.394 132.957 568.051 132.185C567.708 131.413 567.279 130.812 566.593 130.298C565.992 129.869 565.22 129.612 564.277 129.612C563.419 129.612 562.647 129.869 561.961 130.384C561.36 130.898 560.76 131.584 560.417 132.442C559.988 133.3 559.731 134.158 559.559 135.187C559.387 136.216 559.302 137.16 559.302 138.103V144.708C559.302 146.681 559.559 148.397 559.988 149.683C560.417 151.056 561.275 151.828 562.647 152.171V152.857C561.532 152.857 560.417 152.857 559.216 152.771C558.101 152.686 556.986 152.686 555.785 152.686C554.67 152.686 553.555 152.686 552.354 152.771C551.239 152.857 550.123 152.857 548.923 152.857V152.171C550.209 151.828 551.067 150.97 551.496 149.683C551.925 148.311 552.182 146.681 552.182 144.708V134.243C552.182 133.386 552.096 132.7 551.925 132.185C551.753 131.584 551.496 131.156 551.239 130.812C550.981 130.469 550.638 130.212 550.295 129.955C549.952 129.783 549.609 129.697 549.266 129.612V128.925C550.896 128.84 552.44 128.668 553.984 128.411C555.528 128.239 557.157 127.896 558.701 127.553V132.271H558.444ZM638.388 135.273V127.639C638.474 125.923 638.303 124.636 637.874 123.864C637.531 123.092 636.844 122.492 635.815 122.32V121.548C636.93 121.548 638.045 121.548 639.246 121.634C640.361 121.72 641.476 121.72 642.591 121.72C643.706 121.72 644.822 121.72 645.937 121.634C647.052 121.548 648.253 121.548 649.539 121.548V122.32C648.424 122.578 647.738 123.178 647.395 124.036C647.052 124.894 646.88 126.095 646.88 127.724V143.164C646.88 144.022 646.88 144.966 646.966 145.909C647.052 146.853 647.138 147.796 647.395 148.568C647.652 149.426 647.995 150.112 648.424 150.627C648.853 151.227 649.539 151.485 650.311 151.485V152.428H635.043V151.485C635.815 151.485 636.501 151.227 636.93 150.713C637.359 150.198 637.702 149.598 637.959 148.826C638.217 148.054 638.303 147.196 638.388 146.167C638.474 145.223 638.474 144.194 638.474 143.079V136.988H625.093V143.079C625.093 144.194 625.093 145.223 625.179 146.167C625.264 147.11 625.35 148.054 625.607 148.826C625.865 149.598 626.208 150.198 626.637 150.713C627.066 151.227 627.752 151.485 628.61 151.485V152.428H612.741V151.485C613.599 151.485 614.371 151.227 614.885 150.713C615.4 150.198 615.743 149.598 616 148.826C616.258 148.054 616.429 147.196 616.429 146.167C616.515 145.223 616.515 144.194 616.515 143.079V128.496C616.515 127.296 616.515 126.352 616.429 125.58C616.344 124.808 616.258 124.208 616.086 123.779C615.915 123.35 615.657 123.007 615.314 122.749C614.971 122.492 614.542 122.32 613.942 122.149V121.377C615.057 121.377 616.258 121.377 617.373 121.463C618.488 121.548 619.603 121.548 620.718 121.548C621.833 121.548 622.948 121.548 624.064 121.463C625.179 121.377 626.465 121.377 627.838 121.377V122.149C627.237 122.235 626.808 122.406 626.38 122.664C626.036 122.835 625.693 123.178 625.522 123.607C625.264 124.036 625.179 124.551 625.093 125.151C625.007 125.752 625.007 126.609 625.007 127.553V135.187H638.388V135.273ZM670.297 148.568C669.354 150.026 668.325 151.142 667.124 151.999C665.923 152.857 664.465 153.286 662.663 153.286C661.462 153.286 660.262 153.2 658.975 152.943C657.774 152.686 656.659 152.257 655.715 151.656C654.772 151.056 654 150.284 653.399 149.34C652.799 148.397 652.542 147.196 652.542 145.823C652.542 144.108 653.056 142.735 654.086 141.62C655.115 140.505 656.487 139.562 658.031 138.961C659.661 138.275 661.377 137.846 663.264 137.503C665.151 137.246 666.952 137.074 668.753 137.074H669.783V134.93C669.783 132.957 669.268 131.413 668.325 130.212C667.295 129.011 665.923 128.411 664.207 128.411C662.149 128.411 660.519 129.183 659.232 130.727C657.946 132.185 657.002 134.158 656.316 136.645L655.63 136.817L653.571 129.183C655.715 128.582 657.774 127.982 659.833 127.467C661.891 126.952 663.95 126.781 666.094 126.781C667.724 126.781 669.182 126.952 670.555 127.296C671.841 127.639 673.042 128.239 673.986 129.097C674.929 129.955 675.701 131.07 676.216 132.442C676.731 133.815 676.988 135.53 676.988 137.589V147.196C676.988 148.311 677.16 149.255 677.503 150.112C677.846 150.97 678.532 151.485 679.561 151.742V152.428H671.413L670.297 148.568ZM669.868 138.618H669.011C667.896 138.618 666.781 138.79 665.751 139.047C664.722 139.304 663.778 139.819 663.006 140.419C662.234 141.02 661.634 141.792 661.119 142.735C660.69 143.679 660.433 144.794 660.433 146.167C660.433 146.767 660.519 147.453 660.69 148.054C660.862 148.654 661.119 149.169 661.548 149.683C661.891 150.198 662.406 150.541 662.921 150.884C663.435 151.227 664.036 151.313 664.722 151.313C665.751 151.313 666.609 151.056 667.295 150.455C667.981 149.855 668.496 149.169 668.839 148.311C669.182 147.453 669.525 146.51 669.697 145.566C669.869 144.623 669.954 143.679 669.954 142.907V138.618H669.868ZM681.191 128.325C682.392 128.325 683.593 128.325 684.88 128.411C686.08 128.496 687.281 128.496 688.396 128.496C689.512 128.496 690.712 128.496 691.999 128.411C693.286 128.325 694.572 128.325 695.773 128.325V129.011C695.001 129.097 694.315 129.44 693.715 129.783C693.114 130.212 692.771 130.812 692.771 131.67C692.771 131.842 692.857 132.185 693.028 132.528C693.2 132.957 693.371 133.386 693.715 133.986L699.376 144.279L703.665 134.844C703.922 134.329 704.094 133.9 704.179 133.386C704.265 132.957 704.265 132.614 704.265 132.356C704.265 131.499 704.008 130.812 703.407 130.212C702.807 129.697 702.121 129.268 701.349 129.011V128.325C702.207 128.325 703.064 128.325 703.836 128.411C704.694 128.496 705.466 128.496 706.238 128.496C707.01 128.496 707.782 128.496 708.726 128.411C709.669 128.325 710.527 128.325 711.385 128.325V129.011C710.698 129.268 710.098 129.697 709.498 130.212C708.897 130.727 708.468 131.241 707.954 131.842C707.525 132.442 707.096 133.043 706.667 133.729C706.324 134.329 705.981 135.015 705.638 135.53L697.146 151.914C696.116 153.972 695.173 155.602 694.401 156.803C693.543 158.004 692.685 159.033 691.742 159.719C690.798 160.406 689.683 160.92 688.482 161.178C687.196 161.435 685.652 161.692 683.764 161.778L686.767 153.715L687.453 154.058C687.453 154.487 687.539 154.83 687.796 155.173C687.968 155.516 688.225 155.774 688.568 156.031C688.911 156.288 689.254 156.46 689.597 156.546C689.94 156.631 690.369 156.717 690.712 156.717C691.828 156.717 692.685 156.374 693.286 155.602C693.886 154.83 694.229 153.972 694.229 152.943C694.229 152.171 694.058 151.313 693.715 150.284C693.371 149.254 692.943 148.139 692.342 147.024L686.166 134.501C685.566 133.128 684.794 132.013 683.936 130.984C683.078 129.955 682.22 129.44 681.277 129.268V128.325H681.191ZM727.854 126.781C729.741 126.781 731.628 127.124 733.344 127.724C735.059 128.325 736.603 129.183 737.976 130.384C739.348 131.499 740.377 132.957 741.149 134.587C741.921 136.216 742.35 138.018 742.35 140.076C742.35 142.135 741.921 143.936 741.149 145.566C740.377 147.196 739.262 148.568 737.976 149.769C736.603 150.884 735.059 151.828 733.344 152.428C731.628 153.029 729.741 153.372 727.854 153.372C725.967 153.372 724.08 153.029 722.364 152.428C720.649 151.828 719.105 150.97 717.732 149.769C716.36 148.568 715.33 147.196 714.558 145.566C713.786 143.936 713.358 142.135 713.358 140.076C713.358 138.018 713.786 136.216 714.558 134.587C715.33 132.957 716.446 131.584 717.732 130.384C719.019 129.183 720.649 128.325 722.364 127.724C724.08 127.124 725.967 126.781 727.854 126.781ZM727.854 128.325C726.482 128.325 725.366 128.754 724.509 129.612C723.651 130.469 722.965 131.499 722.45 132.699C721.935 133.9 721.678 135.187 721.506 136.559C721.335 137.932 721.249 139.133 721.249 140.076C721.249 141.106 721.335 142.307 721.506 143.593C721.678 144.966 722.021 146.252 722.45 147.453C722.879 148.654 723.565 149.683 724.509 150.541C725.366 151.399 726.482 151.828 727.854 151.828C729.226 151.828 730.341 151.399 731.199 150.541C732.057 149.683 732.743 148.654 733.258 147.453C733.773 146.252 734.03 144.966 734.201 143.593C734.373 142.221 734.459 141.02 734.459 140.076C734.459 139.047 734.373 137.846 734.201 136.559C734.03 135.187 733.687 133.9 733.258 132.699C732.829 131.499 732.143 130.469 731.199 129.612C730.341 128.754 729.226 128.325 727.854 128.325ZM750.756 152.514C749.641 152.514 748.955 152.171 748.612 151.399C748.269 150.627 748.097 149.769 748.097 148.568C748.097 148.225 748.097 147.711 748.097 147.11C748.097 146.51 748.097 145.909 748.183 145.223C748.183 144.537 748.183 143.936 748.269 143.25C748.269 142.65 748.269 142.049 748.269 141.62V130.812H744.838L745.267 128.325C746.296 128.239 747.24 127.896 748.097 127.467C749.041 127.038 749.899 126.524 750.671 125.923C751.443 125.323 752.215 124.636 752.901 123.864C753.587 123.092 754.187 122.32 754.788 121.548H755.303V128.325H761.135L760.192 130.812H755.303V145.566C755.303 146.338 755.303 147.11 755.388 147.882C755.474 148.654 755.646 149.254 755.903 149.855C756.16 150.455 756.503 150.884 756.932 151.227C757.361 151.57 758.048 151.742 758.82 151.828V152.514H750.756Z" fill="url(#paint0_linear_1_111)"/>
<defs>
<linearGradient id="paint0_linear_1_111" x1="-75.7264" y1="204.901" x2="758.729" y2="-23.1382" gradientUnits="userSpaceOnUse">
<stop stop-color="#B78B32"/>
<stop offset="0.3144" stop-color="#D3AE6F"/>
<stop offset="1" stop-color="#FAE298"/>
</linearGradient>
</defs>
</svg>
